<svg version="1.1" xmlns="http://www.w3.org/2000/svg" xmlns:xlink="http://www.w3.org/1999/xlink" width="1706" height="990"><defs><clipPath id="xCSenpcQxWPw"><path fill="none" stroke="none" d=" M 0 0 L 1706 0 L 1706 990 L 0 990 L 0 0 Z"/></clipPath></defs><g transform="scale(1,1)" clip-path="url(#xCSenpcQxWPw)"><g><rect fill="rgb(255,255,255)" stroke="none" x="0" y="0" width="1707" height="991" fill-opacity="1"/><path fill="none" stroke="rgb(0,0,0)" paint-order="fill stroke markers" d=" M 833.6665099581292 526.3609667047532 C 833.6665099581292 706.3191323324431 687.7815924972039 852.2040497933679 507.8234268695131 852.2040497933679 C 327.8652612418224 852.2040497933679 181.98034378089704 706.3191323324431 181.98034378089704 526.3609667047532 C 181.98034378089704 346.40280107706326 327.8652612418224 200.51788361613853 507.8234268695131 200.51788361613853 C 687.7815924972039 200.51788361613853 833.6665099581292 346.40280107706326 833.6665099581292 526.3609667047532 Z" stroke-opacity="0.6980392156862745" stroke-linecap="round" stroke-linejoin="round" stroke-miterlimit="10" stroke-width="2.5"/><path fill="none" stroke="rgb(0,0,0)" paint-order="fill stroke markers" d=" M 833.657204028196 527.9926233201262 C 833.657204028196 628.9475428227072 751.8170716422153 710.7876752086877 650.8621521396338 710.7876752086877 C 549.9072326370524 710.7876752086877 468.0671002510716 628.9475428227072 468.0671002510716 527.9926233201262 C 468.0671002510716 427.03770381754515 549.9072326370524 345.19757143156477 650.8621521396338 345.19757143156477 C 751.8170716422153 345.19757143156477 833.657204028196 427.03770381754515 833.657204028196 527.9926233201262 Z" stroke-opacity="0.6980392156862745" stroke-linecap="round" stroke-linejoin="round" stroke-miterlimit="10" stroke-width="2.5"/><path fill="none" stroke="rgb(0,0,0)" paint-order="fill stroke markers" d=" M 653.0623631754353 526.6807413995407 C 653.0623631754353 591.4118146740453 600.5874601952328 643.8867176542475 535.8563869207279 643.8867176542475 C 471.12531364622293 643.8867176542475 418.65041066602055 591.4118146740453 418.65041066602055 526.6807413995407 C 418.65041066602055 461.949668125036 471.12531364622293 409.47476514483384 535.8563869207279 409.47476514483384 C 600.5874601952328 409.47476514483384 653.0623631754353 461.949668125036 653.0623631754353 526.6807413995407 Z" stroke-opacity="0.6980392156862745" stroke-linecap="round" stroke-linejoin="round" stroke-miterlimit="10" stroke-width="2.5"/><path fill="none" stroke="rgb(0,0,0)" paint-order="fill stroke markers" d=" M 805.5856816938867 236.35384294188032 C 805.5856816938867 318.7568849188342 738.7848175296692 385.5577490830515 656.381775552715 385.5577490830515 C 573.9787335757608 385.5577490830515 507.17786941154316 318.7568849188342 507.17786941154316 236.35384294188032 C 507.17786941154316 153.95080096492643 573.9787335757608 87.14993680070916 656.381775552715 87.14993680070916 C 738.7848175296692 87.14993680070916 805.5856816938867 153.95080096492643 805.5856816938867 236.35384294188032 Z" stroke-opacity="0.6980392156862745" stroke-linecap="round" stroke-linejoin="round" stroke-miterlimit="10" stroke-width="2.5"/><path fill="none" stroke="rgb(0,0,0)" paint-order="fill stroke markers" d=" M 919.2786118857593 332.9753893596927 C 919.2786118857593 415.3784313366465 852.4777477215417 482.17929550086376 770.0747057445876 482.17929550086376 C 687.6716637676334 482.17929550086376 620.8707996034159 415.3784313366465 620.8707996034159 332.9753893596927 C 620.8707996034159 250.57234738273888 687.6716637676334 183.77148321852167 770.0747057445876 183.77148321852167 C 852.4777477215417 183.77148321852167 919.2786118857593 250.57234738273888 919.2786118857593 332.9753893596927 Z" stroke-opacity="0.6980392156862745" stroke-linecap="round" stroke-linejoin="round" stroke-miterlimit="10" stroke-width="2.5"/><path fill="none" stroke="rgb(0,0,0)" paint-order="fill stroke markers" d=" M 888.9105275441854 470.1447506340193 C 888.9105275441854 503.35364006300364 861.9894035350677 530.2747640721212 828.7805141060833 530.2747640721212 C 795.5716246770987 530.2747640721212 768.6505006679811 503.35364006300364 768.6505006679811 470.1447506340193 C 768.6505006679811 436.93586120503494 795.5716246770987 410.0147371959174 828.7805141060833 410.0147371959174 C 861.9894035350677 410.0147371959174 888.9105275441854 436.93586120503494 888.9105275441854 470.1447506340193 Z" stroke-opacity="0.6980392156862745" stroke-linecap="round" stroke-linejoin="round" stroke-miterlimit="10" stroke-width="2.5"/><path fill="rgb(0,0,0)" stroke="none" paint-order="stroke fill markers" d=" M 572.819198321657 527.1023797749613 C 572.9108010395996 519.0720528775355 571.5134797479988 511.09428057209294 568.6980080701646 503.57313302874775 L 507.8234268695131 526.3609667047532 Z" fill-opacity="0.09803921568627451"/><path fill="none" stroke="rgb(0,0,0)" paint-order="fill stroke markers" d=" M 572.819198321657 527.1023797749613 C 572.9108010395996 519.0720528775355 571.5134797479988 511.09428057209294 568.6980080701646 503.57313302874775 L 507.8234268695131 526.3609667047532 Z" stroke-opacity="0.6980392156862745" stroke-linecap="round" stroke-linejoin="round" stroke-miterlimit="10" stroke-width="2.5"/><path fill="none" stroke="rgb(0,0,0)" paint-order="fill stroke markers" d=" M 182.0015413665958 522.6442848487718 L 833.6453123724305 530.0776485607345" stroke-opacity="0.6980392156862745" stroke-linecap="round" stroke-linejoin="round" stroke-miterlimit="10" stroke-width="2.5"/><path fill="none" stroke="rgb(0,0,0)" paint-order="fill stroke markers" d=" M 511.54010872549446 200.53908120183723 L 507.8234268695131 526.3609667047532" stroke-opacity="0.6980392156862745" stroke-linecap="round" stroke-linejoin="round" stroke-miterlimit="10" stroke-width="2.5"/><path fill="none" stroke="rgb(0,0,0)" paint-order="fill stroke markers" d=" M 508.75259733350845 444.9054953290242 L 833.6453123724305 530.0776485607345" stroke-opacity="0.6980392156862745" stroke-linecap="round" stroke-linejoin="round" stroke-miterlimit="10" stroke-width="2.5"/><path fill="none" stroke="rgb(0,0,0)" paint-order="fill stroke markers" d=" M 508.75259733350845 444.9054953290242 L 535.8563869207279 526.6807413995407" stroke-opacity="0.6980392156862745" stroke-linecap="round" stroke-linejoin="round" stroke-miterlimit="10" stroke-width="2.5"/><path fill="none" stroke="rgb(0,0,0)" paint-order="fill stroke markers" d=" M 508.75259733350845 444.9054953290242 L 468.0789919068373 525.9075980795179" stroke-opacity="0.6980392156862745" stroke-linecap="round" stroke-linejoin="round" stroke-miterlimit="10" stroke-width="2.5"/><path fill="none" stroke="rgb(0,0,0)" paint-order="fill stroke markers" d=" M 656.381775552715 236.35384294188032 L 653.0547383895951 528.0176343641828" stroke-opacity="0.6980392156862745" stroke-linecap="round" stroke-linejoin="round" stroke-miterlimit="10" stroke-width="2.5"/><path fill="none" stroke="rgb(0,0,0)" paint-order="fill stroke markers" d=" M 507.8234268695131 526.3609667047532 L 812.9859071794914 412.1262285216734" stroke-opacity="0.6980392156862745" stroke-linecap="round" stroke-linejoin="round" stroke-miterlimit="10" stroke-width="2.5"/><path fill="rgb(0,0,0)" stroke="none" paint-order="stroke fill markers" d=" M 513.8234268695131 526.3609667047532 C 513.8234268695131 529.6746752037379 511.13713536849787 532.3609667047532 507.8234268695131 532.3609667047532 C 504.5097183705284 532.3609667047532 501.8234268695131 529.6746752037379 501.8234268695131 526.3609667047532 C 501.8234268695131 523.0472582057685 504.5097183705284 520.3609667047532 507.8234268695131 520.3609667047532 C 511.13713536849787 520.3609667047532 513.8234268695131 523.0472582057685 513.8234268695131 526.3609667047532 Z" fill-opacity="1"/><path fill="none" stroke="rgb(0,0,0)" paint-order="fill stroke markers" d=" M 513.8234268695131 526.3609667047532 C 513.8234268695131 529.6746752037379 511.13713536849787 532.3609667047532 507.8234268695131 532.3609667047532 C 504.5097183705284 532.3609667047532 501.8234268695131 529.6746752037379 501.8234268695131 526.3609667047532 C 501.8234268695131 523.0472582057685 504.5097183705284 520.3609667047532 507.8234268695131 520.3609667047532 C 511.13713536849787 520.3609667047532 513.8234268695131 523.0472582057685 513.8234268695131 526.3609667047532 Z" stroke-opacity="1" stroke-linecap="round" stroke-linejoin="round" stroke-miterlimit="10"/><text fill="rgb(0,0,0)" stroke="none" font-family="geogebra-sans-serif, sans-serif" font-size="16px" font-style="normal" font-weight="normal" text-decoration="normal" x="504" y="550" text-anchor="start" dominant-baseline="alphabetic" fill-opacity="1">O</text><text fill="none" stroke="rgb(255,255,255)" font-family="geogebra-sans-serif, sans-serif" font-size="16px" font-style="normal" font-weight="normal" text-decoration="normal" x="504" y="550" text-anchor="start" dominant-baseline="alphabetic" stroke-opacity="1" stroke-linejoin="bevel" stroke-miterlimit="10" stroke-width="3">O</text><text fill="rgb(0,0,0)" stroke="none" font-family="geogebra-sans-serif, sans-serif" font-size="16px" font-style="normal" font-weight="normal" text-decoration="normal" x="504" y="550" text-anchor="start" dominant-baseline="alphabetic" fill-opacity="1">O</text><path fill="rgb(0,0,0)" stroke="none" paint-order="stroke fill markers" d=" M 188.0015413665958 522.6442848487718 C 188.0015413665958 525.9579933477565 185.31524986558057 528.6442848487718 182.0015413665958 528.6442848487718 C 178.68783286761104 528.6442848487718 176.0015413665958 525.9579933477565 176.0015413665958 522.6442848487718 C 176.0015413665958 519.3305763497871 178.68783286761104 516.6442848487718 182.0015413665958 516.6442848487718 C 185.31524986558057 516.6442848487718 188.0015413665958 519.3305763497871 188.0015413665958 522.6442848487718 Z" fill-opacity="1"/><path fill="none" stroke="rgb(0,0,0)" paint-order="fill stroke markers" d=" M 188.0015413665958 522.6442848487718 C 188.0015413665958 525.9579933477565 185.31524986558057 528.6442848487718 182.0015413665958 528.6442848487718 C 178.68783286761104 528.6442848487718 176.0015413665958 525.9579933477565 176.0015413665958 522.6442848487718 C 176.0015413665958 519.3305763497871 178.68783286761104 516.6442848487718 182.0015413665958 516.6442848487718 C 185.31524986558057 516.6442848487718 188.0015413665958 519.3305763497871 188.0015413665958 522.6442848487718 Z" stroke-opacity="1" stroke-linecap="round" stroke-linejoin="round" stroke-miterlimit="10"/><text fill="rgb(0,0,0)" stroke="none" font-family="geogebra-sans-serif, sans-serif" font-size="16px" font-style="normal" font-weight="normal" text-decoration="normal" x="156" y="539" text-anchor="start" dominant-baseline="alphabetic" fill-opacity="1">A</text><text fill="none" stroke="rgb(255,255,255)" font-family="geogebra-sans-serif, sans-serif" font-size="16px" font-style="normal" font-weight="normal" text-decoration="normal" x="156" y="539" text-anchor="start" dominant-baseline="alphabetic" stroke-opacity="1" stroke-linejoin="bevel" stroke-miterlimit="10" stroke-width="3">A</text><text fill="rgb(0,0,0)" stroke="none" font-family="geogebra-sans-serif, sans-serif" font-size="16px" font-style="normal" font-weight="normal" text-decoration="normal" x="156" y="539" text-anchor="start" dominant-baseline="alphabetic" fill-opacity="1">A</text><path fill="rgb(0,0,0)" stroke="none" paint-order="stroke fill markers" d=" M 839.6453123724305 530.0776485607345 C 839.6453123724305 533.3913570597192 836.9590208714152 536.0776485607345 833.6453123724305 536.0776485607345 C 830.3316038734457 536.0776485607345 827.6453123724305 533.3913570597192 827.6453123724305 530.0776485607345 C 827.6453123724305 526.7639400617497 830.3316038734457 524.0776485607345 833.6453123724305 524.0776485607345 C 836.9590208714152 524.0776485607345 839.6453123724305 526.7639400617497 839.6453123724305 530.0776485607345 Z" fill-opacity="1"/><path fill="none" stroke="rgb(0,0,0)" paint-order="fill stroke markers" d=" M 839.6453123724305 530.0776485607345 C 839.6453123724305 533.3913570597192 836.9590208714152 536.0776485607345 833.6453123724305 536.0776485607345 C 830.3316038734457 536.0776485607345 827.6453123724305 533.3913570597192 827.6453123724305 530.0776485607345 C 827.6453123724305 526.7639400617497 830.3316038734457 524.0776485607345 833.6453123724305 524.0776485607345 C 836.9590208714152 524.0776485607345 839.6453123724305 526.7639400617497 839.6453123724305 530.0776485607345 Z" stroke-opacity="1" stroke-linecap="round" stroke-linejoin="round" stroke-miterlimit="10"/><text fill="rgb(0,0,0)" stroke="none" font-family="geogebra-sans-serif, sans-serif" font-size="16px" font-style="normal" font-weight="normal" text-decoration="normal" x="844" y="548" text-anchor="start" dominant-baseline="alphabetic" fill-opacity="1">B</text><text fill="none" stroke="rgb(255,255,255)" font-family="geogebra-sans-serif, sans-serif" font-size="16px" font-style="normal" font-weight="normal" text-decoration="normal" x="844" y="548" text-anchor="start" dominant-baseline="alphabetic" stroke-opacity="1" stroke-linejoin="bevel" stroke-miterlimit="10" stroke-width="3">B</text><text fill="rgb(0,0,0)" stroke="none" font-family="geogebra-sans-serif, sans-serif" font-size="16px" font-style="normal" font-weight="normal" text-decoration="normal" x="844" y="548" text-anchor="start" dominant-baseline="alphabetic" fill-opacity="1">B</text><path fill="rgb(0,0,0)" stroke="none" paint-order="stroke fill markers" d=" M 517.5401087254945 200.53908120183723 C 517.5401087254945 203.852789700822 514.8538172244793 206.53908120183723 511.54010872549446 206.53908120183723 C 508.2264002265097 206.53908120183723 505.54010872549446 203.852789700822 505.54010872549446 200.53908120183723 C 505.54010872549446 197.22537270285247 508.2264002265097 194.53908120183723 511.54010872549446 194.53908120183723 C 514.8538172244793 194.53908120183723 517.5401087254945 197.22537270285247 517.5401087254945 200.53908120183723 Z" fill-opacity="1"/><path fill="none" stroke="rgb(0,0,0)" paint-order="fill stroke markers" d=" M 517.5401087254945 200.53908120183723 C 517.5401087254945 203.852789700822 514.8538172244793 206.53908120183723 511.54010872549446 206.53908120183723 C 508.2264002265097 206.53908120183723 505.54010872549446 203.852789700822 505.54010872549446 200.53908120183723 C 505.54010872549446 197.22537270285247 508.2264002265097 194.53908120183723 511.54010872549446 194.53908120183723 C 514.8538172244793 194.53908120183723 517.5401087254945 197.22537270285247 517.5401087254945 200.53908120183723 Z" stroke-opacity="1" stroke-linecap="round" stroke-linejoin="round" stroke-miterlimit="10"/><text fill="rgb(0,0,0)" stroke="none" font-family="geogebra-sans-serif, sans-serif" font-size="16px" font-style="normal" font-weight="normal" text-decoration="normal" x="507" y="185" text-anchor="start" dominant-baseline="alphabetic" fill-opacity="1">C</text><text fill="none" stroke="rgb(255,255,255)" font-family="geogebra-sans-serif, sans-serif" font-size="16px" font-style="normal" font-weight="normal" text-decoration="normal" x="507" y="185" text-anchor="start" dominant-baseline="alphabetic" stroke-opacity="1" stroke-linejoin="bevel" stroke-miterlimit="10" stroke-width="3">C</text><text fill="rgb(0,0,0)" stroke="none" font-family="geogebra-sans-serif, sans-serif" font-size="16px" font-style="normal" font-weight="normal" text-decoration="normal" x="507" y="185" text-anchor="start" dominant-baseline="alphabetic" fill-opacity="1">C</text><path fill="rgb(0,0,0)" stroke="none" paint-order="stroke fill markers" d=" M 514.7525973335084 444.9054953290242 C 514.7525973335084 448.2192038280089 512.0663058324932 450.9054953290242 508.75259733350845 450.9054953290242 C 505.4388888345237 450.9054953290242 502.75259733350845 448.2192038280089 502.75259733350845 444.9054953290242 C 502.75259733350845 441.59178683003944 505.4388888345237 438.9054953290242 508.75259733350845 438.9054953290242 C 512.0663058324932 438.9054953290242 514.7525973335084 441.59178683003944 514.7525973335084 444.9054953290242 Z" fill-opacity="1"/><path fill="none" stroke="rgb(0,0,0)" paint-order="fill stroke markers" d=" M 514.7525973335084 444.9054953290242 C 514.7525973335084 448.2192038280089 512.0663058324932 450.9054953290242 508.75259733350845 450.9054953290242 C 505.4388888345237 450.9054953290242 502.75259733350845 448.2192038280089 502.75259733350845 444.9054953290242 C 502.75259733350845 441.59178683003944 505.4388888345237 438.9054953290242 508.75259733350845 438.9054953290242 C 512.0663058324932 438.9054953290242 514.7525973335084 441.59178683003944 514.7525973335084 444.9054953290242 Z" stroke-opacity="1" stroke-linecap="round" stroke-linejoin="round" stroke-miterlimit="10"/><text fill="rgb(0,0,0)" stroke="none" font-family="geogebra-sans-serif, sans-serif" font-size="16px" font-style="normal" font-weight="normal" text-decoration="normal" x="513" y="433" text-anchor="start" dominant-baseline="alphabetic" fill-opacity="1">D</text><text fill="none" stroke="rgb(255,255,255)" font-family="geogebra-sans-serif, sans-serif" font-size="16px" font-style="normal" font-weight="normal" text-decoration="normal" x="513" y="433" text-anchor="start" dominant-baseline="alphabetic" stroke-opacity="1" stroke-linejoin="bevel" stroke-miterlimit="10" stroke-width="3">D</text><text fill="rgb(0,0,0)" stroke="none" font-family="geogebra-sans-serif, sans-serif" font-size="16px" font-style="normal" font-weight="normal" text-decoration="normal" x="513" y="433" text-anchor="start" dominant-baseline="alphabetic" fill-opacity="1">D</text><path fill="rgb(0,0,0)" stroke="none" paint-order="stroke fill markers" d=" M 541.8563869207279 526.6807413995407 C 541.8563869207279 529.9944498985254 539.1700954197127 532.6807413995407 535.8563869207279 532.6807413995407 C 532.5426784217432 532.6807413995407 529.8563869207279 529.9944498985254 529.8563869207279 526.6807413995407 C 529.8563869207279 523.367032900556 532.5426784217432 520.6807413995407 535.8563869207279 520.6807413995407 C 539.1700954197127 520.6807413995407 541.8563869207279 523.367032900556 541.8563869207279 526.6807413995407 Z" fill-opacity="1"/><path fill="none" stroke="rgb(0,0,0)" paint-order="fill stroke markers" d=" M 541.8563869207279 526.6807413995407 C 541.8563869207279 529.9944498985254 539.1700954197127 532.6807413995407 535.8563869207279 532.6807413995407 C 532.5426784217432 532.6807413995407 529.8563869207279 529.9944498985254 529.8563869207279 526.6807413995407 C 529.8563869207279 523.367032900556 532.5426784217432 520.6807413995407 535.8563869207279 520.6807413995407 C 539.1700954197127 520.6807413995407 541.8563869207279 523.367032900556 541.8563869207279 526.6807413995407 Z" stroke-opacity="1" stroke-linecap="round" stroke-linejoin="round" stroke-miterlimit="10"/><text fill="rgb(0,0,0)" stroke="none" font-family="geogebra-sans-serif, sans-serif" font-size="16px" font-style="normal" font-weight="normal" text-decoration="normal" x="537" y="552" text-anchor="start" dominant-baseline="alphabetic" fill-opacity="1">E</text><text fill="none" stroke="rgb(255,255,255)" font-family="geogebra-sans-serif, sans-serif" font-size="16px" font-style="normal" font-weight="normal" text-decoration="normal" x="537" y="552" text-anchor="start" dominant-baseline="alphabetic" stroke-opacity="1" stroke-linejoin="bevel" stroke-miterlimit="10" stroke-width="3">E</text><text fill="rgb(0,0,0)" stroke="none" font-family="geogebra-sans-serif, sans-serif" font-size="16px" font-style="normal" font-weight="normal" text-decoration="normal" x="537" y="552" text-anchor="start" dominant-baseline="alphabetic" fill-opacity="1">E</text><path fill="rgb(0,0,0)" stroke="none" paint-order="stroke fill markers" d=" M 474.0789919068373 525.9075980795179 C 474.0789919068373 529.2213065785027 471.39270040582204 531.9075980795179 468.0789919068373 531.9075980795179 C 464.76528340785256 531.9075980795179 462.0789919068373 529.2213065785027 462.0789919068373 525.9075980795179 C 462.0789919068373 522.5938895805332 464.76528340785256 519.9075980795179 468.0789919068373 519.9075980795179 C 471.39270040582204 519.9075980795179 474.0789919068373 522.5938895805332 474.0789919068373 525.9075980795179 Z" fill-opacity="1"/><path fill="none" stroke="rgb(0,0,0)" paint-order="fill stroke markers" d=" M 474.0789919068373 525.9075980795179 C 474.0789919068373 529.2213065785027 471.39270040582204 531.9075980795179 468.0789919068373 531.9075980795179 C 464.76528340785256 531.9075980795179 462.0789919068373 529.2213065785027 462.0789919068373 525.9075980795179 C 462.0789919068373 522.5938895805332 464.76528340785256 519.9075980795179 468.0789919068373 519.9075980795179 C 471.39270040582204 519.9075980795179 474.0789919068373 522.5938895805332 474.0789919068373 525.9075980795179 Z" stroke-opacity="1" stroke-linecap="round" stroke-linejoin="round" stroke-miterlimit="10"/><text fill="rgb(0,0,0)" stroke="none" font-family="geogebra-sans-serif, sans-serif" font-size="16px" font-style="normal" font-weight="normal" text-decoration="normal" x="473" y="544" text-anchor="start" dominant-baseline="alphabetic" fill-opacity="1">F</text><text fill="none" stroke="rgb(255,255,255)" font-family="geogebra-sans-serif, sans-serif" font-size="16px" font-style="normal" font-weight="normal" text-decoration="normal" x="473" y="544" text-anchor="start" dominant-baseline="alphabetic" stroke-opacity="1" stroke-linejoin="bevel" stroke-miterlimit="10" stroke-width="3">F</text><text fill="rgb(0,0,0)" stroke="none" font-family="geogebra-sans-serif, sans-serif" font-size="16px" font-style="normal" font-weight="normal" text-decoration="normal" x="473" y="544" text-anchor="start" dominant-baseline="alphabetic" fill-opacity="1">F</text><path fill="rgb(0,0,0)" stroke="none" paint-order="stroke fill markers" d=" M 515.1215127462882 412.5646278454252 C 515.1215127462882 415.87833634440995 512.4352212452729 418.5646278454252 509.1215127462882 418.5646278454252 C 505.80780424730347 418.5646278454252 503.1215127462882 415.87833634440995 503.1215127462882 412.5646278454252 C 503.1215127462882 409.25091934644047 505.80780424730347 406.5646278454252 509.1215127462882 406.5646278454252 C 512.4352212452729 406.5646278454252 515.1215127462882 409.25091934644047 515.1215127462882 412.5646278454252 Z" fill-opacity="1"/><path fill="none" stroke="rgb(0,0,0)" paint-order="fill stroke markers" d=" M 515.1215127462882 412.5646278454252 C 515.1215127462882 415.87833634440995 512.4352212452729 418.5646278454252 509.1215127462882 418.5646278454252 C 505.80780424730347 418.5646278454252 503.1215127462882 415.87833634440995 503.1215127462882 412.5646278454252 C 503.1215127462882 409.25091934644047 505.80780424730347 406.5646278454252 509.1215127462882 406.5646278454252 C 512.4352212452729 406.5646278454252 515.1215127462882 409.25091934644047 515.1215127462882 412.5646278454252 Z" stroke-opacity="1" stroke-linecap="round" stroke-linejoin="round" stroke-miterlimit="10"/><text fill="rgb(0,0,0)" stroke="none" font-family="geogebra-sans-serif, sans-serif" font-size="16px" font-style="normal" font-weight="normal" text-decoration="normal" x="485" y="404" text-anchor="start" dominant-baseline="alphabetic" fill-opacity="1">G</text><text fill="none" stroke="rgb(255,255,255)" font-family="geogebra-sans-serif, sans-serif" font-size="16px" font-style="normal" font-weight="normal" text-decoration="normal" x="485" y="404" text-anchor="start" dominant-baseline="alphabetic" stroke-opacity="1" stroke-linejoin="bevel" stroke-miterlimit="10" stroke-width="3">G</text><text fill="rgb(0,0,0)" stroke="none" font-family="geogebra-sans-serif, sans-serif" font-size="16px" font-style="normal" font-weight="normal" text-decoration="normal" x="485" y="404" text-anchor="start" dominant-baseline="alphabetic" fill-opacity="1">G</text><path fill="rgb(0,0,0)" stroke="none" paint-order="stroke fill markers" d=" M 659.0547383895951 528.0176343641828 C 659.0547383895951 531.3313428631675 656.3684468885798 534.0176343641828 653.0547383895951 534.0176343641828 C 649.7410298906103 534.0176343641828 647.0547383895951 531.3313428631675 647.0547383895951 528.0176343641828 C 647.0547383895951 524.703925865198 649.7410298906103 522.0176343641828 653.0547383895951 522.0176343641828 C 656.3684468885798 522.0176343641828 659.0547383895951 524.703925865198 659.0547383895951 528.0176343641828 Z" fill-opacity="1"/><path fill="none" stroke="rgb(0,0,0)" paint-order="fill stroke markers" d=" M 659.0547383895951 528.0176343641828 C 659.0547383895951 531.3313428631675 656.3684468885798 534.0176343641828 653.0547383895951 534.0176343641828 C 649.7410298906103 534.0176343641828 647.0547383895951 531.3313428631675 647.0547383895951 528.0176343641828 C 647.0547383895951 524.703925865198 649.7410298906103 522.0176343641828 653.0547383895951 522.0176343641828 C 656.3684468885798 522.0176343641828 659.0547383895951 524.703925865198 659.0547383895951 528.0176343641828 Z" stroke-opacity="1" stroke-linecap="round" stroke-linejoin="round" stroke-miterlimit="10"/><text fill="rgb(0,0,0)" stroke="none" font-family="geogebra-sans-serif, sans-serif" font-size="16px" font-style="normal" font-weight="normal" text-decoration="normal" x="656" y="552" text-anchor="start" dominant-baseline="alphabetic" fill-opacity="1">H</text><text fill="none" stroke="rgb(255,255,255)" font-family="geogebra-sans-serif, sans-serif" font-size="16px" font-style="normal" font-weight="normal" text-decoration="normal" x="656" y="552" text-anchor="start" dominant-baseline="alphabetic" stroke-opacity="1" stroke-linejoin="bevel" stroke-miterlimit="10" stroke-width="3">H</text><text fill="rgb(0,0,0)" stroke="none" font-family="geogebra-sans-serif, sans-serif" font-size="16px" font-style="normal" font-weight="normal" text-decoration="normal" x="656" y="552" text-anchor="start" dominant-baseline="alphabetic" fill-opacity="1">H</text><path fill="rgb(0,0,0)" stroke="none" paint-order="stroke fill markers" d=" M 662.381775552715 236.35384294188032 C 662.381775552715 239.66755144086508 659.6954840516997 242.35384294188032 656.381775552715 242.35384294188032 C 653.0680670537303 242.35384294188032 650.381775552715 239.66755144086508 650.381775552715 236.35384294188032 C 650.381775552715 233.04013444289555 653.0680670537303 230.35384294188032 656.381775552715 230.35384294188032 C 659.6954840516997 230.35384294188032 662.381775552715 233.04013444289555 662.381775552715 236.35384294188032 Z" fill-opacity="1"/><path fill="none" stroke="rgb(0,0,0)" paint-order="fill stroke markers" d=" M 662.381775552715 236.35384294188032 C 662.381775552715 239.66755144086508 659.6954840516997 242.35384294188032 656.381775552715 242.35384294188032 C 653.0680670537303 242.35384294188032 650.381775552715 239.66755144086508 650.381775552715 236.35384294188032 C 650.381775552715 233.04013444289555 653.0680670537303 230.35384294188032 656.381775552715 230.35384294188032 C 659.6954840516997 230.35384294188032 662.381775552715 233.04013444289555 662.381775552715 236.35384294188032 Z" stroke-opacity="1" stroke-linecap="round" stroke-linejoin="round" stroke-miterlimit="10"/><text fill="rgb(0,0,0)" stroke="none" font-family="geogebra-sans-serif, sans-serif" font-size="16px" font-style="normal" font-weight="normal" text-decoration="normal" x="660" y="224" text-anchor="start" dominant-baseline="alphabetic" fill-opacity="1">I</text><text fill="none" stroke="rgb(255,255,255)" font-family="geogebra-sans-serif, sans-serif" font-size="16px" font-style="normal" font-weight="normal" text-decoration="normal" x="660" y="224" text-anchor="start" dominant-baseline="alphabetic" stroke-opacity="1" stroke-linejoin="bevel" stroke-miterlimit="10" stroke-width="3">I</text><text fill="rgb(0,0,0)" stroke="none" font-family="geogebra-sans-serif, sans-serif" font-size="16px" font-style="normal" font-weight="normal" text-decoration="normal" x="660" y="224" text-anchor="start" dominant-baseline="alphabetic" fill-opacity="1">I</text><path fill="rgb(68,68,68)" stroke="none" paint-order="stroke fill markers" d=" M 774.0747057445876 332.9753893596927 C 774.0747057445876 335.18452835901587 772.2838447439108 336.9753893596927 770.0747057445876 336.9753893596927 C 767.8655667452645 336.9753893596927 766.0747057445876 335.18452835901587 766.0747057445876 332.9753893596927 C 766.0747057445876 330.76625036036955 767.8655667452645 328.9753893596927 770.0747057445876 328.9753893596927 C 772.2838447439108 328.9753893596927 774.0747057445876 330.76625036036955 774.0747057445876 332.9753893596927 Z" fill-opacity="1"/><path fill="none" stroke="rgb(0,0,0)" paint-order="fill stroke markers" d=" M 774.0747057445876 332.9753893596927 C 774.0747057445876 335.18452835901587 772.2838447439108 336.9753893596927 770.0747057445876 336.9753893596927 C 767.8655667452645 336.9753893596927 766.0747057445876 335.18452835901587 766.0747057445876 332.9753893596927 C 766.0747057445876 330.76625036036955 767.8655667452645 328.9753893596927 770.0747057445876 328.9753893596927 C 772.2838447439108 328.9753893596927 774.0747057445876 330.76625036036955 774.0747057445876 332.9753893596927 Z" stroke-opacity="1" stroke-linecap="round" stroke-linejoin="round" stroke-miterlimit="10"/><text fill="rgb(68,68,68)" stroke="none" font-family="geogebra-sans-serif, sans-serif" font-size="16px" font-style="normal" font-weight="normal" text-decoration="normal" x="788" y="339" text-anchor="start" dominant-baseline="alphabetic" fill-opacity="1">J</text><text fill="none" stroke="rgb(255,255,255)" font-family="geogebra-sans-serif, sans-serif" font-size="16px" font-style="normal" font-weight="normal" text-decoration="normal" x="788" y="339" text-anchor="start" dominant-baseline="alphabetic" stroke-opacity="1" stroke-linejoin="bevel" stroke-miterlimit="10" stroke-width="3">J</text><text fill="rgb(68,68,68)" stroke="none" font-family="geogebra-sans-serif, sans-serif" font-size="16px" font-style="normal" font-weight="normal" text-decoration="normal" x="788" y="339" text-anchor="start" dominant-baseline="alphabetic" fill-opacity="1">J</text><path fill="rgb(68,68,68)" stroke="none" paint-order="stroke fill markers" d=" M 832.7805141060833 470.1447506340193 C 832.7805141060833 472.3538896333425 830.9896531054064 474.1447506340193 828.7805141060833 474.1447506340193 C 826.5713751067601 474.1447506340193 824.7805141060833 472.3538896333425 824.7805141060833 470.1447506340193 C 824.7805141060833 467.93561163469616 826.5713751067601 466.1447506340193 828.7805141060833 466.1447506340193 C 830.9896531054064 466.1447506340193 832.7805141060833 467.93561163469616 832.7805141060833 470.1447506340193 Z" fill-opacity="1"/><path fill="none" stroke="rgb(0,0,0)" paint-order="fill stroke markers" d=" M 832.7805141060833 470.1447506340193 C 832.7805141060833 472.3538896333425 830.9896531054064 474.1447506340193 828.7805141060833 474.1447506340193 C 826.5713751067601 474.1447506340193 824.7805141060833 472.3538896333425 824.7805141060833 470.1447506340193 C 824.7805141060833 467.93561163469616 826.5713751067601 466.1447506340193 828.7805141060833 466.1447506340193 C 830.9896531054064 466.1447506340193 832.7805141060833 467.93561163469616 832.7805141060833 470.1447506340193 Z" stroke-opacity="1" stroke-linecap="round" stroke-linejoin="round" stroke-miterlimit="10"/><text fill="rgb(68,68,68)" stroke="none" font-family="geogebra-sans-serif, sans-serif" font-size="16px" font-style="normal" font-weight="normal" text-decoration="normal" x="833" y="462" text-anchor="start" dominant-baseline="alphabetic" fill-opacity="1">K</text><text fill="none" stroke="rgb(255,255,255)" font-family="geogebra-sans-serif, sans-serif" font-size="16px" font-style="normal" font-weight="normal" text-decoration="normal" x="833" y="462" text-anchor="start" dominant-baseline="alphabetic" stroke-opacity="1" stroke-linejoin="bevel" stroke-miterlimit="10" stroke-width="3">K</text><text fill="rgb(68,68,68)" stroke="none" font-family="geogebra-sans-serif, sans-serif" font-size="16px" font-style="normal" font-weight="normal" text-decoration="normal" x="833" y="462" text-anchor="start" dominant-baseline="alphabetic" fill-opacity="1">K</text><path fill="rgb(68,68,68)" stroke="none" paint-order="stroke fill markers" d=" M 816.9859071794914 412.1262285216734 C 816.9859071794914 414.33536752099656 815.1950461788146 416.1262285216734 812.9859071794914 416.1262285216734 C 810.7767681801682 416.1262285216734 808.9859071794914 414.33536752099656 808.9859071794914 412.1262285216734 C 808.9859071794914 409.91708952235024 810.7767681801682 408.1262285216734 812.9859071794914 408.1262285216734 C 815.1950461788146 408.1262285216734 816.9859071794914 409.91708952235024 816.9859071794914 412.1262285216734 Z" fill-opacity="1"/><path fill="none" stroke="rgb(0,0,0)" paint-order="fill stroke markers" d=" M 816.9859071794914 412.1262285216734 C 816.9859071794914 414.33536752099656 815.1950461788146 416.1262285216734 812.9859071794914 416.1262285216734 C 810.7767681801682 416.1262285216734 808.9859071794914 414.33536752099656 808.9859071794914 412.1262285216734 C 808.9859071794914 409.91708952235024 810.7767681801682 408.1262285216734 812.9859071794914 408.1262285216734 C 815.1950461788146 408.1262285216734 816.9859071794914 409.91708952235024 816.9859071794914 412.1262285216734 Z" stroke-opacity="1" stroke-linecap="round" stroke-linejoin="round" stroke-miterlimit="10"/><text fill="rgb(68,68,68)" stroke="none" font-family="geogebra-sans-serif, sans-serif" font-size="16px" font-style="normal" font-weight="normal" text-decoration="normal" x="817" y="404" text-anchor="start" dominant-baseline="alphabetic" fill-opacity="1">L</text><text fill="none" stroke="rgb(255,255,255)" font-family="geogebra-sans-serif, sans-serif" font-size="16px" font-style="normal" font-weight="normal" text-decoration="normal" x="817" y="404" text-anchor="start" dominant-baseline="alphabetic" stroke-opacity="1" stroke-linejoin="bevel" stroke-miterlimit="10" stroke-width="3">L</text><text fill="rgb(68,68,68)" stroke="none" font-family="geogebra-sans-serif, sans-serif" font-size="16px" font-style="normal" font-weight="normal" text-decoration="normal" x="817" y="404" text-anchor="start" dominant-baseline="alphabetic" fill-opacity="1">L</text><text fill="rgb(0,0,0)" stroke="none" font-family="geogebra-sans-serif, sans-serif" font-size="22px" font-style="normal" font-weight="normal" text-decoration="normal" x="953" y="360" text-anchor="start" dominant-baseline="alphabetic" fill-opacity="1">1. 给定圆O，作直径AB；</text><text fill="rgb(0,0,0)" stroke="none" font-family="geogebra-sans-serif, sans-serif" font-size="22px" font-style="normal" font-weight="normal" text-decoration="normal" x="953" y="393" text-anchor="start" dominant-baseline="alphabetic" fill-opacity="1">2. 作半径OC，使得OC⊥AB；</text><text fill="rgb(0,0,0)" stroke="none" font-family="geogebra-sans-serif, sans-serif" font-size="22px" font-style="normal" font-weight="normal" text-decoration="normal" x="953" y="426" text-anchor="start" dominant-baseline="alphabetic" fill-opacity="1">3. 在线段OC上作点D，使得OD=OC/4；</text><text fill="rgb(0,0,0)" stroke="none" font-family="geogebra-sans-serif, sans-serif" font-size="22px" font-style="normal" font-weight="normal" text-decoration="normal" x="953" y="459" text-anchor="start" dominant-baseline="alphabetic" fill-opacity="1">4. 在线段OB上作点E，使得∠ODE=∠ODB/4；</text><text fill="rgb(0,0,0)" stroke="none" font-family="geogebra-sans-serif, sans-serif" font-size="22px" font-style="normal" font-weight="normal" text-decoration="normal" x="953" y="492" text-anchor="start" dominant-baseline="alphabetic" fill-opacity="1">5. 在线段OA上作点F，使得∠EDF=45°；</text><text fill="rgb(0,0,0)" stroke="none" font-family="geogebra-sans-serif, sans-serif" font-size="22px" font-style="normal" font-weight="normal" text-decoration="normal" x="953" y="525" text-anchor="start" dominant-baseline="alphabetic" fill-opacity="1">6. 以线段BF为直径作圆，交线段OC于点G；</text><text fill="rgb(0,0,0)" stroke="none" font-family="geogebra-sans-serif, sans-serif" font-size="22px" font-style="normal" font-weight="normal" text-decoration="normal" x="953" y="558" text-anchor="start" dominant-baseline="alphabetic" fill-opacity="1">7. 以点E为圆心，线段EG为半径作圆，交线段OB于点H；</text><text fill="rgb(0,0,0)" stroke="none" font-family="geogebra-sans-serif, sans-serif" font-size="22px" font-style="normal" font-weight="normal" text-decoration="normal" x="953" y="591" text-anchor="start" dominant-baseline="alphabetic" fill-opacity="1">8. 过点H，作线段AB的垂线，交圆O于点I；</text><text fill="rgb(0,0,0)" stroke="none" font-family="geogebra-sans-serif, sans-serif" font-size="22px" font-style="normal" font-weight="normal" text-decoration="normal" x="953" y="624" text-anchor="start" dominant-baseline="alphabetic" fill-opacity="1">9. 以点I为圆心，过点C作圆，交圆O于点J；</text><text fill="rgb(0,0,0)" stroke="none" font-family="geogebra-sans-serif, sans-serif" font-size="22px" font-style="normal" font-weight="normal" text-decoration="normal" x="953" y="657" text-anchor="start" dominant-baseline="alphabetic" fill-opacity="1">10. 以点J为圆心，过点I作圆，交圆O于点K；</text><text fill="rgb(0,0,0)" stroke="none" font-family="geogebra-sans-serif, sans-serif" font-size="22px" font-style="normal" font-weight="normal" text-decoration="normal" x="953" y="690" text-anchor="start" dominant-baseline="alphabetic" fill-opacity="1">11. 以点K为圆心，过点B作圆，交圆O于点L；</text><text fill="rgb(0,0,0)" stroke="none" font-family="geogebra-sans-serif, sans-serif" font-size="22px" font-style="normal" font-weight="normal" text-decoration="normal" x="953" y="723" text-anchor="start" dominant-baseline="alphabetic" fill-opacity="1">12. 得到角∠BOL=2π/17。</text><g transform="scale(14,14)"><g transform="translate(42.728251200848575,35.92971428571428)"><path fill="rgb(0,0,0)" stroke="none" paint-order="stroke fill markers" d=" M 0.449 -0.17400000000000002 L 0.449 -0.17400000000000002 L 0.421 0 L 0.05 0 Q 0.05 -0.025 0.056 -0.032 L 0.061 -0.037 L 0.253 -0.251 Q 0.358 -0.369 0.358 -0.47200000000000003 Q 0.358 -0.561 0.304 -0.607 L 0.303 -0.608 L 0.302 -0.608 Q 0.27 -0.635 0.224 -0.635 Q 0.152 -0.635 0.109 -0.5730000000000001 Q 0.097 -0.555 0.089 -0.533 Q 0.092 -0.534 0.10200000000000001 -0.534 Q 0.14200000000000002 -0.534 0.153 -0.498 L 0.153 -0.497 Q 0.155 -0.49 0.155 -0.482 Q 0.155 -0.442 0.117 -0.431 Q 0.109 -0.429 0.10300000000000001 -0.429 Q 0.066 -0.429 0.054 -0.46 Q 0.05 -0.47100000000000003 0.05 -0.485 Q 0.05 -0.562 0.109 -0.617 Q 0.162 -0.666 0.23700000000000002 -0.666 Q 0.34700000000000003 -0.666 0.40800000000000003 -0.592 Q 0.443 -0.549 0.448 -0.49 Q 0.449 -0.481 0.449 -0.47200000000000003 Q 0.449 -0.399 0.394 -0.333 Q 0.365 -0.299 0.304 -0.243 L 0.243 -0.189 L 0.233 -0.18 L 0.127 -0.077 L 0.307 -0.077 Q 0.395 -0.077 0.402 -0.085 Q 0.41200000000000003 -0.099 0.424 -0.17400000000000002 L 0.449 -0.17400000000000002 Z"/></g><g transform="translate(43.228251200848575,35.92971428571428)"><path fill="rgb(0,0,0)" stroke="none" paint-order="stroke fill markers" d=" M 0.265 -0.373 L 0.265 -0.373 L 0.209 -0.152 Q 0.192 -0.088 0.182 -0.054 Q 0.166 -0.005 0.152 0.005 L 0.152 0.006 Q 0.14300000000000002 0.011 0.132 0.011 Q 0.109 0.011 0.10400000000000001 -0.009000000000000001 Q 0.10300000000000001 -0.012 0.10300000000000001 -0.016 Q 0.10300000000000001 -0.025 0.111 -0.04 Q 0.20500000000000002 -0.243 0.23900000000000002 -0.373 L 0.182 -0.373 Q 0.10400000000000001 -0.373 0.055 -0.296 Q 0.046 -0.28400000000000003 0.039 -0.28400000000000003 Q 0.027 -0.28400000000000003 0.027 -0.294 Q 0.027 -0.305 0.063 -0.354 Q 0.07 -0.362 0.076 -0.37 Q 0.079 -0.374 0.083 -0.378 Q 0.085 -0.381 0.088 -0.384 Q 0.132 -0.431 0.192 -0.431 L 0.527 -0.431 Q 0.561 -0.431 0.5660000000000001 -0.41600000000000004 L 0.5660000000000001 -0.41500000000000004 Q 0.5670000000000001 -0.41200000000000003 0.5670000000000001 -0.40700000000000003 Q 0.5670000000000001 -0.373 0.518 -0.373 L 0.404 -0.373 Q 0.386 -0.28800000000000003 0.386 -0.214 Q 0.386 -0.121 0.41500000000000004 -0.049 Q 0.421 -0.035 0.421 -0.027 Q 0.421 -0.004 0.396 0.007 Q 0.388 0.011 0.38 0.011 Q 0.36 0.011 0.35000000000000003 -0.017 Q 0.34700000000000003 -0.026000000000000002 0.34400000000000003 -0.039 Q 0.336 -0.073 0.336 -0.115 Q 0.336 -0.181 0.363 -0.306 L 0.378 -0.373 L 0.265 -0.373 Z"/></g><rect fill="rgb(0,0,0)" stroke="none" x="42.728251200848575" y="36.336222785714284" width="1.1059999999999999" height="0.039999"/><g transform="translate(42.78125120084857,37.292173285714284)"><path fill="rgb(0,0,0)" stroke="none" paint-order="stroke fill markers" d=" M 0.294 -0.64 L 0.294 -0.079 Q 0.294 -0.049 0.306 -0.041 Q 0.323 -0.031 0.387 -0.031 L 0.419 -0.031 L 0.419 0 Q 0.384 -0.003 0.257 -0.003 Q 0.13 -0.003 0.095 0 L 0.095 -0.031 L 0.127 -0.031 Q 0.20400000000000001 -0.031 0.215 -0.049 L 0.216 -0.05 Q 0.22 -0.058 0.22 -0.079 L 0.22 -0.597 Q 0.168 -0.5710000000000001 0.089 -0.5710000000000001 L 0.089 -0.602 Q 0.209 -0.602 0.271 -0.666 Q 0.29 -0.666 0.293 -0.659 L 0.293 -0.659 L 0.293 -0.658 Q 0.294 -0.655 0.294 -0.64 Z"/></g><g transform="translate(43.28125120084857,37.292173285714284)"><path fill="rgb(0,0,0)" stroke="none" paint-order="stroke fill markers" d=" M 0.47600000000000003 -0.609 L 0.341 -0.419 Q 0.298 -0.359 0.279 -0.248 Q 0.268 -0.17400000000000002 0.268 -0.084 L 0.268 -0.033 Q 0.268 0.022 0.222 0.022 Q 0.176 0.022 0.176 -0.033 Q 0.176 -0.2 0.273 -0.368 L 0.299 -0.40900000000000003 L 0.41100000000000003 -0.5670000000000001 L 0.20400000000000001 -0.5670000000000001 Q 0.113 -0.5670000000000001 0.106 -0.561 Q 0.096 -0.552 0.081 -0.47000000000000003 L 0.056 -0.47000000000000003 L 0.089 -0.676 L 0.114 -0.676 Q 0.11800000000000001 -0.659 0.132 -0.653 L 0.133 -0.653 L 0.133 -0.653 Q 0.159 -0.644 0.242 -0.644 L 0.485 -0.644 Q 0.485 -0.621 0.47600000000000003 -0.609 Z"/></g></g></g></g></svg>