<svg version="1.1" xmlns="http://www.w3.org/2000/svg" xmlns:xlink="http://www.w3.org/1999/xlink" width="1706" height="990"><defs><clipPath id="UvprEcEbnwvE"><path fill="none" stroke="none" d=" M 0 0 L 1706 0 L 1706 990 L 0 990 L 0 0 Z"/></clipPath></defs><g transform="scale(1,1)" clip-path="url(#UvprEcEbnwvE)"><g><rect fill="rgb(255,255,255)" stroke="none" x="0" y="0" width="1707" height="991" fill-opacity="1"/><path fill="none" stroke="rgb(0,0,0)" paint-order="fill stroke markers" d=" M 1172.2942278903479 523.1542291177029 C 1172.2942278903479 721.4204837150675 1011.5676718803059 882.1470397251089 813.3014172829405 882.1470397251089 C 615.0351626855752 882.1470397251089 454.3086066755331 721.4204837150675 454.3086066755331 523.1542291177029 C 454.3086066755331 324.88797452033833 615.0351626855752 164.16141851029693 813.3014172829405 164.16141851029693 C 1011.5676718803059 164.16141851029693 1172.2942278903479 324.88797452033833 1172.2942278903479 523.1542291177029 Z" stroke-opacity="0.6980392156862745" stroke-linecap="round" stroke-linejoin="round" stroke-miterlimit="10" stroke-width="2.5"/><path fill="none" stroke="rgb(0,0,0)" paint-order="fill stroke markers" d=" M 1172.2839752193067 524.9518827267551 C 1172.2839752193067 636.1774762036612 1082.117816505005 726.3436349179625 970.8922230280984 726.3436349179625 C 859.6666295511919 726.3436349179625 769.5004708368903 636.1774762036612 769.5004708368903 524.9518827267551 C 769.5004708368903 413.726289249849 859.6666295511919 323.5601305355477 970.8922230280984 323.5601305355477 C 1082.117816505005 323.5601305355477 1172.2839752193067 413.726289249849 1172.2839752193067 524.9518827267551 Z" stroke-opacity="0.6980392156862745" stroke-linecap="round" stroke-linejoin="round" stroke-miterlimit="10" stroke-width="2.5"/><path fill="none" stroke="rgb(0,0,0)" paint-order="fill stroke markers" d=" M 973.3162730836798 523.5065361710084 C 973.3162730836798 594.8230413678632 915.5028227300608 652.6364917214821 844.1863175332057 652.6364917214821 C 772.8698123363506 652.6364917214821 715.0563619827316 594.8230413678632 715.0563619827316 523.5065361710084 C 715.0563619827316 452.1900309741536 772.8698123363506 394.3765806205348 844.1863175332057 394.3765806205348 C 915.5028227300608 394.3765806205348 973.3162730836798 452.1900309741536 973.3162730836798 523.5065361710084 Z" stroke-opacity="0.6980392156862745" stroke-linecap="round" stroke-linejoin="round" stroke-miterlimit="10" stroke-width="2.5"/><path fill="none" stroke="rgb(0,0,0)" paint-order="fill stroke markers" d=" M 1141.3565895424356 203.64315811703295 C 1141.3565895424356 294.4294941702728 1067.7597227622553 368.02636095045284 976.9733867090151 368.02636095045284 C 886.1870506557749 368.02636095045284 812.5901838755946 294.4294941702728 812.5901838755946 203.64315811703295 C 812.5901838755946 112.85682206379309 886.1870506557749 39.25995528361307 976.9733867090151 39.25995528361307 C 1067.7597227622553 39.25995528361307 1141.3565895424356 112.85682206379309 1141.3565895424356 203.64315811703295 Z" stroke-opacity="0.6980392156862745" stroke-linecap="round" stroke-linejoin="round" stroke-miterlimit="10" stroke-width="2.5"/><path fill="none" stroke="rgb(0,0,0)" paint-order="fill stroke markers" d=" M 1266.616098410611 310.0945217150482 C 1266.616098410611 400.88085776828797 1193.0192316304306 474.47772454846796 1102.2328955771904 474.47772454846796 C 1011.4465595239502 474.47772454846796 937.84969274377 400.88085776828797 937.84969274377 310.0945217150482 C 937.84969274377 219.3081856618084 1011.4465595239502 145.71131888162842 1102.2328955771904 145.71131888162842 C 1193.0192316304306 145.71131888162842 1266.616098410611 219.3081856618084 1266.616098410611 310.0945217150482 Z" stroke-opacity="0.6980392156862745" stroke-linecap="round" stroke-linejoin="round" stroke-miterlimit="10" stroke-width="2.5"/><path fill="none" stroke="rgb(0,0,0)" paint-order="fill stroke markers" d=" M 1233.1585094165257 461.2188422509589 C 1233.1585094165257 497.80624634822334 1203.4985581260594 527.4661976386896 1166.911154028795 527.4661976386896 C 1130.3237499315303 527.4661976386896 1100.663798641064 497.80624634822334 1100.663798641064 461.2188422509589 C 1100.663798641064 424.63143815369443 1130.3237499315303 394.9714868632283 1166.911154028795 394.9714868632283 C 1203.4985581260594 394.9714868632283 1233.1585094165257 424.63143815369443 1233.1585094165257 461.2188422509589 Z" stroke-opacity="0.6980392156862745" stroke-linecap="round" stroke-linejoin="round" stroke-miterlimit="10" stroke-width="2.5"/><path fill="rgb(0,0,0)" stroke="none" paint-order="stroke fill markers" d=" M 878.2971887350844 523.895642187911 C 878.388791453027 515.8653152904853 876.9914701614262 507.8875429850427 874.175998483592 500.36639544169753 L 813.3014172829405 523.1542291177029 Z" fill-opacity="0.09803921568627451"/><path fill="none" stroke="rgb(0,0,0)" paint-order="fill stroke markers" d=" M 878.2971887350844 523.895642187911 C 878.388791453027 515.8653152904853 876.9914701614262 507.8875429850427 874.175998483592 500.36639544169753 L 813.3014172829405 523.1542291177029 Z" stroke-opacity="0.6980392156862745" stroke-linecap="round" stroke-linejoin="round" stroke-miterlimit="10" stroke-width="2.5"/><path fill="none" stroke="rgb(0,0,0)" paint-order="fill stroke markers" d=" M 454.3319608029123 519.0594297039329 L 1172.2708737629687 527.249028531473" stroke-opacity="0.6980392156862745" stroke-linecap="round" stroke-linejoin="round" stroke-miterlimit="10" stroke-width="2.5"/><path fill="none" stroke="rgb(0,0,0)" paint-order="fill stroke markers" d=" M 817.3962166967106 164.1847726376762 L 813.3014172829405 523.1542291177029" stroke-opacity="0.6980392156862745" stroke-linecap="round" stroke-linejoin="round" stroke-miterlimit="10" stroke-width="2.5"/><path fill="none" stroke="rgb(0,0,0)" paint-order="fill stroke markers" d=" M 814.325117136383 433.4118649976962 L 1172.2708737629687 527.249028531473" stroke-opacity="0.6980392156862745" stroke-linecap="round" stroke-linejoin="round" stroke-miterlimit="10" stroke-width="2.5"/><path fill="none" stroke="rgb(0,0,0)" paint-order="fill stroke markers" d=" M 814.325117136383 433.4118649976962 L 844.1863175332057 523.5065361710084" stroke-opacity="0.6980392156862745" stroke-linecap="round" stroke-linejoin="round" stroke-miterlimit="10" stroke-width="2.5"/><path fill="none" stroke="rgb(0,0,0)" paint-order="fill stroke markers" d=" M 814.325117136383 433.4118649976962 L 769.5135722932281 522.6547369220373" stroke-opacity="0.6980392156862745" stroke-linecap="round" stroke-linejoin="round" stroke-miterlimit="10" stroke-width="2.5"/><path fill="none" stroke="rgb(0,0,0)" paint-order="fill stroke markers" d=" M 976.9733867090151 203.64315811703295 L 973.307872588346 524.9794382756315" stroke-opacity="0.6980392156862745" stroke-linecap="round" stroke-linejoin="round" stroke-miterlimit="10" stroke-width="2.5"/><path fill="none" stroke="rgb(0,0,0)" paint-order="fill stroke markers" d=" M 813.3014172829405 523.1542291177029 L 1149.5096788178746 397.2977912868829" stroke-opacity="0.6980392156862745" stroke-linecap="round" stroke-linejoin="round" stroke-miterlimit="10" stroke-width="2.5"/><path fill="rgb(0,0,0)" stroke="none" paint-order="stroke fill markers" d=" M 819.3014172829405 523.1542291177029 C 819.3014172829405 526.4679376166877 816.6151257819253 529.1542291177029 813.3014172829405 529.1542291177029 C 809.9877087839558 529.1542291177029 807.3014172829405 526.4679376166877 807.3014172829405 523.1542291177029 C 807.3014172829405 519.8405206187182 809.9877087839558 517.1542291177029 813.3014172829405 517.1542291177029 C 816.6151257819253 517.1542291177029 819.3014172829405 519.8405206187182 819.3014172829405 523.1542291177029 Z" fill-opacity="1"/><path fill="none" stroke="rgb(0,0,0)" paint-order="fill stroke markers" d=" M 819.3014172829405 523.1542291177029 C 819.3014172829405 526.4679376166877 816.6151257819253 529.1542291177029 813.3014172829405 529.1542291177029 C 809.9877087839558 529.1542291177029 807.3014172829405 526.4679376166877 807.3014172829405 523.1542291177029 C 807.3014172829405 519.8405206187182 809.9877087839558 517.1542291177029 813.3014172829405 517.1542291177029 C 816.6151257819253 517.1542291177029 819.3014172829405 519.8405206187182 819.3014172829405 523.1542291177029 Z" stroke-opacity="1" stroke-linecap="round" stroke-linejoin="round" stroke-miterlimit="10"/><path fill="rgb(0,0,0)" stroke="none" paint-order="stroke fill markers" d=" M 460.3319608029123 519.0594297039329 C 460.3319608029123 522.3731382029176 457.64566930189704 525.0594297039329 454.3319608029123 525.0594297039329 C 451.01825230392757 525.0594297039329 448.3319608029123 522.3731382029176 448.3319608029123 519.0594297039329 C 448.3319608029123 515.7457212049482 451.01825230392757 513.0594297039329 454.3319608029123 513.0594297039329 C 457.64566930189704 513.0594297039329 460.3319608029123 515.7457212049482 460.3319608029123 519.0594297039329 Z" fill-opacity="1"/><path fill="none" stroke="rgb(0,0,0)" paint-order="fill stroke markers" d=" M 460.3319608029123 519.0594297039329 C 460.3319608029123 522.3731382029176 457.64566930189704 525.0594297039329 454.3319608029123 525.0594297039329 C 451.01825230392757 525.0594297039329 448.3319608029123 522.3731382029176 448.3319608029123 519.0594297039329 C 448.3319608029123 515.7457212049482 451.01825230392757 513.0594297039329 454.3319608029123 513.0594297039329 C 457.64566930189704 513.0594297039329 460.3319608029123 515.7457212049482 460.3319608029123 519.0594297039329 Z" stroke-opacity="1" stroke-linecap="round" stroke-linejoin="round" stroke-miterlimit="10"/><path fill="rgb(0,0,0)" stroke="none" paint-order="stroke fill markers" d=" M 1178.2708737629687 527.249028531473 C 1178.2708737629687 530.5627370304577 1175.5845822619535 533.249028531473 1172.2708737629687 533.249028531473 C 1168.9571652639838 533.249028531473 1166.2708737629687 530.5627370304577 1166.2708737629687 527.249028531473 C 1166.2708737629687 523.9353200324882 1168.9571652639838 521.249028531473 1172.2708737629687 521.249028531473 C 1175.5845822619535 521.249028531473 1178.2708737629687 523.9353200324882 1178.2708737629687 527.249028531473 Z" fill-opacity="1"/><path fill="none" stroke="rgb(0,0,0)" paint-order="fill stroke markers" d=" M 1178.2708737629687 527.249028531473 C 1178.2708737629687 530.5627370304577 1175.5845822619535 533.249028531473 1172.2708737629687 533.249028531473 C 1168.9571652639838 533.249028531473 1166.2708737629687 530.5627370304577 1166.2708737629687 527.249028531473 C 1166.2708737629687 523.9353200324882 1168.9571652639838 521.249028531473 1172.2708737629687 521.249028531473 C 1175.5845822619535 521.249028531473 1178.2708737629687 523.9353200324882 1178.2708737629687 527.249028531473 Z" stroke-opacity="1" stroke-linecap="round" stroke-linejoin="round" stroke-miterlimit="10"/><path fill="rgb(0,0,0)" stroke="none" paint-order="stroke fill markers" d=" M 823.3962166967106 164.1847726376762 C 823.3962166967106 167.49848113666096 820.7099251956953 170.1847726376762 817.3962166967106 170.1847726376762 C 814.0825081977258 170.1847726376762 811.3962166967106 167.49848113666096 811.3962166967106 164.1847726376762 C 811.3962166967106 160.87106413869142 814.0825081977258 158.1847726376762 817.3962166967106 158.1847726376762 C 820.7099251956953 158.1847726376762 823.3962166967106 160.87106413869142 823.3962166967106 164.1847726376762 Z" fill-opacity="1"/><path fill="none" stroke="rgb(0,0,0)" paint-order="fill stroke markers" d=" M 823.3962166967106 164.1847726376762 C 823.3962166967106 167.49848113666096 820.7099251956953 170.1847726376762 817.3962166967106 170.1847726376762 C 814.0825081977258 170.1847726376762 811.3962166967106 167.49848113666096 811.3962166967106 164.1847726376762 C 811.3962166967106 160.87106413869142 814.0825081977258 158.1847726376762 817.3962166967106 158.1847726376762 C 820.7099251956953 158.1847726376762 823.3962166967106 160.87106413869142 823.3962166967106 164.1847726376762 Z" stroke-opacity="1" stroke-linecap="round" stroke-linejoin="round" stroke-miterlimit="10"/><path fill="rgb(0,0,0)" stroke="none" paint-order="stroke fill markers" d=" M 820.325117136383 433.4118649976962 C 820.325117136383 436.72557349668097 817.6388256353678 439.4118649976962 814.325117136383 439.4118649976962 C 811.0114086373983 439.4118649976962 808.325117136383 436.72557349668097 808.325117136383 433.4118649976962 C 808.325117136383 430.0981564987115 811.0114086373983 427.4118649976962 814.325117136383 427.4118649976962 C 817.6388256353678 427.4118649976962 820.325117136383 430.0981564987115 820.325117136383 433.4118649976962 Z" fill-opacity="1"/><path fill="none" stroke="rgb(0,0,0)" paint-order="fill stroke markers" d=" M 820.325117136383 433.4118649976962 C 820.325117136383 436.72557349668097 817.6388256353678 439.4118649976962 814.325117136383 439.4118649976962 C 811.0114086373983 439.4118649976962 808.325117136383 436.72557349668097 808.325117136383 433.4118649976962 C 808.325117136383 430.0981564987115 811.0114086373983 427.4118649976962 814.325117136383 427.4118649976962 C 817.6388256353678 427.4118649976962 820.325117136383 430.0981564987115 820.325117136383 433.4118649976962 Z" stroke-opacity="1" stroke-linecap="round" stroke-linejoin="round" stroke-miterlimit="10"/><path fill="rgb(0,0,0)" stroke="none" paint-order="stroke fill markers" d=" M 850.1863175332057 523.5065361710084 C 850.1863175332057 526.8202446699931 847.5000260321905 529.5065361710084 844.1863175332057 529.5065361710084 C 840.872609034221 529.5065361710084 838.1863175332057 526.8202446699931 838.1863175332057 523.5065361710084 C 838.1863175332057 520.1928276720237 840.872609034221 517.5065361710084 844.1863175332057 517.5065361710084 C 847.5000260321905 517.5065361710084 850.1863175332057 520.1928276720237 850.1863175332057 523.5065361710084 Z" fill-opacity="1"/><path fill="none" stroke="rgb(0,0,0)" paint-order="fill stroke markers" d=" M 850.1863175332057 523.5065361710084 C 850.1863175332057 526.8202446699931 847.5000260321905 529.5065361710084 844.1863175332057 529.5065361710084 C 840.872609034221 529.5065361710084 838.1863175332057 526.8202446699931 838.1863175332057 523.5065361710084 C 838.1863175332057 520.1928276720237 840.872609034221 517.5065361710084 844.1863175332057 517.5065361710084 C 847.5000260321905 517.5065361710084 850.1863175332057 520.1928276720237 850.1863175332057 523.5065361710084 Z" stroke-opacity="1" stroke-linecap="round" stroke-linejoin="round" stroke-miterlimit="10"/><path fill="rgb(0,0,0)" stroke="none" paint-order="stroke fill markers" d=" M 775.5135722932281 522.6547369220373 C 775.5135722932281 525.968445421022 772.8272807922128 528.6547369220373 769.5135722932281 528.6547369220373 C 766.1998637942434 528.6547369220373 763.5135722932281 525.968445421022 763.5135722932281 522.6547369220373 C 763.5135722932281 519.3410284230525 766.1998637942434 516.6547369220373 769.5135722932281 516.6547369220373 C 772.8272807922128 516.6547369220373 775.5135722932281 519.3410284230525 775.5135722932281 522.6547369220373 Z" fill-opacity="1"/><path fill="none" stroke="rgb(0,0,0)" paint-order="fill stroke markers" d=" M 775.5135722932281 522.6547369220373 C 775.5135722932281 525.968445421022 772.8272807922128 528.6547369220373 769.5135722932281 528.6547369220373 C 766.1998637942434 528.6547369220373 763.5135722932281 525.968445421022 763.5135722932281 522.6547369220373 C 763.5135722932281 519.3410284230525 766.1998637942434 516.6547369220373 769.5135722932281 516.6547369220373 C 772.8272807922128 516.6547369220373 775.5135722932281 519.3410284230525 775.5135722932281 522.6547369220373 Z" stroke-opacity="1" stroke-linecap="round" stroke-linejoin="round" stroke-miterlimit="10"/><path fill="rgb(0,0,0)" stroke="none" paint-order="stroke fill markers" d=" M 820.7315642509108 397.7807912754364 C 820.7315642509108 401.09449977442114 818.0452727498955 403.7807912754364 814.7315642509108 403.7807912754364 C 811.417855751926 403.7807912754364 808.7315642509108 401.09449977442114 808.7315642509108 397.7807912754364 C 808.7315642509108 394.46708277645166 811.417855751926 391.7807912754364 814.7315642509108 391.7807912754364 C 818.0452727498955 391.7807912754364 820.7315642509108 394.46708277645166 820.7315642509108 397.7807912754364 Z" fill-opacity="1"/><path fill="none" stroke="rgb(0,0,0)" paint-order="fill stroke markers" d=" M 820.7315642509108 397.7807912754364 C 820.7315642509108 401.09449977442114 818.0452727498955 403.7807912754364 814.7315642509108 403.7807912754364 C 811.417855751926 403.7807912754364 808.7315642509108 401.09449977442114 808.7315642509108 397.7807912754364 C 808.7315642509108 394.46708277645166 811.417855751926 391.7807912754364 814.7315642509108 391.7807912754364 C 818.0452727498955 391.7807912754364 820.7315642509108 394.46708277645166 820.7315642509108 397.7807912754364 Z" stroke-opacity="1" stroke-linecap="round" stroke-linejoin="round" stroke-miterlimit="10"/><path fill="rgb(0,0,0)" stroke="none" paint-order="stroke fill markers" d=" M 979.307872588346 524.9794382756315 C 979.307872588346 528.2931467746163 976.6215810873307 530.9794382756315 973.307872588346 530.9794382756315 C 969.9941640893612 530.9794382756315 967.307872588346 528.2931467746163 967.307872588346 524.9794382756315 C 967.307872588346 521.6657297766468 969.9941640893612 518.9794382756315 973.307872588346 518.9794382756315 C 976.6215810873307 518.9794382756315 979.307872588346 521.6657297766468 979.307872588346 524.9794382756315 Z" fill-opacity="1"/><path fill="none" stroke="rgb(0,0,0)" paint-order="fill stroke markers" d=" M 979.307872588346 524.9794382756315 C 979.307872588346 528.2931467746163 976.6215810873307 530.9794382756315 973.307872588346 530.9794382756315 C 969.9941640893612 530.9794382756315 967.307872588346 528.2931467746163 967.307872588346 524.9794382756315 C 967.307872588346 521.6657297766468 969.9941640893612 518.9794382756315 973.307872588346 518.9794382756315 C 976.6215810873307 518.9794382756315 979.307872588346 521.6657297766468 979.307872588346 524.9794382756315 Z" stroke-opacity="1" stroke-linecap="round" stroke-linejoin="round" stroke-miterlimit="10"/><path fill="rgb(0,0,0)" stroke="none" paint-order="stroke fill markers" d=" M 982.9733867090151 203.64315811703295 C 982.9733867090151 206.95686661601772 980.2870952079999 209.64315811703295 976.9733867090151 209.64315811703295 C 973.6596782100304 209.64315811703295 970.9733867090151 206.95686661601772 970.9733867090151 203.64315811703295 C 970.9733867090151 200.3294496180482 973.6596782100304 197.64315811703295 976.9733867090151 197.64315811703295 C 980.2870952079999 197.64315811703295 982.9733867090151 200.3294496180482 982.9733867090151 203.64315811703295 Z" fill-opacity="1"/><path fill="none" stroke="rgb(0,0,0)" paint-order="fill stroke markers" d=" M 982.9733867090151 203.64315811703295 C 982.9733867090151 206.95686661601772 980.2870952079999 209.64315811703295 976.9733867090151 209.64315811703295 C 973.6596782100304 209.64315811703295 970.9733867090151 206.95686661601772 970.9733867090151 203.64315811703295 C 970.9733867090151 200.3294496180482 973.6596782100304 197.64315811703295 976.9733867090151 197.64315811703295 C 980.2870952079999 197.64315811703295 982.9733867090151 200.3294496180482 982.9733867090151 203.64315811703295 Z" stroke-opacity="1" stroke-linecap="round" stroke-linejoin="round" stroke-miterlimit="10"/><path fill="rgb(68,68,68)" stroke="none" paint-order="stroke fill markers" d=" M 1106.2328955771904 310.0945217150482 C 1106.2328955771904 312.30366071437135 1104.4420345765136 314.0945217150482 1102.2328955771904 314.0945217150482 C 1100.0237565778673 314.0945217150482 1098.2328955771904 312.30366071437135 1098.2328955771904 310.0945217150482 C 1098.2328955771904 307.88538271572503 1100.0237565778673 306.0945217150482 1102.2328955771904 306.0945217150482 C 1104.4420345765136 306.0945217150482 1106.2328955771904 307.88538271572503 1106.2328955771904 310.0945217150482 Z" fill-opacity="1"/><path fill="none" stroke="rgb(0,0,0)" paint-order="fill stroke markers" d=" M 1106.2328955771904 310.0945217150482 C 1106.2328955771904 312.30366071437135 1104.4420345765136 314.0945217150482 1102.2328955771904 314.0945217150482 C 1100.0237565778673 314.0945217150482 1098.2328955771904 312.30366071437135 1098.2328955771904 310.0945217150482 C 1098.2328955771904 307.88538271572503 1100.0237565778673 306.0945217150482 1102.2328955771904 306.0945217150482 C 1104.4420345765136 306.0945217150482 1106.2328955771904 307.88538271572503 1106.2328955771904 310.0945217150482 Z" stroke-opacity="1" stroke-linecap="round" stroke-linejoin="round" stroke-miterlimit="10"/><path fill="rgb(68,68,68)" stroke="none" paint-order="stroke fill markers" d=" M 1170.911154028795 461.2188422509589 C 1170.911154028795 463.4279812502821 1169.120293028118 465.2188422509589 1166.911154028795 465.2188422509589 C 1164.7020150294718 465.2188422509589 1162.911154028795 463.4279812502821 1162.911154028795 461.2188422509589 C 1162.911154028795 459.00970325163576 1164.7020150294718 457.2188422509589 1166.911154028795 457.2188422509589 C 1169.120293028118 457.2188422509589 1170.911154028795 459.00970325163576 1170.911154028795 461.2188422509589 Z" fill-opacity="1"/><path fill="none" stroke="rgb(0,0,0)" paint-order="fill stroke markers" d=" M 1170.911154028795 461.2188422509589 C 1170.911154028795 463.4279812502821 1169.120293028118 465.2188422509589 1166.911154028795 465.2188422509589 C 1164.7020150294718 465.2188422509589 1162.911154028795 463.4279812502821 1162.911154028795 461.2188422509589 C 1162.911154028795 459.00970325163576 1164.7020150294718 457.2188422509589 1166.911154028795 457.2188422509589 C 1169.120293028118 457.2188422509589 1170.911154028795 459.00970325163576 1170.911154028795 461.2188422509589 Z" stroke-opacity="1" stroke-linecap="round" stroke-linejoin="round" stroke-miterlimit="10"/><path fill="rgb(68,68,68)" stroke="none" paint-order="stroke fill markers" d=" M 1153.5096788178746 397.2977912868829 C 1153.5096788178746 399.50693028620606 1151.7188178171978 401.2977912868829 1149.5096788178746 401.2977912868829 C 1147.3005398185514 401.2977912868829 1145.5096788178746 399.50693028620606 1145.5096788178746 397.2977912868829 C 1145.5096788178746 395.08865228755974 1147.3005398185514 393.2977912868829 1149.5096788178746 393.2977912868829 C 1151.7188178171978 393.2977912868829 1153.5096788178746 395.08865228755974 1153.5096788178746 397.2977912868829 Z" fill-opacity="1"/><path fill="none" stroke="rgb(0,0,0)" paint-order="fill stroke markers" d=" M 1153.5096788178746 397.2977912868829 C 1153.5096788178746 399.50693028620606 1151.7188178171978 401.2977912868829 1149.5096788178746 401.2977912868829 C 1147.3005398185514 401.2977912868829 1145.5096788178746 399.50693028620606 1145.5096788178746 397.2977912868829 C 1145.5096788178746 395.08865228755974 1147.3005398185514 393.2977912868829 1149.5096788178746 393.2977912868829 C 1151.7188178171978 393.2977912868829 1153.5096788178746 395.08865228755974 1153.5096788178746 397.2977912868829 Z" stroke-opacity="1" stroke-linecap="round" stroke-linejoin="round" stroke-miterlimit="10"/><g transform="scale(19,19)"><g transform="translate(48.90502720062526,25.90715789473684)"><path fill="rgb(0,0,0)" stroke="none" paint-order="stroke fill markers" d=" M 0.449 -0.17400000000000002 L 0.449 -0.17400000000000002 L 0.421 0 L 0.05 0 Q 0.05 -0.025 0.056 -0.032 L 0.061 -0.037 L 0.253 -0.251 Q 0.358 -0.369 0.358 -0.47200000000000003 Q 0.358 -0.561 0.304 -0.607 L 0.303 -0.608 L 0.302 -0.608 Q 0.27 -0.635 0.224 -0.635 Q 0.152 -0.635 0.109 -0.5730000000000001 Q 0.097 -0.555 0.089 -0.533 Q 0.092 -0.534 0.10200000000000001 -0.534 Q 0.14200000000000002 -0.534 0.153 -0.498 L 0.153 -0.497 Q 0.155 -0.49 0.155 -0.482 Q 0.155 -0.442 0.117 -0.431 Q 0.109 -0.429 0.10300000000000001 -0.429 Q 0.066 -0.429 0.054 -0.46 Q 0.05 -0.47100000000000003 0.05 -0.485 Q 0.05 -0.562 0.109 -0.617 Q 0.162 -0.666 0.23700000000000002 -0.666 Q 0.34700000000000003 -0.666 0.40800000000000003 -0.592 Q 0.443 -0.549 0.448 -0.49 Q 0.449 -0.481 0.449 -0.47200000000000003 Q 0.449 -0.399 0.394 -0.333 Q 0.365 -0.299 0.304 -0.243 L 0.243 -0.189 L 0.233 -0.18 L 0.127 -0.077 L 0.307 -0.077 Q 0.395 -0.077 0.402 -0.085 Q 0.41200000000000003 -0.099 0.424 -0.17400000000000002 L 0.449 -0.17400000000000002 Z"/></g><g transform="translate(49.40502720062526,25.90715789473684)"><path fill="rgb(0,0,0)" stroke="none" paint-order="stroke fill markers" d=" M 0.265 -0.373 L 0.265 -0.373 L 0.209 -0.152 Q 0.192 -0.088 0.182 -0.054 Q 0.166 -0.005 0.152 0.005 L 0.152 0.006 Q 0.14300000000000002 0.011 0.132 0.011 Q 0.109 0.011 0.10400000000000001 -0.009000000000000001 Q 0.10300000000000001 -0.012 0.10300000000000001 -0.016 Q 0.10300000000000001 -0.025 0.111 -0.04 Q 0.20500000000000002 -0.243 0.23900000000000002 -0.373 L 0.182 -0.373 Q 0.10400000000000001 -0.373 0.055 -0.296 Q 0.046 -0.28400000000000003 0.039 -0.28400000000000003 Q 0.027 -0.28400000000000003 0.027 -0.294 Q 0.027 -0.305 0.063 -0.354 Q 0.07 -0.362 0.076 -0.37 Q 0.079 -0.374 0.083 -0.378 Q 0.085 -0.381 0.088 -0.384 Q 0.132 -0.431 0.192 -0.431 L 0.527 -0.431 Q 0.561 -0.431 0.5660000000000001 -0.41600000000000004 L 0.5660000000000001 -0.41500000000000004 Q 0.5670000000000001 -0.41200000000000003 0.5670000000000001 -0.40700000000000003 Q 0.5670000000000001 -0.373 0.518 -0.373 L 0.404 -0.373 Q 0.386 -0.28800000000000003 0.386 -0.214 Q 0.386 -0.121 0.41500000000000004 -0.049 Q 0.421 -0.035 0.421 -0.027 Q 0.421 -0.004 0.396 0.007 Q 0.388 0.011 0.38 0.011 Q 0.36 0.011 0.35000000000000003 -0.017 Q 0.34700000000000003 -0.026000000000000002 0.34400000000000003 -0.039 Q 0.336 -0.073 0.336 -0.115 Q 0.336 -0.181 0.363 -0.306 L 0.378 -0.373 L 0.265 -0.373 Z"/></g><rect fill="rgb(0,0,0)" stroke="none" x="48.90502720062526" y="26.313666394736842" width="1.1059999999999999" height="0.039999"/><g transform="translate(48.95802720062526,27.269616894736842)"><path fill="rgb(0,0,0)" stroke="none" paint-order="stroke fill markers" d=" M 0.294 -0.64 L 0.294 -0.079 Q 0.294 -0.049 0.306 -0.041 Q 0.323 -0.031 0.387 -0.031 L 0.419 -0.031 L 0.419 0 Q 0.384 -0.003 0.257 -0.003 Q 0.13 -0.003 0.095 0 L 0.095 -0.031 L 0.127 -0.031 Q 0.20400000000000001 -0.031 0.215 -0.049 L 0.216 -0.05 Q 0.22 -0.058 0.22 -0.079 L 0.22 -0.597 Q 0.168 -0.5710000000000001 0.089 -0.5710000000000001 L 0.089 -0.602 Q 0.209 -0.602 0.271 -0.666 Q 0.29 -0.666 0.293 -0.659 L 0.293 -0.659 L 0.293 -0.658 Q 0.294 -0.655 0.294 -0.64 Z"/></g><g transform="translate(49.45802720062526,27.269616894736842)"><path fill="rgb(0,0,0)" stroke="none" paint-order="stroke fill markers" d=" M 0.47600000000000003 -0.609 L 0.341 -0.419 Q 0.298 -0.359 0.279 -0.248 Q 0.268 -0.17400000000000002 0.268 -0.084 L 0.268 -0.033 Q 0.268 0.022 0.222 0.022 Q 0.176 0.022 0.176 -0.033 Q 0.176 -0.2 0.273 -0.368 L 0.299 -0.40900000000000003 L 0.41100000000000003 -0.5670000000000001 L 0.20400000000000001 -0.5670000000000001 Q 0.113 -0.5670000000000001 0.106 -0.561 Q 0.096 -0.552 0.081 -0.47000000000000003 L 0.056 -0.47000000000000003 L 0.089 -0.676 L 0.114 -0.676 Q 0.11800000000000001 -0.659 0.132 -0.653 L 0.133 -0.653 L 0.133 -0.653 Q 0.159 -0.644 0.242 -0.644 L 0.485 -0.644 Q 0.485 -0.621 0.47600000000000003 -0.609 Z"/></g></g><g transform="scale(25,25)"><g transform="translate(16.8,20.923)"><path fill="rgb(0,0,0)" stroke="none" paint-order="stroke fill markers" d=" M 0.179 -0.115 L 0.527 -0.6990000000000001 Q 0.537 -0.715 0.553 -0.716 Q 0.5680000000000001 -0.716 0.5700000000000001 -0.706 Q 0.5710000000000001 -0.7030000000000001 0.5720000000000001 -0.6920000000000001 L 0.633 -0.067 Q 0.636 -0.042 0.645 -0.037 L 0.646 -0.037 L 0.646 -0.037 L 0.646 -0.037 L 0.646 -0.037 L 0.646 -0.036000000000000004 Q 0.658 -0.031 0.6980000000000001 -0.031 Q 0.72 -0.031 0.721 -0.02 Q 0.721 0 0.7030000000000001 0 L 0.591 -0.003 L 0.59 -0.003 L 0.466 0 L 0.465 0 Q 0.451 0 0.451 -0.011 Q 0.459 -0.03 0.47500000000000003 -0.031 Q 0.547 -0.031 0.547 -0.064 Q 0.547 -0.063 0.531 -0.231 L 0.28 -0.231 L 0.20400000000000001 -0.10300000000000001 Q 0.19 -0.078 0.19 -0.066 Q 0.19 -0.035 0.23700000000000002 -0.031 Q 0.253 -0.031 0.253 -0.019 Q 0.253 0 0.234 0 L 0.138 -0.003 L 0.134 -0.003 L 0.05 0 L 0.048 0 Q 0.035 0 0.035 -0.011 Q 0.035 -0.029 0.05 -0.03 L 0.05 -0.031 L 0.056 -0.031 Q 0.11900000000000001 -0.035 0.159 -0.085 Q 0.169 -0.098 0.179 -0.115 M 0.299 -0.262 L 0.528 -0.262 L 0.496 -0.592 L 0.299 -0.262 Z"/></g></g><g transform="scale(25,25)"><g transform="translate(47.12,22.163)"><path fill="rgb(0,0,0)" stroke="none" paint-order="stroke fill markers" d=" M 0.16 -0.078 L 0.294 -0.615 Q 0.298 -0.631 0.298 -0.634 Q 0.298 -0.646 0.28200000000000003 -0.649 L 0.281 -0.649 L 0.28 -0.649 Q 0.277 -0.649 0.271 -0.65 Q 0.254 -0.652 0.233 -0.652 Q 0.20700000000000002 -0.652 0.20500000000000002 -0.663 Q 0.20500000000000002 -0.681 0.22 -0.683 L 0.221 -0.683 L 0.222 -0.683 L 0.234 -0.683 L 0.5700000000000001 -0.683 Q 0.685 -0.683 0.734 -0.615 Q 0.756 -0.583 0.756 -0.545 Q 0.756 -0.464 0.666 -0.404 Q 0.665 -0.404 0.664 -0.403 Q 0.611 -0.369 0.547 -0.357 Q 0.649 -0.34500000000000003 0.687 -0.277 Q 0.7020000000000001 -0.249 0.7020000000000001 -0.216 Q 0.7020000000000001 -0.14300000000000002 0.632 -0.079 L 0.631 -0.078 Q 0.545 0 0.426 0 L 0.069 0 Q 0.044 0 0.042 -0.011 Q 0.042 -0.029 0.057 -0.031 L 0.069 -0.031 Q 0.134 -0.031 0.147 -0.045 Q 0.153 -0.052000000000000005 0.159 -0.073 Q 0.159 -0.074 0.16 -0.078 M 0.311 -0.366 L 0.457 -0.366 Q 0.556 -0.366 0.62 -0.438 Q 0.665 -0.489 0.665 -0.549 Q 0.665 -0.622 0.605 -0.644 Q 0.584 -0.652 0.556 -0.652 L 0.427 -0.652 Q 0.391 -0.652 0.383 -0.642 L 0.383 -0.642 L 0.383 -0.641 L 0.382 -0.641 L 0.382 -0.64 Q 0.378 -0.634 0.373 -0.614 L 0.311 -0.366 M 0.266 -0.031 L 0.402 -0.031 Q 0.498 -0.031 0.561 -0.10300000000000001 Q 0.609 -0.159 0.609 -0.227 Q 0.609 -0.3 0.557 -0.33 Q 0.531 -0.34400000000000003 0.494 -0.34400000000000003 L 0.305 -0.34400000000000003 L 0.23600000000000002 -0.065 Q 0.231 -0.047 0.231 -0.042 Q 0.231 -0.034 0.24 -0.032 L 0.24 -0.032 L 0.24 -0.032 L 0.244 -0.032 Q 0.25 -0.031 0.266 -0.031 Z"/></g></g><g transform="scale(25,25)"><g transform="translate(33.32,6.403)"><path fill="rgb(0,0,0)" stroke="none" paint-order="stroke fill markers" d=" M 0.76 -0.6950000000000001 L 0.6970000000000001 -0.44 Q 0.6920000000000001 -0.422 0.687 -0.421 L 0.686 -0.42 L 0.679 -0.42 Q 0.664 -0.42 0.664 -0.43 L 0.667 -0.47900000000000004 L 0.667 -0.481 Q 0.667 -0.605 0.589 -0.652 L 0.588 -0.653 Q 0.553 -0.674 0.506 -0.674 Q 0.4 -0.674 0.305 -0.595 Q 0.281 -0.5760000000000001 0.262 -0.553 Q 0.167 -0.442 0.145 -0.271 Q 0.14100000000000001 -0.24 0.14100000000000001 -0.217 Q 0.14100000000000001 -0.077 0.247 -0.028 Q 0.28800000000000003 -0.009000000000000001 0.337 -0.009000000000000001 Q 0.431 -0.009000000000000001 0.521 -0.082 Q 0.591 -0.14100000000000001 0.622 -0.24 Q 0.624 -0.25 0.635 -0.25 Q 0.647 -0.25 0.647 -0.24 Q 0.647 -0.222 0.624 -0.176 Q 0.593 -0.113 0.537 -0.064 Q 0.438 0.022 0.321 0.022 Q 0.193 0.022 0.116 -0.066 Q 0.05 -0.14100000000000001 0.05 -0.252 Q 0.05 -0.401 0.159 -0.531 Q 0.26 -0.652 0.398 -0.6910000000000001 Q 0.449 -0.705 0.498 -0.705 Q 0.607 -0.705 0.664 -0.616 L 0.734 -0.6930000000000001 Q 0.746 -0.705 0.749 -0.705 Q 0.76 -0.705 0.76 -0.6950000000000001 Z"/></g></g><g transform="scale(25,25)"><g transform="translate(33.16,17.003)"><path fill="rgb(0,0,0)" stroke="none" paint-order="stroke fill markers" d=" M 0.159 -0.078 L 0.159 -0.078 L 0.293 -0.615 Q 0.297 -0.631 0.297 -0.634 Q 0.297 -0.646 0.281 -0.649 L 0.28 -0.649 L 0.28 -0.649 Q 0.278 -0.65 0.275 -0.65 Q 0.251 -0.652 0.232 -0.652 Q 0.20600000000000002 -0.652 0.20400000000000001 -0.66 Q 0.203 -0.662 0.203 -0.664 Q 0.203 -0.681 0.22 -0.683 L 0.22 -0.683 L 0.233 -0.683 L 0.5690000000000001 -0.683 Q 0.6990000000000001 -0.683 0.763 -0.582 Q 0.804 -0.518 0.804 -0.43 Q 0.804 -0.28500000000000003 0.7030000000000001 -0.159 Q 0.607 -0.042 0.47700000000000004 -0.01 Q 0.438 0 0.399 0 L 0.068 0 Q 0.043000000000000003 0 0.041 -0.008 Q 0.04 -0.009000000000000001 0.04 -0.012 Q 0.04 -0.029 0.056 -0.031 L 0.068 -0.031 Q 0.133 -0.031 0.146 -0.045 Q 0.152 -0.052000000000000005 0.158 -0.073 Q 0.158 -0.074 0.159 -0.078 M 0.375 -0.614 L 0.23800000000000002 -0.065 Q 0.233 -0.047 0.233 -0.042 Q 0.233 -0.034 0.242 -0.032 L 0.242 -0.032 L 0.242 -0.032 L 0.246 -0.032 Q 0.252 -0.031 0.268 -0.031 L 0.381 -0.031 Q 0.505 -0.031 0.595 -0.124 Q 0.604 -0.134 0.612 -0.14400000000000002 Q 0.6920000000000001 -0.248 0.713 -0.41600000000000004 Q 0.717 -0.447 0.717 -0.467 Q 0.717 -0.601 0.612 -0.639 Q 0.578 -0.652 0.536 -0.652 L 0.429 -0.652 Q 0.393 -0.652 0.385 -0.642 L 0.385 -0.642 L 0.385 -0.641 L 0.384 -0.641 L 0.384 -0.64 Q 0.38 -0.634 0.375 -0.614 Z"/></g></g><g transform="scale(25,25)"><g transform="translate(33.6,22.283)"><path fill="rgb(0,0,0)" stroke="none" paint-order="stroke fill markers" d=" M 0.708 -0.233 L 0.708 -0.233 L 0.616 -0.017 Q 0.61 -0.003 0.602 -0.001 L 0.602 -0.001 L 0.601 -0.001 Q 0.597 0 0.585 0 L 0.066 0 Q 0.041 0 0.039 -0.008 Q 0.038 -0.009000000000000001 0.038 -0.012 Q 0.038 -0.029 0.054 -0.031 L 0.066 -0.031 Q 0.131 -0.031 0.14400000000000002 -0.045 Q 0.15 -0.052000000000000005 0.156 -0.073 Q 0.156 -0.074 0.157 -0.078 L 0.289 -0.607 Q 0.294 -0.625 0.294 -0.631 Q 0.294 -0.648 0.248 -0.649 L 0.247 -0.649 L 0.229 -0.649 Q 0.203 -0.649 0.201 -0.66 Q 0.201 -0.678 0.217 -0.68 L 0.231 -0.68 L 0.736 -0.68 Q 0.76 -0.68 0.762 -0.673 L 0.763 -0.673 Q 0.765 -0.667 0.763 -0.653 L 0.743 -0.48 Q 0.736 -0.457 0.729 -0.455 Q 0.717 -0.455 0.717 -0.467 L 0.718 -0.484 L 0.718 -0.485 Q 0.722 -0.512 0.722 -0.538 Q 0.722 -0.608 0.683 -0.63 Q 0.65 -0.649 0.5700000000000001 -0.649 L 0.429 -0.649 Q 0.392 -0.649 0.385 -0.638 L 0.384 -0.638 L 0.384 -0.637 Q 0.381 -0.633 0.379 -0.625 L 0.379 -0.624 L 0.378 -0.623 Q 0.377 -0.619 0.375 -0.61 L 0.315 -0.369 L 0.40900000000000003 -0.369 Q 0.485 -0.369 0.51 -0.399 Q 0.526 -0.418 0.54 -0.468 Q 0.544 -0.485 0.554 -0.486 Q 0.5660000000000001 -0.486 0.5660000000000001 -0.47500000000000003 L 0.509 -0.241 Q 0.504 -0.222 0.494 -0.221 Q 0.481 -0.221 0.481 -0.232 Q 0.481 -0.23600000000000002 0.484 -0.243 Q 0.491 -0.273 0.491 -0.292 Q 0.491 -0.319 0.47600000000000003 -0.327 Q 0.457 -0.338 0.406 -0.338 L 0.307 -0.338 L 0.23900000000000002 -0.065 Q 0.234 -0.047 0.234 -0.042 Q 0.234 -0.034 0.243 -0.032 L 0.243 -0.032 L 0.243 -0.032 L 0.247 -0.032 Q 0.253 -0.031 0.269 -0.031 L 0.41500000000000004 -0.031 Q 0.537 -0.031 0.595 -0.08700000000000001 Q 0.633 -0.123 0.678 -0.222 Q 0.682 -0.233 0.6880000000000001 -0.246 Q 0.6920000000000001 -0.258 0.7010000000000001 -0.258 Q 0.713 -0.258 0.713 -0.247 Q 0.713 -0.246 0.708 -0.233 Z"/></g></g><g transform="scale(25,25)"><g transform="translate(31.04,22.043)"><path fill="rgb(0,0,0)" stroke="none" paint-order="stroke fill markers" d=" M 0.303 -0.325 L 0.241 -0.076 Q 0.23700000000000002 -0.061 0.23700000000000002 -0.053 Q 0.23700000000000002 -0.039 0.25 -0.036000000000000004 Q 0.257 -0.034 0.269 -0.033 Q 0.294 -0.031 0.321 -0.031 Q 0.34600000000000003 -0.031 0.34900000000000003 -0.03 L 0.354 -0.023 Q 0.355 -0.021 0.355 -0.019 Q 0.355 0 0.334 0 L 0.186 -0.003 L 0.185 -0.003 L 0.054 0 L 0.053 0 Q 0.038 0 0.038 -0.012 Q 0.038 -0.029 0.054 -0.031 L 0.066 -0.031 Q 0.131 -0.031 0.14400000000000002 -0.045 Q 0.15 -0.052000000000000005 0.156 -0.073 Q 0.156 -0.074 0.157 -0.078 L 0.289 -0.607 Q 0.294 -0.625 0.294 -0.631 Q 0.294 -0.648 0.248 -0.649 L 0.247 -0.649 L 0.229 -0.649 Q 0.203 -0.649 0.201 -0.66 Q 0.201 -0.678 0.217 -0.68 L 0.231 -0.68 L 0.721 -0.68 Q 0.745 -0.68 0.747 -0.673 L 0.748 -0.673 Q 0.75 -0.667 0.748 -0.653 L 0.728 -0.48 Q 0.721 -0.457 0.714 -0.455 Q 0.7020000000000001 -0.455 0.7020000000000001 -0.467 Q 0.7020000000000001 -0.47200000000000003 0.704 -0.485 Q 0.707 -0.512 0.707 -0.539 Q 0.707 -0.606 0.673 -0.628 L 0.672 -0.629 Q 0.64 -0.649 0.561 -0.649 L 0.429 -0.649 Q 0.392 -0.649 0.385 -0.638 L 0.384 -0.638 L 0.384 -0.637 Q 0.381 -0.633 0.379 -0.625 L 0.379 -0.624 L 0.378 -0.623 Q 0.377 -0.619 0.375 -0.61 L 0.311 -0.356 L 0.402 -0.356 Q 0.47500000000000003 -0.356 0.5 -0.383 L 0.501 -0.384 Q 0.518 -0.403 0.531 -0.452 Q 0.536 -0.47100000000000003 0.546 -0.47300000000000003 Q 0.557 -0.47300000000000003 0.558 -0.462 Q 0.558 -0.457 0.555 -0.446 L 0.5 -0.229 Q 0.49 -0.209 0.485 -0.20800000000000002 Q 0.47300000000000003 -0.20800000000000002 0.47300000000000003 -0.22 Q 0.47300000000000003 -0.224 0.47600000000000003 -0.231 Q 0.483 -0.261 0.483 -0.28 Q 0.483 -0.309 0.461 -0.318 L 0.461 -0.318 Q 0.442 -0.325 0.4 -0.325 L 0.303 -0.325 Z"/></g></g><g transform="scale(25,25)"><g transform="translate(31.36,15.843)"><path fill="rgb(0,0,0)" stroke="none" paint-order="stroke fill markers" d=" M 0.76 -0.6950000000000001 L 0.6970000000000001 -0.44 Q 0.6920000000000001 -0.422 0.687 -0.421 L 0.686 -0.42 L 0.679 -0.42 Q 0.664 -0.42 0.664 -0.43 L 0.667 -0.47900000000000004 L 0.667 -0.481 Q 0.667 -0.605 0.589 -0.652 L 0.588 -0.653 Q 0.553 -0.674 0.506 -0.674 Q 0.399 -0.674 0.303 -0.593 Q 0.276 -0.5710000000000001 0.256 -0.545 Q 0.16 -0.427 0.14300000000000002 -0.255 Q 0.14100000000000001 -0.234 0.14100000000000001 -0.219 Q 0.14100000000000001 -0.082 0.245 -0.031 Q 0.289 -0.009000000000000001 0.342 -0.009000000000000001 Q 0.427 -0.009000000000000001 0.483 -0.052000000000000005 Q 0.523 -0.082 0.535 -0.13 Q 0.556 -0.20800000000000002 0.556 -0.221 Q 0.556 -0.234 0.541 -0.23800000000000002 Q 0.536 -0.23900000000000002 0.525 -0.24 Q 0.502 -0.242 0.47200000000000003 -0.242 Q 0.445 -0.242 0.443 -0.248 Q 0.442 -0.249 0.442 -0.253 Q 0.442 -0.273 0.463 -0.273 L 0.602 -0.27 L 0.603 -0.27 L 0.707 -0.273 L 0.708 -0.273 Q 0.721 -0.273 0.721 -0.262 Q 0.721 -0.242 0.705 -0.242 Q 0.659 -0.241 0.65 -0.232 Q 0.644 -0.225 0.636 -0.194 Q 0.636 -0.196 0.626 -0.155 Q 0.624 -0.148 0.623 -0.14300000000000002 L 0.604 -0.066 Q 0.59 -0.008 0.587 -0.005 Q 0.587 -0.001 0.58 -0.001 Q 0.5690000000000001 -0.001 0.546 -0.039 Q 0.539 -0.052000000000000005 0.535 -0.063 Q 0.501 -0.025 0.458 -0.006 L 0.448 -0.002 Q 0.39 0.022 0.323 0.022 Q 0.188 0.022 0.111 -0.07200000000000001 Q 0.05 -0.146 0.05 -0.252 Q 0.05 -0.401 0.159 -0.531 Q 0.26 -0.652 0.398 -0.6910000000000001 Q 0.449 -0.705 0.498 -0.705 Q 0.607 -0.705 0.664 -0.616 L 0.734 -0.6930000000000001 Q 0.746 -0.705 0.749 -0.705 Q 0.76 -0.705 0.76 -0.6950000000000001 Z"/></g></g><g transform="scale(25,25)"><g transform="translate(39.36,22.403)"><path fill="rgb(0,0,0)" stroke="none" paint-order="stroke fill markers" d=" M 0.763 -0.606 L 0.628 -0.066 L 0.625 -0.049 Q 0.625 -0.032 0.672 -0.031 L 0.673 -0.031 L 0.6900000000000001 -0.031 Q 0.716 -0.031 0.718 -0.02 Q 0.718 0 0.6980000000000001 0 L 0.634 -0.002 L 0.633 -0.002 L 0.5710000000000001 -0.003 L 0.5690000000000001 -0.003 L 0.443 0 L 0.442 0 Q 0.428 0 0.428 -0.011 Q 0.428 -0.029 0.442 -0.031 L 0.442 -0.031 L 0.442 -0.031 L 0.452 -0.031 Q 0.515 -0.031 0.529 -0.041 L 0.53 -0.042 Q 0.538 -0.049 0.543 -0.064 L 0.612 -0.34 L 0.307 -0.34 L 0.23900000000000002 -0.066 L 0.23600000000000002 -0.049 Q 0.23600000000000002 -0.032 0.28200000000000003 -0.031 L 0.28200000000000003 -0.031 L 0.28200000000000003 -0.031 L 0.301 -0.031 Q 0.327 -0.031 0.329 -0.02 Q 0.329 0 0.309 0 L 0.245 -0.002 L 0.244 -0.002 L 0.182 -0.003 L 0.18 -0.003 L 0.054 0 L 0.053 0 Q 0.039 0 0.039 -0.011 Q 0.039 -0.029 0.054 -0.031 L 0.066 -0.031 Q 0.131 -0.031 0.14400000000000002 -0.045 Q 0.15 -0.052000000000000005 0.156 -0.073 Q 0.156 -0.074 0.157 -0.078 L 0.291 -0.615 Q 0.295 -0.631 0.295 -0.634 Q 0.295 -0.646 0.279 -0.649 L 0.278 -0.649 L 0.277 -0.649 Q 0.274 -0.649 0.268 -0.65 Q 0.251 -0.652 0.23 -0.652 Q 0.20400000000000001 -0.652 0.202 -0.663 Q 0.202 -0.683 0.221 -0.683 L 0.34900000000000003 -0.68 L 0.35000000000000003 -0.68 L 0.47700000000000004 -0.683 L 0.47800000000000004 -0.683 Q 0.492 -0.683 0.492 -0.672 Q 0.492 -0.655 0.47800000000000004 -0.653 L 0.47700000000000004 -0.653 L 0.47700000000000004 -0.653 L 0.47700000000000004 -0.653 L 0.47600000000000003 -0.652 L 0.458 -0.652 Q 0.397 -0.652 0.385 -0.635 L 0.384 -0.635 L 0.384 -0.634 Q 0.379 -0.627 0.374 -0.606 L 0.315 -0.371 L 0.62 -0.371 L 0.68 -0.615 Q 0.684 -0.632 0.684 -0.634 Q 0.684 -0.646 0.668 -0.649 Q 0.665 -0.649 0.657 -0.65 Q 0.64 -0.652 0.619 -0.652 Q 0.593 -0.652 0.591 -0.663 Q 0.591 -0.683 0.61 -0.683 L 0.738 -0.68 L 0.739 -0.68 L 0.866 -0.683 L 0.867 -0.683 Q 0.881 -0.683 0.881 -0.672 Q 0.881 -0.655 0.867 -0.653 L 0.866 -0.653 Q 0.861 -0.652 0.847 -0.652 Q 0.786 -0.652 0.774 -0.636 Q 0.769 -0.629 0.763 -0.606 Z"/></g></g><g transform="scale(25,25)"><g transform="translate(38.92,7.723)"><path fill="rgb(0,0,0)" stroke="none" paint-order="stroke fill markers" d=" M 0.374 -0.606 L 0.24 -0.073 Q 0.23600000000000002 -0.059000000000000004 0.23600000000000002 -0.05 Q 0.23600000000000002 -0.037 0.25 -0.034 L 0.251 -0.034 L 0.252 -0.034 Q 0.256 -0.033 0.261 -0.033 Q 0.281 -0.031 0.304 -0.031 Q 0.331 -0.031 0.333 -0.024 Q 0.334 -0.022 0.334 -0.019 Q 0.334 0 0.314 0 L 0.181 -0.003 L 0.18 -0.003 L 0.05 0 L 0.049 0 Q 0.034 0 0.034 -0.011 Q 0.034 -0.028 0.048 -0.03 Q 0.053 -0.031 0.066 -0.031 Q 0.133 -0.031 0.146 -0.048 Q 0.151 -0.055 0.157 -0.078 L 0.292 -0.617 Q 0.294 -0.626 0.294 -0.633 Q 0.294 -0.651 0.252 -0.652 L 0.251 -0.652 L 0.225 -0.652 Q 0.199 -0.652 0.197 -0.663 Q 0.197 -0.683 0.217 -0.683 L 0.34900000000000003 -0.68 L 0.35000000000000003 -0.68 L 0.481 -0.683 L 0.482 -0.683 Q 0.497 -0.683 0.497 -0.671 Q 0.497 -0.654 0.483 -0.653 Q 0.47800000000000004 -0.652 0.465 -0.652 Q 0.398 -0.652 0.385 -0.636 Q 0.38 -0.629 0.374 -0.606 Z"/></g></g><g transform="scale(25,25)"><g transform="translate(44.72,12.923)"><path fill="rgb(0,0,0)" stroke="none" paint-order="stroke fill markers" d=" M 0.541 -0.61 L 0.424 -0.14300000000000002 Q 0.403 -0.059000000000000004 0.318 -0.01 Q 0.262 0.022 0.203 0.022 Q 0.122 0.022 0.08700000000000001 -0.032 Q 0.07100000000000001 -0.057 0.07100000000000001 -0.08700000000000001 Q 0.07100000000000001 -0.151 0.122 -0.165 Q 0.131 -0.167 0.138 -0.167 Q 0.169 -0.167 0.179 -0.14200000000000002 L 0.179 -0.14100000000000001 Q 0.182 -0.134 0.182 -0.125 Q 0.182 -0.091 0.152 -0.07100000000000001 Q 0.136 -0.061 0.117 -0.061 Q 0.108 -0.061 0.105 -0.062 Q 0.122 -0.007 0.189 -0.001 Q 0.195 0 0.2 0 Q 0.253 0 0.299 -0.057 Q 0.331 -0.096 0.34400000000000003 -0.15 L 0.459 -0.609 Q 0.463 -0.625 0.463 -0.63 Q 0.463 -0.644 0.447 -0.647 Q 0.442 -0.649 0.432 -0.65 Q 0.40700000000000003 -0.652 0.374 -0.652 Q 0.343 -0.652 0.341 -0.658 Q 0.34 -0.66 0.34 -0.663 Q 0.34 -0.683 0.361 -0.683 L 0.507 -0.68 L 0.508 -0.68 L 0.618 -0.683 L 0.619 -0.683 Q 0.633 -0.683 0.633 -0.671 Q 0.623 -0.653 0.606 -0.652 Q 0.559 -0.652 0.55 -0.637 Q 0.546 -0.63 0.541 -0.61 Z"/></g></g><g transform="scale(25,25)"><g transform="translate(47.12,19.283)"><path fill="rgb(0,0,0)" stroke="none" paint-order="stroke fill markers" d=" M 0.509 -0.404 L 0.509 -0.404 L 0.651 -0.076 Q 0.666 -0.042 0.6880000000000001 -0.035 L 0.6890000000000001 -0.035 L 0.6900000000000001 -0.035 L 0.6900000000000001 -0.035 Q 0.7010000000000001 -0.031 0.72 -0.031 Q 0.74 -0.031 0.74 -0.02 Q 0.74 0 0.722 0 L 0.625 -0.003 L 0.624 -0.003 L 0.505 0 L 0.502 0 Q 0.488 0 0.488 -0.011 Q 0.494 -0.03 0.51 -0.031 Q 0.562 -0.031 0.562 -0.062 Q 0.562 -0.07 0.55 -0.097 L 0.434 -0.366 L 0.28500000000000003 -0.25 Q 0.256 -0.132 0.245 -0.093 Q 0.23600000000000002 -0.048 0.23600000000000002 -0.049 Q 0.23600000000000002 -0.032 0.28200000000000003 -0.031 L 0.28200000000000003 -0.031 L 0.28200000000000003 -0.031 L 0.301 -0.031 Q 0.327 -0.031 0.329 -0.02 Q 0.329 0 0.309 0 L 0.245 -0.002 L 0.244 -0.002 L 0.182 -0.003 L 0.18 -0.003 L 0.054 0 L 0.053 0 Q 0.038 0 0.038 -0.012 Q 0.038 -0.029 0.054 -0.031 L 0.066 -0.031 Q 0.131 -0.031 0.14400000000000002 -0.045 Q 0.15 -0.052000000000000005 0.156 -0.073 Q 0.156 -0.074 0.157 -0.078 L 0.291 -0.615 Q 0.295 -0.631 0.295 -0.634 Q 0.295 -0.646 0.279 -0.649 L 0.278 -0.649 L 0.278 -0.649 Q 0.276 -0.65 0.273 -0.65 Q 0.249 -0.652 0.23 -0.652 Q 0.20400000000000001 -0.652 0.202 -0.66 Q 0.201 -0.662 0.201 -0.664 Q 0.201 -0.683 0.221 -0.683 L 0.34900000000000003 -0.68 L 0.35000000000000003 -0.68 L 0.47700000000000004 -0.683 L 0.47800000000000004 -0.683 Q 0.492 -0.683 0.492 -0.672 Q 0.492 -0.655 0.47700000000000004 -0.653 L 0.47700000000000004 -0.653 Q 0.47200000000000003 -0.652 0.458 -0.652 Q 0.397 -0.652 0.385 -0.636 Q 0.38 -0.629 0.374 -0.606 L 0.294 -0.28500000000000003 L 0.684 -0.585 Q 0.72 -0.615 0.72 -0.631 Q 0.72 -0.648 0.6930000000000001 -0.652 L 0.6930000000000001 -0.652 L 0.6890000000000001 -0.652 Q 0.677 -0.654 0.677 -0.663 Q 0.677 -0.683 0.6960000000000001 -0.683 L 0.806 -0.68 L 0.807 -0.68 L 0.877 -0.683 L 0.878 -0.683 Q 0.889 -0.683 0.889 -0.672 Q 0.889 -0.655 0.871 -0.652 Q 0.8160000000000001 -0.646 0.753 -0.607 Q 0.732 -0.594 0.708 -0.5760000000000001 L 0.533 -0.441 Q 0.504 -0.42 0.504 -0.418 L 0.509 -0.404 Z"/></g></g><g transform="scale(25,25)"><g transform="translate(46.08,15.483)"><path fill="rgb(0,0,0)" stroke="none" paint-order="stroke fill markers" d=" M 0.374 -0.605 L 0.23900000000000002 -0.065 Q 0.234 -0.047 0.234 -0.042 Q 0.234 -0.034 0.243 -0.032 L 0.243 -0.032 L 0.243 -0.032 L 0.247 -0.032 Q 0.253 -0.031 0.269 -0.031 L 0.363 -0.031 Q 0.509 -0.031 0.5750000000000001 -0.147 Q 0.592 -0.177 0.614 -0.23700000000000002 Q 0.622 -0.256 0.627 -0.257 L 0.628 -0.258 L 0.631 -0.258 Q 0.642 -0.258 0.643 -0.247 Q 0.643 -0.244 0.639 -0.233 L 0.56 -0.017 Q 0.555 -0.002 0.547 -0.001 L 0.547 -0.001 L 0.546 -0.001 Q 0.542 0 0.529 0 L 0.066 0 Q 0.041 0 0.039 -0.011 Q 0.039 -0.029 0.054 -0.031 L 0.066 -0.031 Q 0.131 -0.031 0.14400000000000002 -0.045 Q 0.15 -0.052000000000000005 0.156 -0.073 Q 0.156 -0.074 0.157 -0.078 L 0.291 -0.615 Q 0.295 -0.631 0.295 -0.634 Q 0.295 -0.646 0.279 -0.649 L 0.278 -0.649 L 0.277 -0.649 Q 0.274 -0.649 0.268 -0.65 Q 0.251 -0.652 0.23 -0.652 Q 0.20400000000000001 -0.652 0.202 -0.663 Q 0.202 -0.683 0.221 -0.683 L 0.353 -0.68 L 0.354 -0.68 L 0.501 -0.683 L 0.502 -0.683 Q 0.518 -0.683 0.518 -0.671 Q 0.518 -0.655 0.505 -0.653 Q 0.499 -0.652 0.48 -0.652 Q 0.401 -0.652 0.386 -0.635 Q 0.38 -0.628 0.374 -0.605 Z"/></g></g><g transform="scale(25,25)"><g transform="translate(32.28,22.163)"><path fill="rgb(0,0,0)" stroke="none" paint-order="stroke fill markers" d=" M 0.74 -0.436 L 0.74 -0.436 Q 0.74 -0.281 0.63 -0.149 Q 0.531 -0.029 0.398 0.009000000000000001 Q 0.35100000000000003 0.022 0.305 0.022 Q 0.18 0.022 0.108 -0.066 Q 0.049 -0.138 0.049 -0.245 Q 0.049 -0.395 0.156 -0.529 Q 0.255 -0.65 0.388 -0.6900000000000001 Q 0.437 -0.705 0.485 -0.705 Q 0.612 -0.705 0.684 -0.613 Q 0.74 -0.541 0.74 -0.436 M 0.311 -0.004 L 0.311 -0.004 Q 0.405 -0.004 0.492 -0.088 Q 0.51 -0.105 0.525 -0.124 Q 0.623 -0.246 0.646 -0.41500000000000004 Q 0.651 -0.448 0.651 -0.47500000000000003 Q 0.651 -0.612 0.559 -0.661 Q 0.558 -0.661 0.557 -0.662 Q 0.521 -0.68 0.47900000000000004 -0.68 Q 0.385 -0.68 0.297 -0.599 Q 0.261 -0.5670000000000001 0.233 -0.524 Q 0.157 -0.40900000000000003 0.14400000000000002 -0.249 Q 0.14200000000000002 -0.231 0.14200000000000002 -0.217 Q 0.14200000000000002 -0.089 0.219 -0.033 Q 0.259 -0.004 0.311 -0.004 Z"/></g></g></g></g></svg>