<svg version="1.1" xmlns="http://www.w3.org/2000/svg" xmlns:xlink="http://www.w3.org/1999/xlink" width="1698" height="990"><defs><clipPath id="AOVgTTctOyPS"><path fill="none" stroke="none" d=" M 0 0 L 1698 0 L 1698 990 L 0 990 L 0 0 Z"/></clipPath></defs><g transform="scale(1,1)" clip-path="url(#AOVgTTctOyPS)"><g><rect fill="rgb(255,255,255)" stroke="none" x="0" y="0" width="1699" height="991" fill-opacity="1"/><path fill="rgb(0,0,0)" stroke="none" paint-order="stroke fill markers" d=" M 1429.8497439857106 480.3649882585968 C 1429.8497439857106 231.61746138569214 1177.787602904967 29.967748521097406 866.8531943138358 29.967748521097406 C 555.9187857227048 29.967748521097406 303.8566446419612 231.61746138569214 303.8566446419612 480.3649882585968 C 303.8566446419612 729.1125151315015 555.9187857227048 930.7622279960962 866.8531943138358 930.7622279960962 C 1177.787602904967 930.7622279960962 1429.8497439857106 729.1125151315015 1429.8497439857106 480.3649882585968 Z" fill-opacity="0.047058823529411764"/><path fill="none" stroke="rgb(0,0,0)" paint-order="fill stroke markers" d=" M 1429.8497439857106 480.3649882585968 C 1429.8497439857106 231.61746138569214 1177.787602904967 29.967748521097406 866.8531943138358 29.967748521097406 C 555.9187857227048 29.967748521097406 303.8566446419612 231.61746138569214 303.8566446419612 480.3649882585968 C 303.8566446419612 729.1125151315015 555.9187857227048 930.7622279960962 866.8531943138358 930.7622279960962 C 1177.787602904967 930.7622279960962 1429.8497439857106 729.1125151315015 1429.8497439857106 480.3649882585968 Z" stroke-opacity="0.6980392156862745" stroke-linecap="round" stroke-linejoin="round" stroke-miterlimit="10" stroke-width="2.5"/><path fill="rgb(0,0,0)" stroke="none" paint-order="stroke fill markers" d=" M 1297.9314466943001 480.3649882585968 C 1297.9314466943001 656.2560513138106 1155.3435673034248 798.8439307046858 979.4525042482107 798.8439307046858 C 803.5614411929968 798.8439307046858 660.9735618021216 656.2560513138106 660.9735618021216 480.3649882585968 C 660.9735618021216 304.4739252033829 803.5614411929968 161.8860458125078 979.4525042482107 161.8860458125078 C 1155.3435673034248 161.8860458125078 1297.9314466943001 304.4739252033829 1297.9314466943001 480.3649882585968 Z" fill-opacity="0.3764705882352941"/><path fill="none" stroke="rgb(0,0,0)" paint-order="fill stroke markers" d=" M 1297.9314466943001 480.3649882585968 C 1297.9314466943001 656.2560513138106 1155.3435673034248 798.8439307046858 979.4525042482107 798.8439307046858 C 803.5614411929968 798.8439307046858 660.9735618021216 656.2560513138106 660.9735618021216 480.3649882585968 C 660.9735618021216 304.4739252033829 803.5614411929968 161.8860458125078 979.4525042482107 161.8860458125078 C 1155.3435673034248 161.8860458125078 1297.9314466943001 304.4739252033829 1297.9314466943001 480.3649882585968 Z" stroke-opacity="0.6980392156862745" stroke-linecap="round" stroke-linejoin="round" stroke-miterlimit="10" stroke-width="2.5"/><path fill="rgb(0,0,0)" stroke="none" paint-order="stroke fill markers" d=" M 1072.73282682555 480.3649882585968 C 1072.73282682555 656.2560513138106 930.1449474346749 798.8439307046858 754.2538843794609 798.8439307046858 C 578.362821324247 798.8439307046858 435.77494193337174 656.2560513138106 435.77494193337174 480.3649882585968 C 435.77494193337174 304.4739252033829 578.362821324247 161.8860458125078 754.2538843794609 161.8860458125078 C 930.1449474346749 161.8860458125078 1072.73282682555 304.4739252033829 1072.73282682555 480.3649882585968 Z" fill-opacity="0.18823529411764706"/><path fill="none" stroke="rgb(0,0,0)" paint-order="fill stroke markers" d=" M 1072.73282682555 480.3649882585968 C 1072.73282682555 656.2560513138106 930.1449474346749 798.8439307046858 754.2538843794609 798.8439307046858 C 578.362821324247 798.8439307046858 435.77494193337174 656.2560513138106 435.77494193337174 480.3649882585968 C 435.77494193337174 304.4739252033829 578.362821324247 161.8860458125078 754.2538843794609 161.8860458125078 C 930.1449474346749 161.8860458125078 1072.73282682555 304.4739252033829 1072.73282682555 480.3649882585968 Z" stroke-opacity="0.6980392156862745" stroke-linecap="round" stroke-linejoin="round" stroke-miterlimit="10" stroke-width="2.5"/><path fill="rgb(0,0,0)" stroke="none" paint-order="stroke fill markers" d=" M 1260.950779084148 480.3649882585968 C 1260.950779084148 604.7387516950491 1160.1259226518507 705.5636081273465 1035.7521592153983 705.5636081273465 C 911.3783957789459 705.5636081273465 810.5535393466484 604.7387516950491 810.5535393466484 480.3649882585968 C 810.5535393466484 355.99122482214443 911.3783957789459 255.1663683898471 1035.7521592153983 255.1663683898471 C 1160.1259226518507 255.1663683898471 1260.950779084148 355.99122482214443 1260.950779084148 480.3649882585968 Z" fill-opacity="0.5176470588235295"/><path fill="none" stroke="rgb(0,0,0)" paint-order="fill stroke markers" d=" M 1260.950779084148 480.3649882585968 C 1260.950779084148 604.7387516950491 1160.1259226518507 705.5636081273465 1035.7521592153983 705.5636081273465 C 911.3783957789459 705.5636081273465 810.5535393466484 604.7387516950491 810.5535393466484 480.3649882585968 C 810.5535393466484 355.99122482214443 911.3783957789459 255.1663683898471 1035.7521592153983 255.1663683898471 C 1160.1259226518507 255.1663683898471 1260.950779084148 355.99122482214443 1260.950779084148 480.3649882585968 Z" stroke-opacity="0.6980392156862745" stroke-linecap="round" stroke-linejoin="round" stroke-miterlimit="10" stroke-width="2.5"/><text fill="rgb(0,0,0)" stroke="none" font-family="geogebra-sans-serif, sans-serif" font-size="128px" font-style="normal" font-weight="bold" text-decoration="normal" x="800" y="150" text-anchor="start" dominant-baseline="alphabetic" fill-opacity="1">环</text><text fill="rgb(64,64,64)" stroke="none" font-family="geogebra-sans-serif, sans-serif" font-size="64px" font-style="normal" font-weight="bold" text-decoration="normal" x="455" y="500" text-anchor="start" dominant-baseline="alphabetic" fill-opacity="1">交换环</text><text fill="rgb(255,255,255)" stroke="none" font-family="geogebra-sans-serif, sans-serif" font-size="32px" font-style="normal" font-weight="bold" text-decoration="normal" x="972" y="232" text-anchor="start" dominant-baseline="alphabetic" fill-opacity="1">无零因子环</text><text fill="rgb(255,255,255)" stroke="none" font-family="geogebra-sans-serif, sans-serif" font-size="64px" font-style="normal" font-weight="bold" text-decoration="normal" x="677" y="500" text-anchor="start" dominant-baseline="alphabetic" fill-opacity="1">整环</text><text fill="rgb(255,255,255)" stroke="none" font-family="geogebra-sans-serif, sans-serif" font-size="64px" font-style="normal" font-weight="bold" text-decoration="normal" x="1098" y="506" text-anchor="start" dominant-baseline="alphabetic" fill-opacity="1">除环</text><text fill="rgb(255,255,255)" stroke="none" font-family="geogebra-sans-serif, sans-serif" font-size="64px" font-style="normal" font-weight="bold" text-decoration="normal" x="905" y="500" text-anchor="start" dominant-baseline="alphabetic" fill-opacity="1">域</text></g></g></svg>