<svg version="1.1" xmlns="http://www.w3.org/2000/svg" xmlns:xlink="http://www.w3.org/1999/xlink" width="1318" height="990"><defs><clipPath id="RnOzaHzHCrBs"><path fill="none" stroke="none" d=" M 0 0 L 1318 0 L 1318 990 L 0 990 L 0 0 Z"/></clipPath></defs><g transform="scale(1,1)" clip-path="url(#RnOzaHzHCrBs)"><g><rect fill="rgb(255,255,255)" stroke="none" x="0" y="0" width="1319" height="991" fill-opacity="1"/><path fill="rgb(0,0,0)" stroke="none" paint-order="stroke fill markers" d=" M 1024.8423727835943 469.6255499878903 C 1024.8423727835943 687.801975535397 847.9754341709446 864.6689141480463 629.7990086234374 864.6689141480463 C 411.62258307593027 864.6689141480463 234.75564446328065 687.801975535397 234.75564446328065 469.6255499878903 C 234.75564446328065 251.44912444038354 411.62258307593027 74.58218582773429 629.7990086234374 74.58218582773429 C 847.9754341709446 74.58218582773429 1024.8423727835943 251.44912444038354 1024.8423727835943 469.6255499878903 Z" fill-opacity="0.17647058823529413"/><path fill="none" stroke="rgb(0,0,0)" paint-order="fill stroke markers" d=" M 1024.8423727835943 469.6255499878903 C 1024.8423727835943 687.801975535397 847.9754341709446 864.6689141480463 629.7990086234374 864.6689141480463 C 411.62258307593027 864.6689141480463 234.75564446328065 687.801975535397 234.75564446328065 469.6255499878903 C 234.75564446328065 251.44912444038354 411.62258307593027 74.58218582773429 629.7990086234374 74.58218582773429 C 847.9754341709446 74.58218582773429 1024.8423727835943 251.44912444038354 1024.8423727835943 469.6255499878903 Z" stroke-opacity="1" stroke-linecap="round" stroke-linejoin="round" stroke-miterlimit="10" stroke-width="6.5"/></g></g></svg>