<svg version="1.1" xmlns="http://www.w3.org/2000/svg" xmlns:xlink="http://www.w3.org/1999/xlink" width="1706" height="990"><defs><clipPath id="eTnvmxJFeeOd"><path fill="none" stroke="none" d=" M 0 0 L 1706 0 L 1706 990 L 0 990 L 0 0 Z"/></clipPath></defs><g transform="scale(1,1)" clip-path="url(#eTnvmxJFeeOd)"><g><rect fill="rgb(255,255,255)" stroke="none" x="0" y="0" width="1707" height="991" fill-opacity="1"/><path fill="none" stroke="rgb(0,0,0)" paint-order="fill stroke markers" d=" M 1124.6665099581292 510.360966704753 C 1124.6665099581292 690.319132332443 978.7815924972037 836.2040497933679 798.8234268695131 836.2040497933679 C 618.8652612418224 836.2040497933679 472.9803437808971 690.319132332443 472.9803437808971 510.360966704753 C 472.9803437808971 330.40280107706303 618.8652612418224 184.51788361613825 798.8234268695131 184.51788361613825 C 978.7815924972037 184.51788361613825 1124.6665099581292 330.40280107706303 1124.6665099581292 510.360966704753 Z" stroke-opacity="0.6980392156862745" stroke-linecap="round" stroke-linejoin="round" stroke-miterlimit="10" stroke-width="2.5"/><path fill="none" stroke="rgb(0,0,0)" paint-order="fill stroke markers" d=" M 1124.657204028196 511.9926233201261 C 1124.657204028196 612.9475428227072 1042.8170716422153 694.7876752086877 941.8621521396338 694.7876752086877 C 840.9072326370524 694.7876752086877 759.0671002510717 612.9475428227072 759.0671002510717 511.9926233201261 C 759.0671002510717 411.03770381754504 840.9072326370524 329.1975714315646 941.8621521396338 329.1975714315646 C 1042.8170716422153 329.1975714315646 1124.657204028196 411.03770381754504 1124.657204028196 511.9926233201261 Z" stroke-opacity="0.6980392156862745" stroke-linecap="round" stroke-linejoin="round" stroke-miterlimit="10" stroke-width="2.5"/><path fill="none" stroke="rgb(0,0,0)" paint-order="fill stroke markers" d=" M 944.0623631754353 510.6807413995406 C 944.0623631754353 575.4118146740452 891.5874601952329 627.8867176542475 826.856386920728 627.8867176542475 C 762.125313646223 627.8867176542475 709.6504106660207 575.4118146740452 709.6504106660207 510.6807413995406 C 709.6504106660207 445.9496681250359 762.125313646223 393.47476514483367 826.856386920728 393.47476514483367 C 891.5874601952329 393.47476514483367 944.0623631754353 445.9496681250359 944.0623631754353 510.6807413995406 Z" stroke-opacity="0.6980392156862745" stroke-linecap="round" stroke-linejoin="round" stroke-miterlimit="10" stroke-width="2.5"/><path fill="none" stroke="rgb(0,0,0)" paint-order="fill stroke markers" d=" M 1096.5856816938867 220.35384294188003 C 1096.5856816938867 302.7568849188339 1029.7848175296692 369.55774908305125 947.381775552715 369.55774908305125 C 864.9787335757608 369.55774908305125 798.1778694115433 302.7568849188339 798.1778694115433 220.35384294188003 C 798.1778694115433 137.95080096492612 864.9787335757608 71.14993680070882 947.381775552715 71.14993680070882 C 1029.7848175296692 71.14993680070882 1096.5856816938867 137.95080096492612 1096.5856816938867 220.35384294188003 Z" stroke-opacity="0.6980392156862745" stroke-linecap="round" stroke-linejoin="round" stroke-miterlimit="10" stroke-width="2.5"/><path fill="none" stroke="rgb(0,0,0)" paint-order="fill stroke markers" d=" M 1210.2786118857591 316.9753893596925 C 1210.2786118857591 399.3784313366463 1143.4777477215416 466.1792955008636 1061.0747057445874 466.1792955008636 C 978.6716637676333 466.1792955008636 911.8707996034158 399.3784313366463 911.8707996034158 316.9753893596925 C 911.8707996034158 234.57234738273863 978.6716637676333 167.77148321852138 1061.0747057445874 167.77148321852138 C 1143.4777477215416 167.77148321852138 1210.2786118857591 234.57234738273863 1210.2786118857591 316.9753893596925 Z" stroke-opacity="0.6980392156862745" stroke-linecap="round" stroke-linejoin="round" stroke-miterlimit="10" stroke-width="2.5"/><path fill="none" stroke="rgb(0,0,0)" paint-order="fill stroke markers" d=" M 1179.9105275441852 454.14475063401915 C 1179.9105275441852 487.3536400630035 1152.9894035350676 514.2747640721211 1119.780514106083 514.2747640721211 C 1086.5716246770985 514.2747640721211 1059.6505006679809 487.3536400630035 1059.6505006679809 454.14475063401915 C 1059.6505006679809 420.9358612050348 1086.5716246770985 394.01473719591723 1119.780514106083 394.01473719591723 C 1152.9894035350676 394.01473719591723 1179.9105275441852 420.9358612050348 1179.9105275441852 454.14475063401915 Z" stroke-opacity="0.6980392156862745" stroke-linecap="round" stroke-linejoin="round" stroke-miterlimit="10" stroke-width="2.5"/><path fill="rgb(0,0,0)" stroke="none" paint-order="stroke fill markers" d=" M 863.819198321657 511.10237977496104 C 863.9108010395996 503.0720528775354 862.5134797479988 495.09428057209277 859.6980080701646 487.57313302874763 L 798.8234268695131 510.360966704753 Z" fill-opacity="0.09803921568627451"/><path fill="none" stroke="rgb(0,0,0)" paint-order="fill stroke markers" d=" M 863.819198321657 511.10237977496104 C 863.9108010395996 503.0720528775354 862.5134797479988 495.09428057209277 859.6980080701646 487.57313302874763 L 798.8234268695131 510.360966704753 Z" stroke-opacity="0.6980392156862745" stroke-linecap="round" stroke-linejoin="round" stroke-miterlimit="10" stroke-width="2.5"/><path fill="none" stroke="rgb(0,0,0)" paint-order="fill stroke markers" d=" M 473.0015413665959 506.6442848487717 L 1124.6453123724305 514.0776485607344" stroke-opacity="0.6980392156862745" stroke-linecap="round" stroke-linejoin="round" stroke-miterlimit="10" stroke-width="2.5"/><path fill="none" stroke="rgb(0,0,0)" paint-order="fill stroke markers" d=" M 802.5401087254945 184.53908120183695 L 798.8234268695131 510.360966704753" stroke-opacity="0.6980392156862745" stroke-linecap="round" stroke-linejoin="round" stroke-miterlimit="10" stroke-width="2.5"/><path fill="none" stroke="rgb(0,0,0)" paint-order="fill stroke markers" d=" M 799.7525973335084 428.905495329024 L 1124.6453123724305 514.0776485607344" stroke-opacity="0.6980392156862745" stroke-linecap="round" stroke-linejoin="round" stroke-miterlimit="10" stroke-width="2.5"/><path fill="none" stroke="rgb(0,0,0)" paint-order="fill stroke markers" d=" M 799.7525973335084 428.905495329024 L 826.856386920728 510.6807413995406" stroke-opacity="0.6980392156862745" stroke-linecap="round" stroke-linejoin="round" stroke-miterlimit="10" stroke-width="2.5"/><path fill="none" stroke="rgb(0,0,0)" paint-order="fill stroke markers" d=" M 799.7525973335084 428.905495329024 L 759.0789919068374 509.9075980795178" stroke-opacity="0.6980392156862745" stroke-linecap="round" stroke-linejoin="round" stroke-miterlimit="10" stroke-width="2.5"/><path fill="none" stroke="rgb(0,0,0)" paint-order="fill stroke markers" d=" M 947.381775552715 220.35384294188003 L 944.0547383895951 512.0176343641826" stroke-opacity="0.6980392156862745" stroke-linecap="round" stroke-linejoin="round" stroke-miterlimit="10" stroke-width="2.5"/><path fill="none" stroke="rgb(0,0,0)" paint-order="fill stroke markers" d=" M 798.8234268695131 510.360966704753 L 1103.9859071794913 396.12622852167317" stroke-opacity="0.6980392156862745" stroke-linecap="round" stroke-linejoin="round" stroke-miterlimit="10" stroke-width="2.5"/><path fill="rgb(0,0,0)" stroke="none" paint-order="stroke fill markers" d=" M 804.8234268695131 510.360966704753 C 804.8234268695131 513.6746752037378 802.1371353684979 516.3609667047531 798.8234268695131 516.3609667047531 C 795.5097183705284 516.3609667047531 792.8234268695131 513.6746752037378 792.8234268695131 510.360966704753 C 792.8234268695131 507.0472582057683 795.5097183705284 504.360966704753 798.8234268695131 504.360966704753 C 802.1371353684979 504.360966704753 804.8234268695131 507.0472582057683 804.8234268695131 510.360966704753 Z" fill-opacity="1"/><path fill="none" stroke="rgb(0,0,0)" paint-order="fill stroke markers" d=" M 804.8234268695131 510.360966704753 C 804.8234268695131 513.6746752037378 802.1371353684979 516.3609667047531 798.8234268695131 516.3609667047531 C 795.5097183705284 516.3609667047531 792.8234268695131 513.6746752037378 792.8234268695131 510.360966704753 C 792.8234268695131 507.0472582057683 795.5097183705284 504.360966704753 798.8234268695131 504.360966704753 C 802.1371353684979 504.360966704753 804.8234268695131 507.0472582057683 804.8234268695131 510.360966704753 Z" stroke-opacity="1" stroke-linecap="round" stroke-linejoin="round" stroke-miterlimit="10"/><text fill="rgb(0,0,0)" stroke="none" font-family="geogebra-sans-serif, sans-serif" font-size="16px" font-style="normal" font-weight="normal" text-decoration="normal" x="795" y="534" text-anchor="start" dominant-baseline="alphabetic" fill-opacity="1">O</text><text fill="none" stroke="rgb(255,255,255)" font-family="geogebra-sans-serif, sans-serif" font-size="16px" font-style="normal" font-weight="normal" text-decoration="normal" x="795" y="534" text-anchor="start" dominant-baseline="alphabetic" stroke-opacity="1" stroke-linejoin="bevel" stroke-miterlimit="10" stroke-width="3">O</text><text fill="rgb(0,0,0)" stroke="none" font-family="geogebra-sans-serif, sans-serif" font-size="16px" font-style="normal" font-weight="normal" text-decoration="normal" x="795" y="534" text-anchor="start" dominant-baseline="alphabetic" fill-opacity="1">O</text><path fill="rgb(0,0,0)" stroke="none" paint-order="stroke fill markers" d=" M 479.0015413665959 506.6442848487717 C 479.0015413665959 509.9579933477564 476.31524986558065 512.6442848487717 473.0015413665959 512.6442848487717 C 469.6878328676112 512.6442848487717 467.0015413665959 509.9579933477564 467.0015413665959 506.6442848487717 C 467.0015413665959 503.33057634978695 469.6878328676112 500.6442848487717 473.0015413665959 500.6442848487717 C 476.31524986558065 500.6442848487717 479.0015413665959 503.33057634978695 479.0015413665959 506.6442848487717 Z" fill-opacity="1"/><path fill="none" stroke="rgb(0,0,0)" paint-order="fill stroke markers" d=" M 479.0015413665959 506.6442848487717 C 479.0015413665959 509.9579933477564 476.31524986558065 512.6442848487717 473.0015413665959 512.6442848487717 C 469.6878328676112 512.6442848487717 467.0015413665959 509.9579933477564 467.0015413665959 506.6442848487717 C 467.0015413665959 503.33057634978695 469.6878328676112 500.6442848487717 473.0015413665959 500.6442848487717 C 476.31524986558065 500.6442848487717 479.0015413665959 503.33057634978695 479.0015413665959 506.6442848487717 Z" stroke-opacity="1" stroke-linecap="round" stroke-linejoin="round" stroke-miterlimit="10"/><text fill="rgb(0,0,0)" stroke="none" font-family="geogebra-sans-serif, sans-serif" font-size="16px" font-style="normal" font-weight="normal" text-decoration="normal" x="447" y="523" text-anchor="start" dominant-baseline="alphabetic" fill-opacity="1">A</text><text fill="none" stroke="rgb(255,255,255)" font-family="geogebra-sans-serif, sans-serif" font-size="16px" font-style="normal" font-weight="normal" text-decoration="normal" x="447" y="523" text-anchor="start" dominant-baseline="alphabetic" stroke-opacity="1" stroke-linejoin="bevel" stroke-miterlimit="10" stroke-width="3">A</text><text fill="rgb(0,0,0)" stroke="none" font-family="geogebra-sans-serif, sans-serif" font-size="16px" font-style="normal" font-weight="normal" text-decoration="normal" x="447" y="523" text-anchor="start" dominant-baseline="alphabetic" fill-opacity="1">A</text><path fill="rgb(0,0,0)" stroke="none" paint-order="stroke fill markers" d=" M 1130.6453123724305 514.0776485607344 C 1130.6453123724305 517.3913570597191 1127.9590208714153 520.0776485607344 1124.6453123724305 520.0776485607344 C 1121.3316038734456 520.0776485607344 1118.6453123724305 517.3913570597191 1118.6453123724305 514.0776485607344 C 1118.6453123724305 510.7639400617496 1121.3316038734456 508.07764856073436 1124.6453123724305 508.07764856073436 C 1127.9590208714153 508.07764856073436 1130.6453123724305 510.7639400617496 1130.6453123724305 514.0776485607344 Z" fill-opacity="1"/><path fill="none" stroke="rgb(0,0,0)" paint-order="fill stroke markers" d=" M 1130.6453123724305 514.0776485607344 C 1130.6453123724305 517.3913570597191 1127.9590208714153 520.0776485607344 1124.6453123724305 520.0776485607344 C 1121.3316038734456 520.0776485607344 1118.6453123724305 517.3913570597191 1118.6453123724305 514.0776485607344 C 1118.6453123724305 510.7639400617496 1121.3316038734456 508.07764856073436 1124.6453123724305 508.07764856073436 C 1127.9590208714153 508.07764856073436 1130.6453123724305 510.7639400617496 1130.6453123724305 514.0776485607344 Z" stroke-opacity="1" stroke-linecap="round" stroke-linejoin="round" stroke-miterlimit="10"/><text fill="rgb(0,0,0)" stroke="none" font-family="geogebra-sans-serif, sans-serif" font-size="16px" font-style="normal" font-weight="normal" text-decoration="normal" x="1135" y="532" text-anchor="start" dominant-baseline="alphabetic" fill-opacity="1">B</text><text fill="none" stroke="rgb(255,255,255)" font-family="geogebra-sans-serif, sans-serif" font-size="16px" font-style="normal" font-weight="normal" text-decoration="normal" x="1135" y="532" text-anchor="start" dominant-baseline="alphabetic" stroke-opacity="1" stroke-linejoin="bevel" stroke-miterlimit="10" stroke-width="3">B</text><text fill="rgb(0,0,0)" stroke="none" font-family="geogebra-sans-serif, sans-serif" font-size="16px" font-style="normal" font-weight="normal" text-decoration="normal" x="1135" y="532" text-anchor="start" dominant-baseline="alphabetic" fill-opacity="1">B</text><path fill="rgb(0,0,0)" stroke="none" paint-order="stroke fill markers" d=" M 808.5401087254945 184.53908120183695 C 808.5401087254945 187.85278970082172 805.8538172244793 190.53908120183695 802.5401087254945 190.53908120183695 C 799.2264002265098 190.53908120183695 796.5401087254945 187.85278970082172 796.5401087254945 184.53908120183695 C 796.5401087254945 181.22537270285218 799.2264002265098 178.53908120183695 802.5401087254945 178.53908120183695 C 805.8538172244793 178.53908120183695 808.5401087254945 181.22537270285218 808.5401087254945 184.53908120183695 Z" fill-opacity="1"/><path fill="none" stroke="rgb(0,0,0)" paint-order="fill stroke markers" d=" M 808.5401087254945 184.53908120183695 C 808.5401087254945 187.85278970082172 805.8538172244793 190.53908120183695 802.5401087254945 190.53908120183695 C 799.2264002265098 190.53908120183695 796.5401087254945 187.85278970082172 796.5401087254945 184.53908120183695 C 796.5401087254945 181.22537270285218 799.2264002265098 178.53908120183695 802.5401087254945 178.53908120183695 C 805.8538172244793 178.53908120183695 808.5401087254945 181.22537270285218 808.5401087254945 184.53908120183695 Z" stroke-opacity="1" stroke-linecap="round" stroke-linejoin="round" stroke-miterlimit="10"/><text fill="rgb(0,0,0)" stroke="none" font-family="geogebra-sans-serif, sans-serif" font-size="16px" font-style="normal" font-weight="normal" text-decoration="normal" x="786" y="169" text-anchor="start" dominant-baseline="alphabetic" fill-opacity="1">C</text><text fill="none" stroke="rgb(255,255,255)" font-family="geogebra-sans-serif, sans-serif" font-size="16px" font-style="normal" font-weight="normal" text-decoration="normal" x="786" y="169" text-anchor="start" dominant-baseline="alphabetic" stroke-opacity="1" stroke-linejoin="bevel" stroke-miterlimit="10" stroke-width="3">C</text><text fill="rgb(0,0,0)" stroke="none" font-family="geogebra-sans-serif, sans-serif" font-size="16px" font-style="normal" font-weight="normal" text-decoration="normal" x="786" y="169" text-anchor="start" dominant-baseline="alphabetic" fill-opacity="1">C</text><path fill="rgb(0,0,0)" stroke="none" paint-order="stroke fill markers" d=" M 805.7525973335084 428.905495329024 C 805.7525973335084 432.21920382800874 803.0663058324932 434.905495329024 799.7525973335084 434.905495329024 C 796.4388888345237 434.905495329024 793.7525973335084 432.21920382800874 793.7525973335084 428.905495329024 C 793.7525973335084 425.59178683003927 796.4388888345237 422.905495329024 799.7525973335084 422.905495329024 C 803.0663058324932 422.905495329024 805.7525973335084 425.59178683003927 805.7525973335084 428.905495329024 Z" fill-opacity="1"/><path fill="none" stroke="rgb(0,0,0)" paint-order="fill stroke markers" d=" M 805.7525973335084 428.905495329024 C 805.7525973335084 432.21920382800874 803.0663058324932 434.905495329024 799.7525973335084 434.905495329024 C 796.4388888345237 434.905495329024 793.7525973335084 432.21920382800874 793.7525973335084 428.905495329024 C 793.7525973335084 425.59178683003927 796.4388888345237 422.905495329024 799.7525973335084 422.905495329024 C 803.0663058324932 422.905495329024 805.7525973335084 425.59178683003927 805.7525973335084 428.905495329024 Z" stroke-opacity="1" stroke-linecap="round" stroke-linejoin="round" stroke-miterlimit="10"/><text fill="rgb(0,0,0)" stroke="none" font-family="geogebra-sans-serif, sans-serif" font-size="16px" font-style="normal" font-weight="normal" text-decoration="normal" x="804" y="417" text-anchor="start" dominant-baseline="alphabetic" fill-opacity="1">D</text><text fill="none" stroke="rgb(255,255,255)" font-family="geogebra-sans-serif, sans-serif" font-size="16px" font-style="normal" font-weight="normal" text-decoration="normal" x="804" y="417" text-anchor="start" dominant-baseline="alphabetic" stroke-opacity="1" stroke-linejoin="bevel" stroke-miterlimit="10" stroke-width="3">D</text><text fill="rgb(0,0,0)" stroke="none" font-family="geogebra-sans-serif, sans-serif" font-size="16px" font-style="normal" font-weight="normal" text-decoration="normal" x="804" y="417" text-anchor="start" dominant-baseline="alphabetic" fill-opacity="1">D</text><path fill="rgb(0,0,0)" stroke="none" paint-order="stroke fill markers" d=" M 832.856386920728 510.6807413995406 C 832.856386920728 513.9944498985253 830.1700954197128 516.6807413995406 826.856386920728 516.6807413995406 C 823.5426784217433 516.6807413995406 820.856386920728 513.9944498985253 820.856386920728 510.6807413995406 C 820.856386920728 507.36703290055584 823.5426784217433 504.6807413995406 826.856386920728 504.6807413995406 C 830.1700954197128 504.6807413995406 832.856386920728 507.36703290055584 832.856386920728 510.6807413995406 Z" fill-opacity="1"/><path fill="none" stroke="rgb(0,0,0)" paint-order="fill stroke markers" d=" M 832.856386920728 510.6807413995406 C 832.856386920728 513.9944498985253 830.1700954197128 516.6807413995406 826.856386920728 516.6807413995406 C 823.5426784217433 516.6807413995406 820.856386920728 513.9944498985253 820.856386920728 510.6807413995406 C 820.856386920728 507.36703290055584 823.5426784217433 504.6807413995406 826.856386920728 504.6807413995406 C 830.1700954197128 504.6807413995406 832.856386920728 507.36703290055584 832.856386920728 510.6807413995406 Z" stroke-opacity="1" stroke-linecap="round" stroke-linejoin="round" stroke-miterlimit="10"/><text fill="rgb(0,0,0)" stroke="none" font-family="geogebra-sans-serif, sans-serif" font-size="16px" font-style="normal" font-weight="normal" text-decoration="normal" x="828" y="536" text-anchor="start" dominant-baseline="alphabetic" fill-opacity="1">E</text><text fill="none" stroke="rgb(255,255,255)" font-family="geogebra-sans-serif, sans-serif" font-size="16px" font-style="normal" font-weight="normal" text-decoration="normal" x="828" y="536" text-anchor="start" dominant-baseline="alphabetic" stroke-opacity="1" stroke-linejoin="bevel" stroke-miterlimit="10" stroke-width="3">E</text><text fill="rgb(0,0,0)" stroke="none" font-family="geogebra-sans-serif, sans-serif" font-size="16px" font-style="normal" font-weight="normal" text-decoration="normal" x="828" y="536" text-anchor="start" dominant-baseline="alphabetic" fill-opacity="1">E</text><path fill="rgb(0,0,0)" stroke="none" paint-order="stroke fill markers" d=" M 765.0789919068374 509.9075980795178 C 765.0789919068374 513.2213065785025 762.3927004058221 515.9075980795178 759.0789919068374 515.9075980795178 C 755.7652834078526 515.9075980795178 753.0789919068374 513.2213065785025 753.0789919068374 509.9075980795178 C 753.0789919068374 506.5938895805331 755.7652834078526 503.9075980795178 759.0789919068374 503.9075980795178 C 762.3927004058221 503.9075980795178 765.0789919068374 506.5938895805331 765.0789919068374 509.9075980795178 Z" fill-opacity="1"/><path fill="none" stroke="rgb(0,0,0)" paint-order="fill stroke markers" d=" M 765.0789919068374 509.9075980795178 C 765.0789919068374 513.2213065785025 762.3927004058221 515.9075980795178 759.0789919068374 515.9075980795178 C 755.7652834078526 515.9075980795178 753.0789919068374 513.2213065785025 753.0789919068374 509.9075980795178 C 753.0789919068374 506.5938895805331 755.7652834078526 503.9075980795178 759.0789919068374 503.9075980795178 C 762.3927004058221 503.9075980795178 765.0789919068374 506.5938895805331 765.0789919068374 509.9075980795178 Z" stroke-opacity="1" stroke-linecap="round" stroke-linejoin="round" stroke-miterlimit="10"/><text fill="rgb(0,0,0)" stroke="none" font-family="geogebra-sans-serif, sans-serif" font-size="16px" font-style="normal" font-weight="normal" text-decoration="normal" x="764" y="528" text-anchor="start" dominant-baseline="alphabetic" fill-opacity="1">F</text><text fill="none" stroke="rgb(255,255,255)" font-family="geogebra-sans-serif, sans-serif" font-size="16px" font-style="normal" font-weight="normal" text-decoration="normal" x="764" y="528" text-anchor="start" dominant-baseline="alphabetic" stroke-opacity="1" stroke-linejoin="bevel" stroke-miterlimit="10" stroke-width="3">F</text><text fill="rgb(0,0,0)" stroke="none" font-family="geogebra-sans-serif, sans-serif" font-size="16px" font-style="normal" font-weight="normal" text-decoration="normal" x="764" y="528" text-anchor="start" dominant-baseline="alphabetic" fill-opacity="1">F</text><path fill="rgb(0,0,0)" stroke="none" paint-order="stroke fill markers" d=" M 806.1215127462883 396.564627845425 C 806.1215127462883 399.8783363444097 803.435221245273 402.564627845425 800.1215127462883 402.564627845425 C 796.8078042473036 402.564627845425 794.1215127462883 399.8783363444097 794.1215127462883 396.564627845425 C 794.1215127462883 393.25091934644024 796.8078042473036 390.564627845425 800.1215127462883 390.564627845425 C 803.435221245273 390.564627845425 806.1215127462883 393.25091934644024 806.1215127462883 396.564627845425 Z" fill-opacity="1"/><path fill="none" stroke="rgb(0,0,0)" paint-order="fill stroke markers" d=" M 806.1215127462883 396.564627845425 C 806.1215127462883 399.8783363444097 803.435221245273 402.564627845425 800.1215127462883 402.564627845425 C 796.8078042473036 402.564627845425 794.1215127462883 399.8783363444097 794.1215127462883 396.564627845425 C 794.1215127462883 393.25091934644024 796.8078042473036 390.564627845425 800.1215127462883 390.564627845425 C 803.435221245273 390.564627845425 806.1215127462883 393.25091934644024 806.1215127462883 396.564627845425 Z" stroke-opacity="1" stroke-linecap="round" stroke-linejoin="round" stroke-miterlimit="10"/><text fill="rgb(0,0,0)" stroke="none" font-family="geogebra-sans-serif, sans-serif" font-size="16px" font-style="normal" font-weight="normal" text-decoration="normal" x="776" y="388" text-anchor="start" dominant-baseline="alphabetic" fill-opacity="1">G</text><text fill="none" stroke="rgb(255,255,255)" font-family="geogebra-sans-serif, sans-serif" font-size="16px" font-style="normal" font-weight="normal" text-decoration="normal" x="776" y="388" text-anchor="start" dominant-baseline="alphabetic" stroke-opacity="1" stroke-linejoin="bevel" stroke-miterlimit="10" stroke-width="3">G</text><text fill="rgb(0,0,0)" stroke="none" font-family="geogebra-sans-serif, sans-serif" font-size="16px" font-style="normal" font-weight="normal" text-decoration="normal" x="776" y="388" text-anchor="start" dominant-baseline="alphabetic" fill-opacity="1">G</text><path fill="rgb(0,0,0)" stroke="none" paint-order="stroke fill markers" d=" M 950.0547383895951 512.0176343641826 C 950.0547383895951 515.3313428631674 947.3684468885798 518.0176343641826 944.0547383895951 518.0176343641826 C 940.7410298906103 518.0176343641826 938.0547383895951 515.3313428631674 938.0547383895951 512.0176343641826 C 938.0547383895951 508.7039258651979 940.7410298906103 506.01763436418264 944.0547383895951 506.01763436418264 C 947.3684468885798 506.01763436418264 950.0547383895951 508.7039258651979 950.0547383895951 512.0176343641826 Z" fill-opacity="1"/><path fill="none" stroke="rgb(0,0,0)" paint-order="fill stroke markers" d=" M 950.0547383895951 512.0176343641826 C 950.0547383895951 515.3313428631674 947.3684468885798 518.0176343641826 944.0547383895951 518.0176343641826 C 940.7410298906103 518.0176343641826 938.0547383895951 515.3313428631674 938.0547383895951 512.0176343641826 C 938.0547383895951 508.7039258651979 940.7410298906103 506.01763436418264 944.0547383895951 506.01763436418264 C 947.3684468885798 506.01763436418264 950.0547383895951 508.7039258651979 950.0547383895951 512.0176343641826 Z" stroke-opacity="1" stroke-linecap="round" stroke-linejoin="round" stroke-miterlimit="10"/><text fill="rgb(0,0,0)" stroke="none" font-family="geogebra-sans-serif, sans-serif" font-size="16px" font-style="normal" font-weight="normal" text-decoration="normal" x="947" y="536" text-anchor="start" dominant-baseline="alphabetic" fill-opacity="1">H</text><text fill="none" stroke="rgb(255,255,255)" font-family="geogebra-sans-serif, sans-serif" font-size="16px" font-style="normal" font-weight="normal" text-decoration="normal" x="947" y="536" text-anchor="start" dominant-baseline="alphabetic" stroke-opacity="1" stroke-linejoin="bevel" stroke-miterlimit="10" stroke-width="3">H</text><text fill="rgb(0,0,0)" stroke="none" font-family="geogebra-sans-serif, sans-serif" font-size="16px" font-style="normal" font-weight="normal" text-decoration="normal" x="947" y="536" text-anchor="start" dominant-baseline="alphabetic" fill-opacity="1">H</text><path fill="rgb(0,0,0)" stroke="none" paint-order="stroke fill markers" d=" M 953.381775552715 220.35384294188003 C 953.381775552715 223.6675514408648 950.6954840516997 226.35384294188003 947.381775552715 226.35384294188003 C 944.0680670537303 226.35384294188003 941.381775552715 223.6675514408648 941.381775552715 220.35384294188003 C 941.381775552715 217.04013444289527 944.0680670537303 214.35384294188003 947.381775552715 214.35384294188003 C 950.6954840516997 214.35384294188003 953.381775552715 217.04013444289527 953.381775552715 220.35384294188003 Z" fill-opacity="1"/><path fill="none" stroke="rgb(0,0,0)" paint-order="fill stroke markers" d=" M 953.381775552715 220.35384294188003 C 953.381775552715 223.6675514408648 950.6954840516997 226.35384294188003 947.381775552715 226.35384294188003 C 944.0680670537303 226.35384294188003 941.381775552715 223.6675514408648 941.381775552715 220.35384294188003 C 941.381775552715 217.04013444289527 944.0680670537303 214.35384294188003 947.381775552715 214.35384294188003 C 950.6954840516997 214.35384294188003 953.381775552715 217.04013444289527 953.381775552715 220.35384294188003 Z" stroke-opacity="1" stroke-linecap="round" stroke-linejoin="round" stroke-miterlimit="10"/><text fill="rgb(0,0,0)" stroke="none" font-family="geogebra-sans-serif, sans-serif" font-size="16px" font-style="normal" font-weight="normal" text-decoration="normal" x="951" y="208" text-anchor="start" dominant-baseline="alphabetic" fill-opacity="1">I</text><text fill="none" stroke="rgb(255,255,255)" font-family="geogebra-sans-serif, sans-serif" font-size="16px" font-style="normal" font-weight="normal" text-decoration="normal" x="951" y="208" text-anchor="start" dominant-baseline="alphabetic" stroke-opacity="1" stroke-linejoin="bevel" stroke-miterlimit="10" stroke-width="3">I</text><text fill="rgb(0,0,0)" stroke="none" font-family="geogebra-sans-serif, sans-serif" font-size="16px" font-style="normal" font-weight="normal" text-decoration="normal" x="951" y="208" text-anchor="start" dominant-baseline="alphabetic" fill-opacity="1">I</text><path fill="rgb(68,68,68)" stroke="none" paint-order="stroke fill markers" d=" M 1065.0747057445874 316.9753893596925 C 1065.0747057445874 319.18452835901564 1063.2838447439105 320.9753893596925 1061.0747057445874 320.9753893596925 C 1058.8655667452642 320.9753893596925 1057.0747057445874 319.18452835901564 1057.0747057445874 316.9753893596925 C 1057.0747057445874 314.7662503603693 1058.8655667452642 312.9753893596925 1061.0747057445874 312.9753893596925 C 1063.2838447439105 312.9753893596925 1065.0747057445874 314.7662503603693 1065.0747057445874 316.9753893596925 Z" fill-opacity="1"/><path fill="none" stroke="rgb(0,0,0)" paint-order="fill stroke markers" d=" M 1065.0747057445874 316.9753893596925 C 1065.0747057445874 319.18452835901564 1063.2838447439105 320.9753893596925 1061.0747057445874 320.9753893596925 C 1058.8655667452642 320.9753893596925 1057.0747057445874 319.18452835901564 1057.0747057445874 316.9753893596925 C 1057.0747057445874 314.7662503603693 1058.8655667452642 312.9753893596925 1061.0747057445874 312.9753893596925 C 1063.2838447439105 312.9753893596925 1065.0747057445874 314.7662503603693 1065.0747057445874 316.9753893596925 Z" stroke-opacity="1" stroke-linecap="round" stroke-linejoin="round" stroke-miterlimit="10"/><text fill="rgb(68,68,68)" stroke="none" font-family="geogebra-sans-serif, sans-serif" font-size="16px" font-style="normal" font-weight="normal" text-decoration="normal" x="1079" y="323" text-anchor="start" dominant-baseline="alphabetic" fill-opacity="1">J</text><text fill="none" stroke="rgb(255,255,255)" font-family="geogebra-sans-serif, sans-serif" font-size="16px" font-style="normal" font-weight="normal" text-decoration="normal" x="1079" y="323" text-anchor="start" dominant-baseline="alphabetic" stroke-opacity="1" stroke-linejoin="bevel" stroke-miterlimit="10" stroke-width="3">J</text><text fill="rgb(68,68,68)" stroke="none" font-family="geogebra-sans-serif, sans-serif" font-size="16px" font-style="normal" font-weight="normal" text-decoration="normal" x="1079" y="323" text-anchor="start" dominant-baseline="alphabetic" fill-opacity="1">J</text><path fill="rgb(68,68,68)" stroke="none" paint-order="stroke fill markers" d=" M 1123.780514106083 454.14475063401915 C 1123.780514106083 456.3538896333423 1121.9896531054062 458.14475063401915 1119.780514106083 458.14475063401915 C 1117.57137510676 458.14475063401915 1115.780514106083 456.3538896333423 1115.780514106083 454.14475063401915 C 1115.780514106083 451.935611634696 1117.57137510676 450.14475063401915 1119.780514106083 450.14475063401915 C 1121.9896531054062 450.14475063401915 1123.780514106083 451.935611634696 1123.780514106083 454.14475063401915 Z" fill-opacity="1"/><path fill="none" stroke="rgb(0,0,0)" paint-order="fill stroke markers" d=" M 1123.780514106083 454.14475063401915 C 1123.780514106083 456.3538896333423 1121.9896531054062 458.14475063401915 1119.780514106083 458.14475063401915 C 1117.57137510676 458.14475063401915 1115.780514106083 456.3538896333423 1115.780514106083 454.14475063401915 C 1115.780514106083 451.935611634696 1117.57137510676 450.14475063401915 1119.780514106083 450.14475063401915 C 1121.9896531054062 450.14475063401915 1123.780514106083 451.935611634696 1123.780514106083 454.14475063401915 Z" stroke-opacity="1" stroke-linecap="round" stroke-linejoin="round" stroke-miterlimit="10"/><text fill="rgb(68,68,68)" stroke="none" font-family="geogebra-sans-serif, sans-serif" font-size="16px" font-style="normal" font-weight="normal" text-decoration="normal" x="1124" y="446" text-anchor="start" dominant-baseline="alphabetic" fill-opacity="1">K</text><text fill="none" stroke="rgb(255,255,255)" font-family="geogebra-sans-serif, sans-serif" font-size="16px" font-style="normal" font-weight="normal" text-decoration="normal" x="1124" y="446" text-anchor="start" dominant-baseline="alphabetic" stroke-opacity="1" stroke-linejoin="bevel" stroke-miterlimit="10" stroke-width="3">K</text><text fill="rgb(68,68,68)" stroke="none" font-family="geogebra-sans-serif, sans-serif" font-size="16px" font-style="normal" font-weight="normal" text-decoration="normal" x="1124" y="446" text-anchor="start" dominant-baseline="alphabetic" fill-opacity="1">K</text><path fill="rgb(68,68,68)" stroke="none" paint-order="stroke fill markers" d=" M 1107.9859071794913 396.12622852167317 C 1107.9859071794913 398.33536752099633 1106.1950461788144 400.12622852167317 1103.9859071794913 400.12622852167317 C 1101.7767681801681 400.12622852167317 1099.9859071794913 398.33536752099633 1099.9859071794913 396.12622852167317 C 1099.9859071794913 393.91708952235 1101.7767681801681 392.12622852167317 1103.9859071794913 392.12622852167317 C 1106.1950461788144 392.12622852167317 1107.9859071794913 393.91708952235 1107.9859071794913 396.12622852167317 Z" fill-opacity="1"/><path fill="none" stroke="rgb(0,0,0)" paint-order="fill stroke markers" d=" M 1107.9859071794913 396.12622852167317 C 1107.9859071794913 398.33536752099633 1106.1950461788144 400.12622852167317 1103.9859071794913 400.12622852167317 C 1101.7767681801681 400.12622852167317 1099.9859071794913 398.33536752099633 1099.9859071794913 396.12622852167317 C 1099.9859071794913 393.91708952235 1101.7767681801681 392.12622852167317 1103.9859071794913 392.12622852167317 C 1106.1950461788144 392.12622852167317 1107.9859071794913 393.91708952235 1107.9859071794913 396.12622852167317 Z" stroke-opacity="1" stroke-linecap="round" stroke-linejoin="round" stroke-miterlimit="10"/><text fill="rgb(68,68,68)" stroke="none" font-family="geogebra-sans-serif, sans-serif" font-size="16px" font-style="normal" font-weight="normal" text-decoration="normal" x="1108" y="388" text-anchor="start" dominant-baseline="alphabetic" fill-opacity="1">L</text><text fill="none" stroke="rgb(255,255,255)" font-family="geogebra-sans-serif, sans-serif" font-size="16px" font-style="normal" font-weight="normal" text-decoration="normal" x="1108" y="388" text-anchor="start" dominant-baseline="alphabetic" stroke-opacity="1" stroke-linejoin="bevel" stroke-miterlimit="10" stroke-width="3">L</text><text fill="rgb(68,68,68)" stroke="none" font-family="geogebra-sans-serif, sans-serif" font-size="16px" font-style="normal" font-weight="normal" text-decoration="normal" x="1108" y="388" text-anchor="start" dominant-baseline="alphabetic" fill-opacity="1">L</text><g transform="scale(14,14)"><g transform="translate(63.51396548656286,34.798857142857145)"><path fill="rgb(0,0,0)" stroke="none" paint-order="stroke fill markers" d=" M 0.17400000000000002 -0.188 L 0.251 -0.259 Q 0.281 -0.29 0.2955 -0.3055 Q 0.31 -0.321 0.33 -0.34900000000000003 Q 0.35000000000000003 -0.377 0.3585 -0.404 Q 0.367 -0.431 0.367 -0.461 Q 0.367 -0.523 0.328 -0.5685 Q 0.289 -0.614 0.222 -0.614 Q 0.161 -0.614 0.1315 -0.5730000000000001 Q 0.10200000000000001 -0.532 0.083 -0.459 Q 0.066 -0.484 0.061 -0.488 Q 0.06 -0.489 0.0545 -0.4965 Q 0.049 -0.504 0.042 -0.514 Q 0.088 -0.678 0.23600000000000002 -0.678 Q 0.332 -0.678 0.3905 -0.6155 Q 0.449 -0.553 0.449 -0.463 Q 0.449 -0.424 0.4315 -0.3865 Q 0.41400000000000003 -0.34900000000000003 0.398 -0.3305 Q 0.382 -0.312 0.35000000000000003 -0.28 Q 0.34 -0.271 0.3055 -0.241 Q 0.271 -0.211 0.261 -0.202 Q 0.254 -0.196 0.1975 -0.14100000000000001 Q 0.14100000000000001 -0.08600000000000001 0.122 -0.07 L 0.231 -0.07 Q 0.23700000000000002 -0.07 0.249 -0.07050000000000001 Q 0.261 -0.07100000000000001 0.267 -0.07100000000000001 L 0.449 -0.07100000000000001 L 0.449 0 L 0.05 0 L 0.05 -0.064 L 0.17400000000000002 -0.188 Z"/></g><g transform="translate(64.01396548656285,34.798857142857145)"><path fill="rgb(0,0,0)" stroke="none" paint-order="stroke fill markers" d=" M 0.265 -0.373 L 0.265 -0.373 L 0.209 -0.152 Q 0.192 -0.088 0.182 -0.054 Q 0.166 -0.005 0.152 0.005 L 0.152 0.006 Q 0.14300000000000002 0.011 0.132 0.011 Q 0.109 0.011 0.10400000000000001 -0.009000000000000001 Q 0.10300000000000001 -0.012 0.10300000000000001 -0.016 Q 0.10300000000000001 -0.025 0.111 -0.04 Q 0.20500000000000002 -0.243 0.23900000000000002 -0.373 L 0.182 -0.373 Q 0.10400000000000001 -0.373 0.055 -0.296 Q 0.046 -0.28400000000000003 0.039 -0.28400000000000003 Q 0.027 -0.28400000000000003 0.027 -0.294 Q 0.027 -0.305 0.063 -0.354 Q 0.07 -0.362 0.076 -0.37 Q 0.079 -0.374 0.083 -0.378 Q 0.085 -0.381 0.088 -0.384 Q 0.132 -0.431 0.192 -0.431 L 0.527 -0.431 Q 0.561 -0.431 0.5660000000000001 -0.41600000000000004 L 0.5660000000000001 -0.41500000000000004 Q 0.5670000000000001 -0.41200000000000003 0.5670000000000001 -0.40700000000000003 Q 0.5670000000000001 -0.373 0.518 -0.373 L 0.404 -0.373 Q 0.386 -0.28800000000000003 0.386 -0.214 Q 0.386 -0.121 0.41500000000000004 -0.049 Q 0.421 -0.035 0.421 -0.027 Q 0.421 -0.004 0.396 0.007 Q 0.388 0.011 0.38 0.011 Q 0.36 0.011 0.35000000000000003 -0.017 Q 0.34700000000000003 -0.026000000000000002 0.34400000000000003 -0.039 Q 0.336 -0.073 0.336 -0.115 Q 0.336 -0.181 0.363 -0.306 L 0.378 -0.373 L 0.265 -0.373 Z"/></g><rect fill="rgb(0,0,0)" stroke="none" x="63.51396548656286" y="35.205365642857146" width="1.1059999999999999" height="0.039999"/><g transform="translate(63.56696548656286,36.161316142857146)"><path fill="rgb(0,0,0)" stroke="none" paint-order="stroke fill markers" d=" M 0.299 -0.678 L 0.299 -0.058 L 0.424 -0.058 L 0.424 0 L 0.095 0 L 0.095 -0.058 L 0.22 -0.058 L 0.22 -0.578 Q 0.169 -0.556 0.089 -0.554 L 0.089 -0.612 Q 0.22 -0.617 0.279 -0.678 L 0.299 -0.678 Z"/></g><g transform="translate(64.06696548656285,36.161316142857146)"><path fill="rgb(0,0,0)" stroke="none" paint-order="stroke fill markers" d=" M 0.232 -0.585 L 0.042 -0.585 L 0.042 -0.656 L 0.457 -0.656 L 0.457 -0.591 Q 0.422 -0.552 0.3885 -0.5 Q 0.355 -0.448 0.318 -0.3715 Q 0.281 -0.295 0.2585 -0.195 Q 0.23600000000000002 -0.095 0.23600000000000002 0.011 L 0.152 0.011 Q 0.152 -0.325 0.389 -0.586 L 0.268 -0.586 Q 0.262 -0.586 0.25 -0.5855 Q 0.23800000000000002 -0.585 0.232 -0.585 Z"/></g></g></g></g></svg>