<svg version="1.1" xmlns="http://www.w3.org/2000/svg" xmlns:xlink="http://www.w3.org/1999/xlink" width="1698" height="990"><defs><clipPath id="yJWAzuNVHJBT"><path fill="none" stroke="none" d=" M 0 0 L 1698 0 L 1698 990 L 0 990 L 0 0 Z"/></clipPath></defs><g transform="scale(1,1)" clip-path="url(#yJWAzuNVHJBT)"><g><rect fill="rgb(255,255,255)" stroke="none" x="0" y="0" width="1699" height="991" fill-opacity="1"/><path fill="rgb(0,0,0)" stroke="none" paint-order="stroke fill markers" d=" M 1284.852274370506 485.6665014122216 C 1284.852274370506 736.507780737212 1081.5052397834388 939.8548153242791 830.6639604584483 939.8548153242791 C 579.8226811334578 939.8548153242791 376.4756465463907 736.507780737212 376.4756465463907 485.6665014122216 C 376.4756465463907 234.82522208723108 579.8226811334578 31.478187500164097 830.6639604584483 31.478187500164097 C 1081.5052397834388 31.478187500164097 1284.852274370506 234.82522208723108 1284.852274370506 485.6665014122216 Z" fill-opacity="0.0784313725490196"/><path fill="none" stroke="rgb(0,0,0)" paint-order="fill stroke markers" d=" M 1284.852274370506 485.6665014122216 C 1284.852274370506 736.507780737212 1081.5052397834388 939.8548153242791 830.6639604584483 939.8548153242791 C 579.8226811334578 939.8548153242791 376.4756465463907 736.507780737212 376.4756465463907 485.6665014122216 C 376.4756465463907 234.82522208723108 579.8226811334578 31.478187500164097 830.6639604584483 31.478187500164097 C 1081.5052397834388 31.478187500164097 1284.852274370506 234.82522208723108 1284.852274370506 485.6665014122216 Z" stroke-opacity="0.6980392156862745" stroke-linecap="round" stroke-linejoin="round" stroke-miterlimit="10" stroke-width="2.5"/><path fill="rgb(0,0,0)" stroke="none" paint-order="stroke fill markers" d=" M 1261.5448280365413 485.6665014122216 C 1261.5448280365413 644.3124561837162 1132.9368710893073 772.92041313095 974.2909163178126 772.92041313095 C 815.6449615463179 772.92041313095 687.0370045990841 644.3124561837162 687.0370045990841 485.6665014122216 C 687.0370045990841 327.0205466407268 815.6449615463179 198.4125896934931 974.2909163178126 198.4125896934931 C 1132.9368710893073 198.4125896934931 1261.5448280365413 327.0205466407268 1261.5448280365413 485.6665014122216 Z" fill-opacity="0.14901960784313725"/><path fill="none" stroke="rgb(0,0,0)" paint-order="fill stroke markers" d=" M 1261.5448280365413 485.6665014122216 C 1261.5448280365413 644.3124561837162 1132.9368710893073 772.92041313095 974.2909163178126 772.92041313095 C 815.6449615463179 772.92041313095 687.0370045990841 644.3124561837162 687.0370045990841 485.6665014122216 C 687.0370045990841 327.0205466407268 815.6449615463179 198.4125896934931 974.2909163178126 198.4125896934931 C 1132.9368710893073 198.4125896934931 1261.5448280365413 327.0205466407268 1261.5448280365413 485.6665014122216 Z" stroke-opacity="0.6980392156862745" stroke-linecap="round" stroke-linejoin="round" stroke-miterlimit="10" stroke-width="2.5"/><path fill="rgb(0,0,0)" stroke="none" paint-order="stroke fill markers" d=" M 1249.2235831461694 485.6665014122216 C 1249.2235831461694 597.8461318389598 1158.284024674233 688.7856903108964 1046.1043942474946 688.7856903108964 C 933.9247638207564 688.7856903108964 842.9852053488198 597.8461318389598 842.9852053488198 485.6665014122216 C 842.9852053488198 373.4868709854833 933.9247638207564 282.5473125135468 1046.1043942474946 282.5473125135468 C 1158.284024674233 282.5473125135468 1249.2235831461694 373.4868709854833 1249.2235831461694 485.6665014122216 Z" fill-opacity="0.11764705882352941"/><path fill="none" stroke="rgb(0,0,0)" paint-order="fill stroke markers" d=" M 1249.2235831461694 485.6665014122216 C 1249.2235831461694 597.8461318389598 1158.284024674233 688.7856903108964 1046.1043942474946 688.7856903108964 C 933.9247638207564 688.7856903108964 842.9852053488198 597.8461318389598 842.9852053488198 485.6665014122216 C 842.9852053488198 373.4868709854833 933.9247638207564 282.5473125135468 1046.1043942474946 282.5473125135468 C 1158.284024674233 282.5473125135468 1249.2235831461694 373.4868709854833 1249.2235831461694 485.6665014122216 Z" stroke-opacity="0.6980392156862745" stroke-linecap="round" stroke-linejoin="round" stroke-miterlimit="10" stroke-width="2.5"/><path fill="rgb(0,0,0)" stroke="none" paint-order="stroke fill markers" d=" M 1232.8194368646682 485.6665014122216 C 1232.8194368646682 564.989478797969 1168.5154583910514 629.2934572715858 1089.192481005304 629.2934572715858 C 1009.8695036195567 629.2934572715858 945.5655251459398 564.989478797969 945.5655251459398 485.6665014122216 C 945.5655251459398 406.34352402647426 1009.8695036195567 342.03954555285736 1089.192481005304 342.03954555285736 C 1168.5154583910514 342.03954555285736 1232.8194368646682 406.34352402647426 1232.8194368646682 485.6665014122216 Z" fill-opacity="0.14901960784313725"/><path fill="none" stroke="rgb(0,0,0)" paint-order="fill stroke markers" d=" M 1232.8194368646682 485.6665014122216 C 1232.8194368646682 564.989478797969 1168.5154583910514 629.2934572715858 1089.192481005304 629.2934572715858 C 1009.8695036195567 629.2934572715858 945.5655251459398 564.989478797969 945.5655251459398 485.6665014122216 C 945.5655251459398 406.34352402647426 1009.8695036195567 342.03954555285736 1089.192481005304 342.03954555285736 C 1168.5154583910514 342.03954555285736 1232.8194368646682 406.34352402647426 1232.8194368646682 485.6665014122216 Z" stroke-opacity="0.6980392156862745" stroke-linecap="round" stroke-linejoin="round" stroke-miterlimit="10" stroke-width="2.5"/><path fill="rgb(0,0,0)" stroke="none" paint-order="stroke fill markers" d=" M 1219.4774666265143 485.6665014122216 C 1219.4774666265143 541.7563166255907 1174.007687390546 587.226095861559 1117.9178721771768 587.226095861559 C 1061.8280569638077 587.226095861559 1016.3582777278394 541.7563166255907 1016.3582777278394 485.6665014122216 C 1016.3582777278394 429.5766861988524 1061.8280569638077 384.1069069628842 1117.9178721771768 384.1069069628842 C 1174.007687390546 384.1069069628842 1219.4774666265143 429.5766861988524 1219.4774666265143 485.6665014122216 Z" fill-opacity="0.17647058823529413"/><path fill="none" stroke="rgb(0,0,0)" paint-order="fill stroke markers" d=" M 1219.4774666265143 485.6665014122216 C 1219.4774666265143 541.7563166255907 1174.007687390546 587.226095861559 1117.9178721771768 587.226095861559 C 1061.8280569638077 587.226095861559 1016.3582777278394 541.7563166255907 1016.3582777278394 485.6665014122216 C 1016.3582777278394 429.5766861988524 1061.8280569638077 384.1069069628842 1117.9178721771768 384.1069069628842 C 1174.007687390546 384.1069069628842 1219.4774666265143 429.5766861988524 1219.4774666265143 485.6665014122216 Z" stroke-opacity="0.6980392156862745" stroke-linecap="round" stroke-linejoin="round" stroke-miterlimit="10" stroke-width="2.5"/><text fill="rgb(0,0,0)" stroke="none" font-family="geogebra-sans-serif, sans-serif" font-size="128px" font-style="normal" font-weight="bold" text-decoration="normal" x="417" y="540" text-anchor="start" dominant-baseline="alphabetic" fill-opacity="1">原群</text><text fill="rgb(0,0,0)" stroke="none" font-family="geogebra-sans-serif, sans-serif" font-size="64px" font-style="normal" font-weight="bold" text-decoration="normal" x="711" y="516" text-anchor="start" dominant-baseline="alphabetic" fill-opacity="1">半群</text><text fill="rgb(255,255,255)" stroke="none" font-family="geogebra-sans-serif, sans-serif" font-size="32px" font-style="normal" font-weight="bold" text-decoration="normal" x="847" y="497" text-anchor="start" dominant-baseline="alphabetic" fill-opacity="1">幺半群</text><text fill="rgb(255,255,255)" stroke="none" font-family="geogebra-sans-serif, sans-serif" font-size="32px" font-style="normal" font-weight="bold" text-decoration="normal" x="970" y="496" text-anchor="start" dominant-baseline="alphabetic" fill-opacity="1">群</text><text fill="rgb(255,255,255)" stroke="none" font-family="geogebra-sans-serif, sans-serif" font-size="32px" font-style="normal" font-weight="bold" text-decoration="normal" x="1075" y="494" text-anchor="start" dominant-baseline="alphabetic" fill-opacity="1">交换群</text></g></g></svg>