<svg version="1.1" xmlns="http://www.w3.org/2000/svg" xmlns:xlink="http://www.w3.org/1999/xlink" width="1698" height="990"><defs><clipPath id="weqyTJoGBkCx"><path fill="none" stroke="none" d=" M 0 0 L 1698 0 L 1698 990 L 0 990 L 0 0 Z"/></clipPath></defs><g transform="scale(1,1)" clip-path="url(#weqyTJoGBkCx)"><g><rect fill="rgb(255,255,255)" stroke="none" x="0" y="0" width="1699" height="991" fill-opacity="1"/><path fill="rgb(0,0,0)" stroke="none" paint-order="stroke fill markers" d=" M 1364.3302491323595 486.59930950467196 C 1364.3302491323595 253.6865037159009 1120.573539804731 64.87336856545551 819.8844004919468 64.87336856545551 C 519.1952611791626 64.87336856545551 275.43855185153416 253.6865037159009 275.43855185153416 486.59930950467196 C 275.43855185153416 719.512115293443 519.1952611791626 908.3252504438884 819.8844004919468 908.3252504438884 C 1120.573539804731 908.3252504438884 1364.3302491323595 719.512115293443 1364.3302491323595 486.59930950467196 Z" fill-opacity="0.06666666666666667"/><path fill="none" stroke="rgb(0,0,0)" paint-order="fill stroke markers" d=" M 1364.3302491323595 486.59930950467196 C 1364.3302491323595 253.6865037159009 1120.573539804731 64.87336856545551 819.8844004919468 64.87336856545551 C 519.1952611791626 64.87336856545551 275.43855185153416 253.6865037159009 275.43855185153416 486.59930950467196 C 275.43855185153416 719.512115293443 519.1952611791626 908.3252504438884 819.8844004919468 908.3252504438884 C 1120.573539804731 908.3252504438884 1364.3302491323595 719.512115293443 1364.3302491323595 486.59930950467196 Z" stroke-opacity="0.6980392156862745" stroke-linecap="round" stroke-linejoin="round" stroke-miterlimit="10" stroke-width="2.5"/><path fill="rgb(0,0,0)" stroke="none" paint-order="stroke fill markers" d=" M 1306.8515715429567 548.196325754672 C 1306.8515715429567 358.02381617385697 1088.8289427316627 203.85853688927364 819.8844004919468 203.85853688927364 C 550.9398582522308 203.85853688927364 332.91722944093715 358.02381617385697 332.91722944093715 548.196325754672 C 332.91722944093715 738.3688353354871 550.9398582522308 892.5341146200703 819.8844004919468 892.5341146200703 C 1088.8289427316627 892.5341146200703 1306.8515715429567 738.3688353354871 1306.8515715429567 548.196325754672 Z" fill-opacity="0.12941176470588237"/><path fill="none" stroke="rgb(0,0,0)" paint-order="fill stroke markers" d=" M 1306.8515715429567 548.196325754672 C 1306.8515715429567 358.02381617385697 1088.8289427316627 203.85853688927364 819.8844004919468 203.85853688927364 C 550.9398582522308 203.85853688927364 332.91722944093715 358.02381617385697 332.91722944093715 548.196325754672 C 332.91722944093715 738.3688353354871 550.9398582522308 892.5341146200703 819.8844004919468 892.5341146200703 C 1088.8289427316627 892.5341146200703 1306.8515715429567 738.3688353354871 1306.8515715429567 548.196325754672 Z" stroke-opacity="0.6980392156862745" stroke-linecap="round" stroke-linejoin="round" stroke-miterlimit="10" stroke-width="2.5"/><path fill="rgb(0,0,0)" stroke="none" paint-order="stroke fill markers" d=" M 1241.2184596698453 602.093714973422 C 1241.2184596698453 467.6214438535641 1087.0531803852618 358.61012944791725 896.8806708044469 358.61012944791725 C 706.7081612236319 358.61012944791725 552.5428819390486 467.6214438535641 552.5428819390486 602.093714973422 C 552.5428819390486 736.56598609328 706.7081612236319 845.5773004989269 896.8806708044469 845.5773004989269 C 1087.0531803852618 845.5773004989269 1241.2184596698453 736.56598609328 1241.2184596698453 602.093714973422 Z" fill-opacity="0.20784313725490197"/><path fill="none" stroke="rgb(0,0,0)" paint-order="fill stroke markers" d=" M 1241.2184596698453 602.093714973422 C 1241.2184596698453 467.6214438535641 1087.0531803852618 358.61012944791725 896.8806708044469 358.61012944791725 C 706.7081612236319 358.61012944791725 552.5428819390486 467.6214438535641 552.5428819390486 602.093714973422 C 552.5428819390486 736.56598609328 706.7081612236319 845.5773004989269 896.8806708044469 845.5773004989269 C 1087.0531803852618 845.5773004989269 1241.2184596698453 736.56598609328 1241.2184596698453 602.093714973422 Z" stroke-opacity="0.6980392156862745" stroke-linecap="round" stroke-linejoin="round" stroke-miterlimit="10" stroke-width="2.5"/><path fill="rgb(0,0,0)" stroke="none" paint-order="stroke fill markers" d=" M 1087.225919044845 602.093714973422 C 1087.225919044845 467.6214438535641 933.0606397602618 358.61012944791725 742.8881301794468 358.61012944791725 C 552.7156205986317 358.61012944791725 398.55034131404847 467.6214438535641 398.55034131404847 602.093714973422 C 398.55034131404847 736.56598609328 552.7156205986317 845.5773004989269 742.8881301794468 845.5773004989269 C 933.0606397602618 845.5773004989269 1087.225919044845 736.56598609328 1087.225919044845 602.093714973422 Z" fill-opacity="0.09803921568627451"/><path fill="none" stroke="rgb(0,0,0)" paint-order="fill stroke markers" d=" M 1087.225919044845 602.093714973422 C 1087.225919044845 467.6214438535641 933.0606397602618 358.61012944791725 742.8881301794468 358.61012944791725 C 552.7156205986317 358.61012944791725 398.55034131404847 467.6214438535641 398.55034131404847 602.093714973422 C 398.55034131404847 736.56598609328 552.7156205986317 845.5773004989269 742.8881301794468 845.5773004989269 C 933.0606397602618 845.5773004989269 1087.225919044845 736.56598609328 1087.225919044845 602.093714973422 Z" stroke-opacity="0.6980392156862745" stroke-linecap="round" stroke-linejoin="round" stroke-miterlimit="10" stroke-width="2.5"/><path fill="rgb(0,0,0)" stroke="none" paint-order="stroke fill markers" d=" M 1050.873211429447 621.3427825515471 C 1050.873211429447 508.83520862830926 947.4559981542766 417.62979942516637 819.8844004919468 417.62979942516637 C 692.3128028296171 417.62979942516637 588.8955895544466 508.83520862830926 588.8955895544466 621.3427825515471 C 588.8955895544466 733.8503564747849 692.3128028296171 825.0557656779279 819.8844004919468 825.0557656779279 C 947.4559981542766 825.0557656779279 1050.873211429447 733.8503564747849 1050.873211429447 621.3427825515471 Z" fill-opacity="0.23921568627450981"/><path fill="none" stroke="rgb(0,0,0)" paint-order="fill stroke markers" d=" M 1050.873211429447 621.3427825515471 C 1050.873211429447 508.83520862830926 947.4559981542766 417.62979942516637 819.8844004919468 417.62979942516637 C 692.3128028296171 417.62979942516637 588.8955895544466 508.83520862830926 588.8955895544466 621.3427825515471 C 588.8955895544466 733.8503564747849 692.3128028296171 825.0557656779279 819.8844004919468 825.0557656779279 C 947.4559981542766 825.0557656779279 1050.873211429447 733.8503564747849 1050.873211429447 621.3427825515471 Z" stroke-opacity="0.6980392156862745" stroke-linecap="round" stroke-linejoin="round" stroke-miterlimit="10" stroke-width="2.5"/><path fill="rgb(0,0,0)" stroke="none" paint-order="stroke fill markers" d=" M 1008.4859748549767 640.5918501296721 C 1008.4859748549767 555.5441183547856 924.0461738067265 486.59930950467196 819.8844004919468 486.59930950467196 C 715.7226271771672 486.59930950467196 631.282826128917 555.5441183547856 631.282826128917 640.5918501296721 C 631.282826128917 725.6395819045587 715.7226271771672 794.5843907546723 819.8844004919468 794.5843907546723 C 924.0461738067265 794.5843907546723 1008.4859748549767 725.6395819045587 1008.4859748549767 640.5918501296721 Z" fill-opacity="0.3176470588235294"/><path fill="none" stroke="rgb(0,0,0)" paint-order="fill stroke markers" d=" M 1008.4859748549767 640.5918501296721 C 1008.4859748549767 555.5441183547856 924.0461738067265 486.59930950467196 819.8844004919468 486.59930950467196 C 715.7226271771672 486.59930950467196 631.282826128917 555.5441183547856 631.282826128917 640.5918501296721 C 631.282826128917 725.6395819045587 715.7226271771672 794.5843907546723 819.8844004919468 794.5843907546723 C 924.0461738067265 794.5843907546723 1008.4859748549767 725.6395819045587 1008.4859748549767 640.5918501296721 Z" stroke-opacity="0.6980392156862745" stroke-linecap="round" stroke-linejoin="round" stroke-miterlimit="10" stroke-width="2.5"/><path fill="rgb(0,0,0)" stroke="none" paint-order="stroke fill markers" d=" M 973.876941116947 679.0899852859222 C 973.876941116947 618.9521574233654 904.9321322668334 570.2008155578397 819.8844004919468 570.2008155578397 C 734.8366687170603 570.2008155578397 665.8918598669467 618.9521574233654 665.8918598669467 679.0899852859222 C 665.8918598669467 739.2278131484791 734.8366687170603 787.9791550140047 819.8844004919468 787.9791550140047 C 904.9321322668334 787.9791550140047 973.876941116947 739.2278131484791 973.876941116947 679.0899852859222 Z" fill-opacity="0.3568627450980392"/><path fill="none" stroke="rgb(0,0,0)" paint-order="fill stroke markers" d=" M 973.876941116947 679.0899852859222 C 973.876941116947 618.9521574233654 904.9321322668334 570.2008155578397 819.8844004919468 570.2008155578397 C 734.8366687170603 570.2008155578397 665.8918598669467 618.9521574233654 665.8918598669467 679.0899852859222 C 665.8918598669467 739.2278131484791 734.8366687170603 787.9791550140047 819.8844004919468 787.9791550140047 C 904.9321322668334 787.9791550140047 973.876941116947 739.2278131484791 973.876941116947 679.0899852859222 Z" stroke-opacity="0.6980392156862745" stroke-linecap="round" stroke-linejoin="round" stroke-miterlimit="10" stroke-width="2.5"/><text fill="rgb(0,0,0)" stroke="none" font-family="geogebra-sans-serif, sans-serif" font-size="64px" font-style="normal" font-weight="normal" text-decoration="normal" x="760" y="159" text-anchor="start" dominant-baseline="alphabetic" fill-opacity="1">整环</text><text fill="rgb(0,0,0)" stroke="none" font-family="geogebra-sans-serif, sans-serif" font-size="64px" font-style="normal" font-weight="normal" text-decoration="normal" x="692" y="300" text-anchor="start" dominant-baseline="alphabetic" fill-opacity="1">分解整环</text><text fill="rgb(0,0,0)" stroke="none" font-family="geogebra-sans-serif, sans-serif" font-size="32px" font-style="normal" font-weight="normal" text-decoration="normal" x="449" y="606" text-anchor="start" dominant-baseline="alphabetic" fill-opacity="1">UFD</text><text fill="rgb(0,0,0)" stroke="none" font-family="geogebra-sans-serif, sans-serif" font-size="32px" font-style="normal" font-weight="normal" text-decoration="normal" x="1134" y="603" text-anchor="start" dominant-baseline="alphabetic" fill-opacity="1">ND</text><text fill="rgb(255,255,255)" stroke="none" font-family="geogebra-sans-serif, sans-serif" font-size="32px" font-style="normal" font-weight="normal" text-decoration="normal" x="793" y="461" text-anchor="start" dominant-baseline="alphabetic" fill-opacity="1">PID</text><text fill="rgb(255,255,255)" stroke="none" font-family="geogebra-sans-serif, sans-serif" font-size="32px" font-style="normal" font-weight="normal" text-decoration="normal" x="804" y="541" text-anchor="start" dominant-baseline="alphabetic" fill-opacity="1">ED</text><text fill="rgb(255,255,255)" stroke="none" font-family="geogebra-sans-serif, sans-serif" font-size="32px" font-style="normal" font-weight="normal" text-decoration="normal" x="805" y="688" text-anchor="start" dominant-baseline="alphabetic" fill-opacity="1">域</text></g></g></svg>