<svg version="1.1" xmlns="http://www.w3.org/2000/svg" xmlns:xlink="http://www.w3.org/1999/xlink" width="1706" height="990"><defs><clipPath id="iKXUzOGEzpXU"><path fill="none" stroke="none" d=" M 0 0 L 1706 0 L 1706 990 L 0 990 L 0 0 Z"/></clipPath></defs><g transform="scale(1,1)" clip-path="url(#iKXUzOGEzpXU)"><g><rect fill="rgb(255,255,255)" stroke="none" x="0" y="0" width="1707" height="991" fill-opacity="1"/><path fill="rgb(0,0,0)" stroke="none" paint-order="stroke fill markers" d=" M 641.2599999999994 139.54000000000028 L 611.988723291684 149.51207901418908 L 614.7008641844319 153.7125899090547 L 178.8939295536255 435.0997445525674 C 177.7339904992593 435.848681579796 177.40080752533808 437.396131392008 178.14974455256663 438.5560704463742 C 178.62796513353692 439.2967291510477 179.43175827451995 439.700299835744 180.2523489327092 439.700299835744 C 180.7168780551635 439.700299835744 181.1867900966807 439.57097189369125 181.60607044637337 439.300255447433 L 617.4130050771797 157.91310080392032 L 620.1251459699276 162.11361169878595 L 641.2599999999995 139.54000000000028 Z" fill-opacity="1"/><path fill="rgb(0,0,0)" stroke="none" paint-order="stroke fill markers" d=" M 180.2511368048759 434.69935563632663 C 179.27860970925448 434.69935563632663 178.3538822017074 435.27033152835173 177.94933576543826 436.22176481365136 C 177.4090713902699 437.49238658488065 178.00114304242132 438.960399859393 179.27176481365058 439.5006642345614 L 612.6737939989165 623.7818419983751 L 610.7173236262188 628.3831704674975 L 641.2599999999995 633.2200000000001 L 616.5867347443118 614.5791850601303 L 614.6302643716141 619.1805135292527 L 181.2282351863483 434.89933576543905 C 180.90904670041863 434.7636178265398 180.5774018788156 434.69935563632663 180.2511368048759 434.69935563632663 Z" fill-opacity="1"/><path fill="rgb(0,0,0)" stroke="none" paint-order="stroke fill markers" d=" M 641.2599999999995 137.04000000000025 C 639.8792881254226 137.04000000000025 638.7599999999995 138.15928812542327 638.7599999999995 139.54000000000025 L 638.7599999999995 603.2200000000001 L 633.7599999999995 603.2200000000001 L 641.2599999999995 633.2200000000001 L 648.7599999999995 603.2200000000001 L 643.7599999999995 603.2200000000001 L 643.7599999999995 139.54000000000025 C 643.7599999999995 138.15928812542327 642.6407118745765 137.04000000000025 641.2599999999995 137.04000000000025 Z" fill-opacity="1"/><path fill="rgb(0,0,0)" stroke="none" paint-order="stroke fill markers" d=" M 1157.9299999999998 497.7000000000002 L 1127.0087661055227 498.0567834680134 L 1128.2773295473473 502.89318158997014 L 1128.277329547347 502.89318158997014 L 640.6257182790872 630.801800939022 C 639.2901838156538 631.1521050605783 638.491496817465 632.5187472574792 638.8418009390213 633.8542817209126 C 639.1363399908279 634.9772118559255 640.1493901240457 635.7206119288821 641.2583293200231 635.7206119288821 C 641.4682847443802 635.7206119288821 641.6816773924913 635.6939641307282 641.8942817209119 635.6381990609785 L 1129.545892989172 507.7295797119268 L 1129.5458929891722 507.7295797119268 L 1130.8144564309969 512.5659778338834 L 1157.9299999999998 497.7000000000002 Z" fill-opacity="1"/><path fill="rgb(0,0,0)" stroke="none" paint-order="stroke fill markers" d=" M 641.2622099018159 137.0397753027789 C 640.4700349842838 137.0397753027789 639.6908734146715 137.41537588660066 639.2053860152357 138.11572426348954 C 638.4187802464069 139.25045623406365 638.7009922929147 140.80800821593513 639.8357242634888 141.594613984764 L 1131.850356446324 482.66330514663537 L 1129.0018049733026 486.7725331161629 L 1157.9299999999996 497.70000000000016 L 1157.9299999999998 497.70000000000016 L 1137.5474593923668 474.4448492075803 L 1134.6989079193454 478.55407717710784 L 642.6842757365102 137.4853860152365 C 642.249892142825 137.18426764584345 641.7535479256627 137.0397753027789 641.2622099018159 137.0397753027789 Z" fill-opacity="1"/><path fill="rgb(0,0,0)" stroke="none" paint-order="stroke fill markers" d=" M 1576.160354515875 350.6265238429277 L 1545.37118592367 353.50351835122416 L 1547.0298975560383 358.22036854183295 L 1157.1006441838158 495.34157490469585 C 1155.798121970061 495.79961547415775 1155.1135343352335 497.2268336024294 1155.5715749046954 498.52935581618425 C 1155.933143926782 499.55754352371974 1156.8986308276476 500.2006813126537 1157.9299778503503 500.2006813126538 C 1158.2051553049535 500.2006813126538 1158.4850213099646 500.15489664268 1158.7593558161839 500.0584250953046 L 1548.6886091884064 362.9372187324417 L 1550.3473208207747 367.6540689230505 L 1576.160354515875 350.6265238429277 Z" fill-opacity="1"/><path fill="rgb(0,0,0)" stroke="none" paint-order="stroke fill markers" d=" M 641.2577076242331 137.03945661811744 C 640.1150179626335 137.03945661811744 639.0836263250852 137.82793863998782 638.8213862824897 138.98939747841774 C 638.5172969066012 140.3362066453266 639.3625883115081 141.67452434162166 640.709397478417 141.97861371751006 L 1546.346387384175 346.4579073014474 L 1545.24518234101 351.335134736467 L 1576.160354515875 350.6265238429277 L 1548.548797470505 336.7034524314082 L 1547.44759242734 341.58067986642783 L 641.810602521582 137.10138628249044 C 641.625252193103 137.05953694919756 641.4400626910844 137.03945661811744 641.2577076242331 137.03945661811744 Z" fill-opacity="1"/><path fill="rgb(0,0,0)" stroke="none" paint-order="stroke fill markers" d=" M 187.24999999999943 437.2000000000002 C 187.24999999999943 441.06599324881574 184.115993248815 444.2000000000002 180.24999999999943 444.2000000000002 C 176.38400675118388 444.2000000000002 173.24999999999943 441.06599324881574 173.24999999999943 437.2000000000002 C 173.24999999999943 433.3340067511847 176.38400675118388 430.2000000000002 180.24999999999943 430.2000000000002 C 184.115993248815 430.2000000000002 187.24999999999943 433.3340067511847 187.24999999999943 437.2000000000002 Z" fill-opacity="1"/><path fill="none" stroke="rgb(0,0,0)" paint-order="fill stroke markers" d=" M 187.24999999999943 437.2000000000002 C 187.24999999999943 441.06599324881574 184.115993248815 444.2000000000002 180.24999999999943 444.2000000000002 C 176.38400675118388 444.2000000000002 173.24999999999943 441.06599324881574 173.24999999999943 437.2000000000002 C 173.24999999999943 433.3340067511847 176.38400675118388 430.2000000000002 180.24999999999943 430.2000000000002 C 184.115993248815 430.2000000000002 187.24999999999943 433.3340067511847 187.24999999999943 437.2000000000002 Z" stroke-opacity="1" stroke-linecap="round" stroke-linejoin="round" stroke-miterlimit="10"/><path fill="rgb(0,0,0)" stroke="none" paint-order="stroke fill markers" d=" M 648.2599999999995 139.54000000000025 C 648.2599999999995 143.4059932488158 645.1259932488151 146.54000000000025 641.2599999999995 146.54000000000025 C 637.394006751184 146.54000000000025 634.2599999999995 143.4059932488158 634.2599999999995 139.54000000000025 C 634.2599999999995 135.6740067511847 637.394006751184 132.54000000000025 641.2599999999995 132.54000000000025 C 645.1259932488151 132.54000000000025 648.2599999999995 135.6740067511847 648.2599999999995 139.54000000000025 Z" fill-opacity="1"/><path fill="none" stroke="rgb(0,0,0)" paint-order="fill stroke markers" d=" M 648.2599999999995 139.54000000000025 C 648.2599999999995 143.4059932488158 645.1259932488151 146.54000000000025 641.2599999999995 146.54000000000025 C 637.394006751184 146.54000000000025 634.2599999999995 143.4059932488158 634.2599999999995 139.54000000000025 C 634.2599999999995 135.6740067511847 637.394006751184 132.54000000000025 641.2599999999995 132.54000000000025 C 645.1259932488151 132.54000000000025 648.2599999999995 135.6740067511847 648.2599999999995 139.54000000000025 Z" stroke-opacity="1" stroke-linecap="round" stroke-linejoin="round" stroke-miterlimit="10"/><path fill="rgb(0,0,0)" stroke="none" paint-order="stroke fill markers" d=" M 648.2599999999995 633.2200000000003 C 648.2599999999995 637.0859932488158 645.1259932488151 640.2200000000003 641.2599999999995 640.2200000000003 C 637.394006751184 640.2200000000003 634.2599999999995 637.0859932488158 634.2599999999995 633.2200000000003 C 634.2599999999995 629.3540067511847 637.394006751184 626.2200000000003 641.2599999999995 626.2200000000003 C 645.1259932488151 626.2200000000003 648.2599999999995 629.3540067511847 648.2599999999995 633.2200000000003 Z" fill-opacity="1"/><path fill="none" stroke="rgb(0,0,0)" paint-order="fill stroke markers" d=" M 648.2599999999995 633.2200000000003 C 648.2599999999995 637.0859932488158 645.1259932488151 640.2200000000003 641.2599999999995 640.2200000000003 C 637.394006751184 640.2200000000003 634.2599999999995 637.0859932488158 634.2599999999995 633.2200000000003 C 634.2599999999995 629.3540067511847 637.394006751184 626.2200000000003 641.2599999999995 626.2200000000003 C 645.1259932488151 626.2200000000003 648.2599999999995 629.3540067511847 648.2599999999995 633.2200000000003 Z" stroke-opacity="1" stroke-linecap="round" stroke-linejoin="round" stroke-miterlimit="10"/><path fill="rgb(0,0,0)" stroke="none" paint-order="stroke fill markers" d=" M 1164.9299999999998 497.7000000000002 C 1164.9299999999998 501.56599324881574 1161.7959932488154 504.7000000000002 1157.9299999999998 504.7000000000002 C 1154.0640067511843 504.7000000000002 1150.9299999999998 501.56599324881574 1150.9299999999998 497.7000000000002 C 1150.9299999999998 493.8340067511847 1154.0640067511843 490.7000000000002 1157.9299999999998 490.7000000000002 C 1161.7959932488154 490.7000000000002 1164.9299999999998 493.8340067511847 1164.9299999999998 497.7000000000002 Z" fill-opacity="1"/><path fill="none" stroke="rgb(0,0,0)" paint-order="fill stroke markers" d=" M 1164.9299999999998 497.7000000000002 C 1164.9299999999998 501.56599324881574 1161.7959932488154 504.7000000000002 1157.9299999999998 504.7000000000002 C 1154.0640067511843 504.7000000000002 1150.9299999999998 501.56599324881574 1150.9299999999998 497.7000000000002 C 1150.9299999999998 493.8340067511847 1154.0640067511843 490.7000000000002 1157.9299999999998 490.7000000000002 C 1161.7959932488154 490.7000000000002 1164.9299999999998 493.8340067511847 1164.9299999999998 497.7000000000002 Z" stroke-opacity="1" stroke-linecap="round" stroke-linejoin="round" stroke-miterlimit="10"/><path fill="rgb(0,0,0)" stroke="none" paint-order="stroke fill markers" d=" M 1583.160354515875 350.6265238429277 C 1583.160354515875 354.49251709174325 1580.0263477646906 357.6265238429277 1576.160354515875 357.6265238429277 C 1572.2943612670595 357.6265238429277 1569.160354515875 354.49251709174325 1569.160354515875 350.6265238429277 C 1569.160354515875 346.7605305941122 1572.2943612670595 343.6265238429277 1576.160354515875 343.6265238429277 C 1580.0263477646906 343.6265238429277 1583.160354515875 346.7605305941122 1583.160354515875 350.6265238429277 Z" fill-opacity="1"/><path fill="none" stroke="rgb(0,0,0)" paint-order="fill stroke markers" d=" M 1583.160354515875 350.6265238429277 C 1583.160354515875 354.49251709174325 1580.0263477646906 357.6265238429277 1576.160354515875 357.6265238429277 C 1572.2943612670595 357.6265238429277 1569.160354515875 354.49251709174325 1569.160354515875 350.6265238429277 C 1569.160354515875 346.7605305941122 1572.2943612670595 343.6265238429277 1576.160354515875 343.6265238429277 C 1580.0263477646906 343.6265238429277 1583.160354515875 346.7605305941122 1583.160354515875 350.6265238429277 Z" stroke-opacity="1" stroke-linecap="round" stroke-linejoin="round" stroke-miterlimit="10"/><g transform="scale(35,35)"><g transform="translate(4.114285714285714,12.893999999999998)"><path fill="rgb(0,0,0)" stroke="none" paint-order="stroke fill markers" d=" M 0.091796875 -0.0341796875 L 0.091796875 -0.0419921875 Q 0.09423828125 -0.05712890625 0.10302734375 -0.06591796875 Q 0.11181640625 -0.07470703125 0.1259765625 -0.076171875 L 0.2158203125 -0.076171875 L 0.2158203125 -0.583984375 Q 0.171875 -0.57080078125 0.11376953125 -0.57080078125 Q 0.09912109375 -0.57080078125 0.0888671875 -0.579833984375 Q 0.07861328125 -0.5888671875 0.076171875 -0.60498046875 L 0.076171875 -0.61279296875 Q 0.08056640625 -0.642578125 0.10986328125 -0.64697265625 Q 0.22216796875 -0.64697265625 0.27783203125 -0.705078125 Q 0.28759765625 -0.71435546875 0.3017578125 -0.7158203125 L 0.3232421875 -0.7158203125 Q 0.33740234375 -0.71435546875 0.346435546875 -0.705322265625 Q 0.35546875 -0.6962890625 0.35693359375 -0.68212890625 L 0.35693359375 -0.076171875 L 0.43896484375 -0.076171875 Q 0.45361328125 -0.07470703125 0.46240234375 -0.0654296875 Q 0.47119140625 -0.05615234375 0.47314453125 -0.0419921875 L 0.47314453125 -0.0341796875 Q 0.46826171875 -0.0029296875 0.43896484375 0 L 0.1259765625 0 Q 0.095703125 -0.0029296875 0.091796875 -0.0341796875 Z"/></g></g><g transform="scale(35,35)"><g transform="translate(18.057142857142857,3.3225714285714285)"><path fill="rgb(0,0,0)" stroke="none" paint-order="stroke fill markers" d=" M 0.05517578125 -0.0341796875 L 0.05517578125 -0.0751953125 Q 0.05517578125 -0.0791015625 0.05810546875 -0.08203125 L 0.19482421875 -0.22900390625 Q 0.22607421875 -0.26171875 0.250732421875 -0.28759765625 Q 0.275390625 -0.3134765625 0.299072265625 -0.345703125 Q 0.32275390625 -0.3779296875 0.33642578125 -0.41162109375 Q 0.35009765625 -0.4453125 0.35009765625 -0.48291015625 Q 0.35009765625 -0.51513671875 0.338134765625 -0.545166015625 Q 0.326171875 -0.5751953125 0.302001953125 -0.593505859375 Q 0.27783203125 -0.61181640625 0.244140625 -0.61181640625 Q 0.15576171875 -0.61181640625 0.126953125 -0.4951171875 Q 0.123046875 -0.48583984375 0.115234375 -0.48583984375 Q 0.10791015625 -0.48583984375 0.10498046875 -0.4912109375 L 0.048828125 -0.56201171875 Q 0.0458984375 -0.56494140625 0.0458984375 -0.56982421875 Q 0.0458984375 -0.5732421875 0.046875 -0.5751953125 Q 0.076171875 -0.6435546875 0.13037109375 -0.6796875 Q 0.1845703125 -0.7158203125 0.2587890625 -0.7158203125 Q 0.310546875 -0.7158203125 0.353271484375 -0.69873046875 Q 0.39599609375 -0.681640625 0.427734375 -0.650146484375 Q 0.45947265625 -0.61865234375 0.476806640625 -0.575439453125 Q 0.494140625 -0.5322265625 0.494140625 -0.48291015625 Q 0.494140625 -0.439453125 0.47607421875 -0.402587890625 Q 0.4580078125 -0.36572265625 0.42919921875 -0.334716796875 Q 0.400390625 -0.3037109375 0.354736328125 -0.26513671875 Q 0.30908203125 -0.2265625 0.2939453125 -0.2119140625 L 0.18701171875 -0.11083984375 L 0.4560546875 -0.11181640625 Q 0.4716796875 -0.11181640625 0.48193359375 -0.1025390625 Q 0.4921875 -0.09326171875 0.494140625 -0.078125 L 0.494140625 -0.0341796875 Q 0.49072265625 -0.00341796875 0.4599609375 0 L 0.0888671875 0 Q 0.05859375 -0.0029296875 0.05517578125 -0.0341796875 Z"/></g></g><g transform="scale(35,35)"><g transform="translate(17.914285714285715,19.46542857142857)"><path fill="rgb(0,0,0)" stroke="none" paint-order="stroke fill markers" d=" M 0.05078125 -0.05810546875 Q 0.0458984375 -0.0615234375 0.0458984375 -0.06884765625 L 0.06005859375 -0.14306640625 Q 0.06005859375 -0.14697265625 0.063720703125 -0.1494140625 Q 0.0673828125 -0.15185546875 0.07177734375 -0.15185546875 Q 0.0751953125 -0.15185546875 0.0791015625 -0.14990234375 Q 0.11474609375 -0.11474609375 0.162109375 -0.095458984375 Q 0.20947265625 -0.076171875 0.2587890625 -0.076171875 Q 0.31591796875 -0.076171875 0.333984375 -0.110107421875 Q 0.35205078125 -0.14404296875 0.35205078125 -0.2060546875 Q 0.35205078125 -0.2685546875 0.333740234375 -0.302734375 Q 0.3154296875 -0.3369140625 0.2587890625 -0.3369140625 L 0.19482421875 -0.3369140625 Q 0.18994140625 -0.3369140625 0.1865234375 -0.34033203125 Q 0.18310546875 -0.34375 0.18310546875 -0.34912109375 L 0.18310546875 -0.40185546875 Q 0.18310546875 -0.40576171875 0.186767578125 -0.409423828125 Q 0.1904296875 -0.4130859375 0.19482421875 -0.4130859375 L 0.2431640625 -0.4169921875 Q 0.283203125 -0.4169921875 0.30615234375 -0.45751953125 Q 0.3291015625 -0.498046875 0.3291015625 -0.541015625 Q 0.3291015625 -0.5830078125 0.31494140625 -0.60302734375 Q 0.30078125 -0.623046875 0.259765625 -0.623046875 Q 0.21875 -0.623046875 0.18310546875 -0.60302734375 Q 0.1474609375 -0.5830078125 0.125 -0.5478515625 Q 0.1201171875 -0.54296875 0.115234375 -0.54296875 Q 0.1083984375 -0.54296875 0.10498046875 -0.5478515625 L 0.06298828125 -0.60791015625 Q 0.06103515625 -0.60888671875 0.06103515625 -0.61376953125 Q 0.06103515625 -0.6181640625 0.06396484375 -0.62109375 Q 0.09814453125 -0.66552734375 0.150634765625 -0.690673828125 Q 0.203125 -0.7158203125 0.259765625 -0.7158203125 Q 0.30712890625 -0.7158203125 0.344482421875 -0.70703125 Q 0.3818359375 -0.6982421875 0.411376953125 -0.67724609375 Q 0.44091796875 -0.65625 0.45703125 -0.622802734375 Q 0.47314453125 -0.58935546875 0.47314453125 -0.5400390625 Q 0.47314453125 -0.48974609375 0.443603515625 -0.446044921875 Q 0.4140625 -0.40234375 0.3681640625 -0.376953125 Q 0.4326171875 -0.36083984375 0.4677734375 -0.31689453125 Q 0.5029296875 -0.27294921875 0.5029296875 -0.20703125 Q 0.5029296875 -0.0908203125 0.43994140625 -0.034423828125 Q 0.376953125 0.02197265625 0.259765625 0.02197265625 Q 0.20166015625 0.02197265625 0.14794921875 0.00146484375 Q 0.09423828125 -0.01904296875 0.05078125 -0.05810546875 Z"/></g></g><g transform="scale(35,35)"><g transform="translate(33,15.351142857142857)"><path fill="rgb(0,0,0)" stroke="none" paint-order="stroke fill markers" d=" M 0.06494140625 -0.14892578125 Q 0.03466796875 -0.15185546875 0.03076171875 -0.18310546875 L 0.03076171875 -0.23779296875 Q 0.03076171875 -0.2470703125 0.0361328125 -0.255859375 L 0.26220703125 -0.67578125 Q 0.271484375 -0.69384765625 0.2919921875 -0.69384765625 L 0.39404296875 -0.69384765625 Q 0.4091796875 -0.69384765625 0.419677734375 -0.683837890625 Q 0.43017578125 -0.673828125 0.43017578125 -0.658203125 L 0.43017578125 -0.2470703125 L 0.48388671875 -0.2470703125 Q 0.5146484375 -0.24365234375 0.51806640625 -0.212890625 L 0.51806640625 -0.18310546875 Q 0.5146484375 -0.15234375 0.48388671875 -0.14892578125 L 0.43017578125 -0.14892578125 L 0.43017578125 -0.0341796875 Q 0.4267578125 -0.00341796875 0.39599609375 0 L 0.3359375 0 Q 0.3056640625 -0.0029296875 0.3017578125 -0.0341796875 L 0.3017578125 -0.14892578125 L 0.06494140625 -0.14892578125 M 0.13916015625 -0.2470703125 L 0.30810546875 -0.2470703125 L 0.30810546875 -0.5888671875 L 0.30712890625 -0.5888671875 Q 0.30712890625 -0.5693359375 0.2568359375 -0.469482421875 Q 0.20654296875 -0.36962890625 0.13916015625 -0.2470703125 Z"/></g></g><g transform="scale(35,35)"><g transform="translate(45.542857142857144,10.494)"><path fill="rgb(0,0,0)" stroke="none" paint-order="stroke fill markers" d=" M 0.0390625 -0.0888671875 Q 0.037109375 -0.08984375 0.037109375 -0.09521484375 Q 0.037109375 -0.09912109375 0.0390625 -0.10107421875 L 0.08203125 -0.169921875 Q 0.08544921875 -0.1748046875 0.091796875 -0.1748046875 Q 0.099609375 -0.1748046875 0.10302734375 -0.16796875 Q 0.12060546875 -0.12646484375 0.157958984375 -0.101318359375 Q 0.1953125 -0.076171875 0.240234375 -0.076171875 Q 0.2861328125 -0.076171875 0.30859375 -0.094482421875 Q 0.3310546875 -0.11279296875 0.3369140625 -0.14208984375 Q 0.3427734375 -0.17138671875 0.3427734375 -0.22021484375 Q 0.3427734375 -0.25830078125 0.33984375 -0.290283203125 Q 0.3369140625 -0.322265625 0.32373046875 -0.3486328125 Q 0.310546875 -0.375 0.2841796875 -0.375 Q 0.24462890625 -0.375 0.225830078125 -0.360107421875 Q 0.20703125 -0.34521484375 0.1884765625 -0.3193359375 Q 0.169921875 -0.29345703125 0.15380859375 -0.2919921875 L 0.1171875 -0.2919921875 Q 0.08642578125 -0.294921875 0.0830078125 -0.326171875 L 0.0830078125 -0.66015625 Q 0.0859375 -0.69091796875 0.1171875 -0.69384765625 L 0.4228515625 -0.69384765625 Q 0.4375 -0.6923828125 0.446533203125 -0.683349609375 Q 0.45556640625 -0.67431640625 0.45703125 -0.66015625 L 0.45703125 -0.6240234375 Q 0.45361328125 -0.59326171875 0.4228515625 -0.58984375 L 0.216796875 -0.58984375 L 0.216796875 -0.43896484375 Q 0.24951171875 -0.451171875 0.2841796875 -0.451171875 Q 0.33935546875 -0.451171875 0.37939453125 -0.43505859375 Q 0.41943359375 -0.4189453125 0.4443359375 -0.38916015625 Q 0.46923828125 -0.359375 0.481689453125 -0.31640625 Q 0.494140625 -0.2734375 0.494140625 -0.22021484375 Q 0.494140625 -0.1591796875 0.477294921875 -0.11328125 Q 0.46044921875 -0.0673828125 0.427978515625 -0.03759765625 Q 0.3955078125 -0.0078125 0.34814453125 0.007080078125 Q 0.30078125 0.02197265625 0.240234375 0.02197265625 Q 0.1796875 0.02197265625 0.1259765625 -0.0078125 Q 0.072265625 -0.03759765625 0.0390625 -0.0888671875 Z"/></g></g><g transform="scale(35,35)"><g transform="translate(11.085714285714285,7.901142857142857)"><path fill="rgb(0,0,0)" stroke="none" paint-order="stroke fill markers" d=" M 0.352 -0.352 Q 0.403 -0.341 0.4395 -0.3205 Q 0.47600000000000003 -0.3 0.4935 -0.2745 Q 0.511 -0.249 0.5185 -0.2265 Q 0.526 -0.20400000000000001 0.526 -0.18 Q 0.526 -0.10300000000000001 0.4625 -0.046 Q 0.399 0.011 0.274 0.011 Q 0.176 0.011 0.112 -0.0305 Q 0.048 -0.07200000000000001 0.048 -0.139 Q 0.048 -0.176 0.07 -0.1965 Q 0.092 -0.217 0.125 -0.217 Q 0.158 -0.217 0.1795 -0.196 Q 0.201 -0.17500000000000002 0.201 -0.14100000000000001 Q 0.201 -0.082 0.14300000000000002 -0.066 Q 0.197 -0.032 0.269 -0.032 Q 0.299 -0.032 0.32 -0.044 Q 0.341 -0.056 0.35100000000000003 -0.07050000000000001 Q 0.361 -0.085 0.3665 -0.109 Q 0.372 -0.133 0.3725 -0.1465 Q 0.373 -0.16 0.373 -0.181 Q 0.373 -0.203 0.3725 -0.2165 Q 0.372 -0.23 0.366 -0.2545 Q 0.36 -0.279 0.34950000000000003 -0.293 Q 0.339 -0.307 0.317 -0.3185 Q 0.295 -0.33 0.264 -0.33 L 0.22 -0.33 Q 0.209 -0.33 0.20450000000000002 -0.3305 Q 0.2 -0.331 0.196 -0.335 Q 0.192 -0.339 0.192 -0.34800000000000003 Q 0.192 -0.364 0.20400000000000001 -0.365 Q 0.215 -0.367 0.252 -0.369 Q 0.277 -0.37 0.296 -0.3805 Q 0.315 -0.391 0.3255 -0.40800000000000003 Q 0.336 -0.425 0.343 -0.441 Q 0.35000000000000003 -0.457 0.353 -0.47600000000000003 Q 0.356 -0.495 0.3565 -0.5035000000000001 Q 0.357 -0.512 0.357 -0.519 Q 0.357 -0.616 0.271 -0.616 Q 0.20600000000000002 -0.616 0.161 -0.58 Q 0.219 -0.5660000000000001 0.219 -0.51 Q 0.219 -0.481 0.2 -0.461 Q 0.181 -0.441 0.149 -0.441 Q 0.12 -0.441 0.1 -0.4605 Q 0.08 -0.48 0.08 -0.511 Q 0.08 -0.5720000000000001 0.1345 -0.6135 Q 0.189 -0.655 0.277 -0.655 Q 0.379 -0.655 0.4365 -0.6155 Q 0.494 -0.5760000000000001 0.494 -0.516 Q 0.494 -0.456 0.452 -0.41300000000000003 Q 0.41000000000000003 -0.37 0.352 -0.352 Z"/></g></g><g transform="scale(35,35)"><g transform="translate(10.942857142857143,16.729714285714284)"><path fill="rgb(0,0,0)" stroke="none" paint-order="stroke fill markers" d=" M 0.445 -0.156 L 0.445 -0.047 L 0.542 -0.047 L 0.542 0 Q 0.507 -0.003 0.38 -0.003 Q 0.246 -0.003 0.20800000000000002 0 L 0.20800000000000002 -0.047 L 0.32 -0.047 L 0.32 -0.156 L 0.032 -0.156 L 0.032 -0.203 L 0.381 -0.64 Q 0.39 -0.651 0.395 -0.6535 Q 0.4 -0.656 0.41500000000000004 -0.656 Q 0.435 -0.656 0.44 -0.6505 Q 0.445 -0.645 0.445 -0.624 L 0.445 -0.203 L 0.542 -0.203 L 0.542 -0.156 L 0.445 -0.156 M 0.331 -0.203 L 0.331 -0.513 L 0.084 -0.203 L 0.331 -0.203 Z"/></g></g><g transform="scale(35,35)"><g transform="translate(18.942857142857143,11.815428571428571)"><path fill="rgb(0,0,0)" stroke="none" paint-order="stroke fill markers" d=" M 0.517 -0.201 Q 0.517 -0.108 0.447 -0.0485 Q 0.377 0.011 0.259 0.011 Q 0.17 0.011 0.1135 -0.0405 Q 0.057 -0.092 0.057 -0.159 Q 0.057 -0.187 0.07150000000000001 -0.20400000000000001 Q 0.08600000000000001 -0.221 0.0995 -0.225 Q 0.113 -0.229 0.124 -0.229 Q 0.148 -0.229 0.1695 -0.2125 Q 0.191 -0.196 0.191 -0.161 Q 0.191 -0.131 0.17250000000000001 -0.1135 Q 0.154 -0.096 0.126 -0.094 Q 0.17200000000000001 -0.032 0.255 -0.032 Q 0.28 -0.032 0.2995 -0.038 Q 0.319 -0.044 0.3315 -0.053 Q 0.34400000000000003 -0.062 0.3525 -0.0775 Q 0.361 -0.093 0.3655 -0.1055 Q 0.37 -0.11800000000000001 0.372 -0.139 Q 0.374 -0.16 0.3745 -0.17200000000000001 Q 0.375 -0.184 0.375 -0.20500000000000002 Q 0.375 -0.23700000000000002 0.3745 -0.254 Q 0.374 -0.271 0.3695 -0.2975 Q 0.365 -0.324 0.356 -0.3375 Q 0.34700000000000003 -0.35100000000000003 0.3295 -0.362 Q 0.312 -0.373 0.28600000000000003 -0.373 Q 0.199 -0.373 0.152 -0.317 Q 0.14200000000000002 -0.305 0.13 -0.305 Q 0.12 -0.305 0.115 -0.3095 Q 0.11 -0.314 0.109 -0.3195 Q 0.108 -0.325 0.108 -0.336 L 0.108 -0.628 Q 0.108 -0.638 0.1085 -0.6425 Q 0.109 -0.647 0.112 -0.651 Q 0.115 -0.655 0.122 -0.655 Q 0.123 -0.655 0.135 -0.651 Q 0.216 -0.623 0.29 -0.623 Q 0.37 -0.623 0.443 -0.651 Q 0.454 -0.655 0.458 -0.655 Q 0.47200000000000003 -0.655 0.47200000000000003 -0.637 Q 0.47200000000000003 -0.626 0.4545 -0.6045 Q 0.437 -0.583 0.40800000000000003 -0.559 Q 0.379 -0.535 0.332 -0.517 Q 0.28500000000000003 -0.499 0.234 -0.499 Q 0.2 -0.499 0.161 -0.506 L 0.161 -0.374 Q 0.212 -0.40900000000000003 0.29 -0.40900000000000003 Q 0.397 -0.40900000000000003 0.457 -0.35000000000000003 Q 0.517 -0.291 0.517 -0.201 Z"/></g></g><g transform="scale(35,35)"><g transform="translate(24.457142857142856,18.21542857142857)"><path fill="rgb(0,0,0)" stroke="none" paint-order="stroke fill markers" d=" M 0.352 -0.352 Q 0.403 -0.341 0.4395 -0.3205 Q 0.47600000000000003 -0.3 0.4935 -0.2745 Q 0.511 -0.249 0.5185 -0.2265 Q 0.526 -0.20400000000000001 0.526 -0.18 Q 0.526 -0.10300000000000001 0.4625 -0.046 Q 0.399 0.011 0.274 0.011 Q 0.176 0.011 0.112 -0.0305 Q 0.048 -0.07200000000000001 0.048 -0.139 Q 0.048 -0.176 0.07 -0.1965 Q 0.092 -0.217 0.125 -0.217 Q 0.158 -0.217 0.1795 -0.196 Q 0.201 -0.17500000000000002 0.201 -0.14100000000000001 Q 0.201 -0.082 0.14300000000000002 -0.066 Q 0.197 -0.032 0.269 -0.032 Q 0.299 -0.032 0.32 -0.044 Q 0.341 -0.056 0.35100000000000003 -0.07050000000000001 Q 0.361 -0.085 0.3665 -0.109 Q 0.372 -0.133 0.3725 -0.1465 Q 0.373 -0.16 0.373 -0.181 Q 0.373 -0.203 0.3725 -0.2165 Q 0.372 -0.23 0.366 -0.2545 Q 0.36 -0.279 0.34950000000000003 -0.293 Q 0.339 -0.307 0.317 -0.3185 Q 0.295 -0.33 0.264 -0.33 L 0.22 -0.33 Q 0.209 -0.33 0.20450000000000002 -0.3305 Q 0.2 -0.331 0.196 -0.335 Q 0.192 -0.339 0.192 -0.34800000000000003 Q 0.192 -0.364 0.20400000000000001 -0.365 Q 0.215 -0.367 0.252 -0.369 Q 0.277 -0.37 0.296 -0.3805 Q 0.315 -0.391 0.3255 -0.40800000000000003 Q 0.336 -0.425 0.343 -0.441 Q 0.35000000000000003 -0.457 0.353 -0.47600000000000003 Q 0.356 -0.495 0.3565 -0.5035000000000001 Q 0.357 -0.512 0.357 -0.519 Q 0.357 -0.616 0.271 -0.616 Q 0.20600000000000002 -0.616 0.161 -0.58 Q 0.219 -0.5660000000000001 0.219 -0.51 Q 0.219 -0.481 0.2 -0.461 Q 0.181 -0.441 0.149 -0.441 Q 0.12 -0.441 0.1 -0.4605 Q 0.08 -0.48 0.08 -0.511 Q 0.08 -0.5720000000000001 0.1345 -0.6135 Q 0.189 -0.655 0.277 -0.655 Q 0.379 -0.655 0.4365 -0.6155 Q 0.494 -0.5760000000000001 0.494 -0.516 Q 0.494 -0.456 0.452 -0.41300000000000003 Q 0.41000000000000003 -0.37 0.352 -0.352 Z"/></g></g><g transform="scale(35,35)"><g transform="translate(27.885714285714286,10.158285714285714)"><path fill="rgb(0,0,0)" stroke="none" paint-order="stroke fill markers" d=" M 0.517 -0.222 L 0.486 0 L 0.057 0 L 0.057 -0.018000000000000002 Q 0.057 -0.034 0.059000000000000004 -0.0385 Q 0.061 -0.043000000000000003 0.07 -0.052000000000000005 L 0.271 -0.257 Q 0.379 -0.367 0.379 -0.465 Q 0.379 -0.525 0.34400000000000003 -0.5665 Q 0.309 -0.608 0.247 -0.608 Q 0.186 -0.608 0.14400000000000002 -0.5730000000000001 Q 0.155 -0.5700000000000001 0.166 -0.5645 Q 0.177 -0.559 0.189 -0.542 Q 0.201 -0.525 0.201 -0.501 Q 0.201 -0.466 0.1785 -0.4475 Q 0.156 -0.429 0.129 -0.429 Q 0.10400000000000001 -0.429 0.0805 -0.4465 Q 0.057 -0.464 0.057 -0.503 Q 0.057 -0.5700000000000001 0.11850000000000001 -0.6125 Q 0.18 -0.655 0.272 -0.655 Q 0.379 -0.655 0.448 -0.603 Q 0.517 -0.551 0.517 -0.466 Q 0.517 -0.431 0.507 -0.404 Q 0.497 -0.377 0.46900000000000003 -0.34750000000000003 Q 0.441 -0.318 0.417 -0.299 Q 0.393 -0.28 0.339 -0.24 Q 0.292 -0.20600000000000002 0.195 -0.125 L 0.342 -0.125 Q 0.433 -0.125 0.444 -0.131 Q 0.457 -0.138 0.47000000000000003 -0.222 L 0.517 -0.222 Z"/></g></g><g transform="scale(35,35)"><g transform="translate(29.942857142857143,6.244)"><path fill="rgb(0,0,0)" stroke="none" paint-order="stroke fill markers" d=" M 0.445 -0.156 L 0.445 -0.047 L 0.542 -0.047 L 0.542 0 Q 0.507 -0.003 0.38 -0.003 Q 0.246 -0.003 0.20800000000000002 0 L 0.20800000000000002 -0.047 L 0.32 -0.047 L 0.32 -0.156 L 0.032 -0.156 L 0.032 -0.203 L 0.381 -0.64 Q 0.39 -0.651 0.395 -0.6535 Q 0.4 -0.656 0.41500000000000004 -0.656 Q 0.435 -0.656 0.44 -0.6505 Q 0.445 -0.645 0.445 -0.624 L 0.445 -0.203 L 0.542 -0.203 L 0.542 -0.156 L 0.445 -0.156 M 0.331 -0.203 L 0.331 -0.513 L 0.084 -0.203 L 0.331 -0.203 Z"/></g></g><g transform="scale(35,35)"><g transform="translate(37.68571428571428,14.244)"><path fill="rgb(0,0,0)" stroke="none" paint-order="stroke fill markers" d=" M 0.354 -0.623 L 0.354 -0.047 L 0.494 -0.047 L 0.494 0 Q 0.45 -0.003 0.295 -0.003 Q 0.14 -0.003 0.096 0 L 0.096 -0.047 L 0.23500000000000001 -0.047 L 0.23500000000000001 -0.5640000000000001 Q 0.17300000000000001 -0.544 0.105 -0.544 L 0.085 -0.544 L 0.085 -0.591 L 0.105 -0.591 Q 0.229 -0.591 0.306 -0.648 Q 0.315 -0.655 0.328 -0.655 Q 0.34600000000000003 -0.655 0.35000000000000003 -0.6485 Q 0.354 -0.642 0.354 -0.623 Z"/></g></g></g></g></svg>