<svg version="1.1" xmlns="http://www.w3.org/2000/svg" xmlns:xlink="http://www.w3.org/1999/xlink" width="1698" height="990"><defs><clipPath id="NeTxPMggzKTq"><path fill="none" stroke="none" d=" M 0 0 L 1698 0 L 1698 990 L 0 990 L 0 0 Z"/></clipPath></defs><g transform="scale(1,1)" clip-path="url(#NeTxPMggzKTq)"><g><rect fill="rgb(255,255,255)" stroke="none" x="0" y="0" width="1699" height="991" fill-opacity="1"/><path fill="none" stroke="rgb(0,0,0)" paint-order="fill stroke markers" d=" M 1176.1785883105117 146.73368716133564 L 516.3211469754112 146.73368716133564" stroke-opacity="0.8" stroke-linecap="round" stroke-linejoin="round" stroke-miterlimit="10" stroke-width="4"/><path fill="rgb(0,0,0)" stroke="none" paint-order="stroke fill markers" d=" M 525.3211469754112 806.5911284964325 C 525.3211469754112 811.5616912449096 521.2917097238884 815.5911284964325 516.3211469754112 815.5911284964325 C 511.3505842269341 815.5911284964325 507.32114697541124 811.5616912449096 507.32114697541124 806.5911284964325 C 507.32114697541124 801.6205657479553 511.3505842269341 797.5911284964325 516.3211469754112 797.5911284964325 C 521.2917097238884 797.5911284964325 525.3211469754112 801.6205657479553 525.3211469754112 806.5911284964325 Z" fill-opacity="1"/><path fill="rgb(0,0,0)" stroke="none" paint-order="stroke fill markers" d=" M 1185.1785883105117 806.5911284964325 C 1185.1785883105117 811.5616912449096 1181.1491510589888 815.5911284964325 1176.1785883105117 815.5911284964325 C 1171.2080255620347 815.5911284964325 1167.1785883105117 811.5616912449096 1167.1785883105117 806.5911284964325 C 1167.1785883105117 801.6205657479553 1171.2080255620347 797.5911284964325 1176.1785883105117 797.5911284964325 C 1181.1491510589888 797.5911284964325 1185.1785883105117 801.6205657479553 1185.1785883105117 806.5911284964325 Z" fill-opacity="1"/><path fill="rgb(0,0,0)" stroke="none" paint-order="stroke fill markers" d=" M 1185.1785883105117 146.73368716133564 C 1185.1785883105117 151.70424990981277 1181.1491510589888 155.73368716133564 1176.1785883105117 155.73368716133564 C 1171.2080255620347 155.73368716133564 1167.1785883105117 151.70424990981277 1167.1785883105117 146.73368716133564 C 1167.1785883105117 141.7631244128585 1171.2080255620347 137.73368716133564 1176.1785883105117 137.73368716133564 C 1181.1491510589888 137.73368716133564 1185.1785883105117 141.7631244128585 1185.1785883105117 146.73368716133564 Z" fill-opacity="1"/><path fill="rgb(0,0,0)" stroke="none" paint-order="stroke fill markers" d=" M 525.3211469754112 146.73368716133564 C 525.3211469754112 151.70424990981277 521.2917097238884 155.73368716133564 516.3211469754112 155.73368716133564 C 511.3505842269341 155.73368716133564 507.32114697541124 151.70424990981277 507.32114697541124 146.73368716133564 C 507.32114697541124 141.7631244128585 511.3505842269341 137.73368716133564 516.3211469754112 137.73368716133564 C 521.2917097238884 137.73368716133564 525.3211469754112 141.7631244128585 525.3211469754112 146.73368716133564 Z" fill-opacity="1"/><path fill="rgb(0,0,0)" stroke="none" paint-order="stroke fill markers" d=" M 855.2498676429615 476.66240782888406 C 855.2498676429615 481.6329705773612 851.2204303914386 485.66240782888406 846.2498676429615 485.66240782888406 C 841.2793048944843 485.66240782888406 837.2498676429615 481.6329705773612 837.2498676429615 476.66240782888406 C 837.2498676429615 471.6918450804069 841.2793048944843 467.66240782888406 846.2498676429615 467.66240782888406 C 851.2204303914386 467.66240782888406 855.2498676429615 471.6918450804069 855.2498676429615 476.66240782888406 Z" fill-opacity="1"/><text fill="rgb(0,0,0)" stroke="none" font-family="geogebra-sans-serif, sans-serif" font-size="32px" font-style="normal" font-weight="bold" text-decoration="normal" x="482" y="134" text-anchor="start" dominant-baseline="alphabetic" fill-opacity="1">1</text><text fill="rgb(0,0,0)" stroke="none" font-family="geogebra-sans-serif, sans-serif" font-size="32px" font-style="normal" font-weight="bold" text-decoration="normal" x="1185" y="123" text-anchor="start" dominant-baseline="alphabetic" fill-opacity="1">2</text><text fill="rgb(0,0,0)" stroke="none" font-family="geogebra-sans-serif, sans-serif" font-size="32px" font-style="normal" font-weight="bold" text-decoration="normal" x="839" y="441" text-anchor="start" dominant-baseline="alphabetic" fill-opacity="1">3</text><text fill="rgb(0,0,0)" stroke="none" font-family="geogebra-sans-serif, sans-serif" font-size="32px" font-style="normal" font-weight="bold" text-decoration="normal" x="486" y="846" text-anchor="start" dominant-baseline="alphabetic" fill-opacity="1">4</text><text fill="rgb(0,0,0)" stroke="none" font-family="geogebra-sans-serif, sans-serif" font-size="32px" font-style="normal" font-weight="bold" text-decoration="normal" x="1186" y="850" text-anchor="start" dominant-baseline="alphabetic" fill-opacity="1">5</text><g transform="scale(35,35)"><g transform="translate(23.942857142857143,3.1702857142857144)"><path fill="rgb(0,0,0)" stroke="none" paint-order="stroke fill markers" d=" M 0.299 -0.678 L 0.299 -0.058 L 0.424 -0.058 L 0.424 0 L 0.095 0 L 0.095 -0.058 L 0.22 -0.058 L 0.22 -0.578 Q 0.169 -0.556 0.089 -0.554 L 0.089 -0.612 Q 0.22 -0.617 0.279 -0.678 L 0.299 -0.678 Z"/></g></g></g></g></svg>