<svg version="1.1" xmlns="http://www.w3.org/2000/svg" xmlns:xlink="http://www.w3.org/1999/xlink" width="1698" height="990"><defs><clipPath id="SqbQoJnKTpVg"><path fill="none" stroke="none" d=" M 0 0 L 1698 0 L 1698 990 L 0 990 L 0 0 Z"/></clipPath></defs><g transform="scale(1,1)" clip-path="url(#SqbQoJnKTpVg)"><g><rect fill="rgb(255,255,255)" stroke="none" x="0" y="0" width="1699" height="991" fill-opacity="1"/><path fill="none" stroke="rgb(0,0,0)" paint-order="fill stroke markers" d=" M 516.3211469754106 806.5911284964325 L 1176.178588310511 806.5911284964325" stroke-opacity="0.8" stroke-linecap="round" stroke-linejoin="round" stroke-miterlimit="10" stroke-width="4"/><path fill="none" stroke="rgb(0,0,0)" paint-order="fill stroke markers" d=" M 1176.178588310511 806.5911284964325 L 1176.178588310511 146.73368716133564" stroke-opacity="0.8" stroke-linecap="round" stroke-linejoin="round" stroke-miterlimit="10" stroke-width="4"/><path fill="none" stroke="rgb(0,0,0)" paint-order="fill stroke markers" d=" M 1176.178588310511 146.73368716133564 L 516.3211469754106 146.73368716133564" stroke-opacity="0.8" stroke-linecap="round" stroke-linejoin="round" stroke-miterlimit="10" stroke-width="4"/><path fill="none" stroke="rgb(0,0,0)" paint-order="fill stroke markers" d=" M 516.3211469754106 146.73368716133564 L 516.3211469754106 806.5911284964325" stroke-opacity="0.8" stroke-linecap="round" stroke-linejoin="round" stroke-miterlimit="10" stroke-width="4"/><path fill="none" stroke="rgb(0,0,0)" paint-order="fill stroke markers" d=" M 846.2498676429608 476.66240782888406 L 516.3211469754106 806.5911284964325" stroke-opacity="0.8" stroke-linecap="round" stroke-linejoin="round" stroke-miterlimit="10" stroke-width="4"/><path fill="none" stroke="rgb(0,0,0)" paint-order="fill stroke markers" d=" M 846.2498676429608 476.66240782888406 L 1176.178588310511 806.5911284964325" stroke-opacity="0.8" stroke-linecap="round" stroke-linejoin="round" stroke-miterlimit="10" stroke-width="4"/><path fill="none" stroke="rgb(0,0,0)" paint-order="fill stroke markers" d=" M 846.2498676429608 476.66240782888406 L 1176.178588310511 146.73368716133564" stroke-opacity="0.8" stroke-linecap="round" stroke-linejoin="round" stroke-miterlimit="10" stroke-width="4"/><path fill="none" stroke="rgb(0,0,0)" paint-order="fill stroke markers" d=" M 846.2498676429608 476.66240782888406 L 516.3211469754106 146.73368716133564" stroke-opacity="0.8" stroke-linecap="round" stroke-linejoin="round" stroke-miterlimit="10" stroke-width="4"/><path fill="none" stroke="rgb(0,0,0)" paint-order="fill stroke markers" d=" M 360.0000000000001 534 L 827.0000000000002 20" stroke-opacity="0.6980392156862745" stroke-linejoin="round" stroke-miterlimit="10" stroke-width="3.5" stroke-dasharray="11.5,8"/><path fill="rgb(0,0,0)" stroke="none" paint-order="stroke fill markers" d=" M 525.3211469754106 806.5911284964325 C 525.3211469754106 811.5616912449096 521.2917097238877 815.5911284964325 516.3211469754106 815.5911284964325 C 511.3505842269334 815.5911284964325 507.32114697541056 811.5616912449096 507.32114697541056 806.5911284964325 C 507.32114697541056 801.6205657479553 511.3505842269334 797.5911284964325 516.3211469754106 797.5911284964325 C 521.2917097238877 797.5911284964325 525.3211469754106 801.6205657479553 525.3211469754106 806.5911284964325 Z" fill-opacity="1"/><path fill="rgb(0,0,0)" stroke="none" paint-order="stroke fill markers" d=" M 1185.178588310511 806.5911284964325 C 1185.178588310511 811.5616912449096 1181.149151058988 815.5911284964325 1176.178588310511 815.5911284964325 C 1171.208025562034 815.5911284964325 1167.178588310511 811.5616912449096 1167.178588310511 806.5911284964325 C 1167.178588310511 801.6205657479553 1171.208025562034 797.5911284964325 1176.178588310511 797.5911284964325 C 1181.149151058988 797.5911284964325 1185.178588310511 801.6205657479553 1185.178588310511 806.5911284964325 Z" fill-opacity="1"/><path fill="rgb(0,0,0)" stroke="none" paint-order="stroke fill markers" d=" M 1185.178588310511 146.73368716133564 C 1185.178588310511 151.70424990981277 1181.149151058988 155.73368716133564 1176.178588310511 155.73368716133564 C 1171.208025562034 155.73368716133564 1167.178588310511 151.70424990981277 1167.178588310511 146.73368716133564 C 1167.178588310511 141.7631244128585 1171.208025562034 137.73368716133564 1176.178588310511 137.73368716133564 C 1181.149151058988 137.73368716133564 1185.178588310511 141.7631244128585 1185.178588310511 146.73368716133564 Z" fill-opacity="1"/><path fill="rgb(0,0,0)" stroke="none" paint-order="stroke fill markers" d=" M 525.3211469754106 146.73368716133564 C 525.3211469754106 151.70424990981277 521.2917097238877 155.73368716133564 516.3211469754106 155.73368716133564 C 511.3505842269334 155.73368716133564 507.32114697541056 151.70424990981277 507.32114697541056 146.73368716133564 C 507.32114697541056 141.7631244128585 511.3505842269334 137.73368716133564 516.3211469754106 137.73368716133564 C 521.2917097238877 137.73368716133564 525.3211469754106 141.7631244128585 525.3211469754106 146.73368716133564 Z" fill-opacity="1"/><path fill="rgb(0,0,0)" stroke="none" paint-order="stroke fill markers" d=" M 855.2498676429608 476.66240782888406 C 855.2498676429608 481.6329705773612 851.220430391438 485.66240782888406 846.2498676429608 485.66240782888406 C 841.2793048944836 485.66240782888406 837.2498676429608 481.6329705773612 837.2498676429608 476.66240782888406 C 837.2498676429608 471.6918450804069 841.2793048944836 467.66240782888406 846.2498676429608 467.66240782888406 C 851.220430391438 467.66240782888406 855.2498676429608 471.6918450804069 855.2498676429608 476.66240782888406 Z" fill-opacity="1"/><text fill="rgb(0,0,0)" stroke="none" font-family="geogebra-sans-serif, sans-serif" font-size="32px" font-style="normal" font-weight="bold" text-decoration="normal" x="482" y="134" text-anchor="start" dominant-baseline="alphabetic" fill-opacity="1">1</text><text fill="rgb(0,0,0)" stroke="none" font-family="geogebra-sans-serif, sans-serif" font-size="32px" font-style="normal" font-weight="bold" text-decoration="normal" x="1185" y="123" text-anchor="start" dominant-baseline="alphabetic" fill-opacity="1">2</text><text fill="rgb(0,0,0)" stroke="none" font-family="geogebra-sans-serif, sans-serif" font-size="32px" font-style="normal" font-weight="bold" text-decoration="normal" x="839" y="441" text-anchor="start" dominant-baseline="alphabetic" fill-opacity="1">3</text><text fill="rgb(0,0,0)" stroke="none" font-family="geogebra-sans-serif, sans-serif" font-size="32px" font-style="normal" font-weight="bold" text-decoration="normal" x="486" y="846" text-anchor="start" dominant-baseline="alphabetic" fill-opacity="1">4</text><text fill="rgb(0,0,0)" stroke="none" font-family="geogebra-sans-serif, sans-serif" font-size="32px" font-style="normal" font-weight="bold" text-decoration="normal" x="1186" y="850" text-anchor="start" dominant-baseline="alphabetic" fill-opacity="1">5</text><g transform="scale(35,35)"><g transform="translate(23.942857142857143,3.1702857142857144)"><path fill="rgb(0,0,0)" stroke="none" paint-order="stroke fill markers" d=" M 0.299 -0.678 L 0.299 -0.058 L 0.424 -0.058 L 0.424 0 L 0.095 0 L 0.095 -0.058 L 0.22 -0.058 L 0.22 -0.578 Q 0.169 -0.556 0.089 -0.554 L 0.089 -0.612 Q 0.22 -0.617 0.279 -0.678 L 0.299 -0.678 Z"/></g></g><g transform="scale(35,35)"><g transform="translate(23.914285714285715,24.27257142857143)"><path fill="rgb(0,0,0)" stroke="none" paint-order="stroke fill markers" d=" M 0.449 -0.17400000000000002 L 0.449 -0.17400000000000002 L 0.421 0 L 0.05 0 Q 0.05 -0.025 0.056 -0.032 L 0.061 -0.037 L 0.253 -0.251 Q 0.358 -0.369 0.358 -0.47200000000000003 Q 0.358 -0.561 0.304 -0.607 L 0.303 -0.608 L 0.302 -0.608 Q 0.27 -0.635 0.224 -0.635 Q 0.152 -0.635 0.109 -0.5730000000000001 Q 0.097 -0.555 0.089 -0.533 Q 0.092 -0.534 0.10200000000000001 -0.534 Q 0.14200000000000002 -0.534 0.153 -0.498 L 0.153 -0.497 Q 0.155 -0.49 0.155 -0.482 Q 0.155 -0.442 0.117 -0.431 Q 0.109 -0.429 0.10300000000000001 -0.429 Q 0.066 -0.429 0.054 -0.46 Q 0.05 -0.47100000000000003 0.05 -0.485 Q 0.05 -0.562 0.109 -0.617 Q 0.162 -0.666 0.23700000000000002 -0.666 Q 0.34700000000000003 -0.666 0.40800000000000003 -0.592 Q 0.443 -0.549 0.448 -0.49 Q 0.449 -0.481 0.449 -0.47200000000000003 Q 0.449 -0.399 0.394 -0.333 Q 0.365 -0.299 0.304 -0.243 L 0.243 -0.189 L 0.233 -0.18 L 0.127 -0.077 L 0.307 -0.077 Q 0.395 -0.077 0.402 -0.085 Q 0.41200000000000003 -0.099 0.424 -0.17400000000000002 L 0.449 -0.17400000000000002 Z"/></g></g><g transform="scale(35,35)"><g transform="translate(13.628571428571428,13.244)"><path fill="rgb(0,0,0)" stroke="none" paint-order="stroke fill markers" d=" M 0.29 -0.352 L 0.29 -0.352 Q 0.39 -0.332 0.434 -0.254 Q 0.457 -0.215 0.457 -0.171 Q 0.457 -0.08600000000000001 0.387 -0.028 Q 0.326 0.022 0.244 0.022 Q 0.145 0.022 0.085 -0.037 Q 0.042 -0.079 0.042 -0.135 Q 0.042 -0.182 0.084 -0.191 Q 0.091 -0.193 0.098 -0.193 Q 0.136 -0.193 0.149 -0.161 Q 0.153 -0.148 0.154 -0.137 Q 0.154 -0.097 0.11800000000000001 -0.085 Q 0.10400000000000001 -0.08 0.088 -0.082 Q 0.125 -0.02 0.216 -0.008 Q 0.229 -0.006 0.241 -0.006 Q 0.305 -0.006 0.335 -0.069 Q 0.354 -0.109 0.354 -0.171 Q 0.354 -0.304 0.274 -0.331 Q 0.256 -0.337 0.23500000000000001 -0.337 L 0.191 -0.337 Q 0.169 -0.337 0.167 -0.34800000000000003 Q 0.167 -0.358 0.182 -0.36 Q 0.197 -0.36 0.221 -0.363 Q 0.272 -0.365 0.301 -0.402 L 0.301 -0.403 L 0.302 -0.404 L 0.303 -0.405 L 0.304 -0.405 L 0.31 -0.41500000000000004 Q 0.338 -0.462 0.338 -0.529 Q 0.338 -0.622 0.266 -0.638 Q 0.254 -0.641 0.242 -0.641 Q 0.17200000000000001 -0.641 0.128 -0.601 Q 0.117 -0.591 0.109 -0.579 Q 0.171 -0.579 0.171 -0.529 Q 0.171 -0.493 0.14 -0.481 Q 0.131 -0.47800000000000004 0.12 -0.47800000000000004 Q 0.081 -0.47800000000000004 0.07100000000000001 -0.513 L 0.07100000000000001 -0.513 L 0.07100000000000001 -0.514 Q 0.069 -0.522 0.069 -0.53 Q 0.069 -0.597 0.135 -0.637 Q 0.183 -0.666 0.246 -0.666 Q 0.337 -0.666 0.393 -0.612 L 0.395 -0.61 Q 0.43 -0.5740000000000001 0.43 -0.528 Q 0.43 -0.445 0.359 -0.389 Q 0.328 -0.365 0.29 -0.352 Z"/></g></g><g transform="scale(35,35)"><g transform="translate(34.02857142857143,13.329714285714285)"><path fill="rgb(0,0,0)" stroke="none" paint-order="stroke fill markers" d=" M 0.028 -0.165 L 0.028 -0.196 L 0.335 -0.665 Q 0.343 -0.677 0.355 -0.677 Q 0.369 -0.677 0.371 -0.666 L 0.371 -0.651 L 0.371 -0.196 L 0.47100000000000003 -0.196 L 0.47100000000000003 -0.165 L 0.371 -0.165 L 0.371 -0.078 Q 0.371 -0.047 0.383 -0.04 Q 0.397 -0.031 0.447 -0.031 L 0.468 -0.031 L 0.468 0 Q 0.427 -0.003 0.332 -0.003 Q 0.23800000000000002 -0.003 0.197 0 L 0.197 -0.031 L 0.218 -0.031 Q 0.28 -0.031 0.29 -0.048 Q 0.294 -0.055 0.294 -0.078 L 0.294 -0.165 L 0.028 -0.165 M 0.3 -0.196 L 0.3 -0.5690000000000001 L 0.056 -0.196 L 0.3 -0.196 Z"/></g></g><g transform="scale(35,35)"><g transform="translate(28.714285714285715,16.81542857142857)"><path fill="rgb(0,0,0)" stroke="none" paint-order="stroke fill markers" d=" M 0.449 -0.201 L 0.449 -0.201 Q 0.449 -0.098 0.372 -0.031 Q 0.31 0.022 0.231 0.022 Q 0.139 0.022 0.085 -0.055 Q 0.05 -0.10400000000000001 0.05 -0.161 Q 0.05 -0.20700000000000002 0.091 -0.213 Q 0.095 -0.214 0.099 -0.214 Q 0.136 -0.214 0.147 -0.181 Q 0.149 -0.17300000000000001 0.149 -0.165 Q 0.149 -0.133 0.121 -0.121 Q 0.111 -0.116 0.099 -0.116 Q 0.088 -0.116 0.082 -0.11800000000000001 Q 0.1 -0.055 0.159 -0.024 Q 0.192 -0.006 0.229 -0.006 Q 0.296 -0.006 0.336 -0.07100000000000001 Q 0.36 -0.113 0.36 -0.20800000000000002 Q 0.36 -0.292 0.342 -0.334 Q 0.314 -0.398 0.257 -0.398 Q 0.176 -0.398 0.128 -0.328 Q 0.122 -0.319 0.115 -0.319 Q 0.10200000000000001 -0.319 0.101 -0.333 L 0.101 -0.34500000000000003 L 0.101 -0.641 Q 0.101 -0.664 0.111 -0.665 Q 0.115 -0.665 0.123 -0.662 Q 0.186 -0.634 0.256 -0.634 Q 0.328 -0.634 0.392 -0.663 Q 0.397 -0.666 0.4 -0.666 Q 0.41000000000000003 -0.666 0.41000000000000003 -0.655 Q 0.41000000000000003 -0.642 0.378 -0.613 Q 0.31 -0.551 0.217 -0.551 Q 0.17500000000000002 -0.551 0.132 -0.5640000000000001 L 0.132 -0.369 Q 0.184 -0.42 0.259 -0.42 Q 0.34700000000000003 -0.42 0.404 -0.343 Q 0.449 -0.28200000000000003 0.449 -0.201 Z"/></g></g><g transform="scale(35,35)"><g transform="translate(27.457142857142856,8.586857142857143)"><path fill="rgb(0,0,0)" stroke="none" paint-order="stroke fill markers" d=" M 0.132 -0.328 L 0.132 -0.328 Q 0.17300000000000001 -0.427 0.257 -0.427 Q 0.34900000000000003 -0.427 0.40800000000000003 -0.35100000000000003 Q 0.441 -0.31 0.452 -0.255 Q 0.457 -0.23 0.457 -0.20400000000000001 Q 0.457 -0.093 0.38 -0.026000000000000002 Q 0.324 0.022 0.251 0.022 Q 0.149 0.022 0.092 -0.075 Q 0.042 -0.162 0.042 -0.316 Q 0.042 -0.489 0.14 -0.591 Q 0.213 -0.666 0.305 -0.666 Q 0.392 -0.666 0.422 -0.605 Q 0.432 -0.584 0.432 -0.558 Q 0.432 -0.518 0.395 -0.511 Q 0.39 -0.51 0.386 -0.51 Q 0.354 -0.51 0.343 -0.538 Q 0.34 -0.546 0.34 -0.556 Q 0.34 -0.601 0.395 -0.601 Q 0.369 -0.641 0.307 -0.641 Q 0.23700000000000002 -0.641 0.189 -0.578 Q 0.132 -0.503 0.132 -0.352 L 0.132 -0.328 M 0.251 -0.006 L 0.251 -0.006 Q 0.318 -0.006 0.35000000000000003 -0.07100000000000001 Q 0.367 -0.107 0.367 -0.20500000000000002 Q 0.367 -0.305 0.34900000000000003 -0.342 Q 0.318 -0.404 0.256 -0.404 Q 0.177 -0.404 0.147 -0.31 Q 0.134 -0.271 0.134 -0.226 Q 0.134 -0.128 0.152 -0.081 Q 0.171 -0.035 0.211 -0.015 Q 0.23 -0.006 0.251 -0.006 Z"/></g></g><g transform="scale(35,35)"><g transform="translate(20.228571428571428,8.558285714285715)"><path fill="rgb(0,0,0)" stroke="none" paint-order="stroke fill markers" d=" M 0.47600000000000003 -0.609 L 0.341 -0.419 Q 0.298 -0.359 0.279 -0.248 Q 0.268 -0.17400000000000002 0.268 -0.084 L 0.268 -0.033 Q 0.268 0.022 0.222 0.022 Q 0.176 0.022 0.176 -0.033 Q 0.176 -0.2 0.273 -0.368 L 0.299 -0.40900000000000003 L 0.41100000000000003 -0.5670000000000001 L 0.20400000000000001 -0.5670000000000001 Q 0.113 -0.5670000000000001 0.106 -0.561 Q 0.096 -0.552 0.081 -0.47000000000000003 L 0.056 -0.47000000000000003 L 0.089 -0.676 L 0.114 -0.676 Q 0.11800000000000001 -0.659 0.132 -0.653 L 0.133 -0.653 L 0.133 -0.653 Q 0.159 -0.644 0.242 -0.644 L 0.485 -0.644 Q 0.485 -0.621 0.47600000000000003 -0.609 Z"/></g></g><g transform="scale(35,35)"><g transform="translate(18.62857142857143,17.158285714285714)"><path fill="rgb(0,0,0)" stroke="none" paint-order="stroke fill markers" d=" M 0.163 -0.457 L 0.28700000000000003 -0.377 Q 0.386 -0.435 0.386 -0.517 Q 0.386 -0.583 0.326 -0.62 Q 0.291 -0.641 0.249 -0.641 Q 0.177 -0.641 0.136 -0.596 L 0.136 -0.596 L 0.135 -0.595 Q 0.113 -0.5690000000000001 0.113 -0.538 Q 0.113 -0.49 0.163 -0.457 M 0.309 -0.362 L 0.309 -0.362 Q 0.386 -0.314 0.403 -0.296 Q 0.406 -0.294 0.40800000000000003 -0.291 Q 0.457 -0.23700000000000002 0.457 -0.168 Q 0.457 -0.079 0.383 -0.023 Q 0.325 0.022 0.249 0.022 Q 0.154 0.022 0.092 -0.037 Q 0.042 -0.085 0.042 -0.151 Q 0.042 -0.263 0.186 -0.335 Q 0.124 -0.377 0.113 -0.389 Q 0.069 -0.438 0.069 -0.499 Q 0.069 -0.579 0.136 -0.629 Q 0.186 -0.666 0.25 -0.666 Q 0.337 -0.666 0.391 -0.611 Q 0.43 -0.5710000000000001 0.43 -0.517 Q 0.43 -0.424 0.309 -0.362 M 0.209 -0.32 L 0.209 -0.32 Q 0.097 -0.25 0.092 -0.151 Q 0.092 -0.078 0.155 -0.035 Q 0.197 -0.006 0.25 -0.006 Q 0.328 -0.006 0.375 -0.055 Q 0.40700000000000003 -0.089 0.40700000000000003 -0.132 Q 0.40700000000000003 -0.19 0.343 -0.23500000000000001 Q 0.341 -0.23600000000000002 0.332 -0.242 L 0.209 -0.32 Z"/></g></g></g></g></svg>