<svg version="1.1" xmlns="http://www.w3.org/2000/svg" xmlns:xlink="http://www.w3.org/1999/xlink" width="1698" height="990"><defs><clipPath id="TfoqdPrKVFWM"><path fill="none" stroke="none" d=" M 0 0 L 1698 0 L 1698 990 L 0 990 L 0 0 Z"/></clipPath></defs><g transform="scale(1,1)" clip-path="url(#TfoqdPrKVFWM)"><g><rect fill="rgb(255,255,255)" stroke="none" x="0" y="0" width="1699" height="991" fill-opacity="1"/><path fill="rgb(255,0,0)" stroke="none" paint-order="stroke fill markers" d=" M 545.2572814459469 179.60667126244954 L 521.3924275809009 193.92558358147704 L 524.5744080962404 197.10756409681653 L 524.5744080962403 197.10756409681653 L 220.35572121069555 501.32625098236133 C 219.4770415542552 502.20493063880167 219.4770415542552 503.6295518412604 220.35572121069558 504.50823149770076 C 220.79506103891578 504.94757132592093 221.37088625364055 505.167241240031 221.94671146836532 505.167241240031 C 222.5225366830901 505.167241240031 223.09836189781487 504.94757132592093 223.53770172603504 504.50823149770076 L 527.7563886115797 200.28954461215605 L 527.7563886115798 200.28954461215605 L 530.9383691269193 203.47152512749545 L 545.2572814459469 179.60667126244954 Z" fill-opacity="0.6980392156862745"/><path fill="rgb(0,0,0)" stroke="none" paint-order="stroke fill markers" d=" M 221.94671146836532 500.6672412400311 C 221.37088625364055 500.6672412400311 220.79506103891578 500.88691115414116 220.35572121069558 501.32625098236133 C 219.4770415542552 502.20493063880167 219.4770415542552 503.6295518412604 220.35572121069555 504.50823149770076 L 524.5744080962403 808.7269183832456 L 521.3924275809009 811.908898898585 L 545.2572814459469 826.2278112176126 L 530.9383691269193 802.3629573525666 L 527.7563886115798 805.544937867906 L 223.53770172603504 501.32625098236133 C 223.09836189781487 500.88691115414116 222.5225366830901 500.6672412400311 221.94671146836532 500.6672412400311 Z" fill-opacity="0.6980392156862745"/><path fill="rgb(0,0,0)" stroke="none" paint-order="stroke fill markers" d=" M 545.2572814459469 179.60667126244948 L 538.5072814459469 206.60667126244948 L 543.0072814459469 206.60667126244948 L 543.0072814459469 826.2278112176126 C 543.0072814459469 827.4704519047319 544.0146407588276 828.4778112176126 545.2572814459469 828.4778112176126 C 546.4999221330662 828.4778112176126 547.5072814459469 827.4704519047319 547.5072814459469 826.2278112176126 L 547.5072814459469 206.60667126244948 L 552.0072814459469 206.60667126244948 L 545.2572814459469 179.60667126244948 Z" fill-opacity="0.6980392156862745"/><path fill="rgb(0,0,0)" stroke="none" paint-order="stroke fill markers" d=" M 1164.8784214011102 172.85667126244948 L 1164.8784214011102 177.35667126244948 L 545.2572814459469 177.35667126244948 C 544.0146407588276 177.35667126244948 543.0072814459469 178.3640305753302 543.0072814459469 179.60667126244948 C 543.0072814459469 180.84931194956877 544.0146407588276 181.85667126244948 545.2572814459469 181.85667126244948 L 1164.8784214011102 181.85667126244948 L 1164.8784214011102 186.35667126244948 L 1191.8784214011102 179.60667126244948 L 1164.8784214011102 172.85667126244948 Z" fill-opacity="0.6980392156862745"/><path fill="rgb(0,0,0)" stroke="none" paint-order="stroke fill markers" d=" M 1191.8784214011102 177.35667126244945 C 1191.3025961863855 177.35667126244945 1190.7267709716607 177.57634117655954 1190.2874311434405 178.01568100477974 L 562.7581742803139 805.544937867906 L 559.5761937649745 802.3629573525666 L 545.2572814459469 826.2278112176126 L 569.1221353109929 811.908898898585 L 565.9401547956535 808.7269183832456 L 1193.46941165878 181.19766152011923 C 1194.3480913152205 180.31898186367886 1194.3480913152205 178.89436066122008 1193.46941165878 178.0156810047797 C 1193.0300718305598 177.57634117655954 1192.454246615835 177.35667126244945 1191.8784214011102 177.35667126244945 Z" fill-opacity="0.6980392156862745"/><path fill="rgb(0,0,0)" stroke="none" paint-order="stroke fill markers" d=" M 1164.8784214011102 819.4778112176126 L 1164.8784214011102 823.9778112176126 L 545.2572814459469 823.9778112176126 C 544.0146407588276 823.9778112176126 543.0072814459469 824.9851705304933 543.0072814459469 826.2278112176126 C 543.0072814459469 827.4704519047319 544.0146407588276 828.4778112176126 545.2572814459469 828.4778112176126 L 1164.8784214011102 828.4778112176126 L 1164.8784214011102 832.9778112176126 L 1191.8784214011102 826.2278112176126 L 1164.8784214011102 819.4778112176126 Z" fill-opacity="0.6980392156862745"/><path fill="rgb(0,0,0)" stroke="none" paint-order="stroke fill markers" d=" M 1191.8784214011102 179.60667126244948 L 1185.1284214011102 206.60667126244948 L 1189.6284214011102 206.60667126244948 L 1189.6284214011102 826.2278112176126 C 1189.6284214011102 827.4704519047319 1190.635780713991 828.4778112176126 1191.8784214011102 828.4778112176126 C 1193.1210620882296 828.4778112176126 1194.1284214011102 827.4704519047319 1194.1284214011102 826.2278112176126 L 1194.1284214011102 206.60667126244948 L 1198.6284214011102 206.60667126244948 L 1191.8784214011102 179.60667126244948 Z" fill-opacity="0.6980392156862745"/><path fill="rgb(0,0,0)" stroke="none" paint-order="stroke fill markers" d=" M 1191.8784214011102 177.35667126244945 C 1191.3025961863855 177.35667126244945 1190.7267709716607 177.57634117655954 1190.2874311434405 178.0156810047797 C 1189.408751487 178.89436066122008 1189.408751487 180.31898186367886 1190.2874311434405 181.19766152011923 L 1494.5061180289852 485.416348405664 L 1491.3241375136458 488.5983289210035 L 1515.1889913786918 502.91724124003105 L 1500.870079059664 479.0523873749851 L 1497.6880985443247 482.23436789032456 L 1193.46941165878 178.01568100477974 C 1193.0300718305598 177.57634117655954 1192.454246615835 177.35667126244945 1191.8784214011102 177.35667126244945 Z" fill-opacity="0.6980392156862745"/><path fill="rgb(0,0,0)" stroke="none" paint-order="stroke fill markers" d=" M 1515.1889913786915 502.91724124003116 L 1491.3241375136458 517.2361535590586 L 1494.5061180289852 520.418134074398 L 1190.2874311434405 824.6368209599428 C 1189.408751487 825.5155006163832 1189.408751487 826.940121818842 1190.2874311434405 827.8188014752824 C 1190.7267709716607 828.2581413035025 1191.3025961863855 828.4778112176126 1191.8784214011102 828.4778112176126 C 1192.454246615835 828.4778112176126 1193.0300718305598 828.2581413035025 1193.46941165878 827.8188014752824 L 1497.6880985443247 523.6001145897376 L 1500.870079059664 526.782095105077 L 1515.1889913786918 502.91724124003116 Z" fill-opacity="0.6980392156862745"/><path fill="rgb(0,0,0)" stroke="none" paint-order="stroke fill markers" d=" M 230.9467114683653 502.91724124003105 C 230.9467114683653 507.8878039885082 226.91727421684243 511.91724124003105 221.9467114683653 511.91724124003105 C 216.97614871988816 511.91724124003105 212.9467114683653 507.8878039885082 212.9467114683653 502.91724124003105 C 212.9467114683653 497.9466784915539 216.97614871988816 493.91724124003105 221.9467114683653 493.91724124003105 C 226.91727421684243 493.91724124003105 230.9467114683653 497.9466784915539 230.9467114683653 502.91724124003105 Z" fill-opacity="1"/><path fill="rgb(0,0,0)" stroke="none" paint-order="stroke fill markers" d=" M 554.2572814459469 179.60667126244948 C 554.2572814459469 184.57723401092662 550.227844194424 188.60667126244948 545.2572814459469 188.60667126244948 C 540.2867186974697 188.60667126244948 536.2572814459469 184.57723401092662 536.2572814459469 179.60667126244948 C 536.2572814459469 174.63610851397235 540.2867186974697 170.60667126244948 545.2572814459469 170.60667126244948 C 550.227844194424 170.60667126244948 554.2572814459469 174.63610851397235 554.2572814459469 179.60667126244948 Z" fill-opacity="1"/><path fill="rgb(0,0,0)" stroke="none" paint-order="stroke fill markers" d=" M 554.2572814459469 826.2278112176126 C 554.2572814459469 831.1983739660898 550.227844194424 835.2278112176126 545.2572814459469 835.2278112176126 C 540.2867186974697 835.2278112176126 536.2572814459469 831.1983739660898 536.2572814459469 826.2278112176126 C 536.2572814459469 821.2572484691354 540.2867186974697 817.2278112176126 545.2572814459469 817.2278112176126 C 550.227844194424 817.2278112176126 554.2572814459469 821.2572484691354 554.2572814459469 826.2278112176126 Z" fill-opacity="1"/><path fill="rgb(0,0,0)" stroke="none" paint-order="stroke fill markers" d=" M 1200.8784214011102 179.60667126244948 C 1200.8784214011102 184.57723401092662 1196.8489841495873 188.60667126244948 1191.8784214011102 188.60667126244948 C 1186.9078586526332 188.60667126244948 1182.8784214011102 184.57723401092662 1182.8784214011102 179.60667126244948 C 1182.8784214011102 174.63610851397235 1186.9078586526332 170.60667126244948 1191.8784214011102 170.60667126244948 C 1196.8489841495873 170.60667126244948 1200.8784214011102 174.63610851397235 1200.8784214011102 179.60667126244948 Z" fill-opacity="1"/><path fill="rgb(0,0,0)" stroke="none" paint-order="stroke fill markers" d=" M 1200.8784214011102 826.2278112176126 C 1200.8784214011102 831.1983739660898 1196.8489841495873 835.2278112176126 1191.8784214011102 835.2278112176126 C 1186.9078586526332 835.2278112176126 1182.8784214011102 831.1983739660898 1182.8784214011102 826.2278112176126 C 1182.8784214011102 821.2572484691354 1186.9078586526332 817.2278112176126 1191.8784214011102 817.2278112176126 C 1196.8489841495873 817.2278112176126 1200.8784214011102 821.2572484691354 1200.8784214011102 826.2278112176126 Z" fill-opacity="1"/><path fill="rgb(0,0,0)" stroke="none" paint-order="stroke fill markers" d=" M 1524.1889913786918 502.91724124003105 C 1524.1889913786918 507.8878039885082 1520.1595541271688 511.91724124003105 1515.1889913786918 511.91724124003105 C 1510.2184286302147 511.91724124003105 1506.1889913786918 507.8878039885082 1506.1889913786918 502.91724124003105 C 1506.1889913786918 497.9466784915539 1510.2184286302147 493.91724124003105 1515.1889913786918 493.91724124003105 C 1520.1595541271688 493.91724124003105 1524.1889913786918 497.9466784915539 1524.1889913786918 502.91724124003105 Z" fill-opacity="1"/><text fill="rgb(0,0,0)" stroke="none" font-family="geogebra-sans-serif, sans-serif" font-size="32px" font-style="normal" font-weight="bold" text-decoration="normal" x="184" y="513" text-anchor="start" dominant-baseline="alphabetic" fill-opacity="1">1</text><text fill="rgb(0,0,0)" stroke="none" font-family="geogebra-sans-serif, sans-serif" font-size="32px" font-style="normal" font-weight="bold" text-decoration="normal" x="536" y="150" text-anchor="start" dominant-baseline="alphabetic" fill-opacity="1">2</text><text fill="rgb(0,0,0)" stroke="none" font-family="geogebra-sans-serif, sans-serif" font-size="32px" font-style="normal" font-weight="bold" text-decoration="normal" x="538" y="873" text-anchor="start" dominant-baseline="alphabetic" fill-opacity="1">3</text><text fill="rgb(0,0,0)" stroke="none" font-family="geogebra-sans-serif, sans-serif" font-size="32px" font-style="normal" font-weight="bold" text-decoration="normal" x="1181" y="150" text-anchor="start" dominant-baseline="alphabetic" fill-opacity="1">4</text><text fill="rgb(0,0,0)" stroke="none" font-family="geogebra-sans-serif, sans-serif" font-size="32px" font-style="normal" font-weight="bold" text-decoration="normal" x="1185" y="876" text-anchor="start" dominant-baseline="alphabetic" fill-opacity="1">5</text><text fill="rgb(0,0,0)" stroke="none" font-family="geogebra-sans-serif, sans-serif" font-size="32px" font-style="normal" font-weight="bold" text-decoration="normal" x="1529" y="513" text-anchor="start" dominant-baseline="alphabetic" fill-opacity="1">6</text><g transform="scale(35,35)"><g transform="translate(9.8,9.101142857142857)"><path fill="rgb(0,0,0)" stroke="none" paint-order="stroke fill markers" d=" M 0.294 -0.64 L 0.294 -0.079 Q 0.294 -0.049 0.306 -0.041 Q 0.323 -0.031 0.387 -0.031 L 0.419 -0.031 L 0.419 0 Q 0.384 -0.003 0.257 -0.003 Q 0.13 -0.003 0.095 0 L 0.095 -0.031 L 0.127 -0.031 Q 0.20400000000000001 -0.031 0.215 -0.049 L 0.216 -0.05 Q 0.22 -0.058 0.22 -0.079 L 0.22 -0.597 Q 0.168 -0.5710000000000001 0.089 -0.5710000000000001 L 0.089 -0.602 Q 0.209 -0.602 0.271 -0.666 Q 0.29 -0.666 0.293 -0.659 L 0.293 -0.659 L 0.293 -0.658 Q 0.294 -0.655 0.294 -0.64 Z"/></g></g><g transform="scale(35,35)"><g transform="translate(16.085714285714285,14.586857142857143)"><path fill="rgb(0,0,0)" stroke="none" paint-order="stroke fill markers" d=" M 0.449 -0.17400000000000002 L 0.449 -0.17400000000000002 L 0.421 0 L 0.05 0 Q 0.05 -0.025 0.056 -0.032 L 0.061 -0.037 L 0.253 -0.251 Q 0.358 -0.369 0.358 -0.47200000000000003 Q 0.358 -0.561 0.304 -0.607 L 0.303 -0.608 L 0.302 -0.608 Q 0.27 -0.635 0.224 -0.635 Q 0.152 -0.635 0.109 -0.5730000000000001 Q 0.097 -0.555 0.089 -0.533 Q 0.092 -0.534 0.10200000000000001 -0.534 Q 0.14200000000000002 -0.534 0.153 -0.498 L 0.153 -0.497 Q 0.155 -0.49 0.155 -0.482 Q 0.155 -0.442 0.117 -0.431 Q 0.109 -0.429 0.10300000000000001 -0.429 Q 0.066 -0.429 0.054 -0.46 Q 0.05 -0.47100000000000003 0.05 -0.485 Q 0.05 -0.562 0.109 -0.617 Q 0.162 -0.666 0.23700000000000002 -0.666 Q 0.34700000000000003 -0.666 0.40800000000000003 -0.592 Q 0.443 -0.549 0.448 -0.49 Q 0.449 -0.481 0.449 -0.47200000000000003 Q 0.449 -0.399 0.394 -0.333 Q 0.365 -0.299 0.304 -0.243 L 0.243 -0.189 L 0.233 -0.18 L 0.127 -0.077 L 0.307 -0.077 Q 0.395 -0.077 0.402 -0.085 Q 0.41200000000000003 -0.099 0.424 -0.17400000000000002 L 0.449 -0.17400000000000002 Z"/></g></g><g transform="scale(35,35)"><g transform="translate(9.628571428571428,19.929714285714283)"><path fill="rgb(0,0,0)" stroke="none" paint-order="stroke fill markers" d=" M 0.29 -0.352 L 0.29 -0.352 Q 0.39 -0.332 0.434 -0.254 Q 0.457 -0.215 0.457 -0.171 Q 0.457 -0.08600000000000001 0.387 -0.028 Q 0.326 0.022 0.244 0.022 Q 0.145 0.022 0.085 -0.037 Q 0.042 -0.079 0.042 -0.135 Q 0.042 -0.182 0.084 -0.191 Q 0.091 -0.193 0.098 -0.193 Q 0.136 -0.193 0.149 -0.161 Q 0.153 -0.148 0.154 -0.137 Q 0.154 -0.097 0.11800000000000001 -0.085 Q 0.10400000000000001 -0.08 0.088 -0.082 Q 0.125 -0.02 0.216 -0.008 Q 0.229 -0.006 0.241 -0.006 Q 0.305 -0.006 0.335 -0.069 Q 0.354 -0.109 0.354 -0.171 Q 0.354 -0.304 0.274 -0.331 Q 0.256 -0.337 0.23500000000000001 -0.337 L 0.191 -0.337 Q 0.169 -0.337 0.167 -0.34800000000000003 Q 0.167 -0.358 0.182 -0.36 Q 0.197 -0.36 0.221 -0.363 Q 0.272 -0.365 0.301 -0.402 L 0.301 -0.403 L 0.302 -0.404 L 0.303 -0.405 L 0.304 -0.405 L 0.31 -0.41500000000000004 Q 0.338 -0.462 0.338 -0.529 Q 0.338 -0.622 0.266 -0.638 Q 0.254 -0.641 0.242 -0.641 Q 0.17200000000000001 -0.641 0.128 -0.601 Q 0.117 -0.591 0.109 -0.579 Q 0.171 -0.579 0.171 -0.529 Q 0.171 -0.493 0.14 -0.481 Q 0.131 -0.47800000000000004 0.12 -0.47800000000000004 Q 0.081 -0.47800000000000004 0.07100000000000001 -0.513 L 0.07100000000000001 -0.513 L 0.07100000000000001 -0.514 Q 0.069 -0.522 0.069 -0.53 Q 0.069 -0.597 0.135 -0.637 Q 0.183 -0.666 0.246 -0.666 Q 0.337 -0.666 0.393 -0.612 L 0.395 -0.61 Q 0.43 -0.5740000000000001 0.43 -0.528 Q 0.43 -0.445 0.359 -0.389 Q 0.328 -0.365 0.29 -0.352 Z"/></g></g><g transform="scale(35,35)"><g transform="translate(24.2,4.215428571428571)"><path fill="rgb(0,0,0)" stroke="none" paint-order="stroke fill markers" d=" M 0.028 -0.165 L 0.028 -0.196 L 0.335 -0.665 Q 0.343 -0.677 0.355 -0.677 Q 0.369 -0.677 0.371 -0.666 L 0.371 -0.651 L 0.371 -0.196 L 0.47100000000000003 -0.196 L 0.47100000000000003 -0.165 L 0.371 -0.165 L 0.371 -0.078 Q 0.371 -0.047 0.383 -0.04 Q 0.397 -0.031 0.447 -0.031 L 0.468 -0.031 L 0.468 0 Q 0.427 -0.003 0.332 -0.003 Q 0.23800000000000002 -0.003 0.197 0 L 0.197 -0.031 L 0.218 -0.031 Q 0.28 -0.031 0.29 -0.048 Q 0.294 -0.055 0.294 -0.078 L 0.294 -0.165 L 0.028 -0.165 M 0.3 -0.196 L 0.3 -0.5690000000000001 L 0.056 -0.196 L 0.3 -0.196 Z"/></g></g><g transform="scale(35,35)"><g transform="translate(23.685714285714287,13.415428571428572)"><path fill="rgb(0,0,0)" stroke="none" paint-order="stroke fill markers" d=" M 0.449 -0.17400000000000002 L 0.449 -0.17400000000000002 L 0.421 0 L 0.05 0 Q 0.05 -0.025 0.056 -0.032 L 0.061 -0.037 L 0.253 -0.251 Q 0.358 -0.369 0.358 -0.47200000000000003 Q 0.358 -0.561 0.304 -0.607 L 0.303 -0.608 L 0.302 -0.608 Q 0.27 -0.635 0.224 -0.635 Q 0.152 -0.635 0.109 -0.5730000000000001 Q 0.097 -0.555 0.089 -0.533 Q 0.092 -0.534 0.10200000000000001 -0.534 Q 0.14200000000000002 -0.534 0.153 -0.498 L 0.153 -0.497 Q 0.155 -0.49 0.155 -0.482 Q 0.155 -0.442 0.117 -0.431 Q 0.109 -0.429 0.10300000000000001 -0.429 Q 0.066 -0.429 0.054 -0.46 Q 0.05 -0.47100000000000003 0.05 -0.485 Q 0.05 -0.562 0.109 -0.617 Q 0.162 -0.666 0.23700000000000002 -0.666 Q 0.34700000000000003 -0.666 0.40800000000000003 -0.592 Q 0.443 -0.549 0.448 -0.49 Q 0.449 -0.481 0.449 -0.47200000000000003 Q 0.449 -0.399 0.394 -0.333 Q 0.365 -0.299 0.304 -0.243 L 0.243 -0.189 L 0.233 -0.18 L 0.127 -0.077 L 0.307 -0.077 Q 0.395 -0.077 0.402 -0.085 Q 0.41200000000000003 -0.099 0.424 -0.17400000000000002 L 0.449 -0.17400000000000002 Z"/></g></g><g transform="scale(35,35)"><g transform="translate(24.17142857142857,24.843999999999998)"><path fill="rgb(0,0,0)" stroke="none" paint-order="stroke fill markers" d=" M 0.449 -0.201 L 0.449 -0.201 Q 0.449 -0.098 0.372 -0.031 Q 0.31 0.022 0.231 0.022 Q 0.139 0.022 0.085 -0.055 Q 0.05 -0.10400000000000001 0.05 -0.161 Q 0.05 -0.20700000000000002 0.091 -0.213 Q 0.095 -0.214 0.099 -0.214 Q 0.136 -0.214 0.147 -0.181 Q 0.149 -0.17300000000000001 0.149 -0.165 Q 0.149 -0.133 0.121 -0.121 Q 0.111 -0.116 0.099 -0.116 Q 0.088 -0.116 0.082 -0.11800000000000001 Q 0.1 -0.055 0.159 -0.024 Q 0.192 -0.006 0.229 -0.006 Q 0.296 -0.006 0.336 -0.07100000000000001 Q 0.36 -0.113 0.36 -0.20800000000000002 Q 0.36 -0.292 0.342 -0.334 Q 0.314 -0.398 0.257 -0.398 Q 0.176 -0.398 0.128 -0.328 Q 0.122 -0.319 0.115 -0.319 Q 0.10200000000000001 -0.319 0.101 -0.333 L 0.101 -0.34500000000000003 L 0.101 -0.641 Q 0.101 -0.664 0.111 -0.665 Q 0.115 -0.665 0.123 -0.662 Q 0.186 -0.634 0.256 -0.634 Q 0.328 -0.634 0.392 -0.663 Q 0.397 -0.666 0.4 -0.666 Q 0.41000000000000003 -0.666 0.41000000000000003 -0.655 Q 0.41000000000000003 -0.642 0.378 -0.613 Q 0.31 -0.551 0.217 -0.551 Q 0.17500000000000002 -0.551 0.132 -0.5640000000000001 L 0.132 -0.369 Q 0.184 -0.42 0.259 -0.42 Q 0.34700000000000003 -0.42 0.404 -0.343 Q 0.449 -0.28200000000000003 0.449 -0.201 Z"/></g></g><g transform="scale(35,35)"><g transform="translate(34.628571428571426,14.386857142857142)"><path fill="rgb(0,0,0)" stroke="none" paint-order="stroke fill markers" d=" M 0.028 -0.165 L 0.028 -0.196 L 0.335 -0.665 Q 0.343 -0.677 0.355 -0.677 Q 0.369 -0.677 0.371 -0.666 L 0.371 -0.651 L 0.371 -0.196 L 0.47100000000000003 -0.196 L 0.47100000000000003 -0.165 L 0.371 -0.165 L 0.371 -0.078 Q 0.371 -0.047 0.383 -0.04 Q 0.397 -0.031 0.447 -0.031 L 0.468 -0.031 L 0.468 0 Q 0.427 -0.003 0.332 -0.003 Q 0.23800000000000002 -0.003 0.197 0 L 0.197 -0.031 L 0.218 -0.031 Q 0.28 -0.031 0.29 -0.048 Q 0.294 -0.055 0.294 -0.078 L 0.294 -0.165 L 0.028 -0.165 M 0.3 -0.196 L 0.3 -0.5690000000000001 L 0.056 -0.196 L 0.3 -0.196 Z"/></g></g><g transform="scale(35,35)"><g transform="translate(39.74285714285714,9.47257142857143)"><path fill="rgb(0,0,0)" stroke="none" paint-order="stroke fill markers" d=" M 0.29 -0.352 L 0.29 -0.352 Q 0.39 -0.332 0.434 -0.254 Q 0.457 -0.215 0.457 -0.171 Q 0.457 -0.08600000000000001 0.387 -0.028 Q 0.326 0.022 0.244 0.022 Q 0.145 0.022 0.085 -0.037 Q 0.042 -0.079 0.042 -0.135 Q 0.042 -0.182 0.084 -0.191 Q 0.091 -0.193 0.098 -0.193 Q 0.136 -0.193 0.149 -0.161 Q 0.153 -0.148 0.154 -0.137 Q 0.154 -0.097 0.11800000000000001 -0.085 Q 0.10400000000000001 -0.08 0.088 -0.082 Q 0.125 -0.02 0.216 -0.008 Q 0.229 -0.006 0.241 -0.006 Q 0.305 -0.006 0.335 -0.069 Q 0.354 -0.109 0.354 -0.171 Q 0.354 -0.304 0.274 -0.331 Q 0.256 -0.337 0.23500000000000001 -0.337 L 0.191 -0.337 Q 0.169 -0.337 0.167 -0.34800000000000003 Q 0.167 -0.358 0.182 -0.36 Q 0.197 -0.36 0.221 -0.363 Q 0.272 -0.365 0.301 -0.402 L 0.301 -0.403 L 0.302 -0.404 L 0.303 -0.405 L 0.304 -0.405 L 0.31 -0.41500000000000004 Q 0.338 -0.462 0.338 -0.529 Q 0.338 -0.622 0.266 -0.638 Q 0.254 -0.641 0.242 -0.641 Q 0.17200000000000001 -0.641 0.128 -0.601 Q 0.117 -0.591 0.109 -0.579 Q 0.171 -0.579 0.171 -0.529 Q 0.171 -0.493 0.14 -0.481 Q 0.131 -0.47800000000000004 0.12 -0.47800000000000004 Q 0.081 -0.47800000000000004 0.07100000000000001 -0.513 L 0.07100000000000001 -0.513 L 0.07100000000000001 -0.514 Q 0.069 -0.522 0.069 -0.53 Q 0.069 -0.597 0.135 -0.637 Q 0.183 -0.666 0.246 -0.666 Q 0.337 -0.666 0.393 -0.612 L 0.395 -0.61 Q 0.43 -0.5740000000000001 0.43 -0.528 Q 0.43 -0.445 0.359 -0.389 Q 0.328 -0.365 0.29 -0.352 Z"/></g></g><g transform="scale(35,35)"><g transform="translate(39.31428571428572,20.01542857142857)"><path fill="rgb(0,0,0)" stroke="none" paint-order="stroke fill markers" d=" M 0.449 -0.17400000000000002 L 0.449 -0.17400000000000002 L 0.421 0 L 0.05 0 Q 0.05 -0.025 0.056 -0.032 L 0.061 -0.037 L 0.253 -0.251 Q 0.358 -0.369 0.358 -0.47200000000000003 Q 0.358 -0.561 0.304 -0.607 L 0.303 -0.608 L 0.302 -0.608 Q 0.27 -0.635 0.224 -0.635 Q 0.152 -0.635 0.109 -0.5730000000000001 Q 0.097 -0.555 0.089 -0.533 Q 0.092 -0.534 0.10200000000000001 -0.534 Q 0.14200000000000002 -0.534 0.153 -0.498 L 0.153 -0.497 Q 0.155 -0.49 0.155 -0.482 Q 0.155 -0.442 0.117 -0.431 Q 0.109 -0.429 0.10300000000000001 -0.429 Q 0.066 -0.429 0.054 -0.46 Q 0.05 -0.47100000000000003 0.05 -0.485 Q 0.05 -0.562 0.109 -0.617 Q 0.162 -0.666 0.23700000000000002 -0.666 Q 0.34700000000000003 -0.666 0.40800000000000003 -0.592 Q 0.443 -0.549 0.448 -0.49 Q 0.449 -0.481 0.449 -0.47200000000000003 Q 0.449 -0.399 0.394 -0.333 Q 0.365 -0.299 0.304 -0.243 L 0.243 -0.189 L 0.233 -0.18 L 0.127 -0.077 L 0.307 -0.077 Q 0.395 -0.077 0.402 -0.085 Q 0.41200000000000003 -0.099 0.424 -0.17400000000000002 L 0.449 -0.17400000000000002 Z"/></g></g><g transform="scale(35,35)"><g transform="translate(15.285714285714286,2.8440000000000003)"><path fill="rgb(255,0,0)" stroke="none" paint-order="stroke fill markers" d=" M 0.294 -0.64 L 0.294 -0.079 Q 0.294 -0.049 0.306 -0.041 Q 0.323 -0.031 0.387 -0.031 L 0.419 -0.031 L 0.419 0 Q 0.384 -0.003 0.257 -0.003 Q 0.13 -0.003 0.095 0 L 0.095 -0.031 L 0.127 -0.031 Q 0.20400000000000001 -0.031 0.215 -0.049 L 0.216 -0.05 Q 0.22 -0.058 0.22 -0.079 L 0.22 -0.597 Q 0.168 -0.5710000000000001 0.089 -0.5710000000000001 L 0.089 -0.602 Q 0.209 -0.602 0.271 -0.666 Q 0.29 -0.666 0.293 -0.659 L 0.293 -0.659 L 0.293 -0.658 Q 0.294 -0.655 0.294 -0.64 Z"/></g></g><g transform="scale(35,35)"><g transform="translate(15.4,26.186857142857143)"><path fill="rgb(0,0,0)" stroke="none" paint-order="stroke fill markers" d=" M 0.29 -0.352 L 0.29 -0.352 Q 0.39 -0.332 0.434 -0.254 Q 0.457 -0.215 0.457 -0.171 Q 0.457 -0.08600000000000001 0.387 -0.028 Q 0.326 0.022 0.244 0.022 Q 0.145 0.022 0.085 -0.037 Q 0.042 -0.079 0.042 -0.135 Q 0.042 -0.182 0.084 -0.191 Q 0.091 -0.193 0.098 -0.193 Q 0.136 -0.193 0.149 -0.161 Q 0.153 -0.148 0.154 -0.137 Q 0.154 -0.097 0.11800000000000001 -0.085 Q 0.10400000000000001 -0.08 0.088 -0.082 Q 0.125 -0.02 0.216 -0.008 Q 0.229 -0.006 0.241 -0.006 Q 0.305 -0.006 0.335 -0.069 Q 0.354 -0.109 0.354 -0.171 Q 0.354 -0.304 0.274 -0.331 Q 0.256 -0.337 0.23500000000000001 -0.337 L 0.191 -0.337 Q 0.169 -0.337 0.167 -0.34800000000000003 Q 0.167 -0.358 0.182 -0.36 Q 0.197 -0.36 0.221 -0.363 Q 0.272 -0.365 0.301 -0.402 L 0.301 -0.403 L 0.302 -0.404 L 0.303 -0.405 L 0.304 -0.405 L 0.31 -0.41500000000000004 Q 0.338 -0.462 0.338 -0.529 Q 0.338 -0.622 0.266 -0.638 Q 0.254 -0.641 0.242 -0.641 Q 0.17200000000000001 -0.641 0.128 -0.601 Q 0.117 -0.591 0.109 -0.579 Q 0.171 -0.579 0.171 -0.529 Q 0.171 -0.493 0.14 -0.481 Q 0.131 -0.47800000000000004 0.12 -0.47800000000000004 Q 0.081 -0.47800000000000004 0.07100000000000001 -0.513 L 0.07100000000000001 -0.513 L 0.07100000000000001 -0.514 Q 0.069 -0.522 0.069 -0.53 Q 0.069 -0.597 0.135 -0.637 Q 0.183 -0.666 0.246 -0.666 Q 0.337 -0.666 0.393 -0.612 L 0.395 -0.61 Q 0.43 -0.5740000000000001 0.43 -0.528 Q 0.43 -0.445 0.359 -0.389 Q 0.328 -0.365 0.29 -0.352 Z"/></g></g><g transform="scale(35,35)"><g transform="translate(33.77142857142857,2.8725714285714288)"><path fill="rgb(0,0,0)" stroke="none" paint-order="stroke fill markers" d=" M 0.449 -0.201 L 0.449 -0.201 Q 0.449 -0.098 0.372 -0.031 Q 0.31 0.022 0.231 0.022 Q 0.139 0.022 0.085 -0.055 Q 0.05 -0.10400000000000001 0.05 -0.161 Q 0.05 -0.20700000000000002 0.091 -0.213 Q 0.095 -0.214 0.099 -0.214 Q 0.136 -0.214 0.147 -0.181 Q 0.149 -0.17300000000000001 0.149 -0.165 Q 0.149 -0.133 0.121 -0.121 Q 0.111 -0.116 0.099 -0.116 Q 0.088 -0.116 0.082 -0.11800000000000001 Q 0.1 -0.055 0.159 -0.024 Q 0.192 -0.006 0.229 -0.006 Q 0.296 -0.006 0.336 -0.07100000000000001 Q 0.36 -0.113 0.36 -0.20800000000000002 Q 0.36 -0.292 0.342 -0.334 Q 0.314 -0.398 0.257 -0.398 Q 0.176 -0.398 0.128 -0.328 Q 0.122 -0.319 0.115 -0.319 Q 0.10200000000000001 -0.319 0.101 -0.333 L 0.101 -0.34500000000000003 L 0.101 -0.641 Q 0.101 -0.664 0.111 -0.665 Q 0.115 -0.665 0.123 -0.662 Q 0.186 -0.634 0.256 -0.634 Q 0.328 -0.634 0.392 -0.663 Q 0.397 -0.666 0.4 -0.666 Q 0.41000000000000003 -0.666 0.41000000000000003 -0.655 Q 0.41000000000000003 -0.642 0.378 -0.613 Q 0.31 -0.551 0.217 -0.551 Q 0.17500000000000002 -0.551 0.132 -0.5640000000000001 L 0.132 -0.369 Q 0.184 -0.42 0.259 -0.42 Q 0.34700000000000003 -0.42 0.404 -0.343 Q 0.449 -0.28200000000000003 0.449 -0.201 Z"/></g></g><g transform="scale(35,35)"><g transform="translate(33.74285714285714,26.25957142857143)"><path fill="rgb(0,0,0)" stroke="none" paint-order="stroke fill markers" d=" M 0.508 -0.272 Q 0.5670000000000001 -0.372 0.652 -0.41600000000000004 Q 0.7020000000000001 -0.442 0.754 -0.442 Q 0.85 -0.442 0.905 -0.353 Q 0.9430000000000001 -0.292 0.9430000000000001 -0.216 Q 0.9430000000000001 -0.112 0.879 -0.045 Q 0.8260000000000001 0.011 0.751 0.011 Q 0.663 0.011 0.581 -0.058 Q 0.559 -0.077 0.514 -0.131 L 0.491 -0.159 Q 0.432 -0.059000000000000004 0.34700000000000003 -0.015 Q 0.297 0.011 0.245 0.011 Q 0.149 0.011 0.094 -0.078 Q 0.056 -0.139 0.056 -0.215 Q 0.056 -0.319 0.12 -0.386 Q 0.17300000000000001 -0.442 0.248 -0.442 Q 0.336 -0.442 0.418 -0.373 Q 0.44 -0.354 0.485 -0.3 L 0.489 -0.295 Q 0.495 -0.28700000000000003 0.508 -0.272 M 0.534 -0.23700000000000002 L 0.63 -0.114 Q 0.631 -0.114 0.631 -0.113 L 0.635 -0.109 Q 0.7010000000000001 -0.037 0.767 -0.037 Q 0.839 -0.037 0.886 -0.10200000000000001 Q 0.921 -0.151 0.921 -0.216 Q 0.921 -0.304 0.868 -0.362 Q 0.8290000000000001 -0.405 0.773 -0.41000000000000003 L 0.761 -0.41000000000000003 Q 0.635 -0.41000000000000003 0.539 -0.246 Q 0.537 -0.242 0.534 -0.23700000000000002 M 0.465 -0.194 L 0.465 -0.194 L 0.369 -0.317 L 0.368 -0.318 L 0.364 -0.322 Q 0.298 -0.394 0.232 -0.394 Q 0.16 -0.394 0.113 -0.329 Q 0.078 -0.28 0.078 -0.215 Q 0.078 -0.127 0.131 -0.069 Q 0.17400000000000002 -0.021 0.23800000000000002 -0.021 Q 0.364 -0.021 0.46 -0.185 Q 0.462 -0.189 0.465 -0.194 Z"/></g></g><g transform="scale(35,35)"><g transform="translate(44.628571428571426,14.488142857142856)"><path fill="rgb(0,0,0)" stroke="none" paint-order="stroke fill markers" d=" M 0.508 -0.272 Q 0.5670000000000001 -0.372 0.652 -0.41600000000000004 Q 0.7020000000000001 -0.442 0.754 -0.442 Q 0.85 -0.442 0.905 -0.353 Q 0.9430000000000001 -0.292 0.9430000000000001 -0.216 Q 0.9430000000000001 -0.112 0.879 -0.045 Q 0.8260000000000001 0.011 0.751 0.011 Q 0.663 0.011 0.581 -0.058 Q 0.559 -0.077 0.514 -0.131 L 0.491 -0.159 Q 0.432 -0.059000000000000004 0.34700000000000003 -0.015 Q 0.297 0.011 0.245 0.011 Q 0.149 0.011 0.094 -0.078 Q 0.056 -0.139 0.056 -0.215 Q 0.056 -0.319 0.12 -0.386 Q 0.17300000000000001 -0.442 0.248 -0.442 Q 0.336 -0.442 0.418 -0.373 Q 0.44 -0.354 0.485 -0.3 L 0.489 -0.295 Q 0.495 -0.28700000000000003 0.508 -0.272 M 0.534 -0.23700000000000002 L 0.63 -0.114 Q 0.631 -0.114 0.631 -0.113 L 0.635 -0.109 Q 0.7010000000000001 -0.037 0.767 -0.037 Q 0.839 -0.037 0.886 -0.10200000000000001 Q 0.921 -0.151 0.921 -0.216 Q 0.921 -0.304 0.868 -0.362 Q 0.8290000000000001 -0.405 0.773 -0.41000000000000003 L 0.761 -0.41000000000000003 Q 0.635 -0.41000000000000003 0.539 -0.246 Q 0.537 -0.242 0.534 -0.23700000000000002 M 0.465 -0.194 L 0.465 -0.194 L 0.369 -0.317 L 0.368 -0.318 L 0.364 -0.322 Q 0.298 -0.394 0.232 -0.394 Q 0.16 -0.394 0.113 -0.329 Q 0.078 -0.28 0.078 -0.215 Q 0.078 -0.127 0.131 -0.069 Q 0.17400000000000002 -0.021 0.23800000000000002 -0.021 Q 0.364 -0.021 0.46 -0.185 Q 0.462 -0.189 0.465 -0.194 Z"/></g></g><g transform="scale(35,35)"><g transform="translate(4.257142857142857,14.672571428571429)"><path fill="rgb(255,0,0)" stroke="none" paint-order="stroke fill markers" d=" M 0.46 -0.32 Q 0.46 -0.17400000000000002 0.423 -0.094 Q 0.364 0.018000000000000002 0.249 0.022 Q 0.158 0.022 0.10300000000000001 -0.05 Q 0.092 -0.063 0.084 -0.079 Q 0.039 -0.162 0.039 -0.32 Q 0.039 -0.467 0.076 -0.547 Q 0.126 -0.659 0.23800000000000002 -0.666 L 0.25 -0.666 Q 0.339 -0.666 0.395 -0.595 L 0.395 -0.594 Q 0.40900000000000003 -0.5760000000000001 0.42 -0.554 Q 0.46 -0.46900000000000003 0.46 -0.32 M 0.249 0 L 0.249 0 Q 0.312 0 0.34600000000000003 -0.061 Q 0.36 -0.088 0.366 -0.125 Q 0.377 -0.189 0.377 -0.332 Q 0.377 -0.47100000000000003 0.367 -0.527 Q 0.34900000000000003 -0.622 0.275 -0.641 Q 0.262 -0.644 0.249 -0.644 Q 0.179 -0.644 0.147 -0.5740000000000001 Q 0.136 -0.55 0.13 -0.516 Q 0.122 -0.462 0.122 -0.332 Q 0.122 -0.181 0.133 -0.121 Q 0.151 -0.025 0.221 -0.004 Q 0.23500000000000001 0 0.249 0 Z"/></g></g></g></g></svg>