<svg version="1.1" xmlns="http://www.w3.org/2000/svg" xmlns:xlink="http://www.w3.org/1999/xlink" width="1698" height="990"><defs><clipPath id="bgrtBndwoomP"><path fill="none" stroke="none" d=" M 0 0 L 1698 0 L 1698 990 L 0 990 L 0 0 Z"/></clipPath></defs><g transform="scale(1,1)" clip-path="url(#bgrtBndwoomP)"><g><rect fill="rgb(255,255,255)" stroke="none" x="0" y="0" width="1699" height="991" fill-opacity="1"/><path fill="rgb(0,0,0)" stroke="none" paint-order="stroke fill markers" d=" M 545.257281445947 179.60667126244954 L 521.392427580901 193.92558358147704 L 524.5744080962404 197.1075640968165 L 220.35572121069555 501.32625098236133 C 219.4770415542552 502.20493063880167 219.4770415542552 503.6295518412604 220.35572121069558 504.50823149770076 C 220.79506103891578 504.94757132592093 221.37088625364055 505.167241240031 221.94671146836532 505.167241240031 C 222.5225366830901 505.167241240031 223.09836189781487 504.94757132592093 223.53770172603504 504.50823149770076 L 527.75638861158 200.28954461215602 L 530.9383691269194 203.47152512749545 L 545.257281445947 179.60667126244954 Z" fill-opacity="0.6980392156862745"/><path fill="rgb(0,0,0)" stroke="none" paint-order="stroke fill markers" d=" M 221.94671146836532 500.6672412400311 C 221.37088625364055 500.6672412400311 220.79506103891578 500.88691115414116 220.35572121069558 501.32625098236133 C 219.4770415542552 502.20493063880167 219.4770415542552 503.6295518412604 220.35572121069555 504.50823149770076 L 524.5744080962404 808.7269183832456 L 521.392427580901 811.908898898585 L 545.257281445947 826.2278112176126 L 530.9383691269194 802.3629573525666 L 527.7563886115802 805.5449378679058 L 527.7563886115797 805.5449378679058 L 223.53770172603504 501.32625098236133 C 223.09836189781487 500.88691115414116 222.5225366830901 500.6672412400311 221.94671146836532 500.6672412400311 Z" fill-opacity="0.6980392156862745"/><path fill="rgb(0,0,0)" stroke="none" paint-order="stroke fill markers" d=" M 545.257281445947 179.60667126244948 L 538.507281445947 206.60667126244948 L 543.007281445947 206.60667126244948 L 543.007281445947 826.2278112176126 C 543.007281445947 827.4704519047319 544.0146407588277 828.4778112176126 545.257281445947 828.4778112176126 C 546.4999221330663 828.4778112176126 547.507281445947 827.4704519047319 547.507281445947 826.2278112176126 L 547.507281445947 206.60667126244948 L 552.007281445947 206.60667126244948 L 545.257281445947 179.60667126244948 Z" fill-opacity="0.6980392156862745"/><path fill="rgb(0,0,0)" stroke="none" paint-order="stroke fill markers" d=" M 1164.8784214011105 172.85667126244948 L 1164.8784214011105 177.35667126244948 L 545.257281445947 177.35667126244948 C 544.0146407588277 177.35667126244948 543.007281445947 178.3640305753302 543.007281445947 179.60667126244948 C 543.007281445947 180.84931194956877 544.0146407588277 181.85667126244948 545.257281445947 181.85667126244948 L 1164.8784214011105 181.85667126244948 L 1164.8784214011105 186.35667126244948 L 1191.8784214011105 179.60667126244948 L 1164.8784214011105 172.85667126244948 Z" fill-opacity="0.6980392156862745"/><path fill="rgb(0,0,0)" stroke="none" paint-order="stroke fill markers" d=" M 1164.8784214011105 819.4778112176126 L 1164.8784214011105 823.9778112176126 L 545.257281445947 823.9778112176126 C 544.0146407588277 823.9778112176126 543.007281445947 824.9851705304933 543.007281445947 826.2278112176126 C 543.007281445947 827.4704519047319 544.0146407588277 828.4778112176126 545.257281445947 828.4778112176126 L 1164.8784214011105 828.4778112176126 L 1164.8784214011105 832.9778112176126 L 1191.8784214011105 826.2278112176126 L 1164.8784214011105 819.4778112176126 Z" fill-opacity="0.6980392156862745"/><path fill="rgb(0,0,0)" stroke="none" paint-order="stroke fill markers" d=" M 1191.8784214011105 179.60667126244948 L 1185.1284214011105 206.60667126244948 L 1189.6284214011105 206.60667126244948 L 1189.6284214011105 826.2278112176126 C 1189.6284214011105 827.4704519047319 1190.6357807139912 828.4778112176126 1191.8784214011105 828.4778112176126 C 1193.1210620882298 828.4778112176126 1194.1284214011105 827.4704519047319 1194.1284214011105 826.2278112176126 L 1194.1284214011105 206.60667126244948 L 1198.6284214011105 206.60667126244948 L 1191.8784214011105 179.60667126244948 Z" fill-opacity="0.6980392156862745"/><path fill="rgb(0,0,0)" stroke="none" paint-order="stroke fill markers" d=" M 1191.8784214011105 177.35667126244945 C 1191.3025961863857 177.35667126244945 1190.726770971661 177.57634117655954 1190.2874311434407 178.0156810047797 C 1189.4087514870002 178.89436066122008 1189.4087514870002 180.31898186367886 1190.2874311434407 181.19766152011923 L 1494.5061180289856 485.416348405664 L 1491.3241375136463 488.5983289210035 L 1515.1889913786922 502.91724124003105 L 1500.8700790596645 479.0523873749851 L 1497.6880985443252 482.23436789032456 L 1193.4694116587802 178.01568100477974 C 1193.03007183056 177.57634117655954 1192.4542466158352 177.35667126244945 1191.8784214011105 177.35667126244945 Z" fill-opacity="0.6980392156862745"/><path fill="rgb(0,0,0)" stroke="none" paint-order="stroke fill markers" d=" M 1515.188991378692 502.91724124003116 L 1491.3241375136463 517.2361535590586 L 1494.5061180289856 520.418134074398 L 1190.2874311434407 824.6368209599428 C 1189.4087514870002 825.5155006163832 1189.4087514870002 826.940121818842 1190.2874311434407 827.8188014752824 C 1190.726770971661 828.2581413035025 1191.3025961863857 828.4778112176126 1191.8784214011105 828.4778112176126 C 1192.4542466158352 828.4778112176126 1193.03007183056 828.2581413035025 1193.4694116587802 827.8188014752824 L 1497.6880985443252 523.6001145897376 L 1500.8700790596645 526.782095105077 L 1515.1889913786922 502.91724124003116 Z" fill-opacity="0.6980392156862745"/><path fill="rgb(0,0,0)" stroke="none" paint-order="stroke fill markers" d=" M 545.257281445947 179.60667126244954 L 559.5761937649746 203.47152512749545 L 562.758174280314 200.289544612156 L 1190.2874311434407 827.8188014752824 C 1190.726770971661 828.2581413035025 1191.3025961863857 828.4778112176126 1191.8784214011105 828.4778112176126 C 1192.4542466158352 828.4778112176126 1193.03007183056 828.2581413035025 1193.4694116587802 827.8188014752824 C 1194.3480913152207 826.940121818842 1194.3480913152207 825.5155006163832 1193.4694116587802 824.6368209599428 L 565.9401547956536 197.1075640968165 L 569.122135310993 193.92558358147704 L 545.257281445947 179.60667126244954 Z" fill-opacity="0.6980392156862745"/><path fill="rgb(0,0,0)" stroke="none" paint-order="stroke fill markers" d=" M 230.9467114683653 502.91724124003105 C 230.9467114683653 507.8878039885082 226.91727421684243 511.91724124003105 221.9467114683653 511.91724124003105 C 216.97614871988816 511.91724124003105 212.9467114683653 507.8878039885082 212.9467114683653 502.91724124003105 C 212.9467114683653 497.9466784915539 216.97614871988816 493.91724124003105 221.9467114683653 493.91724124003105 C 226.91727421684243 493.91724124003105 230.9467114683653 497.9466784915539 230.9467114683653 502.91724124003105 Z" fill-opacity="1"/><path fill="rgb(0,0,0)" stroke="none" paint-order="stroke fill markers" d=" M 554.257281445947 179.60667126244948 C 554.257281445947 184.57723401092662 550.2278441944242 188.60667126244948 545.257281445947 188.60667126244948 C 540.2867186974698 188.60667126244948 536.257281445947 184.57723401092662 536.257281445947 179.60667126244948 C 536.257281445947 174.63610851397235 540.2867186974698 170.60667126244948 545.257281445947 170.60667126244948 C 550.2278441944242 170.60667126244948 554.257281445947 174.63610851397235 554.257281445947 179.60667126244948 Z" fill-opacity="1"/><path fill="rgb(0,0,0)" stroke="none" paint-order="stroke fill markers" d=" M 554.257281445947 826.2278112176126 C 554.257281445947 831.1983739660898 550.2278441944242 835.2278112176126 545.257281445947 835.2278112176126 C 540.2867186974698 835.2278112176126 536.257281445947 831.1983739660898 536.257281445947 826.2278112176126 C 536.257281445947 821.2572484691354 540.2867186974698 817.2278112176126 545.257281445947 817.2278112176126 C 550.2278441944242 817.2278112176126 554.257281445947 821.2572484691354 554.257281445947 826.2278112176126 Z" fill-opacity="1"/><path fill="rgb(0,0,0)" stroke="none" paint-order="stroke fill markers" d=" M 1200.8784214011105 179.60667126244948 C 1200.8784214011105 184.57723401092662 1196.8489841495875 188.60667126244948 1191.8784214011105 188.60667126244948 C 1186.9078586526334 188.60667126244948 1182.8784214011105 184.57723401092662 1182.8784214011105 179.60667126244948 C 1182.8784214011105 174.63610851397235 1186.9078586526334 170.60667126244948 1191.8784214011105 170.60667126244948 C 1196.8489841495875 170.60667126244948 1200.8784214011105 174.63610851397235 1200.8784214011105 179.60667126244948 Z" fill-opacity="1"/><path fill="rgb(0,0,0)" stroke="none" paint-order="stroke fill markers" d=" M 1200.8784214011105 826.2278112176126 C 1200.8784214011105 831.1983739660898 1196.8489841495875 835.2278112176126 1191.8784214011105 835.2278112176126 C 1186.9078586526334 835.2278112176126 1182.8784214011105 831.1983739660898 1182.8784214011105 826.2278112176126 C 1182.8784214011105 821.2572484691354 1186.9078586526334 817.2278112176126 1191.8784214011105 817.2278112176126 C 1196.8489841495875 817.2278112176126 1200.8784214011105 821.2572484691354 1200.8784214011105 826.2278112176126 Z" fill-opacity="1"/><path fill="rgb(0,0,0)" stroke="none" paint-order="stroke fill markers" d=" M 1524.1889913786922 502.91724124003105 C 1524.1889913786922 507.8878039885082 1520.1595541271693 511.91724124003105 1515.1889913786922 511.91724124003105 C 1510.2184286302152 511.91724124003105 1506.1889913786922 507.8878039885082 1506.1889913786922 502.91724124003105 C 1506.1889913786922 497.9466784915539 1510.2184286302152 493.91724124003105 1515.1889913786922 493.91724124003105 C 1520.1595541271693 493.91724124003105 1524.1889913786922 497.9466784915539 1524.1889913786922 502.91724124003105 Z" fill-opacity="1"/><g transform="scale(35,35)"><g transform="translate(5.114285714285714,14.586857142857143)"><path fill="rgb(0,0,0)" stroke="none" paint-order="stroke fill markers" d=" M 0.41400000000000003 -0.394 Q 0.384 -0.41600000000000004 0.331 -0.41600000000000004 Q 0.292 -0.41600000000000004 0.2665 -0.405 Q 0.241 -0.394 0.2325 -0.3775 Q 0.224 -0.361 0.2215 -0.353 Q 0.219 -0.34500000000000003 0.219 -0.339 Q 0.219 -0.321 0.233 -0.3105 Q 0.247 -0.3 0.2625 -0.2955 Q 0.278 -0.291 0.313 -0.28500000000000003 Q 0.385 -0.273 0.417 -0.245 Q 0.457 -0.21 0.457 -0.164 Q 0.457 -0.159 0.4555 -0.1505 Q 0.454 -0.14200000000000002 0.4485 -0.11950000000000001 Q 0.443 -0.097 0.428 -0.077 Q 0.41300000000000003 -0.057 0.39 -0.0365 Q 0.367 -0.016 0.325 -0.004 Q 0.28300000000000003 0.008 0.229 0.008 Q 0.15 0.008 0.10350000000000001 -0.0175 Q 0.057 -0.043000000000000003 0.057 -0.091 Q 0.057 -0.126 0.079 -0.1475 Q 0.101 -0.169 0.129 -0.169 Q 0.148 -0.169 0.163 -0.158 Q 0.178 -0.147 0.178 -0.123 Q 0.178 -0.1 0.163 -0.0805 Q 0.148 -0.061 0.123 -0.054 Q 0.159 -0.028 0.231 -0.028 Q 0.28200000000000003 -0.028 0.316 -0.0415 Q 0.35000000000000003 -0.055 0.362 -0.075 Q 0.374 -0.095 0.377 -0.1055 Q 0.38 -0.116 0.38 -0.123 Q 0.38 -0.169 0.29 -0.184 Q 0.234 -0.195 0.2155 -0.2005 Q 0.197 -0.20600000000000002 0.177 -0.222 Q 0.14100000000000001 -0.251 0.14100000000000001 -0.298 Q 0.14100000000000001 -0.322 0.1565 -0.357 Q 0.17200000000000001 -0.392 0.202 -0.41500000000000004 Q 0.251 -0.452 0.333 -0.452 Q 0.4 -0.452 0.438 -0.428 Q 0.47600000000000003 -0.404 0.47600000000000003 -0.364 Q 0.47600000000000003 -0.331 0.4565 -0.3135 Q 0.437 -0.296 0.41500000000000004 -0.296 Q 0.398 -0.296 0.385 -0.307 Q 0.372 -0.318 0.372 -0.337 Q 0.372 -0.35100000000000003 0.382 -0.368 Q 0.392 -0.385 0.41400000000000003 -0.394 Z"/></g></g><g transform="scale(35,35)"><g transform="translate(15.285714285714286,4.244)"><path fill="rgb(0,0,0)" stroke="none" paint-order="stroke fill markers" d=" M 0.515 -0.317 L 0.492 -0.228 Q 0.487 -0.20600000000000002 0.47000000000000003 -0.138 Q 0.456 -0.082 0.456 -0.065 Q 0.456 -0.028 0.47900000000000004 -0.028 Q 0.522 -0.028 0.547 -0.128 Q 0.554 -0.156 0.555 -0.157 Q 0.56 -0.162 0.5750000000000001 -0.162 Q 0.599 -0.162 0.599 -0.148 Q 0.599 -0.14 0.588 -0.1075 Q 0.577 -0.075 0.561 -0.049 Q 0.528 0.008 0.47400000000000003 0.008 Q 0.397 0.008 0.359 -0.046 Q 0.301 0.008 0.22 0.008 Q 0.148 0.008 0.0965 -0.032 Q 0.045 -0.07200000000000001 0.045 -0.157 Q 0.045 -0.268 0.1245 -0.36 Q 0.20400000000000001 -0.452 0.327 -0.452 Q 0.394 -0.452 0.433 -0.41000000000000003 Q 0.453 -0.435 0.484 -0.435 Q 0.502 -0.435 0.5165 -0.424 Q 0.531 -0.41300000000000003 0.531 -0.391 Q 0.531 -0.384 0.515 -0.317 M 0.34900000000000003 -0.093 L 0.41000000000000003 -0.34400000000000003 L 0.41200000000000003 -0.358 Q 0.41200000000000003 -0.372 0.3895 -0.394 Q 0.367 -0.41600000000000004 0.329 -0.41600000000000004 Q 0.25 -0.41600000000000004 0.20800000000000002 -0.318 Q 0.194 -0.28400000000000003 0.176 -0.212 Q 0.158 -0.14 0.158 -0.10400000000000001 Q 0.158 -0.028 0.225 -0.028 Q 0.259 -0.028 0.292 -0.0465 Q 0.325 -0.065 0.34900000000000003 -0.093 Z"/></g></g><g transform="scale(35,35)"><g transform="translate(15.4,25.179714285714283)"><path fill="rgb(0,0,0)" stroke="none" paint-order="stroke fill markers" d=" M 0.281 -0.659 L 0.222 -0.42 Q 0.274 -0.452 0.331 -0.452 Q 0.403 -0.452 0.4545 -0.41200000000000003 Q 0.506 -0.372 0.506 -0.28700000000000003 Q 0.506 -0.23700000000000002 0.4865 -0.1855 Q 0.467 -0.134 0.4325 -0.0905 Q 0.398 -0.047 0.3425 -0.0195 Q 0.28700000000000003 0.008 0.222 0.008 Q 0.154 0.008 0.10300000000000001 -0.03 Q 0.052000000000000005 -0.068 0.052000000000000005 -0.155 Q 0.052000000000000005 -0.19 0.066 -0.246 L 0.135 -0.522 Q 0.14400000000000002 -0.556 0.163 -0.637 Q 0.15 -0.639 0.121 -0.639 Q 0.095 -0.639 0.095 -0.657 Q 0.095 -0.67 0.101 -0.677 Q 0.107 -0.684 0.112 -0.685 Q 0.117 -0.686 0.127 -0.687 L 0.256 -0.6930000000000001 Q 0.258 -0.6940000000000001 0.263 -0.6940000000000001 Q 0.28500000000000003 -0.6940000000000001 0.28500000000000003 -0.676 Q 0.28500000000000003 -0.673 0.281 -0.659 M 0.224 -0.028 Q 0.253 -0.028 0.28650000000000003 -0.05 Q 0.32 -0.07200000000000001 0.343 -0.126 Q 0.357 -0.16 0.375 -0.232 Q 0.393 -0.304 0.393 -0.34 Q 0.393 -0.41600000000000004 0.326 -0.41600000000000004 Q 0.28500000000000003 -0.41600000000000004 0.2465 -0.3905 Q 0.20800000000000002 -0.365 0.203 -0.34800000000000003 Q 0.187 -0.279 0.169 -0.211 Q 0.152 -0.136 0.152 -0.111 Q 0.152 -0.028 0.224 -0.028 Z"/></g></g><g transform="scale(35,35)"><g transform="translate(33.885714285714286,4.186857142857143)"><path fill="rgb(0,0,0)" stroke="none" paint-order="stroke fill markers" d=" M 0.431 -0.396 Q 0.404 -0.41600000000000004 0.36 -0.41600000000000004 Q 0.268 -0.41600000000000004 0.217 -0.33 Q 0.196 -0.294 0.1785 -0.223 Q 0.161 -0.152 0.161 -0.121 Q 0.161 -0.028 0.26 -0.028 Q 0.396 -0.028 0.47100000000000003 -0.107 Q 0.481 -0.11800000000000001 0.486 -0.11800000000000001 Q 0.493 -0.11800000000000001 0.502 -0.108 Q 0.511 -0.098 0.511 -0.092 Q 0.511 -0.081 0.482 -0.0565 Q 0.453 -0.032 0.41300000000000003 -0.016 Q 0.35000000000000003 0.008 0.258 0.008 Q 0.149 0.008 0.0975 -0.041 Q 0.046 -0.09 0.046 -0.165 Q 0.046 -0.273 0.132 -0.3625 Q 0.218 -0.452 0.359 -0.452 Q 0.424 -0.452 0.4615 -0.426 Q 0.499 -0.4 0.499 -0.359 Q 0.499 -0.328 0.47850000000000004 -0.305 Q 0.458 -0.28200000000000003 0.427 -0.28200000000000003 Q 0.4 -0.28200000000000003 0.3885 -0.297 Q 0.377 -0.312 0.377 -0.328 Q 0.377 -0.334 0.3785 -0.3435 Q 0.38 -0.353 0.3935 -0.371 Q 0.40700000000000003 -0.389 0.431 -0.396 Z"/></g></g><g transform="scale(35,35)"><g transform="translate(33.77142857142857,25.03685714285714)"><path fill="rgb(0,0,0)" stroke="none" paint-order="stroke fill markers" d=" M 0.6 -0.659 L 0.462 -0.108 Q 0.456 -0.08700000000000001 0.456 -0.065 Q 0.456 -0.028 0.47900000000000004 -0.028 Q 0.522 -0.028 0.547 -0.128 Q 0.554 -0.156 0.555 -0.157 Q 0.56 -0.162 0.5750000000000001 -0.162 Q 0.599 -0.162 0.599 -0.148 Q 0.599 -0.14 0.588 -0.1075 Q 0.577 -0.075 0.561 -0.049 Q 0.528 0.008 0.47400000000000003 0.008 Q 0.397 0.008 0.359 -0.046 Q 0.301 0.008 0.22 0.008 Q 0.148 0.008 0.0965 -0.032 Q 0.045 -0.07200000000000001 0.045 -0.157 Q 0.045 -0.268 0.1245 -0.36 Q 0.20400000000000001 -0.452 0.327 -0.452 Q 0.389 -0.452 0.428 -0.41600000000000004 L 0.482 -0.637 Q 0.46900000000000003 -0.639 0.44 -0.639 Q 0.41400000000000003 -0.639 0.41400000000000003 -0.657 Q 0.41400000000000003 -0.67 0.42 -0.677 Q 0.426 -0.684 0.431 -0.685 Q 0.436 -0.686 0.446 -0.687 L 0.5750000000000001 -0.6930000000000001 Q 0.577 -0.6940000000000001 0.582 -0.6940000000000001 Q 0.604 -0.6940000000000001 0.604 -0.676 Q 0.604 -0.673 0.6 -0.659 M 0.34900000000000003 -0.093 L 0.41000000000000003 -0.34400000000000003 L 0.41200000000000003 -0.358 Q 0.41200000000000003 -0.372 0.3895 -0.394 Q 0.367 -0.41600000000000004 0.329 -0.41600000000000004 Q 0.25 -0.41600000000000004 0.20800000000000002 -0.318 Q 0.194 -0.28400000000000003 0.176 -0.212 Q 0.158 -0.14 0.158 -0.10400000000000001 Q 0.158 -0.028 0.225 -0.028 Q 0.259 -0.028 0.292 -0.0465 Q 0.325 -0.065 0.34900000000000003 -0.093 Z"/></g></g><g transform="scale(35,35)"><g transform="translate(43.885714285714286,14.777857142857142)"><path fill="rgb(0,0,0)" stroke="none" paint-order="stroke fill markers" d=" M 0.252 -0.397 L 0.179 -0.108 Q 0.17300000000000001 -0.082 0.17300000000000001 -0.065 Q 0.17300000000000001 -0.052000000000000005 0.17500000000000002 -0.044 Q 0.177 -0.036000000000000004 0.1815 -0.0325 Q 0.186 -0.029 0.189 -0.0285 Q 0.192 -0.028 0.197 -0.028 Q 0.23 -0.028 0.267 -0.057 Q 0.304 -0.08600000000000001 0.33 -0.146 Q 0.335 -0.157 0.3385 -0.1595 Q 0.342 -0.162 0.355 -0.162 Q 0.379 -0.162 0.379 -0.148 Q 0.379 -0.14 0.366 -0.116 Q 0.353 -0.092 0.3305 -0.0635 Q 0.308 -0.035 0.2705 -0.0135 Q 0.233 0.008 0.192 0.008 Q 0.14100000000000001 0.008 0.10350000000000001 -0.018000000000000002 Q 0.066 -0.044 0.066 -0.09 Q 0.066 -0.106 0.083 -0.169 L 0.14 -0.397 L 0.059000000000000004 -0.397 Q 0.047 -0.397 0.0415 -0.3975 Q 0.036000000000000004 -0.398 0.0305 -0.4025 Q 0.025 -0.40700000000000003 0.025 -0.41500000000000004 Q 0.025 -0.429 0.031 -0.4355 Q 0.037 -0.442 0.043000000000000003 -0.443 Q 0.049 -0.444 0.062 -0.444 L 0.152 -0.444 L 0.17200000000000001 -0.526 Q 0.19 -0.598 0.195 -0.608 Q 0.215 -0.643 0.253 -0.643 Q 0.271 -0.643 0.28550000000000003 -0.632 Q 0.3 -0.621 0.3 -0.599 Q 0.3 -0.589 0.296 -0.5730000000000001 L 0.264 -0.444 L 0.34400000000000003 -0.444 Q 0.377 -0.444 0.377 -0.426 Q 0.377 -0.40800000000000003 0.368 -0.402 Q 0.363 -0.397 0.341 -0.397 L 0.252 -0.397 Z"/></g></g><g transform="scale(35,35)"><g transform="translate(9.228571428571428,9.186857142857143)"><path fill="rgb(0,0,0)" stroke="none" paint-order="stroke fill markers" d=" M 0.29 -0.352 L 0.29 -0.352 Q 0.39 -0.332 0.434 -0.254 Q 0.457 -0.215 0.457 -0.171 Q 0.457 -0.08600000000000001 0.387 -0.028 Q 0.326 0.022 0.244 0.022 Q 0.145 0.022 0.085 -0.037 Q 0.042 -0.079 0.042 -0.135 Q 0.042 -0.182 0.084 -0.191 Q 0.091 -0.193 0.098 -0.193 Q 0.136 -0.193 0.149 -0.161 Q 0.153 -0.148 0.154 -0.137 Q 0.154 -0.097 0.11800000000000001 -0.085 Q 0.10400000000000001 -0.08 0.088 -0.082 Q 0.125 -0.02 0.216 -0.008 Q 0.229 -0.006 0.241 -0.006 Q 0.305 -0.006 0.335 -0.069 Q 0.354 -0.109 0.354 -0.171 Q 0.354 -0.304 0.274 -0.331 Q 0.256 -0.337 0.23500000000000001 -0.337 L 0.191 -0.337 Q 0.169 -0.337 0.167 -0.34800000000000003 Q 0.167 -0.358 0.182 -0.36 Q 0.197 -0.36 0.221 -0.363 Q 0.272 -0.365 0.301 -0.402 L 0.301 -0.403 L 0.302 -0.404 L 0.303 -0.405 L 0.304 -0.405 L 0.31 -0.41500000000000004 Q 0.338 -0.462 0.338 -0.529 Q 0.338 -0.622 0.266 -0.638 Q 0.254 -0.641 0.242 -0.641 Q 0.17200000000000001 -0.641 0.128 -0.601 Q 0.117 -0.591 0.109 -0.579 Q 0.171 -0.579 0.171 -0.529 Q 0.171 -0.493 0.14 -0.481 Q 0.131 -0.47800000000000004 0.12 -0.47800000000000004 Q 0.081 -0.47800000000000004 0.07100000000000001 -0.513 L 0.07100000000000001 -0.513 L 0.07100000000000001 -0.514 Q 0.069 -0.522 0.069 -0.53 Q 0.069 -0.597 0.135 -0.637 Q 0.183 -0.666 0.246 -0.666 Q 0.337 -0.666 0.393 -0.612 L 0.395 -0.61 Q 0.43 -0.5740000000000001 0.43 -0.528 Q 0.43 -0.445 0.359 -0.389 Q 0.328 -0.365 0.29 -0.352 Z"/></g><g transform="translate(9.728571428571428,9.186857142857143)"><path fill="rgb(0,0,0)" stroke="none" paint-order="stroke fill markers" d=" M 0.203 -0.001 L 0.203 -0.001 Q 0.203 0.096 0.14 0.169 Q 0.123 0.189 0.112 0.193 Q 0.10200000000000001 0.193 0.10200000000000001 0.182 Q 0.10200000000000001 0.177 0.113 0.166 Q 0.17300000000000001 0.106 0.18 0.019 Q 0.181 0.009000000000000001 0.181 -0.001 Q 0.181 -0.016 0.179 -0.016 Q 0.178 -0.016 0.17400000000000002 -0.013000000000000001 Q 0.16 0 0.139 0 Q 0.10200000000000001 0 0.09 -0.034 Q 0.08600000000000001 -0.043000000000000003 0.08600000000000001 -0.053 Q 0.08600000000000001 -0.089 0.117 -0.10200000000000001 Q 0.127 -0.106 0.139 -0.106 Q 0.183 -0.106 0.198 -0.048 Q 0.203 -0.027 0.203 -0.001 Z"/></g><g transform="translate(10.173238095238094,9.186857142857143)"><path fill="rgb(0,0,0)" stroke="none" paint-order="stroke fill markers" d=" M 0.294 -0.64 L 0.294 -0.079 Q 0.294 -0.049 0.306 -0.041 Q 0.323 -0.031 0.387 -0.031 L 0.419 -0.031 L 0.419 0 Q 0.384 -0.003 0.257 -0.003 Q 0.13 -0.003 0.095 0 L 0.095 -0.031 L 0.127 -0.031 Q 0.20400000000000001 -0.031 0.215 -0.049 L 0.216 -0.05 Q 0.22 -0.058 0.22 -0.079 L 0.22 -0.597 Q 0.168 -0.5710000000000001 0.089 -0.5710000000000001 L 0.089 -0.602 Q 0.209 -0.602 0.271 -0.666 Q 0.29 -0.666 0.293 -0.659 L 0.293 -0.659 L 0.293 -0.658 Q 0.294 -0.655 0.294 -0.64 Z"/></g></g><g transform="scale(35,35)"><g transform="translate(16.085714285714285,14.501142857142858)"><path fill="rgb(0,0,0)" stroke="none" paint-order="stroke fill markers" d=" M 0.449 -0.17400000000000002 L 0.449 -0.17400000000000002 L 0.421 0 L 0.05 0 Q 0.05 -0.025 0.056 -0.032 L 0.061 -0.037 L 0.253 -0.251 Q 0.358 -0.369 0.358 -0.47200000000000003 Q 0.358 -0.561 0.304 -0.607 L 0.303 -0.608 L 0.302 -0.608 Q 0.27 -0.635 0.224 -0.635 Q 0.152 -0.635 0.109 -0.5730000000000001 Q 0.097 -0.555 0.089 -0.533 Q 0.092 -0.534 0.10200000000000001 -0.534 Q 0.14200000000000002 -0.534 0.153 -0.498 L 0.153 -0.497 Q 0.155 -0.49 0.155 -0.482 Q 0.155 -0.442 0.117 -0.431 Q 0.109 -0.429 0.10300000000000001 -0.429 Q 0.066 -0.429 0.054 -0.46 Q 0.05 -0.47100000000000003 0.05 -0.485 Q 0.05 -0.562 0.109 -0.617 Q 0.162 -0.666 0.23700000000000002 -0.666 Q 0.34700000000000003 -0.666 0.40800000000000003 -0.592 Q 0.443 -0.549 0.448 -0.49 Q 0.449 -0.481 0.449 -0.47200000000000003 Q 0.449 -0.399 0.394 -0.333 Q 0.365 -0.299 0.304 -0.243 L 0.243 -0.189 L 0.233 -0.18 L 0.127 -0.077 L 0.307 -0.077 Q 0.395 -0.077 0.402 -0.085 Q 0.41200000000000003 -0.099 0.424 -0.17400000000000002 L 0.449 -0.17400000000000002 Z"/></g><g transform="translate(16.585714285714285,14.501142857142858)"><path fill="rgb(0,0,0)" stroke="none" paint-order="stroke fill markers" d=" M 0.203 -0.001 L 0.203 -0.001 Q 0.203 0.096 0.14 0.169 Q 0.123 0.189 0.112 0.193 Q 0.10200000000000001 0.193 0.10200000000000001 0.182 Q 0.10200000000000001 0.177 0.113 0.166 Q 0.17300000000000001 0.106 0.18 0.019 Q 0.181 0.009000000000000001 0.181 -0.001 Q 0.181 -0.016 0.179 -0.016 Q 0.178 -0.016 0.17400000000000002 -0.013000000000000001 Q 0.16 0 0.139 0 Q 0.10200000000000001 0 0.09 -0.034 Q 0.08600000000000001 -0.043000000000000003 0.08600000000000001 -0.053 Q 0.08600000000000001 -0.089 0.117 -0.10200000000000001 Q 0.127 -0.106 0.139 -0.106 Q 0.183 -0.106 0.198 -0.048 Q 0.203 -0.027 0.203 -0.001 Z"/></g><g transform="translate(17.030380952380952,14.501142857142858)"><path fill="rgb(0,0,0)" stroke="none" paint-order="stroke fill markers" d=" M 0.46 -0.32 Q 0.46 -0.17400000000000002 0.423 -0.094 Q 0.364 0.018000000000000002 0.249 0.022 Q 0.158 0.022 0.10300000000000001 -0.05 Q 0.092 -0.063 0.084 -0.079 Q 0.039 -0.162 0.039 -0.32 Q 0.039 -0.467 0.076 -0.547 Q 0.126 -0.659 0.23800000000000002 -0.666 L 0.25 -0.666 Q 0.339 -0.666 0.395 -0.595 L 0.395 -0.594 Q 0.40900000000000003 -0.5760000000000001 0.42 -0.554 Q 0.46 -0.46900000000000003 0.46 -0.32 M 0.249 0 L 0.249 0 Q 0.312 0 0.34600000000000003 -0.061 Q 0.36 -0.088 0.366 -0.125 Q 0.377 -0.189 0.377 -0.332 Q 0.377 -0.47100000000000003 0.367 -0.527 Q 0.34900000000000003 -0.622 0.275 -0.641 Q 0.262 -0.644 0.249 -0.644 Q 0.179 -0.644 0.147 -0.5740000000000001 Q 0.136 -0.55 0.13 -0.516 Q 0.122 -0.462 0.122 -0.332 Q 0.122 -0.181 0.133 -0.121 Q 0.151 -0.025 0.221 -0.004 Q 0.23500000000000001 0 0.249 0 Z"/></g></g><g transform="scale(35,35)"><g transform="translate(9.628571428571428,19.843999999999998)"><path fill="rgb(0,0,0)" stroke="none" paint-order="stroke fill markers" d=" M 0.29 -0.352 L 0.29 -0.352 Q 0.39 -0.332 0.434 -0.254 Q 0.457 -0.215 0.457 -0.171 Q 0.457 -0.08600000000000001 0.387 -0.028 Q 0.326 0.022 0.244 0.022 Q 0.145 0.022 0.085 -0.037 Q 0.042 -0.079 0.042 -0.135 Q 0.042 -0.182 0.084 -0.191 Q 0.091 -0.193 0.098 -0.193 Q 0.136 -0.193 0.149 -0.161 Q 0.153 -0.148 0.154 -0.137 Q 0.154 -0.097 0.11800000000000001 -0.085 Q 0.10400000000000001 -0.08 0.088 -0.082 Q 0.125 -0.02 0.216 -0.008 Q 0.229 -0.006 0.241 -0.006 Q 0.305 -0.006 0.335 -0.069 Q 0.354 -0.109 0.354 -0.171 Q 0.354 -0.304 0.274 -0.331 Q 0.256 -0.337 0.23500000000000001 -0.337 L 0.191 -0.337 Q 0.169 -0.337 0.167 -0.34800000000000003 Q 0.167 -0.358 0.182 -0.36 Q 0.197 -0.36 0.221 -0.363 Q 0.272 -0.365 0.301 -0.402 L 0.301 -0.403 L 0.302 -0.404 L 0.303 -0.405 L 0.304 -0.405 L 0.31 -0.41500000000000004 Q 0.338 -0.462 0.338 -0.529 Q 0.338 -0.622 0.266 -0.638 Q 0.254 -0.641 0.242 -0.641 Q 0.17200000000000001 -0.641 0.128 -0.601 Q 0.117 -0.591 0.109 -0.579 Q 0.171 -0.579 0.171 -0.529 Q 0.171 -0.493 0.14 -0.481 Q 0.131 -0.47800000000000004 0.12 -0.47800000000000004 Q 0.081 -0.47800000000000004 0.07100000000000001 -0.513 L 0.07100000000000001 -0.513 L 0.07100000000000001 -0.514 Q 0.069 -0.522 0.069 -0.53 Q 0.069 -0.597 0.135 -0.637 Q 0.183 -0.666 0.246 -0.666 Q 0.337 -0.666 0.393 -0.612 L 0.395 -0.61 Q 0.43 -0.5740000000000001 0.43 -0.528 Q 0.43 -0.445 0.359 -0.389 Q 0.328 -0.365 0.29 -0.352 Z"/></g><g transform="translate(10.128571428571428,19.843999999999998)"><path fill="rgb(0,0,0)" stroke="none" paint-order="stroke fill markers" d=" M 0.203 -0.001 L 0.203 -0.001 Q 0.203 0.096 0.14 0.169 Q 0.123 0.189 0.112 0.193 Q 0.10200000000000001 0.193 0.10200000000000001 0.182 Q 0.10200000000000001 0.177 0.113 0.166 Q 0.17300000000000001 0.106 0.18 0.019 Q 0.181 0.009000000000000001 0.181 -0.001 Q 0.181 -0.016 0.179 -0.016 Q 0.178 -0.016 0.17400000000000002 -0.013000000000000001 Q 0.16 0 0.139 0 Q 0.10200000000000001 0 0.09 -0.034 Q 0.08600000000000001 -0.043000000000000003 0.08600000000000001 -0.053 Q 0.08600000000000001 -0.089 0.117 -0.10200000000000001 Q 0.127 -0.106 0.139 -0.106 Q 0.183 -0.106 0.198 -0.048 Q 0.203 -0.027 0.203 -0.001 Z"/></g><g transform="translate(10.573238095238095,19.843999999999998)"><path fill="rgb(0,0,0)" stroke="none" paint-order="stroke fill markers" d=" M 0.29 -0.352 L 0.29 -0.352 Q 0.39 -0.332 0.434 -0.254 Q 0.457 -0.215 0.457 -0.171 Q 0.457 -0.08600000000000001 0.387 -0.028 Q 0.326 0.022 0.244 0.022 Q 0.145 0.022 0.085 -0.037 Q 0.042 -0.079 0.042 -0.135 Q 0.042 -0.182 0.084 -0.191 Q 0.091 -0.193 0.098 -0.193 Q 0.136 -0.193 0.149 -0.161 Q 0.153 -0.148 0.154 -0.137 Q 0.154 -0.097 0.11800000000000001 -0.085 Q 0.10400000000000001 -0.08 0.088 -0.082 Q 0.125 -0.02 0.216 -0.008 Q 0.229 -0.006 0.241 -0.006 Q 0.305 -0.006 0.335 -0.069 Q 0.354 -0.109 0.354 -0.171 Q 0.354 -0.304 0.274 -0.331 Q 0.256 -0.337 0.23500000000000001 -0.337 L 0.191 -0.337 Q 0.169 -0.337 0.167 -0.34800000000000003 Q 0.167 -0.358 0.182 -0.36 Q 0.197 -0.36 0.221 -0.363 Q 0.272 -0.365 0.301 -0.402 L 0.301 -0.403 L 0.302 -0.404 L 0.303 -0.405 L 0.304 -0.405 L 0.31 -0.41500000000000004 Q 0.338 -0.462 0.338 -0.529 Q 0.338 -0.622 0.266 -0.638 Q 0.254 -0.641 0.242 -0.641 Q 0.17200000000000001 -0.641 0.128 -0.601 Q 0.117 -0.591 0.109 -0.579 Q 0.171 -0.579 0.171 -0.529 Q 0.171 -0.493 0.14 -0.481 Q 0.131 -0.47800000000000004 0.12 -0.47800000000000004 Q 0.081 -0.47800000000000004 0.07100000000000001 -0.513 L 0.07100000000000001 -0.513 L 0.07100000000000001 -0.514 Q 0.069 -0.522 0.069 -0.53 Q 0.069 -0.597 0.135 -0.637 Q 0.183 -0.666 0.246 -0.666 Q 0.337 -0.666 0.393 -0.612 L 0.395 -0.61 Q 0.43 -0.5740000000000001 0.43 -0.528 Q 0.43 -0.445 0.359 -0.389 Q 0.328 -0.365 0.29 -0.352 Z"/></g></g><g transform="scale(35,35)"><g transform="translate(24.228571428571428,4.529714285714285)"><path fill="rgb(0,0,0)" stroke="none" paint-order="stroke fill markers" d=" M 0.294 -0.64 L 0.294 -0.079 Q 0.294 -0.049 0.306 -0.041 Q 0.323 -0.031 0.387 -0.031 L 0.419 -0.031 L 0.419 0 Q 0.384 -0.003 0.257 -0.003 Q 0.13 -0.003 0.095 0 L 0.095 -0.031 L 0.127 -0.031 Q 0.20400000000000001 -0.031 0.215 -0.049 L 0.216 -0.05 Q 0.22 -0.058 0.22 -0.079 L 0.22 -0.597 Q 0.168 -0.5710000000000001 0.089 -0.5710000000000001 L 0.089 -0.602 Q 0.209 -0.602 0.271 -0.666 Q 0.29 -0.666 0.293 -0.659 L 0.293 -0.659 L 0.293 -0.658 Q 0.294 -0.655 0.294 -0.64 Z"/></g><g transform="translate(24.728571428571428,4.529714285714285)"><path fill="rgb(0,0,0)" stroke="none" paint-order="stroke fill markers" d=" M 0.203 -0.001 L 0.203 -0.001 Q 0.203 0.096 0.14 0.169 Q 0.123 0.189 0.112 0.193 Q 0.10200000000000001 0.193 0.10200000000000001 0.182 Q 0.10200000000000001 0.177 0.113 0.166 Q 0.17300000000000001 0.106 0.18 0.019 Q 0.181 0.009000000000000001 0.181 -0.001 Q 0.181 -0.016 0.179 -0.016 Q 0.178 -0.016 0.17400000000000002 -0.013000000000000001 Q 0.16 0 0.139 0 Q 0.10200000000000001 0 0.09 -0.034 Q 0.08600000000000001 -0.043000000000000003 0.08600000000000001 -0.053 Q 0.08600000000000001 -0.089 0.117 -0.10200000000000001 Q 0.127 -0.106 0.139 -0.106 Q 0.183 -0.106 0.198 -0.048 Q 0.203 -0.027 0.203 -0.001 Z"/></g><g transform="translate(25.173238095238094,4.529714285714285)"><path fill="rgb(0,0,0)" stroke="none" paint-order="stroke fill markers" d=" M 0.294 -0.64 L 0.294 -0.079 Q 0.294 -0.049 0.306 -0.041 Q 0.323 -0.031 0.387 -0.031 L 0.419 -0.031 L 0.419 0 Q 0.384 -0.003 0.257 -0.003 Q 0.13 -0.003 0.095 0 L 0.095 -0.031 L 0.127 -0.031 Q 0.20400000000000001 -0.031 0.215 -0.049 L 0.216 -0.05 Q 0.22 -0.058 0.22 -0.079 L 0.22 -0.597 Q 0.168 -0.5710000000000001 0.089 -0.5710000000000001 L 0.089 -0.602 Q 0.209 -0.602 0.271 -0.666 Q 0.29 -0.666 0.293 -0.659 L 0.293 -0.659 L 0.293 -0.658 Q 0.294 -0.655 0.294 -0.64 Z"/></g></g><g transform="scale(35,35)"><g transform="translate(24.285714285714285,12.872571428571428)"><path fill="rgb(0,0,0)" stroke="none" paint-order="stroke fill markers" d=" M 0.028 -0.165 L 0.028 -0.196 L 0.335 -0.665 Q 0.343 -0.677 0.355 -0.677 Q 0.369 -0.677 0.371 -0.666 L 0.371 -0.651 L 0.371 -0.196 L 0.47100000000000003 -0.196 L 0.47100000000000003 -0.165 L 0.371 -0.165 L 0.371 -0.078 Q 0.371 -0.047 0.383 -0.04 Q 0.397 -0.031 0.447 -0.031 L 0.468 -0.031 L 0.468 0 Q 0.427 -0.003 0.332 -0.003 Q 0.23800000000000002 -0.003 0.197 0 L 0.197 -0.031 L 0.218 -0.031 Q 0.28 -0.031 0.29 -0.048 Q 0.294 -0.055 0.294 -0.078 L 0.294 -0.165 L 0.028 -0.165 M 0.3 -0.196 L 0.3 -0.5690000000000001 L 0.056 -0.196 L 0.3 -0.196 Z"/></g><g transform="translate(24.785714285714285,12.872571428571428)"><path fill="rgb(0,0,0)" stroke="none" paint-order="stroke fill markers" d=" M 0.203 -0.001 L 0.203 -0.001 Q 0.203 0.096 0.14 0.169 Q 0.123 0.189 0.112 0.193 Q 0.10200000000000001 0.193 0.10200000000000001 0.182 Q 0.10200000000000001 0.177 0.113 0.166 Q 0.17300000000000001 0.106 0.18 0.019 Q 0.181 0.009000000000000001 0.181 -0.001 Q 0.181 -0.016 0.179 -0.016 Q 0.178 -0.016 0.17400000000000002 -0.013000000000000001 Q 0.16 0 0.139 0 Q 0.10200000000000001 0 0.09 -0.034 Q 0.08600000000000001 -0.043000000000000003 0.08600000000000001 -0.053 Q 0.08600000000000001 -0.089 0.117 -0.10200000000000001 Q 0.127 -0.106 0.139 -0.106 Q 0.183 -0.106 0.198 -0.048 Q 0.203 -0.027 0.203 -0.001 Z"/></g><g transform="translate(25.23038095238095,12.872571428571428)"><path fill="rgb(0,0,0)" stroke="none" paint-order="stroke fill markers" d=" M 0.46 -0.32 Q 0.46 -0.17400000000000002 0.423 -0.094 Q 0.364 0.018000000000000002 0.249 0.022 Q 0.158 0.022 0.10300000000000001 -0.05 Q 0.092 -0.063 0.084 -0.079 Q 0.039 -0.162 0.039 -0.32 Q 0.039 -0.467 0.076 -0.547 Q 0.126 -0.659 0.23800000000000002 -0.666 L 0.25 -0.666 Q 0.339 -0.666 0.395 -0.595 L 0.395 -0.594 Q 0.40900000000000003 -0.5760000000000001 0.42 -0.554 Q 0.46 -0.46900000000000003 0.46 -0.32 M 0.249 0 L 0.249 0 Q 0.312 0 0.34600000000000003 -0.061 Q 0.36 -0.088 0.366 -0.125 Q 0.377 -0.189 0.377 -0.332 Q 0.377 -0.47100000000000003 0.367 -0.527 Q 0.34900000000000003 -0.622 0.275 -0.641 Q 0.262 -0.644 0.249 -0.644 Q 0.179 -0.644 0.147 -0.5740000000000001 Q 0.136 -0.55 0.13 -0.516 Q 0.122 -0.462 0.122 -0.332 Q 0.122 -0.181 0.133 -0.121 Q 0.151 -0.025 0.221 -0.004 Q 0.23500000000000001 0 0.249 0 Z"/></g></g><g transform="scale(35,35)"><g transform="translate(24.085714285714285,24.701142857142855)"><path fill="rgb(0,0,0)" stroke="none" paint-order="stroke fill markers" d=" M 0.028 -0.165 L 0.028 -0.196 L 0.335 -0.665 Q 0.343 -0.677 0.355 -0.677 Q 0.369 -0.677 0.371 -0.666 L 0.371 -0.651 L 0.371 -0.196 L 0.47100000000000003 -0.196 L 0.47100000000000003 -0.165 L 0.371 -0.165 L 0.371 -0.078 Q 0.371 -0.047 0.383 -0.04 Q 0.397 -0.031 0.447 -0.031 L 0.468 -0.031 L 0.468 0 Q 0.427 -0.003 0.332 -0.003 Q 0.23800000000000002 -0.003 0.197 0 L 0.197 -0.031 L 0.218 -0.031 Q 0.28 -0.031 0.29 -0.048 Q 0.294 -0.055 0.294 -0.078 L 0.294 -0.165 L 0.028 -0.165 M 0.3 -0.196 L 0.3 -0.5690000000000001 L 0.056 -0.196 L 0.3 -0.196 Z"/></g><g transform="translate(24.585714285714285,24.701142857142855)"><path fill="rgb(0,0,0)" stroke="none" paint-order="stroke fill markers" d=" M 0.203 -0.001 L 0.203 -0.001 Q 0.203 0.096 0.14 0.169 Q 0.123 0.189 0.112 0.193 Q 0.10200000000000001 0.193 0.10200000000000001 0.182 Q 0.10200000000000001 0.177 0.113 0.166 Q 0.17300000000000001 0.106 0.18 0.019 Q 0.181 0.009000000000000001 0.181 -0.001 Q 0.181 -0.016 0.179 -0.016 Q 0.178 -0.016 0.17400000000000002 -0.013000000000000001 Q 0.16 0 0.139 0 Q 0.10200000000000001 0 0.09 -0.034 Q 0.08600000000000001 -0.043000000000000003 0.08600000000000001 -0.053 Q 0.08600000000000001 -0.089 0.117 -0.10200000000000001 Q 0.127 -0.106 0.139 -0.106 Q 0.183 -0.106 0.198 -0.048 Q 0.203 -0.027 0.203 -0.001 Z"/></g><g transform="translate(25.030380952380952,24.701142857142855)"><path fill="rgb(0,0,0)" stroke="none" paint-order="stroke fill markers" d=" M 0.29 -0.352 L 0.29 -0.352 Q 0.39 -0.332 0.434 -0.254 Q 0.457 -0.215 0.457 -0.171 Q 0.457 -0.08600000000000001 0.387 -0.028 Q 0.326 0.022 0.244 0.022 Q 0.145 0.022 0.085 -0.037 Q 0.042 -0.079 0.042 -0.135 Q 0.042 -0.182 0.084 -0.191 Q 0.091 -0.193 0.098 -0.193 Q 0.136 -0.193 0.149 -0.161 Q 0.153 -0.148 0.154 -0.137 Q 0.154 -0.097 0.11800000000000001 -0.085 Q 0.10400000000000001 -0.08 0.088 -0.082 Q 0.125 -0.02 0.216 -0.008 Q 0.229 -0.006 0.241 -0.006 Q 0.305 -0.006 0.335 -0.069 Q 0.354 -0.109 0.354 -0.171 Q 0.354 -0.304 0.274 -0.331 Q 0.256 -0.337 0.23500000000000001 -0.337 L 0.191 -0.337 Q 0.169 -0.337 0.167 -0.34800000000000003 Q 0.167 -0.358 0.182 -0.36 Q 0.197 -0.36 0.221 -0.363 Q 0.272 -0.365 0.301 -0.402 L 0.301 -0.403 L 0.302 -0.404 L 0.303 -0.405 L 0.304 -0.405 L 0.31 -0.41500000000000004 Q 0.338 -0.462 0.338 -0.529 Q 0.338 -0.622 0.266 -0.638 Q 0.254 -0.641 0.242 -0.641 Q 0.17200000000000001 -0.641 0.128 -0.601 Q 0.117 -0.591 0.109 -0.579 Q 0.171 -0.579 0.171 -0.529 Q 0.171 -0.493 0.14 -0.481 Q 0.131 -0.47800000000000004 0.12 -0.47800000000000004 Q 0.081 -0.47800000000000004 0.07100000000000001 -0.513 L 0.07100000000000001 -0.513 L 0.07100000000000001 -0.514 Q 0.069 -0.522 0.069 -0.53 Q 0.069 -0.597 0.135 -0.637 Q 0.183 -0.666 0.246 -0.666 Q 0.337 -0.666 0.393 -0.612 L 0.395 -0.61 Q 0.43 -0.5740000000000001 0.43 -0.528 Q 0.43 -0.445 0.359 -0.389 Q 0.328 -0.365 0.29 -0.352 Z"/></g></g><g transform="scale(35,35)"><g transform="translate(34.628571428571426,14.301142857142857)"><path fill="rgb(0,0,0)" stroke="none" paint-order="stroke fill markers" d=" M 0.449 -0.17400000000000002 L 0.449 -0.17400000000000002 L 0.421 0 L 0.05 0 Q 0.05 -0.025 0.056 -0.032 L 0.061 -0.037 L 0.253 -0.251 Q 0.358 -0.369 0.358 -0.47200000000000003 Q 0.358 -0.561 0.304 -0.607 L 0.303 -0.608 L 0.302 -0.608 Q 0.27 -0.635 0.224 -0.635 Q 0.152 -0.635 0.109 -0.5730000000000001 Q 0.097 -0.555 0.089 -0.533 Q 0.092 -0.534 0.10200000000000001 -0.534 Q 0.14200000000000002 -0.534 0.153 -0.498 L 0.153 -0.497 Q 0.155 -0.49 0.155 -0.482 Q 0.155 -0.442 0.117 -0.431 Q 0.109 -0.429 0.10300000000000001 -0.429 Q 0.066 -0.429 0.054 -0.46 Q 0.05 -0.47100000000000003 0.05 -0.485 Q 0.05 -0.562 0.109 -0.617 Q 0.162 -0.666 0.23700000000000002 -0.666 Q 0.34700000000000003 -0.666 0.40800000000000003 -0.592 Q 0.443 -0.549 0.448 -0.49 Q 0.449 -0.481 0.449 -0.47200000000000003 Q 0.449 -0.399 0.394 -0.333 Q 0.365 -0.299 0.304 -0.243 L 0.243 -0.189 L 0.233 -0.18 L 0.127 -0.077 L 0.307 -0.077 Q 0.395 -0.077 0.402 -0.085 Q 0.41200000000000003 -0.099 0.424 -0.17400000000000002 L 0.449 -0.17400000000000002 Z"/></g><g transform="translate(35.128571428571426,14.301142857142857)"><path fill="rgb(0,0,0)" stroke="none" paint-order="stroke fill markers" d=" M 0.203 -0.001 L 0.203 -0.001 Q 0.203 0.096 0.14 0.169 Q 0.123 0.189 0.112 0.193 Q 0.10200000000000001 0.193 0.10200000000000001 0.182 Q 0.10200000000000001 0.177 0.113 0.166 Q 0.17300000000000001 0.106 0.18 0.019 Q 0.181 0.009000000000000001 0.181 -0.001 Q 0.181 -0.016 0.179 -0.016 Q 0.178 -0.016 0.17400000000000002 -0.013000000000000001 Q 0.16 0 0.139 0 Q 0.10200000000000001 0 0.09 -0.034 Q 0.08600000000000001 -0.043000000000000003 0.08600000000000001 -0.053 Q 0.08600000000000001 -0.089 0.117 -0.10200000000000001 Q 0.127 -0.106 0.139 -0.106 Q 0.183 -0.106 0.198 -0.048 Q 0.203 -0.027 0.203 -0.001 Z"/></g><g transform="translate(35.57323809523809,14.301142857142857)"><path fill="rgb(0,0,0)" stroke="none" paint-order="stroke fill markers" d=" M 0.46 -0.32 Q 0.46 -0.17400000000000002 0.423 -0.094 Q 0.364 0.018000000000000002 0.249 0.022 Q 0.158 0.022 0.10300000000000001 -0.05 Q 0.092 -0.063 0.084 -0.079 Q 0.039 -0.162 0.039 -0.32 Q 0.039 -0.467 0.076 -0.547 Q 0.126 -0.659 0.23800000000000002 -0.666 L 0.25 -0.666 Q 0.339 -0.666 0.395 -0.595 L 0.395 -0.594 Q 0.40900000000000003 -0.5760000000000001 0.42 -0.554 Q 0.46 -0.46900000000000003 0.46 -0.32 M 0.249 0 L 0.249 0 Q 0.312 0 0.34600000000000003 -0.061 Q 0.36 -0.088 0.366 -0.125 Q 0.377 -0.189 0.377 -0.332 Q 0.377 -0.47100000000000003 0.367 -0.527 Q 0.34900000000000003 -0.622 0.275 -0.641 Q 0.262 -0.644 0.249 -0.644 Q 0.179 -0.644 0.147 -0.5740000000000001 Q 0.136 -0.55 0.13 -0.516 Q 0.122 -0.462 0.122 -0.332 Q 0.122 -0.181 0.133 -0.121 Q 0.151 -0.025 0.221 -0.004 Q 0.23500000000000001 0 0.249 0 Z"/></g></g><g transform="scale(35,35)"><g transform="translate(39.628571428571426,9.501142857142858)"><path fill="rgb(0,0,0)" stroke="none" paint-order="stroke fill markers" d=" M 0.29 -0.352 L 0.29 -0.352 Q 0.39 -0.332 0.434 -0.254 Q 0.457 -0.215 0.457 -0.171 Q 0.457 -0.08600000000000001 0.387 -0.028 Q 0.326 0.022 0.244 0.022 Q 0.145 0.022 0.085 -0.037 Q 0.042 -0.079 0.042 -0.135 Q 0.042 -0.182 0.084 -0.191 Q 0.091 -0.193 0.098 -0.193 Q 0.136 -0.193 0.149 -0.161 Q 0.153 -0.148 0.154 -0.137 Q 0.154 -0.097 0.11800000000000001 -0.085 Q 0.10400000000000001 -0.08 0.088 -0.082 Q 0.125 -0.02 0.216 -0.008 Q 0.229 -0.006 0.241 -0.006 Q 0.305 -0.006 0.335 -0.069 Q 0.354 -0.109 0.354 -0.171 Q 0.354 -0.304 0.274 -0.331 Q 0.256 -0.337 0.23500000000000001 -0.337 L 0.191 -0.337 Q 0.169 -0.337 0.167 -0.34800000000000003 Q 0.167 -0.358 0.182 -0.36 Q 0.197 -0.36 0.221 -0.363 Q 0.272 -0.365 0.301 -0.402 L 0.301 -0.403 L 0.302 -0.404 L 0.303 -0.405 L 0.304 -0.405 L 0.31 -0.41500000000000004 Q 0.338 -0.462 0.338 -0.529 Q 0.338 -0.622 0.266 -0.638 Q 0.254 -0.641 0.242 -0.641 Q 0.17200000000000001 -0.641 0.128 -0.601 Q 0.117 -0.591 0.109 -0.579 Q 0.171 -0.579 0.171 -0.529 Q 0.171 -0.493 0.14 -0.481 Q 0.131 -0.47800000000000004 0.12 -0.47800000000000004 Q 0.081 -0.47800000000000004 0.07100000000000001 -0.513 L 0.07100000000000001 -0.513 L 0.07100000000000001 -0.514 Q 0.069 -0.522 0.069 -0.53 Q 0.069 -0.597 0.135 -0.637 Q 0.183 -0.666 0.246 -0.666 Q 0.337 -0.666 0.393 -0.612 L 0.395 -0.61 Q 0.43 -0.5740000000000001 0.43 -0.528 Q 0.43 -0.445 0.359 -0.389 Q 0.328 -0.365 0.29 -0.352 Z"/></g><g transform="translate(40.128571428571426,9.501142857142858)"><path fill="rgb(0,0,0)" stroke="none" paint-order="stroke fill markers" d=" M 0.203 -0.001 L 0.203 -0.001 Q 0.203 0.096 0.14 0.169 Q 0.123 0.189 0.112 0.193 Q 0.10200000000000001 0.193 0.10200000000000001 0.182 Q 0.10200000000000001 0.177 0.113 0.166 Q 0.17300000000000001 0.106 0.18 0.019 Q 0.181 0.009000000000000001 0.181 -0.001 Q 0.181 -0.016 0.179 -0.016 Q 0.178 -0.016 0.17400000000000002 -0.013000000000000001 Q 0.16 0 0.139 0 Q 0.10200000000000001 0 0.09 -0.034 Q 0.08600000000000001 -0.043000000000000003 0.08600000000000001 -0.053 Q 0.08600000000000001 -0.089 0.117 -0.10200000000000001 Q 0.127 -0.106 0.139 -0.106 Q 0.183 -0.106 0.198 -0.048 Q 0.203 -0.027 0.203 -0.001 Z"/></g><g transform="translate(40.57323809523809,9.501142857142858)"><path fill="rgb(0,0,0)" stroke="none" paint-order="stroke fill markers" d=" M 0.294 -0.64 L 0.294 -0.079 Q 0.294 -0.049 0.306 -0.041 Q 0.323 -0.031 0.387 -0.031 L 0.419 -0.031 L 0.419 0 Q 0.384 -0.003 0.257 -0.003 Q 0.13 -0.003 0.095 0 L 0.095 -0.031 L 0.127 -0.031 Q 0.20400000000000001 -0.031 0.215 -0.049 L 0.216 -0.05 Q 0.22 -0.058 0.22 -0.079 L 0.22 -0.597 Q 0.168 -0.5710000000000001 0.089 -0.5710000000000001 L 0.089 -0.602 Q 0.209 -0.602 0.271 -0.666 Q 0.29 -0.666 0.293 -0.659 L 0.293 -0.659 L 0.293 -0.658 Q 0.294 -0.655 0.294 -0.64 Z"/></g></g><g transform="scale(35,35)"><g transform="translate(39.31428571428572,19.929714285714283)"><path fill="rgb(0,0,0)" stroke="none" paint-order="stroke fill markers" d=" M 0.29 -0.352 L 0.29 -0.352 Q 0.39 -0.332 0.434 -0.254 Q 0.457 -0.215 0.457 -0.171 Q 0.457 -0.08600000000000001 0.387 -0.028 Q 0.326 0.022 0.244 0.022 Q 0.145 0.022 0.085 -0.037 Q 0.042 -0.079 0.042 -0.135 Q 0.042 -0.182 0.084 -0.191 Q 0.091 -0.193 0.098 -0.193 Q 0.136 -0.193 0.149 -0.161 Q 0.153 -0.148 0.154 -0.137 Q 0.154 -0.097 0.11800000000000001 -0.085 Q 0.10400000000000001 -0.08 0.088 -0.082 Q 0.125 -0.02 0.216 -0.008 Q 0.229 -0.006 0.241 -0.006 Q 0.305 -0.006 0.335 -0.069 Q 0.354 -0.109 0.354 -0.171 Q 0.354 -0.304 0.274 -0.331 Q 0.256 -0.337 0.23500000000000001 -0.337 L 0.191 -0.337 Q 0.169 -0.337 0.167 -0.34800000000000003 Q 0.167 -0.358 0.182 -0.36 Q 0.197 -0.36 0.221 -0.363 Q 0.272 -0.365 0.301 -0.402 L 0.301 -0.403 L 0.302 -0.404 L 0.303 -0.405 L 0.304 -0.405 L 0.31 -0.41500000000000004 Q 0.338 -0.462 0.338 -0.529 Q 0.338 -0.622 0.266 -0.638 Q 0.254 -0.641 0.242 -0.641 Q 0.17200000000000001 -0.641 0.128 -0.601 Q 0.117 -0.591 0.109 -0.579 Q 0.171 -0.579 0.171 -0.529 Q 0.171 -0.493 0.14 -0.481 Q 0.131 -0.47800000000000004 0.12 -0.47800000000000004 Q 0.081 -0.47800000000000004 0.07100000000000001 -0.513 L 0.07100000000000001 -0.513 L 0.07100000000000001 -0.514 Q 0.069 -0.522 0.069 -0.53 Q 0.069 -0.597 0.135 -0.637 Q 0.183 -0.666 0.246 -0.666 Q 0.337 -0.666 0.393 -0.612 L 0.395 -0.61 Q 0.43 -0.5740000000000001 0.43 -0.528 Q 0.43 -0.445 0.359 -0.389 Q 0.328 -0.365 0.29 -0.352 Z"/></g><g transform="translate(39.81428571428572,19.929714285714283)"><path fill="rgb(0,0,0)" stroke="none" paint-order="stroke fill markers" d=" M 0.203 -0.001 L 0.203 -0.001 Q 0.203 0.096 0.14 0.169 Q 0.123 0.189 0.112 0.193 Q 0.10200000000000001 0.193 0.10200000000000001 0.182 Q 0.10200000000000001 0.177 0.113 0.166 Q 0.17300000000000001 0.106 0.18 0.019 Q 0.181 0.009000000000000001 0.181 -0.001 Q 0.181 -0.016 0.179 -0.016 Q 0.178 -0.016 0.17400000000000002 -0.013000000000000001 Q 0.16 0 0.139 0 Q 0.10200000000000001 0 0.09 -0.034 Q 0.08600000000000001 -0.043000000000000003 0.08600000000000001 -0.053 Q 0.08600000000000001 -0.089 0.117 -0.10200000000000001 Q 0.127 -0.106 0.139 -0.106 Q 0.183 -0.106 0.198 -0.048 Q 0.203 -0.027 0.203 -0.001 Z"/></g><g transform="translate(40.25895238095238,19.929714285714283)"><path fill="rgb(0,0,0)" stroke="none" paint-order="stroke fill markers" d=" M 0.29 -0.352 L 0.29 -0.352 Q 0.39 -0.332 0.434 -0.254 Q 0.457 -0.215 0.457 -0.171 Q 0.457 -0.08600000000000001 0.387 -0.028 Q 0.326 0.022 0.244 0.022 Q 0.145 0.022 0.085 -0.037 Q 0.042 -0.079 0.042 -0.135 Q 0.042 -0.182 0.084 -0.191 Q 0.091 -0.193 0.098 -0.193 Q 0.136 -0.193 0.149 -0.161 Q 0.153 -0.148 0.154 -0.137 Q 0.154 -0.097 0.11800000000000001 -0.085 Q 0.10400000000000001 -0.08 0.088 -0.082 Q 0.125 -0.02 0.216 -0.008 Q 0.229 -0.006 0.241 -0.006 Q 0.305 -0.006 0.335 -0.069 Q 0.354 -0.109 0.354 -0.171 Q 0.354 -0.304 0.274 -0.331 Q 0.256 -0.337 0.23500000000000001 -0.337 L 0.191 -0.337 Q 0.169 -0.337 0.167 -0.34800000000000003 Q 0.167 -0.358 0.182 -0.36 Q 0.197 -0.36 0.221 -0.363 Q 0.272 -0.365 0.301 -0.402 L 0.301 -0.403 L 0.302 -0.404 L 0.303 -0.405 L 0.304 -0.405 L 0.31 -0.41500000000000004 Q 0.338 -0.462 0.338 -0.529 Q 0.338 -0.622 0.266 -0.638 Q 0.254 -0.641 0.242 -0.641 Q 0.17200000000000001 -0.641 0.128 -0.601 Q 0.117 -0.591 0.109 -0.579 Q 0.171 -0.579 0.171 -0.529 Q 0.171 -0.493 0.14 -0.481 Q 0.131 -0.47800000000000004 0.12 -0.47800000000000004 Q 0.081 -0.47800000000000004 0.07100000000000001 -0.513 L 0.07100000000000001 -0.513 L 0.07100000000000001 -0.514 Q 0.069 -0.522 0.069 -0.53 Q 0.069 -0.597 0.135 -0.637 Q 0.183 -0.666 0.246 -0.666 Q 0.337 -0.666 0.393 -0.612 L 0.395 -0.61 Q 0.43 -0.5740000000000001 0.43 -0.528 Q 0.43 -0.445 0.359 -0.389 Q 0.328 -0.365 0.29 -0.352 Z"/></g></g><g transform="scale(35,35)"><g transform="translate(1.6857142857142857,14.435714285714285)"><path fill="rgb(0,0,0)" stroke="none" paint-order="stroke fill markers" d=" M 0.331 0.24 L 0.331 0.24 Q 0.331 0.25 0.321 0.25 Q 0.309 0.25 0.268 0.209 Q 0.20600000000000002 0.147 0.165 0.062 Q 0.099 -0.074 0.099 -0.25 Q 0.099 -0.419 0.162 -0.555 Q 0.214 -0.666 0.294 -0.733 Q 0.315 -0.75 0.321 -0.75 Q 0.331 -0.75 0.331 -0.74 Q 0.331 -0.735 0.318 -0.723 Q 0.157 -0.559 0.157 -0.25 Q 0.157 0.058 0.314 0.218 Q 0.331 0.23500000000000001 0.331 0.24 Z"/></g><g transform="translate(2.0747142857142857,14.435714285714285)"><path fill="rgb(0,0,0)" stroke="none" paint-order="stroke fill markers" d=" M 0.661 -0.23 L 0.116 -0.23 Q 0.084 -0.23 0.083 -0.25 Q 0.083 -0.27 0.116 -0.27 L 0.661 -0.27 Q 0.6930000000000001 -0.27 0.6940000000000001 -0.25 Q 0.6940000000000001 -0.23 0.661 -0.23 Z"/></g><g transform="translate(2.8527142857142858,14.435714285714285)"><path fill="rgb(0,0,0)" stroke="none" paint-order="stroke fill markers" d=" M 0.203 -0.001 L 0.203 -0.001 Q 0.203 0.096 0.14 0.169 Q 0.123 0.189 0.112 0.193 Q 0.10200000000000001 0.193 0.10200000000000001 0.182 Q 0.10200000000000001 0.177 0.113 0.166 Q 0.17300000000000001 0.106 0.18 0.019 Q 0.181 0.009000000000000001 0.181 -0.001 Q 0.181 -0.016 0.179 -0.016 Q 0.178 -0.016 0.17400000000000002 -0.013000000000000001 Q 0.16 0 0.139 0 Q 0.10200000000000001 0 0.09 -0.034 Q 0.08600000000000001 -0.043000000000000003 0.08600000000000001 -0.053 Q 0.08600000000000001 -0.089 0.117 -0.10200000000000001 Q 0.127 -0.106 0.139 -0.106 Q 0.183 -0.106 0.198 -0.048 Q 0.203 -0.027 0.203 -0.001 Z"/></g><g transform="translate(3.2973809523809523,14.435714285714285)"><path fill="rgb(0,0,0)" stroke="none" paint-order="stroke fill markers" d=" M 0.508 -0.272 Q 0.5670000000000001 -0.372 0.652 -0.41600000000000004 Q 0.7020000000000001 -0.442 0.754 -0.442 Q 0.85 -0.442 0.905 -0.353 Q 0.9430000000000001 -0.292 0.9430000000000001 -0.216 Q 0.9430000000000001 -0.112 0.879 -0.045 Q 0.8260000000000001 0.011 0.751 0.011 Q 0.663 0.011 0.581 -0.058 Q 0.559 -0.077 0.514 -0.131 L 0.491 -0.159 Q 0.432 -0.059000000000000004 0.34700000000000003 -0.015 Q 0.297 0.011 0.245 0.011 Q 0.149 0.011 0.094 -0.078 Q 0.056 -0.139 0.056 -0.215 Q 0.056 -0.319 0.12 -0.386 Q 0.17300000000000001 -0.442 0.248 -0.442 Q 0.336 -0.442 0.418 -0.373 Q 0.44 -0.354 0.485 -0.3 L 0.489 -0.295 Q 0.495 -0.28700000000000003 0.508 -0.272 M 0.534 -0.23700000000000002 L 0.63 -0.114 Q 0.631 -0.114 0.631 -0.113 L 0.635 -0.109 Q 0.7010000000000001 -0.037 0.767 -0.037 Q 0.839 -0.037 0.886 -0.10200000000000001 Q 0.921 -0.151 0.921 -0.216 Q 0.921 -0.304 0.868 -0.362 Q 0.8290000000000001 -0.405 0.773 -0.41000000000000003 L 0.761 -0.41000000000000003 Q 0.635 -0.41000000000000003 0.539 -0.246 Q 0.537 -0.242 0.534 -0.23700000000000002 M 0.465 -0.194 L 0.465 -0.194 L 0.369 -0.317 L 0.368 -0.318 L 0.364 -0.322 Q 0.298 -0.394 0.232 -0.394 Q 0.16 -0.394 0.113 -0.329 Q 0.078 -0.28 0.078 -0.215 Q 0.078 -0.127 0.131 -0.069 Q 0.17400000000000002 -0.021 0.23800000000000002 -0.021 Q 0.364 -0.021 0.46 -0.185 Q 0.462 -0.189 0.465 -0.194 Z"/></g><g transform="translate(4.297380952380952,14.435714285714285)"><path fill="rgb(0,0,0)" stroke="none" paint-order="stroke fill markers" d=" M 0.289 -0.25 L 0.289 -0.25 Q 0.289 -0.081 0.226 0.055 Q 0.17400000000000002 0.166 0.094 0.233 Q 0.073 0.25 0.067 0.25 Q 0.057 0.25 0.057 0.24 Q 0.057 0.23500000000000001 0.07 0.223 Q 0.231 0.059000000000000004 0.231 -0.25 Q 0.231 -0.555 0.081 -0.712 L 0.076 -0.717 Q 0.057 -0.735 0.057 -0.74 Q 0.057 -0.75 0.067 -0.75 Q 0.079 -0.75 0.12 -0.709 Q 0.182 -0.647 0.223 -0.562 Q 0.289 -0.426 0.289 -0.25 Z"/></g></g><g transform="scale(35,35)"><g transform="translate(14.2,3.0642857142857145)"><path fill="rgb(0,0,0)" stroke="none" paint-order="stroke fill markers" d=" M 0.331 0.24 L 0.331 0.24 Q 0.331 0.25 0.321 0.25 Q 0.309 0.25 0.268 0.209 Q 0.20600000000000002 0.147 0.165 0.062 Q 0.099 -0.074 0.099 -0.25 Q 0.099 -0.419 0.162 -0.555 Q 0.214 -0.666 0.294 -0.733 Q 0.315 -0.75 0.321 -0.75 Q 0.331 -0.75 0.331 -0.74 Q 0.331 -0.735 0.318 -0.723 Q 0.157 -0.559 0.157 -0.25 Q 0.157 0.058 0.314 0.218 Q 0.331 0.23500000000000001 0.331 0.24 Z"/></g><g transform="translate(14.588999999999999,3.0642857142857145)"><path fill="rgb(0,0,0)" stroke="none" paint-order="stroke fill markers" d=" M 0.40900000000000003 -0.23 L 0.40900000000000003 0.05 Q 0.40900000000000003 0.082 0.389 0.083 Q 0.369 0.083 0.369 0.05 L 0.369 -0.23 L 0.089 -0.23 Q 0.057 -0.23 0.056 -0.25 Q 0.056 -0.27 0.089 -0.27 L 0.369 -0.27 L 0.369 -0.55 Q 0.369 -0.582 0.389 -0.583 Q 0.40900000000000003 -0.583 0.40900000000000003 -0.55 L 0.40900000000000003 -0.27 L 0.6880000000000001 -0.27 Q 0.72 -0.27 0.721 -0.25 Q 0.721 -0.23 0.6880000000000001 -0.23 L 0.40900000000000003 -0.23 Z"/></g><g transform="translate(15.366999999999999,3.0642857142857145)"><path fill="rgb(0,0,0)" stroke="none" paint-order="stroke fill markers" d=" M 0.391 -0.374 L 0.391 -0.374 Q 0.37 -0.418 0.301 -0.42 Q 0.22 -0.42 0.195 -0.359 Q 0.189 -0.34400000000000003 0.189 -0.33 Q 0.189 -0.291 0.23700000000000002 -0.277 L 0.23700000000000002 -0.277 L 0.23800000000000002 -0.276 Q 0.245 -0.274 0.265 -0.27 Q 0.327 -0.257 0.34800000000000003 -0.242 Q 0.357 -0.23600000000000002 0.365 -0.228 Q 0.396 -0.197 0.396 -0.155 Q 0.396 -0.10300000000000001 0.357 -0.056 Q 0.301 0.011 0.195 0.011 Q 0.10200000000000001 0.011 0.066 -0.041 Q 0.052000000000000005 -0.061 0.052000000000000005 -0.08600000000000001 Q 0.052000000000000005 -0.135 0.09 -0.149 Q 0.099 -0.152 0.108 -0.152 Q 0.14100000000000001 -0.147 0.145 -0.117 Q 0.145 -0.08600000000000001 0.11800000000000001 -0.07100000000000001 Q 0.10200000000000001 -0.061 0.082 -0.064 Q 0.105 -0.011 0.196 -0.011 Q 0.299 -0.011 0.331 -0.08600000000000001 Q 0.339 -0.105 0.339 -0.121 Q 0.339 -0.169 0.28 -0.187 L 0.28 -0.187 L 0.279 -0.187 Q 0.264 -0.191 0.23500000000000001 -0.197 Q 0.145 -0.216 0.134 -0.277 Q 0.132 -0.28600000000000003 0.132 -0.296 Q 0.132 -0.34600000000000003 0.17 -0.389 Q 0.217 -0.442 0.301 -0.442 Q 0.38 -0.442 0.41000000000000003 -0.393 Q 0.42 -0.376 0.42 -0.356 Q 0.42 -0.311 0.386 -0.302 Q 0.38 -0.3 0.374 -0.3 Q 0.34600000000000003 -0.304 0.343 -0.329 Q 0.343 -0.356 0.37 -0.369 Q 0.38 -0.374 0.391 -0.374 Z"/></g><g transform="translate(15.835999999999999,3.0642857142857145)"><path fill="rgb(0,0,0)" stroke="none" paint-order="stroke fill markers" d=" M 0.203 -0.001 L 0.203 -0.001 Q 0.203 0.096 0.14 0.169 Q 0.123 0.189 0.112 0.193 Q 0.10200000000000001 0.193 0.10200000000000001 0.182 Q 0.10200000000000001 0.177 0.113 0.166 Q 0.17300000000000001 0.106 0.18 0.019 Q 0.181 0.009000000000000001 0.181 -0.001 Q 0.181 -0.016 0.179 -0.016 Q 0.178 -0.016 0.17400000000000002 -0.013000000000000001 Q 0.16 0 0.139 0 Q 0.10200000000000001 0 0.09 -0.034 Q 0.08600000000000001 -0.043000000000000003 0.08600000000000001 -0.053 Q 0.08600000000000001 -0.089 0.117 -0.10200000000000001 Q 0.127 -0.106 0.139 -0.106 Q 0.183 -0.106 0.198 -0.048 Q 0.203 -0.027 0.203 -0.001 Z"/></g><g transform="translate(16.280666666666665,3.0642857142857145)"><path fill="rgb(0,0,0)" stroke="none" paint-order="stroke fill markers" d=" M 0.449 -0.17400000000000002 L 0.449 -0.17400000000000002 L 0.421 0 L 0.05 0 Q 0.05 -0.025 0.056 -0.032 L 0.061 -0.037 L 0.253 -0.251 Q 0.358 -0.369 0.358 -0.47200000000000003 Q 0.358 -0.561 0.304 -0.607 L 0.303 -0.608 L 0.302 -0.608 Q 0.27 -0.635 0.224 -0.635 Q 0.152 -0.635 0.109 -0.5730000000000001 Q 0.097 -0.555 0.089 -0.533 Q 0.092 -0.534 0.10200000000000001 -0.534 Q 0.14200000000000002 -0.534 0.153 -0.498 L 0.153 -0.497 Q 0.155 -0.49 0.155 -0.482 Q 0.155 -0.442 0.117 -0.431 Q 0.109 -0.429 0.10300000000000001 -0.429 Q 0.066 -0.429 0.054 -0.46 Q 0.05 -0.47100000000000003 0.05 -0.485 Q 0.05 -0.562 0.109 -0.617 Q 0.162 -0.666 0.23700000000000002 -0.666 Q 0.34700000000000003 -0.666 0.40800000000000003 -0.592 Q 0.443 -0.549 0.448 -0.49 Q 0.449 -0.481 0.449 -0.47200000000000003 Q 0.449 -0.399 0.394 -0.333 Q 0.365 -0.299 0.304 -0.243 L 0.243 -0.189 L 0.233 -0.18 L 0.127 -0.077 L 0.307 -0.077 Q 0.395 -0.077 0.402 -0.085 Q 0.41200000000000003 -0.099 0.424 -0.17400000000000002 L 0.449 -0.17400000000000002 Z"/></g><g transform="translate(16.780666666666665,3.0642857142857145)"><path fill="rgb(0,0,0)" stroke="none" paint-order="stroke fill markers" d=" M 0.289 -0.25 L 0.289 -0.25 Q 0.289 -0.081 0.226 0.055 Q 0.17400000000000002 0.166 0.094 0.233 Q 0.073 0.25 0.067 0.25 Q 0.057 0.25 0.057 0.24 Q 0.057 0.23500000000000001 0.07 0.223 Q 0.231 0.059000000000000004 0.231 -0.25 Q 0.231 -0.555 0.081 -0.712 L 0.076 -0.717 Q 0.057 -0.735 0.057 -0.74 Q 0.057 -0.75 0.067 -0.75 Q 0.079 -0.75 0.12 -0.709 Q 0.182 -0.647 0.223 -0.562 Q 0.289 -0.426 0.289 -0.25 Z"/></g></g></g></g></svg>