<svg version="1.1" xmlns="http://www.w3.org/2000/svg" xmlns:xlink="http://www.w3.org/1999/xlink" width="1698" height="990"><defs><clipPath id="FxisRiklCdNJ"><path fill="none" stroke="none" d=" M 0 0 L 1698 0 L 1698 990 L 0 990 L 0 0 Z"/></clipPath></defs><g transform="scale(1,1)" clip-path="url(#FxisRiklCdNJ)"><g><rect fill="rgb(255,255,255)" stroke="none" x="0" y="0" width="1699" height="991" fill-opacity="1"/><path fill="none" stroke="rgb(192,192,192)" paint-order="fill stroke markers" d=" M 28.5 0.5 L 28.5 990.5 M 28.5 0.5 L 28.5 990.5 M 147.5 0.5 L 147.5 990.5 M 265.5 0.5 L 265.5 990.5 M 384.5 0.5 L 384.5 990.5 M 503.5 0.5 L 503.5 990.5 M 622.5 0.5 L 622.5 990.5 M 859.5 0.5 L 859.5 990.5 M 978.5 0.5 L 978.5 990.5 M 1097.5 0.5 L 1097.5 990.5 M 1216.5 0.5 L 1216.5 990.5 M 1335.5 0.5 L 1335.5 990.5 M 1453.5 0.5 L 1453.5 990.5 M 1572.5 0.5 L 1572.5 990.5 M 1691.5 0.5 L 1691.5 990.5" stroke-opacity="1" stroke-linecap="round" stroke-linejoin="round" stroke-miterlimit="10"/><path fill="none" stroke="rgb(192,192,192)" paint-order="fill stroke markers" d="" stroke-opacity="0.23529411764705882" stroke-linecap="round" stroke-linejoin="round" stroke-miterlimit="10"/><path fill="none" stroke="rgb(192,192,192)" paint-order="fill stroke markers" d=" M 0.5 62.5 L 1698.5 62.5 M 0.5 62.5 L 1698.5 62.5 M 0.5 180.5 L 1698.5 180.5 M 0.5 299.5 L 1698.5 299.5 M 0.5 418.5 L 1698.5 418.5 M 0.5 537.5 L 1698.5 537.5 M 0.5 656.5 L 1698.5 656.5 M 0.5 893.5 L 1698.5 893.5" stroke-opacity="1" stroke-linecap="round" stroke-linejoin="round" stroke-miterlimit="10"/><path fill="none" stroke="rgb(192,192,192)" paint-order="fill stroke markers" d="" stroke-opacity="0.23529411764705882" stroke-linecap="round" stroke-linejoin="round" stroke-miterlimit="10"/><path fill="none" stroke="rgb(37,37,37)" paint-order="fill stroke markers" d=" M 741.5 2.5 L 741.5 990.5" stroke-opacity="1" stroke-miterlimit="10"/><path fill="none" stroke="rgb(37,37,37)" paint-order="fill stroke markers" d=" M 741.5 1.5 L 737.5 5.5" stroke-opacity="1" stroke-miterlimit="10"/><path fill="none" stroke="rgb(37,37,37)" paint-order="fill stroke markers" d=" M 741.5 1.5 L 745.5 5.5" stroke-opacity="1" stroke-miterlimit="10"/><path fill="none" stroke="rgb(37,37,37)" paint-order="fill stroke markers" d=" M 0.5 774.5 L 1696.5 774.5" stroke-opacity="1" stroke-miterlimit="10"/><path fill="none" stroke="rgb(37,37,37)" paint-order="fill stroke markers" d=" M 1697.5 774.5 L 1693.5 770.5" stroke-opacity="1" stroke-miterlimit="10"/><path fill="none" stroke="rgb(37,37,37)" paint-order="fill stroke markers" d=" M 1697.5 774.5 L 1693.5 778.5" stroke-opacity="1" stroke-miterlimit="10"/><text fill="rgb(37,37,37)" stroke="none" font-family="geogebra-serif, serif" font-size="12px" font-style="normal" font-weight="bold" text-decoration="normal" x="22" y="790" text-anchor="start" dominant-baseline="alphabetic" fill-opacity="1">–6</text><text fill="none" stroke="rgb(255,255,255)" font-family="geogebra-serif, serif" font-size="12px" font-style="normal" font-weight="bold" text-decoration="normal" x="22" y="790" text-anchor="start" dominant-baseline="alphabetic" stroke-opacity="1" stroke-linejoin="bevel" stroke-miterlimit="10" stroke-width="3">–6</text><text fill="rgb(37,37,37)" stroke="none" font-family="geogebra-serif, serif" font-size="12px" font-style="normal" font-weight="bold" text-decoration="normal" x="22" y="790" text-anchor="start" dominant-baseline="alphabetic" fill-opacity="1">–6</text><path fill="none" stroke="rgb(37,37,37)" paint-order="fill stroke markers" d=" M 28.5 774.5 L 28.5 777.5" stroke-opacity="1" stroke-miterlimit="10"/><text fill="rgb(37,37,37)" stroke="none" font-family="geogebra-serif, serif" font-size="12px" font-style="normal" font-weight="bold" text-decoration="normal" x="74" y="790" text-anchor="start" dominant-baseline="alphabetic" fill-opacity="1">–5.5</text><text fill="none" stroke="rgb(255,255,255)" font-family="geogebra-serif, serif" font-size="12px" font-style="normal" font-weight="bold" text-decoration="normal" x="74" y="790" text-anchor="start" dominant-baseline="alphabetic" stroke-opacity="1" stroke-linejoin="bevel" stroke-miterlimit="10" stroke-width="3">–5.5</text><text fill="rgb(37,37,37)" stroke="none" font-family="geogebra-serif, serif" font-size="12px" font-style="normal" font-weight="bold" text-decoration="normal" x="74" y="790" text-anchor="start" dominant-baseline="alphabetic" fill-opacity="1">–5.5</text><path fill="none" stroke="rgb(37,37,37)" paint-order="fill stroke markers" d=" M 87.5 774.5 L 87.5 777.5" stroke-opacity="1" stroke-miterlimit="10"/><text fill="rgb(37,37,37)" stroke="none" font-family="geogebra-serif, serif" font-size="12px" font-style="normal" font-weight="bold" text-decoration="normal" x="140" y="790" text-anchor="start" dominant-baseline="alphabetic" fill-opacity="1">–5</text><text fill="none" stroke="rgb(255,255,255)" font-family="geogebra-serif, serif" font-size="12px" font-style="normal" font-weight="bold" text-decoration="normal" x="140" y="790" text-anchor="start" dominant-baseline="alphabetic" stroke-opacity="1" stroke-linejoin="bevel" stroke-miterlimit="10" stroke-width="3">–5</text><text fill="rgb(37,37,37)" stroke="none" font-family="geogebra-serif, serif" font-size="12px" font-style="normal" font-weight="bold" text-decoration="normal" x="140" y="790" text-anchor="start" dominant-baseline="alphabetic" fill-opacity="1">–5</text><path fill="none" stroke="rgb(37,37,37)" paint-order="fill stroke markers" d=" M 147.5 774.5 L 147.5 777.5" stroke-opacity="1" stroke-miterlimit="10"/><text fill="rgb(37,37,37)" stroke="none" font-family="geogebra-serif, serif" font-size="12px" font-style="normal" font-weight="bold" text-decoration="normal" x="193" y="790" text-anchor="start" dominant-baseline="alphabetic" fill-opacity="1">–4.5</text><text fill="none" stroke="rgb(255,255,255)" font-family="geogebra-serif, serif" font-size="12px" font-style="normal" font-weight="bold" text-decoration="normal" x="193" y="790" text-anchor="start" dominant-baseline="alphabetic" stroke-opacity="1" stroke-linejoin="bevel" stroke-miterlimit="10" stroke-width="3">–4.5</text><text fill="rgb(37,37,37)" stroke="none" font-family="geogebra-serif, serif" font-size="12px" font-style="normal" font-weight="bold" text-decoration="normal" x="193" y="790" text-anchor="start" dominant-baseline="alphabetic" fill-opacity="1">–4.5</text><path fill="none" stroke="rgb(37,37,37)" paint-order="fill stroke markers" d=" M 206.5 774.5 L 206.5 777.5" stroke-opacity="1" stroke-miterlimit="10"/><text fill="rgb(37,37,37)" stroke="none" font-family="geogebra-serif, serif" font-size="12px" font-style="normal" font-weight="bold" text-decoration="normal" x="259" y="790" text-anchor="start" dominant-baseline="alphabetic" fill-opacity="1">–4</text><text fill="none" stroke="rgb(255,255,255)" font-family="geogebra-serif, serif" font-size="12px" font-style="normal" font-weight="bold" text-decoration="normal" x="259" y="790" text-anchor="start" dominant-baseline="alphabetic" stroke-opacity="1" stroke-linejoin="bevel" stroke-miterlimit="10" stroke-width="3">–4</text><text fill="rgb(37,37,37)" stroke="none" font-family="geogebra-serif, serif" font-size="12px" font-style="normal" font-weight="bold" text-decoration="normal" x="259" y="790" text-anchor="start" dominant-baseline="alphabetic" fill-opacity="1">–4</text><path fill="none" stroke="rgb(37,37,37)" paint-order="fill stroke markers" d=" M 265.5 774.5 L 265.5 777.5" stroke-opacity="1" stroke-miterlimit="10"/><text fill="rgb(37,37,37)" stroke="none" font-family="geogebra-serif, serif" font-size="12px" font-style="normal" font-weight="bold" text-decoration="normal" x="311" y="790" text-anchor="start" dominant-baseline="alphabetic" fill-opacity="1">–3.5</text><text fill="none" stroke="rgb(255,255,255)" font-family="geogebra-serif, serif" font-size="12px" font-style="normal" font-weight="bold" text-decoration="normal" x="311" y="790" text-anchor="start" dominant-baseline="alphabetic" stroke-opacity="1" stroke-linejoin="bevel" stroke-miterlimit="10" stroke-width="3">–3.5</text><text fill="rgb(37,37,37)" stroke="none" font-family="geogebra-serif, serif" font-size="12px" font-style="normal" font-weight="bold" text-decoration="normal" x="311" y="790" text-anchor="start" dominant-baseline="alphabetic" fill-opacity="1">–3.5</text><path fill="none" stroke="rgb(37,37,37)" paint-order="fill stroke markers" d=" M 325.5 774.5 L 325.5 777.5" stroke-opacity="1" stroke-miterlimit="10"/><text fill="rgb(37,37,37)" stroke="none" font-family="geogebra-serif, serif" font-size="12px" font-style="normal" font-weight="bold" text-decoration="normal" x="378" y="790" text-anchor="start" dominant-baseline="alphabetic" fill-opacity="1">–3</text><text fill="none" stroke="rgb(255,255,255)" font-family="geogebra-serif, serif" font-size="12px" font-style="normal" font-weight="bold" text-decoration="normal" x="378" y="790" text-anchor="start" dominant-baseline="alphabetic" stroke-opacity="1" stroke-linejoin="bevel" stroke-miterlimit="10" stroke-width="3">–3</text><text fill="rgb(37,37,37)" stroke="none" font-family="geogebra-serif, serif" font-size="12px" font-style="normal" font-weight="bold" text-decoration="normal" x="378" y="790" text-anchor="start" dominant-baseline="alphabetic" fill-opacity="1">–3</text><path fill="none" stroke="rgb(37,37,37)" paint-order="fill stroke markers" d=" M 384.5 774.5 L 384.5 777.5" stroke-opacity="1" stroke-miterlimit="10"/><text fill="rgb(37,37,37)" stroke="none" font-family="geogebra-serif, serif" font-size="12px" font-style="normal" font-weight="bold" text-decoration="normal" x="430" y="790" text-anchor="start" dominant-baseline="alphabetic" fill-opacity="1">–2.5</text><text fill="none" stroke="rgb(255,255,255)" font-family="geogebra-serif, serif" font-size="12px" font-style="normal" font-weight="bold" text-decoration="normal" x="430" y="790" text-anchor="start" dominant-baseline="alphabetic" stroke-opacity="1" stroke-linejoin="bevel" stroke-miterlimit="10" stroke-width="3">–2.5</text><text fill="rgb(37,37,37)" stroke="none" font-family="geogebra-serif, serif" font-size="12px" font-style="normal" font-weight="bold" text-decoration="normal" x="430" y="790" text-anchor="start" dominant-baseline="alphabetic" fill-opacity="1">–2.5</text><path fill="none" stroke="rgb(37,37,37)" paint-order="fill stroke markers" d=" M 444.5 774.5 L 444.5 777.5" stroke-opacity="1" stroke-miterlimit="10"/><text fill="rgb(37,37,37)" stroke="none" font-family="geogebra-serif, serif" font-size="12px" font-style="normal" font-weight="bold" text-decoration="normal" x="497" y="790" text-anchor="start" dominant-baseline="alphabetic" fill-opacity="1">–2</text><text fill="none" stroke="rgb(255,255,255)" font-family="geogebra-serif, serif" font-size="12px" font-style="normal" font-weight="bold" text-decoration="normal" x="497" y="790" text-anchor="start" dominant-baseline="alphabetic" stroke-opacity="1" stroke-linejoin="bevel" stroke-miterlimit="10" stroke-width="3">–2</text><text fill="rgb(37,37,37)" stroke="none" font-family="geogebra-serif, serif" font-size="12px" font-style="normal" font-weight="bold" text-decoration="normal" x="497" y="790" text-anchor="start" dominant-baseline="alphabetic" fill-opacity="1">–2</text><path fill="none" stroke="rgb(37,37,37)" paint-order="fill stroke markers" d=" M 503.5 774.5 L 503.5 777.5" stroke-opacity="1" stroke-miterlimit="10"/><text fill="rgb(37,37,37)" stroke="none" font-family="geogebra-serif, serif" font-size="12px" font-style="normal" font-weight="bold" text-decoration="normal" x="549" y="790" text-anchor="start" dominant-baseline="alphabetic" fill-opacity="1">–1.5</text><text fill="none" stroke="rgb(255,255,255)" font-family="geogebra-serif, serif" font-size="12px" font-style="normal" font-weight="bold" text-decoration="normal" x="549" y="790" text-anchor="start" dominant-baseline="alphabetic" stroke-opacity="1" stroke-linejoin="bevel" stroke-miterlimit="10" stroke-width="3">–1.5</text><text fill="rgb(37,37,37)" stroke="none" font-family="geogebra-serif, serif" font-size="12px" font-style="normal" font-weight="bold" text-decoration="normal" x="549" y="790" text-anchor="start" dominant-baseline="alphabetic" fill-opacity="1">–1.5</text><path fill="none" stroke="rgb(37,37,37)" paint-order="fill stroke markers" d=" M 562.5 774.5 L 562.5 777.5" stroke-opacity="1" stroke-miterlimit="10"/><text fill="rgb(37,37,37)" stroke="none" font-family="geogebra-serif, serif" font-size="12px" font-style="normal" font-weight="bold" text-decoration="normal" x="616" y="790" text-anchor="start" dominant-baseline="alphabetic" fill-opacity="1">–1</text><text fill="none" stroke="rgb(255,255,255)" font-family="geogebra-serif, serif" font-size="12px" font-style="normal" font-weight="bold" text-decoration="normal" x="616" y="790" text-anchor="start" dominant-baseline="alphabetic" stroke-opacity="1" stroke-linejoin="bevel" stroke-miterlimit="10" stroke-width="3">–1</text><text fill="rgb(37,37,37)" stroke="none" font-family="geogebra-serif, serif" font-size="12px" font-style="normal" font-weight="bold" text-decoration="normal" x="616" y="790" text-anchor="start" dominant-baseline="alphabetic" fill-opacity="1">–1</text><path fill="none" stroke="rgb(37,37,37)" paint-order="fill stroke markers" d=" M 622.5 774.5 L 622.5 777.5" stroke-opacity="1" stroke-miterlimit="10"/><text fill="rgb(37,37,37)" stroke="none" font-family="geogebra-serif, serif" font-size="12px" font-style="normal" font-weight="bold" text-decoration="normal" x="668" y="790" text-anchor="start" dominant-baseline="alphabetic" fill-opacity="1">–0.5</text><text fill="none" stroke="rgb(255,255,255)" font-family="geogebra-serif, serif" font-size="12px" font-style="normal" font-weight="bold" text-decoration="normal" x="668" y="790" text-anchor="start" dominant-baseline="alphabetic" stroke-opacity="1" stroke-linejoin="bevel" stroke-miterlimit="10" stroke-width="3">–0.5</text><text fill="rgb(37,37,37)" stroke="none" font-family="geogebra-serif, serif" font-size="12px" font-style="normal" font-weight="bold" text-decoration="normal" x="668" y="790" text-anchor="start" dominant-baseline="alphabetic" fill-opacity="1">–0.5</text><path fill="none" stroke="rgb(37,37,37)" paint-order="fill stroke markers" d=" M 681.5 774.5 L 681.5 777.5" stroke-opacity="1" stroke-miterlimit="10"/><path fill="none" stroke="rgb(37,37,37)" paint-order="fill stroke markers" d=" M 741.5 774.5 L 741.5 777.5" stroke-opacity="1" stroke-miterlimit="10"/><text fill="rgb(37,37,37)" stroke="none" font-family="geogebra-serif, serif" font-size="12px" font-style="normal" font-weight="bold" text-decoration="normal" x="790" y="790" text-anchor="start" dominant-baseline="alphabetic" fill-opacity="1">0.5</text><text fill="none" stroke="rgb(255,255,255)" font-family="geogebra-serif, serif" font-size="12px" font-style="normal" font-weight="bold" text-decoration="normal" x="790" y="790" text-anchor="start" dominant-baseline="alphabetic" stroke-opacity="1" stroke-linejoin="bevel" stroke-miterlimit="10" stroke-width="3">0.5</text><text fill="rgb(37,37,37)" stroke="none" font-family="geogebra-serif, serif" font-size="12px" font-style="normal" font-weight="bold" text-decoration="normal" x="790" y="790" text-anchor="start" dominant-baseline="alphabetic" fill-opacity="1">0.5</text><path fill="none" stroke="rgb(37,37,37)" paint-order="fill stroke markers" d=" M 800.5 774.5 L 800.5 777.5" stroke-opacity="1" stroke-miterlimit="10"/><text fill="rgb(37,37,37)" stroke="none" font-family="geogebra-serif, serif" font-size="12px" font-style="normal" font-weight="bold" text-decoration="normal" x="857" y="790" text-anchor="start" dominant-baseline="alphabetic" fill-opacity="1">1</text><text fill="none" stroke="rgb(255,255,255)" font-family="geogebra-serif, serif" font-size="12px" font-style="normal" font-weight="bold" text-decoration="normal" x="857" y="790" text-anchor="start" dominant-baseline="alphabetic" stroke-opacity="1" stroke-linejoin="bevel" stroke-miterlimit="10" stroke-width="3">1</text><text fill="rgb(37,37,37)" stroke="none" font-family="geogebra-serif, serif" font-size="12px" font-style="normal" font-weight="bold" text-decoration="normal" x="857" y="790" text-anchor="start" dominant-baseline="alphabetic" fill-opacity="1">1</text><path fill="none" stroke="rgb(37,37,37)" paint-order="fill stroke markers" d=" M 859.5 774.5 L 859.5 777.5" stroke-opacity="1" stroke-miterlimit="10"/><text fill="rgb(37,37,37)" stroke="none" font-family="geogebra-serif, serif" font-size="12px" font-style="normal" font-weight="bold" text-decoration="normal" x="909" y="790" text-anchor="start" dominant-baseline="alphabetic" fill-opacity="1">1.5</text><text fill="none" stroke="rgb(255,255,255)" font-family="geogebra-serif, serif" font-size="12px" font-style="normal" font-weight="bold" text-decoration="normal" x="909" y="790" text-anchor="start" dominant-baseline="alphabetic" stroke-opacity="1" stroke-linejoin="bevel" stroke-miterlimit="10" stroke-width="3">1.5</text><text fill="rgb(37,37,37)" stroke="none" font-family="geogebra-serif, serif" font-size="12px" font-style="normal" font-weight="bold" text-decoration="normal" x="909" y="790" text-anchor="start" dominant-baseline="alphabetic" fill-opacity="1">1.5</text><path fill="none" stroke="rgb(37,37,37)" paint-order="fill stroke markers" d=" M 919.5 774.5 L 919.5 777.5" stroke-opacity="1" stroke-miterlimit="10"/><text fill="rgb(37,37,37)" stroke="none" font-family="geogebra-serif, serif" font-size="12px" font-style="normal" font-weight="bold" text-decoration="normal" x="976" y="790" text-anchor="start" dominant-baseline="alphabetic" fill-opacity="1">2</text><text fill="none" stroke="rgb(255,255,255)" font-family="geogebra-serif, serif" font-size="12px" font-style="normal" font-weight="bold" text-decoration="normal" x="976" y="790" text-anchor="start" dominant-baseline="alphabetic" stroke-opacity="1" stroke-linejoin="bevel" stroke-miterlimit="10" stroke-width="3">2</text><text fill="rgb(37,37,37)" stroke="none" font-family="geogebra-serif, serif" font-size="12px" font-style="normal" font-weight="bold" text-decoration="normal" x="976" y="790" text-anchor="start" dominant-baseline="alphabetic" fill-opacity="1">2</text><path fill="none" stroke="rgb(37,37,37)" paint-order="fill stroke markers" d=" M 978.5 774.5 L 978.5 777.5" stroke-opacity="1" stroke-miterlimit="10"/><text fill="rgb(37,37,37)" stroke="none" font-family="geogebra-serif, serif" font-size="12px" font-style="normal" font-weight="bold" text-decoration="normal" x="1028" y="790" text-anchor="start" dominant-baseline="alphabetic" fill-opacity="1">2.5</text><text fill="none" stroke="rgb(255,255,255)" font-family="geogebra-serif, serif" font-size="12px" font-style="normal" font-weight="bold" text-decoration="normal" x="1028" y="790" text-anchor="start" dominant-baseline="alphabetic" stroke-opacity="1" stroke-linejoin="bevel" stroke-miterlimit="10" stroke-width="3">2.5</text><text fill="rgb(37,37,37)" stroke="none" font-family="geogebra-serif, serif" font-size="12px" font-style="normal" font-weight="bold" text-decoration="normal" x="1028" y="790" text-anchor="start" dominant-baseline="alphabetic" fill-opacity="1">2.5</text><path fill="none" stroke="rgb(37,37,37)" paint-order="fill stroke markers" d=" M 1038.5 774.5 L 1038.5 777.5" stroke-opacity="1" stroke-miterlimit="10"/><text fill="rgb(37,37,37)" stroke="none" font-family="geogebra-serif, serif" font-size="12px" font-style="normal" font-weight="bold" text-decoration="normal" x="1094" y="790" text-anchor="start" dominant-baseline="alphabetic" fill-opacity="1">3</text><text fill="none" stroke="rgb(255,255,255)" font-family="geogebra-serif, serif" font-size="12px" font-style="normal" font-weight="bold" text-decoration="normal" x="1094" y="790" text-anchor="start" dominant-baseline="alphabetic" stroke-opacity="1" stroke-linejoin="bevel" stroke-miterlimit="10" stroke-width="3">3</text><text fill="rgb(37,37,37)" stroke="none" font-family="geogebra-serif, serif" font-size="12px" font-style="normal" font-weight="bold" text-decoration="normal" x="1094" y="790" text-anchor="start" dominant-baseline="alphabetic" fill-opacity="1">3</text><path fill="none" stroke="rgb(37,37,37)" paint-order="fill stroke markers" d=" M 1097.5 774.5 L 1097.5 777.5" stroke-opacity="1" stroke-miterlimit="10"/><text fill="rgb(37,37,37)" stroke="none" font-family="geogebra-serif, serif" font-size="12px" font-style="normal" font-weight="bold" text-decoration="normal" x="1147" y="790" text-anchor="start" dominant-baseline="alphabetic" fill-opacity="1">3.5</text><text fill="none" stroke="rgb(255,255,255)" font-family="geogebra-serif, serif" font-size="12px" font-style="normal" font-weight="bold" text-decoration="normal" x="1147" y="790" text-anchor="start" dominant-baseline="alphabetic" stroke-opacity="1" stroke-linejoin="bevel" stroke-miterlimit="10" stroke-width="3">3.5</text><text fill="rgb(37,37,37)" stroke="none" font-family="geogebra-serif, serif" font-size="12px" font-style="normal" font-weight="bold" text-decoration="normal" x="1147" y="790" text-anchor="start" dominant-baseline="alphabetic" fill-opacity="1">3.5</text><path fill="none" stroke="rgb(37,37,37)" paint-order="fill stroke markers" d=" M 1156.5 774.5 L 1156.5 777.5" stroke-opacity="1" stroke-miterlimit="10"/><text fill="rgb(37,37,37)" stroke="none" font-family="geogebra-serif, serif" font-size="12px" font-style="normal" font-weight="bold" text-decoration="normal" x="1213" y="790" text-anchor="start" dominant-baseline="alphabetic" fill-opacity="1">4</text><text fill="none" stroke="rgb(255,255,255)" font-family="geogebra-serif, serif" font-size="12px" font-style="normal" font-weight="bold" text-decoration="normal" x="1213" y="790" text-anchor="start" dominant-baseline="alphabetic" stroke-opacity="1" stroke-linejoin="bevel" stroke-miterlimit="10" stroke-width="3">4</text><text fill="rgb(37,37,37)" stroke="none" font-family="geogebra-serif, serif" font-size="12px" font-style="normal" font-weight="bold" text-decoration="normal" x="1213" y="790" text-anchor="start" dominant-baseline="alphabetic" fill-opacity="1">4</text><path fill="none" stroke="rgb(37,37,37)" paint-order="fill stroke markers" d=" M 1216.5 774.5 L 1216.5 777.5" stroke-opacity="1" stroke-miterlimit="10"/><text fill="rgb(37,37,37)" stroke="none" font-family="geogebra-serif, serif" font-size="12px" font-style="normal" font-weight="bold" text-decoration="normal" x="1265" y="790" text-anchor="start" dominant-baseline="alphabetic" fill-opacity="1">4.5</text><text fill="none" stroke="rgb(255,255,255)" font-family="geogebra-serif, serif" font-size="12px" font-style="normal" font-weight="bold" text-decoration="normal" x="1265" y="790" text-anchor="start" dominant-baseline="alphabetic" stroke-opacity="1" stroke-linejoin="bevel" stroke-miterlimit="10" stroke-width="3">4.5</text><text fill="rgb(37,37,37)" stroke="none" font-family="geogebra-serif, serif" font-size="12px" font-style="normal" font-weight="bold" text-decoration="normal" x="1265" y="790" text-anchor="start" dominant-baseline="alphabetic" fill-opacity="1">4.5</text><path fill="none" stroke="rgb(37,37,37)" paint-order="fill stroke markers" d=" M 1275.5 774.5 L 1275.5 777.5" stroke-opacity="1" stroke-miterlimit="10"/><text fill="rgb(37,37,37)" stroke="none" font-family="geogebra-serif, serif" font-size="12px" font-style="normal" font-weight="bold" text-decoration="normal" x="1332" y="790" text-anchor="start" dominant-baseline="alphabetic" fill-opacity="1">5</text><text fill="none" stroke="rgb(255,255,255)" font-family="geogebra-serif, serif" font-size="12px" font-style="normal" font-weight="bold" text-decoration="normal" x="1332" y="790" text-anchor="start" dominant-baseline="alphabetic" stroke-opacity="1" stroke-linejoin="bevel" stroke-miterlimit="10" stroke-width="3">5</text><text fill="rgb(37,37,37)" stroke="none" font-family="geogebra-serif, serif" font-size="12px" font-style="normal" font-weight="bold" text-decoration="normal" x="1332" y="790" text-anchor="start" dominant-baseline="alphabetic" fill-opacity="1">5</text><path fill="none" stroke="rgb(37,37,37)" paint-order="fill stroke markers" d=" M 1335.5 774.5 L 1335.5 777.5" stroke-opacity="1" stroke-miterlimit="10"/><text fill="rgb(37,37,37)" stroke="none" font-family="geogebra-serif, serif" font-size="12px" font-style="normal" font-weight="bold" text-decoration="normal" x="1384" y="790" text-anchor="start" dominant-baseline="alphabetic" fill-opacity="1">5.5</text><text fill="none" stroke="rgb(255,255,255)" font-family="geogebra-serif, serif" font-size="12px" font-style="normal" font-weight="bold" text-decoration="normal" x="1384" y="790" text-anchor="start" dominant-baseline="alphabetic" stroke-opacity="1" stroke-linejoin="bevel" stroke-miterlimit="10" stroke-width="3">5.5</text><text fill="rgb(37,37,37)" stroke="none" font-family="geogebra-serif, serif" font-size="12px" font-style="normal" font-weight="bold" text-decoration="normal" x="1384" y="790" text-anchor="start" dominant-baseline="alphabetic" fill-opacity="1">5.5</text><path fill="none" stroke="rgb(37,37,37)" paint-order="fill stroke markers" d=" M 1394.5 774.5 L 1394.5 777.5" stroke-opacity="1" stroke-miterlimit="10"/><text fill="rgb(37,37,37)" stroke="none" font-family="geogebra-serif, serif" font-size="12px" font-style="normal" font-weight="bold" text-decoration="normal" x="1451" y="790" text-anchor="start" dominant-baseline="alphabetic" fill-opacity="1">6</text><text fill="none" stroke="rgb(255,255,255)" font-family="geogebra-serif, serif" font-size="12px" font-style="normal" font-weight="bold" text-decoration="normal" x="1451" y="790" text-anchor="start" dominant-baseline="alphabetic" stroke-opacity="1" stroke-linejoin="bevel" stroke-miterlimit="10" stroke-width="3">6</text><text fill="rgb(37,37,37)" stroke="none" font-family="geogebra-serif, serif" font-size="12px" font-style="normal" font-weight="bold" text-decoration="normal" x="1451" y="790" text-anchor="start" dominant-baseline="alphabetic" fill-opacity="1">6</text><path fill="none" stroke="rgb(37,37,37)" paint-order="fill stroke markers" d=" M 1453.5 774.5 L 1453.5 777.5" stroke-opacity="1" stroke-miterlimit="10"/><text fill="rgb(37,37,37)" stroke="none" font-family="geogebra-serif, serif" font-size="12px" font-style="normal" font-weight="bold" text-decoration="normal" x="1503" y="790" text-anchor="start" dominant-baseline="alphabetic" fill-opacity="1">6.5</text><text fill="none" stroke="rgb(255,255,255)" font-family="geogebra-serif, serif" font-size="12px" font-style="normal" font-weight="bold" text-decoration="normal" x="1503" y="790" text-anchor="start" dominant-baseline="alphabetic" stroke-opacity="1" stroke-linejoin="bevel" stroke-miterlimit="10" stroke-width="3">6.5</text><text fill="rgb(37,37,37)" stroke="none" font-family="geogebra-serif, serif" font-size="12px" font-style="normal" font-weight="bold" text-decoration="normal" x="1503" y="790" text-anchor="start" dominant-baseline="alphabetic" fill-opacity="1">6.5</text><path fill="none" stroke="rgb(37,37,37)" paint-order="fill stroke markers" d=" M 1513.5 774.5 L 1513.5 777.5" stroke-opacity="1" stroke-miterlimit="10"/><text fill="rgb(37,37,37)" stroke="none" font-family="geogebra-serif, serif" font-size="12px" font-style="normal" font-weight="bold" text-decoration="normal" x="1570" y="790" text-anchor="start" dominant-baseline="alphabetic" fill-opacity="1">7</text><text fill="none" stroke="rgb(255,255,255)" font-family="geogebra-serif, serif" font-size="12px" font-style="normal" font-weight="bold" text-decoration="normal" x="1570" y="790" text-anchor="start" dominant-baseline="alphabetic" stroke-opacity="1" stroke-linejoin="bevel" stroke-miterlimit="10" stroke-width="3">7</text><text fill="rgb(37,37,37)" stroke="none" font-family="geogebra-serif, serif" font-size="12px" font-style="normal" font-weight="bold" text-decoration="normal" x="1570" y="790" text-anchor="start" dominant-baseline="alphabetic" fill-opacity="1">7</text><path fill="none" stroke="rgb(37,37,37)" paint-order="fill stroke markers" d=" M 1572.5 774.5 L 1572.5 777.5" stroke-opacity="1" stroke-miterlimit="10"/><text fill="rgb(37,37,37)" stroke="none" font-family="geogebra-serif, serif" font-size="12px" font-style="normal" font-weight="bold" text-decoration="normal" x="1622" y="790" text-anchor="start" dominant-baseline="alphabetic" fill-opacity="1">7.5</text><text fill="none" stroke="rgb(255,255,255)" font-family="geogebra-serif, serif" font-size="12px" font-style="normal" font-weight="bold" text-decoration="normal" x="1622" y="790" text-anchor="start" dominant-baseline="alphabetic" stroke-opacity="1" stroke-linejoin="bevel" stroke-miterlimit="10" stroke-width="3">7.5</text><text fill="rgb(37,37,37)" stroke="none" font-family="geogebra-serif, serif" font-size="12px" font-style="normal" font-weight="bold" text-decoration="normal" x="1622" y="790" text-anchor="start" dominant-baseline="alphabetic" fill-opacity="1">7.5</text><path fill="none" stroke="rgb(37,37,37)" paint-order="fill stroke markers" d=" M 1632.5 774.5 L 1632.5 777.5" stroke-opacity="1" stroke-miterlimit="10"/><path fill="none" stroke="rgb(37,37,37)" paint-order="fill stroke markers" d=" M 738.5 953.5 L 741.5 953.5" stroke-opacity="1" stroke-miterlimit="10"/><path fill="none" stroke="rgb(37,37,37)" paint-order="fill stroke markers" d=" M 738.5 893.5 L 741.5 893.5" stroke-opacity="1" stroke-miterlimit="10"/><path fill="none" stroke="rgb(37,37,37)" paint-order="fill stroke markers" d=" M 738.5 834.5 L 741.5 834.5" stroke-opacity="1" stroke-miterlimit="10"/><path fill="none" stroke="rgb(37,37,37)" paint-order="fill stroke markers" d=" M 738.5 715.5 L 741.5 715.5" stroke-opacity="1" stroke-miterlimit="10"/><path fill="none" stroke="rgb(37,37,37)" paint-order="fill stroke markers" d=" M 738.5 656.5 L 741.5 656.5" stroke-opacity="1" stroke-miterlimit="10"/><path fill="none" stroke="rgb(37,37,37)" paint-order="fill stroke markers" d=" M 738.5 596.5 L 741.5 596.5" stroke-opacity="1" stroke-miterlimit="10"/><path fill="none" stroke="rgb(37,37,37)" paint-order="fill stroke markers" d=" M 738.5 537.5 L 741.5 537.5" stroke-opacity="1" stroke-miterlimit="10"/><path fill="none" stroke="rgb(37,37,37)" paint-order="fill stroke markers" d=" M 738.5 477.5 L 741.5 477.5" stroke-opacity="1" stroke-miterlimit="10"/><path fill="none" stroke="rgb(37,37,37)" paint-order="fill stroke markers" d=" M 738.5 418.5 L 741.5 418.5" stroke-opacity="1" stroke-miterlimit="10"/><path fill="none" stroke="rgb(37,37,37)" paint-order="fill stroke markers" d=" M 738.5 359.5 L 741.5 359.5" stroke-opacity="1" stroke-miterlimit="10"/><path fill="none" stroke="rgb(37,37,37)" paint-order="fill stroke markers" d=" M 738.5 299.5 L 741.5 299.5" stroke-opacity="1" stroke-miterlimit="10"/><path fill="none" stroke="rgb(37,37,37)" paint-order="fill stroke markers" d=" M 738.5 240.5 L 741.5 240.5" stroke-opacity="1" stroke-miterlimit="10"/><path fill="none" stroke="rgb(37,37,37)" paint-order="fill stroke markers" d=" M 738.5 180.5 L 741.5 180.5" stroke-opacity="1" stroke-miterlimit="10"/><path fill="none" stroke="rgb(37,37,37)" paint-order="fill stroke markers" d=" M 738.5 121.5 L 741.5 121.5" stroke-opacity="1" stroke-miterlimit="10"/><path fill="none" stroke="rgb(37,37,37)" paint-order="fill stroke markers" d=" M 738.5 62.5 L 741.5 62.5" stroke-opacity="1" stroke-miterlimit="10"/><text fill="rgb(37,37,37)" stroke="none" font-family="geogebra-serif, serif" font-size="12px" font-style="normal" font-weight="bold" text-decoration="normal" x="700" y="958" text-anchor="start" dominant-baseline="alphabetic" fill-opacity="1">–1.5</text><text fill="none" stroke="rgb(255,255,255)" font-family="geogebra-serif, serif" font-size="12px" font-style="normal" font-weight="bold" text-decoration="normal" x="700" y="958" text-anchor="start" dominant-baseline="alphabetic" stroke-opacity="1" stroke-linejoin="bevel" stroke-miterlimit="10" stroke-width="3">–1.5</text><text fill="rgb(37,37,37)" stroke="none" font-family="geogebra-serif, serif" font-size="12px" font-style="normal" font-weight="bold" text-decoration="normal" x="700" y="958" text-anchor="start" dominant-baseline="alphabetic" fill-opacity="1">–1.5</text><text fill="rgb(37,37,37)" stroke="none" font-family="geogebra-serif, serif" font-size="12px" font-style="normal" font-weight="bold" text-decoration="normal" x="714" y="898" text-anchor="start" dominant-baseline="alphabetic" fill-opacity="1">–1</text><text fill="none" stroke="rgb(255,255,255)" font-family="geogebra-serif, serif" font-size="12px" font-style="normal" font-weight="bold" text-decoration="normal" x="714" y="898" text-anchor="start" dominant-baseline="alphabetic" stroke-opacity="1" stroke-linejoin="bevel" stroke-miterlimit="10" stroke-width="3">–1</text><text fill="rgb(37,37,37)" stroke="none" font-family="geogebra-serif, serif" font-size="12px" font-style="normal" font-weight="bold" text-decoration="normal" x="714" y="898" text-anchor="start" dominant-baseline="alphabetic" fill-opacity="1">–1</text><text fill="rgb(37,37,37)" stroke="none" font-family="geogebra-serif, serif" font-size="12px" font-style="normal" font-weight="bold" text-decoration="normal" x="700" y="839" text-anchor="start" dominant-baseline="alphabetic" fill-opacity="1">–0.5</text><text fill="none" stroke="rgb(255,255,255)" font-family="geogebra-serif, serif" font-size="12px" font-style="normal" font-weight="bold" text-decoration="normal" x="700" y="839" text-anchor="start" dominant-baseline="alphabetic" stroke-opacity="1" stroke-linejoin="bevel" stroke-miterlimit="10" stroke-width="3">–0.5</text><text fill="rgb(37,37,37)" stroke="none" font-family="geogebra-serif, serif" font-size="12px" font-style="normal" font-weight="bold" text-decoration="normal" x="700" y="839" text-anchor="start" dominant-baseline="alphabetic" fill-opacity="1">–0.5</text><text fill="rgb(37,37,37)" stroke="none" font-family="geogebra-serif, serif" font-size="12px" font-style="normal" font-weight="bold" text-decoration="normal" x="713" y="720" text-anchor="start" dominant-baseline="alphabetic" fill-opacity="1">0.5</text><text fill="none" stroke="rgb(255,255,255)" font-family="geogebra-serif, serif" font-size="12px" font-style="normal" font-weight="bold" text-decoration="normal" x="713" y="720" text-anchor="start" dominant-baseline="alphabetic" stroke-opacity="1" stroke-linejoin="bevel" stroke-miterlimit="10" stroke-width="3">0.5</text><text fill="rgb(37,37,37)" stroke="none" font-family="geogebra-serif, serif" font-size="12px" font-style="normal" font-weight="bold" text-decoration="normal" x="713" y="720" text-anchor="start" dominant-baseline="alphabetic" fill-opacity="1">0.5</text><text fill="rgb(37,37,37)" stroke="none" font-family="geogebra-serif, serif" font-size="12px" font-style="normal" font-weight="bold" text-decoration="normal" x="727" y="661" text-anchor="start" dominant-baseline="alphabetic" fill-opacity="1">1</text><text fill="none" stroke="rgb(255,255,255)" font-family="geogebra-serif, serif" font-size="12px" font-style="normal" font-weight="bold" text-decoration="normal" x="727" y="661" text-anchor="start" dominant-baseline="alphabetic" stroke-opacity="1" stroke-linejoin="bevel" stroke-miterlimit="10" stroke-width="3">1</text><text fill="rgb(37,37,37)" stroke="none" font-family="geogebra-serif, serif" font-size="12px" font-style="normal" font-weight="bold" text-decoration="normal" x="727" y="661" text-anchor="start" dominant-baseline="alphabetic" fill-opacity="1">1</text><text fill="rgb(37,37,37)" stroke="none" font-family="geogebra-serif, serif" font-size="12px" font-style="normal" font-weight="bold" text-decoration="normal" x="713" y="601" text-anchor="start" dominant-baseline="alphabetic" fill-opacity="1">1.5</text><text fill="none" stroke="rgb(255,255,255)" font-family="geogebra-serif, serif" font-size="12px" font-style="normal" font-weight="bold" text-decoration="normal" x="713" y="601" text-anchor="start" dominant-baseline="alphabetic" stroke-opacity="1" stroke-linejoin="bevel" stroke-miterlimit="10" stroke-width="3">1.5</text><text fill="rgb(37,37,37)" stroke="none" font-family="geogebra-serif, serif" font-size="12px" font-style="normal" font-weight="bold" text-decoration="normal" x="713" y="601" text-anchor="start" dominant-baseline="alphabetic" fill-opacity="1">1.5</text><text fill="rgb(37,37,37)" stroke="none" font-family="geogebra-serif, serif" font-size="12px" font-style="normal" font-weight="bold" text-decoration="normal" x="727" y="542" text-anchor="start" dominant-baseline="alphabetic" fill-opacity="1">2</text><text fill="none" stroke="rgb(255,255,255)" font-family="geogebra-serif, serif" font-size="12px" font-style="normal" font-weight="bold" text-decoration="normal" x="727" y="542" text-anchor="start" dominant-baseline="alphabetic" stroke-opacity="1" stroke-linejoin="bevel" stroke-miterlimit="10" stroke-width="3">2</text><text fill="rgb(37,37,37)" stroke="none" font-family="geogebra-serif, serif" font-size="12px" font-style="normal" font-weight="bold" text-decoration="normal" x="727" y="542" text-anchor="start" dominant-baseline="alphabetic" fill-opacity="1">2</text><text fill="rgb(37,37,37)" stroke="none" font-family="geogebra-serif, serif" font-size="12px" font-style="normal" font-weight="bold" text-decoration="normal" x="713" y="482" text-anchor="start" dominant-baseline="alphabetic" fill-opacity="1">2.5</text><text fill="none" stroke="rgb(255,255,255)" font-family="geogebra-serif, serif" font-size="12px" font-style="normal" font-weight="bold" text-decoration="normal" x="713" y="482" text-anchor="start" dominant-baseline="alphabetic" stroke-opacity="1" stroke-linejoin="bevel" stroke-miterlimit="10" stroke-width="3">2.5</text><text fill="rgb(37,37,37)" stroke="none" font-family="geogebra-serif, serif" font-size="12px" font-style="normal" font-weight="bold" text-decoration="normal" x="713" y="482" text-anchor="start" dominant-baseline="alphabetic" fill-opacity="1">2.5</text><text fill="rgb(37,37,37)" stroke="none" font-family="geogebra-serif, serif" font-size="12px" font-style="normal" font-weight="bold" text-decoration="normal" x="727" y="423" text-anchor="start" dominant-baseline="alphabetic" fill-opacity="1">3</text><text fill="none" stroke="rgb(255,255,255)" font-family="geogebra-serif, serif" font-size="12px" font-style="normal" font-weight="bold" text-decoration="normal" x="727" y="423" text-anchor="start" dominant-baseline="alphabetic" stroke-opacity="1" stroke-linejoin="bevel" stroke-miterlimit="10" stroke-width="3">3</text><text fill="rgb(37,37,37)" stroke="none" font-family="geogebra-serif, serif" font-size="12px" font-style="normal" font-weight="bold" text-decoration="normal" x="727" y="423" text-anchor="start" dominant-baseline="alphabetic" fill-opacity="1">3</text><text fill="rgb(37,37,37)" stroke="none" font-family="geogebra-serif, serif" font-size="12px" font-style="normal" font-weight="bold" text-decoration="normal" x="713" y="364" text-anchor="start" dominant-baseline="alphabetic" fill-opacity="1">3.5</text><text fill="none" stroke="rgb(255,255,255)" font-family="geogebra-serif, serif" font-size="12px" font-style="normal" font-weight="bold" text-decoration="normal" x="713" y="364" text-anchor="start" dominant-baseline="alphabetic" stroke-opacity="1" stroke-linejoin="bevel" stroke-miterlimit="10" stroke-width="3">3.5</text><text fill="rgb(37,37,37)" stroke="none" font-family="geogebra-serif, serif" font-size="12px" font-style="normal" font-weight="bold" text-decoration="normal" x="713" y="364" text-anchor="start" dominant-baseline="alphabetic" fill-opacity="1">3.5</text><text fill="rgb(37,37,37)" stroke="none" font-family="geogebra-serif, serif" font-size="12px" font-style="normal" font-weight="bold" text-decoration="normal" x="727" y="304" text-anchor="start" dominant-baseline="alphabetic" fill-opacity="1">4</text><text fill="none" stroke="rgb(255,255,255)" font-family="geogebra-serif, serif" font-size="12px" font-style="normal" font-weight="bold" text-decoration="normal" x="727" y="304" text-anchor="start" dominant-baseline="alphabetic" stroke-opacity="1" stroke-linejoin="bevel" stroke-miterlimit="10" stroke-width="3">4</text><text fill="rgb(37,37,37)" stroke="none" font-family="geogebra-serif, serif" font-size="12px" font-style="normal" font-weight="bold" text-decoration="normal" x="727" y="304" text-anchor="start" dominant-baseline="alphabetic" fill-opacity="1">4</text><text fill="rgb(37,37,37)" stroke="none" font-family="geogebra-serif, serif" font-size="12px" font-style="normal" font-weight="bold" text-decoration="normal" x="713" y="245" text-anchor="start" dominant-baseline="alphabetic" fill-opacity="1">4.5</text><text fill="none" stroke="rgb(255,255,255)" font-family="geogebra-serif, serif" font-size="12px" font-style="normal" font-weight="bold" text-decoration="normal" x="713" y="245" text-anchor="start" dominant-baseline="alphabetic" stroke-opacity="1" stroke-linejoin="bevel" stroke-miterlimit="10" stroke-width="3">4.5</text><text fill="rgb(37,37,37)" stroke="none" font-family="geogebra-serif, serif" font-size="12px" font-style="normal" font-weight="bold" text-decoration="normal" x="713" y="245" text-anchor="start" dominant-baseline="alphabetic" fill-opacity="1">4.5</text><text fill="rgb(37,37,37)" stroke="none" font-family="geogebra-serif, serif" font-size="12px" font-style="normal" font-weight="bold" text-decoration="normal" x="727" y="185" text-anchor="start" dominant-baseline="alphabetic" fill-opacity="1">5</text><text fill="none" stroke="rgb(255,255,255)" font-family="geogebra-serif, serif" font-size="12px" font-style="normal" font-weight="bold" text-decoration="normal" x="727" y="185" text-anchor="start" dominant-baseline="alphabetic" stroke-opacity="1" stroke-linejoin="bevel" stroke-miterlimit="10" stroke-width="3">5</text><text fill="rgb(37,37,37)" stroke="none" font-family="geogebra-serif, serif" font-size="12px" font-style="normal" font-weight="bold" text-decoration="normal" x="727" y="185" text-anchor="start" dominant-baseline="alphabetic" fill-opacity="1">5</text><text fill="rgb(37,37,37)" stroke="none" font-family="geogebra-serif, serif" font-size="12px" font-style="normal" font-weight="bold" text-decoration="normal" x="713" y="126" text-anchor="start" dominant-baseline="alphabetic" fill-opacity="1">5.5</text><text fill="none" stroke="rgb(255,255,255)" font-family="geogebra-serif, serif" font-size="12px" font-style="normal" font-weight="bold" text-decoration="normal" x="713" y="126" text-anchor="start" dominant-baseline="alphabetic" stroke-opacity="1" stroke-linejoin="bevel" stroke-miterlimit="10" stroke-width="3">5.5</text><text fill="rgb(37,37,37)" stroke="none" font-family="geogebra-serif, serif" font-size="12px" font-style="normal" font-weight="bold" text-decoration="normal" x="713" y="126" text-anchor="start" dominant-baseline="alphabetic" fill-opacity="1">5.5</text><text fill="rgb(37,37,37)" stroke="none" font-family="geogebra-serif, serif" font-size="12px" font-style="normal" font-weight="bold" text-decoration="normal" x="727" y="67" text-anchor="start" dominant-baseline="alphabetic" fill-opacity="1">6</text><text fill="none" stroke="rgb(255,255,255)" font-family="geogebra-serif, serif" font-size="12px" font-style="normal" font-weight="bold" text-decoration="normal" x="727" y="67" text-anchor="start" dominant-baseline="alphabetic" stroke-opacity="1" stroke-linejoin="bevel" stroke-miterlimit="10" stroke-width="3">6</text><text fill="rgb(37,37,37)" stroke="none" font-family="geogebra-serif, serif" font-size="12px" font-style="normal" font-weight="bold" text-decoration="normal" x="727" y="67" text-anchor="start" dominant-baseline="alphabetic" fill-opacity="1">6</text><text fill="rgb(37,37,37)" stroke="none" font-family="geogebra-serif, serif" font-size="12px" font-style="normal" font-weight="bold" text-decoration="normal" x="727" y="790" text-anchor="start" dominant-baseline="alphabetic" fill-opacity="1">0</text><text fill="none" stroke="rgb(255,255,255)" font-family="geogebra-serif, serif" font-size="12px" font-style="normal" font-weight="bold" text-decoration="normal" x="727" y="790" text-anchor="start" dominant-baseline="alphabetic" stroke-opacity="1" stroke-linejoin="bevel" stroke-miterlimit="10" stroke-width="3">0</text><text fill="rgb(37,37,37)" stroke="none" font-family="geogebra-serif, serif" font-size="12px" font-style="normal" font-weight="bold" text-decoration="normal" x="727" y="790" text-anchor="start" dominant-baseline="alphabetic" fill-opacity="1">0</text><path fill="none" stroke="rgb(255,0,0)" paint-order="fill stroke markers" d=" M 554.3507606154404 -11.253534615365425 L 556.2623149623902 -1.4496231777549156 L 558.17386930934 8.29276672427386 L 560.0854236562899 17.97363509072011 L 561.9969780032396 27.592981921583373 L 563.9085323501895 37.15080721686479 L 565.8200866971392 46.647110976563226 L 567.731641044089 56.081893200679815 L 569.6431953910387 65.4551538892133 L 571.5547497379887 74.76689304216484 L 573.4663040849384 84.01711065953361 L 575.3778584318882 93.20580674132032 L 577.2894127788379 102.33298128752426 L 579.2009671257878 111.39863429814602 L 581.1125214727375 120.40276577318502 L 583.0240758196874 129.34537571264195 L 584.9356301666371 138.226464116516 L 586.847184513587 147.0460309848081 L 588.7587388605367 155.80407631751723 L 590.6702932074866 164.5006001146445 L 592.5818475544363 173.13560237618879 L 594.4934019013862 181.7090831021511 L 596.404956248336 190.22104229253102 L 598.3165105952858 198.67147994732795 L 600.2280649422355 207.06039606654292 L 602.1396192891852 215.38779065017513 L 604.0511736361351 223.65366369822527 L 605.9627279830848 231.85801521069243 L 607.8742823300347 240.00084518757762 L 609.7858366769844 248.08215362887995 L 611.6973910239343 256.1019405346003 L 613.608945370884 264.0602059047378 L 615.5204997178339 271.9569497392933 L 617.4320540647836 279.7921720382659 L 619.3436084117335 287.5658728016565 L 621.2551627586832 295.2780520294642 L 623.1667171056331 302.9287097216899 L 625.0782714525828 310.51784587833276 L 626.9898257995326 318.0454604993936 L 628.9013801464823 325.5115535848716 L 630.8129344934322 332.9161251347675 L 632.724488840382 340.259175149081 L 634.6360431873318 347.54070362781164 L 636.5475975342816 354.7607105709602 L 638.4591518812314 361.91919597852603 L 640.3707062281812 369.0161598505097 L 642.282260575131 376.05160218691066 L 644.1938149220808 383.02552298772946 L 646.1053692690306 389.9379222529655 L 648.0169236159804 396.7887999826195 L 649.9284779629302 403.57815617669064 L 651.84003230988 410.3059908351797 L 653.7515866568297 416.972303958086 L 655.6631410037796 423.57709554541015 L 657.5746953507293 430.1203655971516 L 659.4862496976791 436.6021141133109 L 661.3978040446289 443.0223410938874 L 663.3093583915787 449.38104653888183 L 665.2209127385286 455.6782304482938 L 667.1324670854783 461.91389282212305 L 669.0440214324282 468.0880336603701 L 670.9555757793779 474.20065296303443 L 672.8671301263278 480.25175073011667 L 674.7786844732775 486.24132696161615 L 676.6902388202274 492.16938165753345 L 678.6017931671771 498.03591481786805 L 680.513347514127 503.8409264426205 L 682.4249018610767 509.58441653179017 L 684.3364562080264 515.2663850853778 L 686.2480105549762 520.8868321033826 L 688.159564901926 526.4457575858053 L 690.0711192488758 531.9431615326453 L 691.9826735958256 537.3790439439031 L 693.8942279427754 542.7534048195781 L 695.8057822897252 548.066244159671 L 697.717336636675 553.3175619641812 L 699.6288909836248 558.5073582331092 L 701.5404453305747 563.6356329664548 L 703.4519996775244 568.7023861642177 L 705.3635540244743 573.7076178263984 L 707.275108371424 578.6513279529964 L 709.1866627183738 583.5335165440123 L 711.0982170653235 588.3541835994454 L 713.0097714122734 593.1133291192963 L 714.9213257592231 597.8109531035645 L 716.832880106173 602.4470555522506 L 718.7444344531227 607.021636465354 L 720.6559888000726 611.5346958428752 L 722.5675431470223 615.9862336848137 L 724.4790974939722 620.37624999117 L 726.3906518409219 624.7047447619435 L 728.3022061878718 628.971717997135 L 730.2137605348215 633.1771696967437 L 732.1253148817714 637.3210998607702 L 734.0368692287211 641.4035084892141 L 735.948423575671 645.4243955820757 L 737.8599779226207 649.383761139355 L 739.7715322695705 653.2816051610515 L 741.6830866165203 657.1179276471659 L 743.59464096347 660.8927285976976 L 745.5061953104199 664.606008012647 L 747.4177496573697 668.2577658920137 L 749.3293040043195 671.8480022357983 L 751.2408583512693 675.3767170440002 L 753.1524126982191 678.8439103166199 L 755.0639670451689 682.2495820536569 L 756.9755213921187 685.5937322551117 L 758.8870757390685 688.8763609209839 L 760.7986300860183 692.0974680512738 L 762.710184432968 695.257053645981 L 764.6217387799179 698.3551177051061 L 766.5332931268675 701.3916602286486 L 768.4448474738174 704.3666812166086 L 770.3564018207672 707.2801806689863 L 772.267956167717 710.1321585857814 L 774.1795105146668 712.9226149669943 L 776.0910648616166 715.6515498126245 L 778.0026192085664 718.3189631226724 L 779.9141735555162 720.9248548971377 L 781.825727902466 723.4692251360208 L 783.7372822494158 725.9520738393212 L 785.6488365963656 728.3734010070394 L 787.5603909433154 730.733206639175 L 789.4719452902652 733.0314907357283 L 791.383499637215 735.268253296699 L 793.2950539841647 737.4434943220874 L 795.2066083311145 739.5572138118932 L 797.1181626780643 741.6094117661168 L 799.0297170250141 743.6000881847577 L 800.9412713719639 745.5292430678163 L 802.8528257189137 747.3968764152925 L 804.7643800658635 749.2029882271862 L 806.6759344128134 750.9475785034974 L 808.5874887597631 752.6306472442262 L 810.499043106713 754.2521944493726 L 812.4105974536627 755.8122201189366 L 814.3221518006126 757.3107242529181 L 816.2337061475623 758.7477068513172 L 818.1452604945121 760.1231679141338 L 820.0568148414618 761.4371074413679 L 821.9683691884117 762.6895254330196 L 823.8799235353614 763.8804218890889 L 825.7914778823113 765.0097968095758 L 827.703032229261 766.0776501944803 L 829.6145865762109 767.0839820438022 L 831.5261409231606 768.0287923575418 L 833.4376952701105 768.9120811356988 L 835.3492496170602 769.7338483782735 L 837.26080396401 770.4940940852657 L 839.1723583109599 771.1928182566755 L 841.0839126579097 771.8300208925028 L 842.9954670048595 772.4057019927477 L 844.9070213518092 772.9198615574102 L 846.8185756987591 773.3724995864902 L 848.7301300457088 773.7636160799877 L 850.6416843926586 774.093211037903 L 852.5532387396083 774.3612844602357 L 854.4647930865582 774.5678363469859 L 856.3763474335079 774.7128666981537 L 858.2879017804578 774.7963755137391 L 860.1994561274075 774.818362793742 L 862.1110104743574 774.7788285381625 L 864.0225648213071 774.6777727470005 L 865.934119168257 774.5151954202562 L 867.8456735152067 774.2910965579293 L 869.7572278621566 774.0054761600201 L 871.6687822091063 773.6583342265284 L 873.5803365560562 773.2496707574543 L 875.4918909030059 772.7794857527977 L 877.4034452499557 772.2477792125586 L 879.3149995969055 771.6545511367372 L 881.2265539438553 770.9998015253333 L 883.1381082908051 770.2835303783469 L 885.0496626377549 769.5057376957782 L 886.9612169847047 768.666423477627 L 888.8727713316545 767.7655877238933 L 890.7843256786043 766.8032304345771 L 892.6958800255541 765.7793516096787 L 894.6074343725039 764.6939512491977 L 896.5189887194537 763.5470293531342 L 898.4305430664035 762.3385859214883 L 900.3420974133533 761.06862095426 L 902.253651760303 759.7371344514493 L 904.1652061072527 758.3441264130562 L 906.0767604542027 756.8895968390805 L 907.9883148011523 755.3735457295224 L 909.8998691481022 753.7959730843819 L 911.811423495052 752.1568789036589 L 913.7229778420018 750.4562631873536 L 915.6345321889517 748.6941259354658 L 917.5460865359014 746.8704671479956 L 919.4576408828513 744.9852868249427 L 921.369195229801 743.0385849663077 L 923.2807495767508 741.03036157209 L 925.1923039237006 738.96061664229 L 927.1038582706503 736.8293501769075 L 929.0154126176001 734.6365621759427 L 930.92696696455 732.3822526393953 L 932.8385213114998 730.0664215672656 L 934.7500756584495 727.6890689595533 L 936.6616300053993 725.2501948162587 L 938.5731843523491 722.7497991373815 L 940.4847386992989 720.1878819229221 L 942.3962930462487 717.56444317288 L 944.3078473931986 714.8794828872556 L 946.2194017401483 712.1330010660487 L 948.1309560870982 709.3249977092594 L 950.0425104340479 706.4554728168877 L 951.9540647809977 703.5244263889335 L 953.8656191279475 700.5318584253969 L 955.7771734748974 697.4777689262777 L 957.6887278218471 694.3621578915761 L 959.6002821687969 691.1850253212924 L 961.5118365157466 687.946371215426 L 963.4233908626965 684.6461955739771 L 965.3349452096463 681.2844983969458 L 967.246499556596 677.8612796843323 L 969.1580539035458 674.3765394361361 L 971.0696082504957 670.8302776523574 L 972.9811625974455 667.2224943329962 L 974.8927169443951 663.5531894780531 L 976.804271291345 659.8223630875272 L 978.7158256382949 656.0300151614186 M 978.7158256382949 656.0300151614186 L 980.120677541345 653.2036969439296 L 981.5255294443953 650.3441499036629 L 982.9303813474455 647.4513740406188 L 984.3352332504957 644.5253693547972 L 985.7400851535458 641.5661358461982 L 987.1449370565961 638.5736735148217 L 988.5497889596463 635.5479823606677 L 989.9546408626965 632.4890623837363 L 991.3594927657467 629.3969135840273 L 992.7643446687969 626.271535961541 L 994.1691965718471 623.1129295162771 L 995.5740484748974 619.9210942482357 L 996.9789003779474 616.696030157417 L 998.3837522809977 613.4377372438206 L 999.7886041840479 610.1462155074469 L 1001.1934560870981 606.8214649482956 L 1002.5983079901483 603.4634855663669 L 1004.0031598931985 600.0722773616607 L 1005.4080117962487 596.647840334177 L 1006.812863699299 593.1901744839158 L 1008.2177156023491 589.6992798108772 L 1009.6225675053993 586.175156315061 L 1011.0274194084495 582.6178039964675 L 1012.4322713114998 579.0272228550964 L 1013.83712321455 575.4034128909478 L 1015.2419751176002 571.7463741040218 L 1016.6468270206503 568.0561064943183 L 1018.0516789237006 564.3326100618374 L 1019.4565308267508 560.5758848065789 L 1020.861382729801 556.785930728543 L 1022.2662346328511 552.9627478277296 L 1023.6710865359014 549.1063361041388 L 1025.0759384389517 545.2166955577704 L 1026.480790342002 541.2938261886246 L 1027.8856422450522 537.3377279967013 L 1029.2904941481022 533.3484009820005 L 1030.6953460511525 529.3258451445223 L 1032.1001979542025 525.2700604842667 L 1033.5050498572527 521.1810470012333 L 1034.909901760303 517.0588046954229 L 1036.3147536633533 512.9033335668348 L 1037.7196055664035 508.71463361546915 L 1039.1244574694538 504.49270484132603 L 1040.5293093725038 500.2375472444055 L 1041.934161275554 495.94916082470746 L 1043.3390131786043 491.6275455822319 L 1044.7438650816543 487.27270151697894 L 1046.1487169847046 482.88462862894846 L 1047.5535688877549 478.4633269181405 L 1048.9584207908051 474.00879638455507 L 1050.3632726938554 469.5210370281922 L 1051.7681245969056 465.00004884905184 L 1053.1729764999557 460.44583184713395 L 1054.577828403006 455.8583860224387 L 1055.9826803060562 451.2377113749659 L 1057.3875322091062 446.5838079047156 L 1058.7923841121565 441.89667561168784 L 1060.1972360152067 437.17631449588265 L 1061.602087918257 432.42272455729994 L 1063.0069398213072 427.6359057959398 L 1064.4117917243573 422.8158582118023 L 1065.8166436274075 417.962581804887 L 1067.2214955304578 413.07607657519463 L 1068.626347433508 408.1563425227244 L 1070.031199336558 403.203379647477 L 1071.4360512396083 398.2171879494518 L 1072.8409031426586 393.1977674286495 L 1074.2457550457088 388.1451180850695 L 1075.650606948759 383.0592399187121 L 1077.0554588518091 377.94013292957715 L 1078.4603107548594 372.78779711766475 L 1079.8651626579097 367.60223248297484 L 1081.2700145609597 362.3834390255075 L 1082.67486646401 357.13141674526275 L 1084.0797183670602 351.8461656422404 L 1085.4845702701105 346.52768571644066 L 1086.8894221731607 341.17597696786345 L 1088.294274076211 335.79103939650867 L 1089.699125979261 330.3728730023765 L 1091.1039778823113 324.92147778546683 L 1092.5088297853615 319.4368537457797 L 1093.9136816884115 313.91900088331505 L 1095.3185335914618 308.36791919807297 L 1096.723385494512 302.78360869005337 L 1098.1282373975623 297.1660693592563 L 1099.5330893006126 291.515301205682 L 1100.9379412036628 285.8313042293298 L 1102.3427931067129 280.1140784302005 L 1103.7476450097631 274.36362380829337 L 1105.1524969128134 268.5799403636091 L 1106.5573488158636 262.7630280961471 L 1107.9622007189137 256.9128870059079 L 1109.367052621964 251.02951709289084 L 1110.7719045250142 245.11291835709676 L 1112.1767564280644 239.16309079852476 L 1113.5816083311145 233.18003441717565 L 1114.9864602341647 227.16374921304896 L 1116.391312137215 221.1142351861447 L 1117.7961640402652 215.03149233646297 L 1119.2010159433153 208.9155206640038 L 1120.6058678463655 202.76632016876715 L 1122.0107197494158 196.58389085075305 L 1123.415571652466 190.36823270996138 L 1124.8204235555163 184.11934574639236 L 1126.2252754585663 177.83722996004587 L 1127.6301273616166 171.52188535092182 L 1129.0349792646668 165.1733119190203 L 1130.439831167717 158.79150966434133 L 1131.8446830707671 152.37647858688513 L 1133.2495349738174 145.928218686651 L 1134.6543868768676 139.44672996363977 L 1136.059238779918 132.93201241785061 L 1137.464090682968 126.38406604928457 L 1138.8689425860182 119.8028908579405 L 1140.2737944890685 113.18848684381942 L 1141.6786463921187 106.54085400692043 L 1143.0834982951687 99.85999234724443 L 1144.488350198219 93.14590186479052 L 1145.8932021012693 86.39858255955949 L 1147.2980540043195 79.61803443155054 L 1148.7029059073698 72.8042574807647 L 1150.1077578104198 65.95725170720107 L 1151.51260971347 59.07701711085997 L 1152.9174616165203 52.16355369174141 L 1154.3223135195706 45.21686144984528 L 1155.7271654226206 38.236940385171806 L 1157.1320173256709 31.223790497720756 L 1158.5368692287211 24.17741178749236 L 1159.9417211317714 17.09780425448639 L 1161.3465730348216 9.984967898702962 L 1162.7514249378717 2.838902720142073 L 1164.156276840922 -4.3403912811962755 L 1165.5611287439722 -11.552914105312198" stroke-opacity="0.6980392156862745" stroke-linecap="round" stroke-linejoin="round" stroke-miterlimit="10" stroke-width="2.5"/><path fill="none" stroke="rgb(255,127,0)" paint-order="fill stroke markers" d=" M 712.0539942387985 -7.8707848577709 L 713.0097714122734 -1.2154653748658575 L 713.9655485857483 5.409093340247296 L 714.9213257592231 12.00289128757015 L 715.8771029326981 18.565928467101685 L 716.832880106173 25.098204878841898 L 717.788657279648 31.599720522791017 L 718.7444344531227 38.07047539894802 L 719.7002116265977 44.510469507314724 L 720.6559888000726 50.91970284789022 L 721.6117659735476 57.29817542067428 L 722.5675431470223 63.645887225666456 L 723.5233203204973 69.96283826286833 L 724.4790974939722 76.24902853227888 L 725.434874667447 82.504458033898 L 726.3906518409219 88.72912676772557 L 727.3464290143968 94.9230347337625 L 728.3022061878718 101.086181932008 L 729.2579833613466 107.21856836246252 L 730.2137605348215 113.32019402512492 L 731.1695377082964 119.39105891999691 L 732.1253148817714 125.4311630470778 L 733.0810920552462 131.44050640636715 L 734.0368692287211 137.41908899786495 L 734.992646402196 143.3669108215721 L 735.948423575671 149.28397187748783 L 736.9042007491458 155.17027216561246 L 737.8599779226207 161.025811685946 L 738.8157550960956 166.85059043848742 L 739.7715322695705 172.64460842323854 L 740.7273094430454 178.40786564019834 L 741.6830866165203 184.1403620893667 L 742.6388637899952 189.84209777074352 L 743.59464096347 195.5130726843296 L 744.550418136945 201.15328683012444 L 745.5061953104199 206.7627402081281 L 746.4619724838948 212.34143281833985 L 747.4177496573697 217.8893646607612 L 748.3735268308446 223.40653573539112 L 749.3293040043195 228.89294604222994 L 750.2850811777944 234.34859558127687 L 751.2408583512693 239.77348435253327 L 752.1966355247441 245.16761235599836 L 753.1524126982191 250.53097959167224 L 754.108189871694 255.8635860595549 L 755.0639670451689 261.1654317596458 L 756.0197442186437 266.436516691946 L 756.9755213921187 271.676840856455 L 757.9312985655936 276.8864042531728 L 758.8870757390685 282.06520688209883 L 759.8428529125433 287.21324874323415 L 760.7986300860183 292.3305298365783 L 761.7544072594932 297.41705016213115 L 762.710184432968 302.47280971989227 L 763.6659616064429 307.4978085098628 L 764.6217387799179 312.492046532042 L 766.5332931268675 322.3882402730263 L 768.4448474738174 332.1613909428463 L 770.3564018207672 341.81149854150124 L 772.267956167717 351.33856306899094 L 774.1795105146668 360.7425845253162 L 776.0910648616166 370.02356291047613 L 778.0026192085664 379.1814982244716 L 779.9141735555162 388.2163904673018 L 781.825727902466 397.12823963896756 L 783.7372822494158 405.917045739468 L 785.6488365963656 414.582808768804 L 787.5603909433154 423.12552872697455 L 789.4719452902652 431.5452056139808 L 791.383499637215 439.84183942982173 L 793.2950539841647 448.0154301744982 L 795.2066083311145 456.06597784800925 L 797.1181626780643 463.99348245035594 L 799.0297170250141 471.7979439815373 L 800.9412713719639 479.47936244155426 L 802.8528257189137 487.03773783040594 L 804.7643800658635 494.4730701480931 L 806.6759344128134 501.7853593946154 L 808.5874887597631 508.9746055699723 L 810.499043106713 516.0408086741649 L 812.4105974536627 522.983968707192 L 814.3221518006126 529.8040856690548 L 816.2337061475623 536.5011595597523 L 818.1452604945121 543.0751903792853 L 820.0568148414618 549.526178127653 L 821.9683691884117 555.8541228048563 L 823.8799235353614 562.0590244108942 L 825.7914778823113 568.1408829457677 L 827.703032229261 574.0996984094759 L 829.6145865762109 579.9354708020196 L 831.5261409231606 585.648200123398 L 833.4376952701105 591.2378863736119 L 835.3492496170602 596.7045295526607 L 837.26080396401 602.0481296605449 L 839.1723583109599 607.2686866972641 L 841.0839126579097 612.3662006628182 L 842.9954670048595 617.3406715572077 L 844.9070213518092 622.192099380432 L 846.8185756987591 626.9204841324918 L 848.7301300457088 631.5258258133863 L 850.6416843926586 636.0081244231163 L 852.5532387396083 640.3673799616811 L 854.4647930865582 644.6035924290813 L 856.3763474335079 648.7167618253164 L 858.2879017804578 652.7068881503868 L 860.1994561274075 656.5739714042921 L 862.1110104743574 660.3180115870327 L 864.0225648213071 663.9390086986084 L 865.934119168257 667.4369627390192 L 867.8456735152067 670.8118737082651 L 869.7572278621566 674.0637416063462 L 871.6687822091063 677.1925664332623 L 873.5803365560562 680.1983481890137 L 875.4918909030059 683.0810868736002 L 877.4034452499557 685.8407824870216 L 879.3149995969055 688.4774350292782 L 881.2265539438553 690.99104450037 L 883.1381082908051 693.3816109002969 L 885.0496626377549 695.6491342290589 L 886.9612169847047 697.793614486656 L 888.8727713316545 699.8150516730882 L 890.7843256786043 701.7134457883556 L 892.6958800255541 703.488796832458 L 894.6074343725039 705.1411048053957 L 896.5189887194537 706.6703697071683 L 898.4305430664035 708.0765915377763 L 900.3420974133533 709.3597702972191 L 902.253651760303 710.5199059854972 L 904.1652061072527 711.5569986026104 L 906.0767604542027 712.4710481485588 L 907.9883148011523 713.2620546233421 L 909.8998691481022 713.9300180269607 L 911.811423495052 714.4749383594144 L 913.7229778420018 714.8968156207033 L 915.6345321889517 715.1956498108271 L 917.5460865359014 715.3714409297862 L 919.4576408828513 715.4241889775803 L 921.369195229801 715.3538939542096 L 923.2807495767508 715.160555859674 L 925.1923039237006 714.8441746939735 L 927.1038582706503 714.4047504571082 L 929.0154126176001 713.842283149078 L 930.92696696455 713.1567727698828 L 932.8385213114998 712.3482193195229 L 934.7500756584495 711.4166227979979 L 936.6616300053993 710.3619832053082 L 938.5731843523491 709.1843005414535 L 940.4847386992989 707.883574806434 L 942.3962930462487 706.4598060002496 L 944.3078473931986 704.9129941229003 L 946.2194017401483 703.2431391743861 L 948.1309560870982 701.4502411547071 L 950.0425104340479 699.5343000638632 L 951.9540647809977 697.4953159018544 L 953.8656191279475 695.3332886686807 L 955.7771734748974 693.0482183643421 L 957.6887278218471 690.6401049888385 L 959.6002821687969 688.1089485421704 L 961.5118365157466 685.4547490243372 L 963.4233908626965 682.677506435339 L 965.3349452096463 679.7772207751759 L 967.246499556596 676.7538920438484 L 969.1580539035458 673.6075202413556 L 971.0696082504957 670.3381053676978 L 972.9811625974455 666.9456474228753 L 974.8927169443951 663.4301464068882 L 976.804271291345 659.7916023197358 L 978.7158256382949 656.0300151614186 M 978.7158256382949 656.0300151614186 L 980.120677541345 653.2036969439296 L 981.5255294443953 650.3441499036629 L 982.9303813474455 647.4513740406188 L 984.3352332504957 644.5253693547972 L 985.7400851535458 641.5661358461982 L 987.1449370565961 638.5736735148217 L 988.5497889596463 635.5479823606677 L 989.9546408626965 632.4890623837363 L 991.3594927657467 629.3969135840273 L 992.7643446687969 626.271535961541 L 994.1691965718471 623.1129295162771 L 995.5740484748974 619.9210942482357 L 996.9789003779474 616.696030157417 L 998.3837522809977 613.4377372438206 L 999.7886041840479 610.1462155074469 L 1001.1934560870981 606.8214649482956 L 1002.5983079901483 603.4634855663669 L 1004.0031598931985 600.0722773616607 L 1005.4080117962487 596.647840334177 L 1006.812863699299 593.1901744839158 L 1008.2177156023491 589.6992798108772 L 1009.6225675053993 586.175156315061 L 1011.0274194084495 582.6178039964675 L 1012.4322713114998 579.0272228550964 L 1013.83712321455 575.4034128909478 L 1015.2419751176002 571.7463741040218 L 1016.6468270206503 568.0561064943183 L 1018.0516789237006 564.3326100618374 L 1019.4565308267508 560.5758848065789 L 1020.861382729801 556.785930728543 L 1022.2662346328511 552.9627478277296 L 1023.6710865359014 549.1063361041388 L 1025.0759384389517 545.2166955577704 L 1026.480790342002 541.2938261886246 L 1027.8856422450522 537.3377279967013 L 1029.2904941481022 533.3484009820005 L 1030.6953460511525 529.3258451445223 L 1032.1001979542025 525.2700604842667 L 1033.5050498572527 521.1810470012333 L 1034.909901760303 517.0588046954229 L 1036.3147536633533 512.9033335668348 L 1037.7196055664035 508.71463361546915 L 1039.1244574694538 504.49270484132603 L 1040.5293093725038 500.2375472444055 L 1041.934161275554 495.94916082470746 L 1043.3390131786043 491.6275455822319 L 1044.7438650816543 487.27270151697894 L 1046.1487169847046 482.88462862894846 L 1047.5535688877549 478.4633269181405 L 1048.9584207908051 474.00879638455507 L 1050.3632726938554 469.5210370281922 L 1051.7681245969056 465.00004884905184 L 1053.1729764999557 460.44583184713395 L 1054.577828403006 455.8583860224387 L 1055.9826803060562 451.2377113749659 L 1057.3875322091062 446.5838079047156 L 1058.7923841121565 441.89667561168784 L 1060.1972360152067 437.17631449588265 L 1061.602087918257 432.42272455729994 L 1063.0069398213072 427.6359057959398 L 1064.4117917243573 422.8158582118023 L 1065.8166436274075 417.962581804887 L 1067.2214955304578 413.07607657519463 L 1068.626347433508 408.1563425227244 L 1070.031199336558 403.203379647477 L 1071.4360512396083 398.2171879494518 L 1072.8409031426586 393.1977674286495 L 1074.2457550457088 388.1451180850695 L 1075.650606948759 383.0592399187121 L 1077.0554588518091 377.94013292957715 L 1078.4603107548594 372.78779711766475 L 1079.8651626579097 367.60223248297484 L 1081.2700145609597 362.3834390255075 L 1082.67486646401 357.13141674526275 L 1084.0797183670602 351.8461656422404 L 1085.4845702701105 346.52768571644066 L 1086.8894221731607 341.17597696786345 L 1088.294274076211 335.79103939650867 L 1089.699125979261 330.3728730023765 L 1091.1039778823113 324.92147778546683 L 1092.5088297853615 319.4368537457797 L 1093.9136816884115 313.91900088331505 L 1095.3185335914618 308.36791919807297 L 1096.723385494512 302.78360869005337 L 1098.1282373975623 297.1660693592563 L 1099.5330893006126 291.515301205682 L 1100.9379412036628 285.8313042293298 L 1102.3427931067129 280.1140784302005 L 1103.7476450097631 274.36362380829337 L 1105.1524969128134 268.5799403636091 L 1106.5573488158636 262.7630280961471 L 1107.9622007189137 256.9128870059079 L 1109.367052621964 251.02951709289084 L 1110.7719045250142 245.11291835709676 L 1112.1767564280644 239.16309079852476 L 1113.5816083311145 233.18003441717565 L 1114.9864602341647 227.16374921304896 L 1116.391312137215 221.1142351861447 L 1117.7961640402652 215.03149233646297 L 1119.2010159433153 208.9155206640038 L 1120.6058678463655 202.76632016876715 L 1122.0107197494158 196.58389085075305 L 1123.415571652466 190.36823270996138 L 1124.8204235555163 184.11934574639236 L 1126.2252754585663 177.83722996004587 L 1127.6301273616166 171.52188535092182 L 1129.0349792646668 165.1733119190203 L 1130.439831167717 158.79150966434133 L 1131.8446830707671 152.37647858688513 L 1133.2495349738174 145.928218686651 L 1134.6543868768676 139.44672996363977 L 1136.059238779918 132.93201241785061 L 1137.464090682968 126.38406604928457 L 1138.8689425860182 119.8028908579405 L 1140.2737944890685 113.18848684381942 L 1141.6786463921187 106.54085400692043 L 1143.0834982951687 99.85999234724443 L 1144.488350198219 93.14590186479052 L 1145.8932021012693 86.39858255955949 L 1147.2980540043195 79.61803443155054 L 1148.7029059073698 72.8042574807647 L 1150.1077578104198 65.95725170720107 L 1151.51260971347 59.07701711085997 L 1152.9174616165203 52.16355369174141 L 1154.3223135195706 45.21686144984528 L 1155.7271654226206 38.236940385171806 L 1157.1320173256709 31.223790497720756 L 1158.5368692287211 24.17741178749236 L 1159.9417211317714 17.09780425448639 L 1161.3465730348216 9.984967898702962 L 1162.7514249378717 2.838902720142073 L 1164.156276840922 -4.3403912811962755 L 1165.2586528434695 -10" stroke-opacity="0.6980392156862745" stroke-linecap="round" stroke-linejoin="round" stroke-miterlimit="10" stroke-width="2.5"/><path fill="none" stroke="rgb(255,102,153)" paint-order="fill stroke markers" d=" M 882.6602197040677 -6.260246399121343 L 883.1381082908051 1.2643355978466388 L 883.6159968775426 8.74662153910026 L 884.09388546428 16.186611424640887 L 884.5717740510174 23.584305254469996 L 885.0496626377549 30.93970302858486 L 885.5275512244924 38.252804746988204 L 886.0054398112297 45.52361040967719 L 886.4833283979672 52.75212001665318 L 886.9612169847047 59.93833356791788 L 887.4391055714422 67.082251063468 L 887.9169941581795 74.18387250330511 L 888.394882744917 81.24319788743094 L 888.8727713316545 88.26022721584229 L 889.350659918392 95.23496048854236 L 889.8285485051294 102.16739770552783 L 890.3064370918668 109.05753886680054 L 890.7843256786043 115.90538397236173 L 891.2622142653418 122.71093302220834 L 891.7401028520792 129.47418601634377 L 892.2179914388166 136.1951429547645 L 892.6958800255541 142.87380383747245 L 893.1737686122915 149.510168664469 L 893.6516571990289 156.1042374357511 L 894.1295457857664 162.6560101513204 L 894.6074343725039 169.16548681117808 L 895.0853229592412 175.63266741532152 L 895.5632115459788 182.05755196375333 L 896.0411001327162 188.44014045647077 L 896.5189887194537 194.78043289347534 L 896.9968773061912 201.07842927476827 L 897.4747658929285 207.33412960034707 L 897.952654479666 213.547533870213 L 898.4305430664035 219.71864208436716 L 898.908431653141 225.8474542428072 L 899.3863202398784 231.9339703455355 L 899.8642088266158 237.97819039254966 L 900.3420974133533 243.98011438385083 L 900.8199860000907 249.93974231944037 L 901.2978745868281 255.85707419931566 L 901.7757631735657 261.73211002347944 L 902.253651760303 267.5648497919288 L 902.7315403470404 273.3552935046655 L 903.209428933778 279.1034411616903 L 903.6873175205154 284.8092927630011 L 904.1652061072527 290.4728483085988 L 904.6430946939903 296.0941077984849 L 905.1209832807277 301.673071232657 L 905.5988718674653 307.2097386111172 L 906.0767604542027 312.7041099338632 L 906.55464904094 318.1561852008965 L 907.0325376276776 323.5659644122179 L 907.510426214415 328.9334475678252 L 907.9883148011523 334.25863466771966 L 908.4662033878899 339.54152571190224 L 908.9440919746273 344.7821207003708 L 909.4219805613648 349.98041963312755 L 909.8998691481022 355.13642251017023 L 910.3777577348396 360.25012933150003 L 910.8556463215772 365.321540097118 L 911.3335349083145 370.35065480702195 L 911.811423495052 375.3374734612141 L 912.7672006685269 385.18422260245734 L 913.7229778420018 394.86178752084993 L 914.6787550154768 404.3701682163908 L 915.6345321889517 413.70936468907996 L 916.5903093624265 422.8793769389165 L 917.5460865359014 431.88020496590224 L 918.5018637093763 440.7118487700363 L 919.4576408828513 449.3743083513185 L 920.413418056326 457.86758370974826 L 921.369195229801 466.1916748453272 L 922.3249724032759 474.34658175805436 L 923.2807495767508 482.33230444792986 L 924.2365267502256 490.14884291495275 L 925.1923039237006 497.7961971591248 L 926.1480810971755 505.27436718044515 L 927.1038582706503 512.5833529789137 L 928.0596354441253 519.7231545545305 L 929.0154126176001 526.6937719072951 L 929.9711897910751 533.4952050372085 L 930.92696696455 540.1274539442702 L 931.8827441380249 546.5905186284803 L 932.8385213114998 552.8843990898379 L 933.7942984849747 559.0090953283445 L 934.7500756584495 564.9646073439994 L 935.7058528319245 570.7509351368026 L 936.6616300053993 576.3680787067534 L 937.6174071788743 581.8160380538532 L 938.5731843523491 587.0948131781013 L 939.5289615258241 592.2044040794975 L 940.4847386992989 597.1448107580416 L 942.3962930462487 606.5180714465757 L 944.3078473931986 615.2145952437029 L 946.2194017401483 623.2343821494228 L 948.1309560870982 630.5774321637363 L 950.0425104340479 637.2437452866426 L 951.9540647809977 643.233321518142 L 953.8656191279475 648.546160858235 L 955.7771734748974 653.182263306921 L 957.6887278218471 657.1416288642001 L 959.6002821687969 660.4242575300722 L 961.5118365157466 663.0301493045376 L 963.4233908626965 664.9593041875963 L 964.3791680361713 665.670105294848 L 965.3349452096463 666.211722179248 L 966.2907223831212 666.5841548407964 L 967.246499556596 666.7874032794929 L 968.2022767300709 666.8214674953379 L 969.1580539035458 666.686347488331 L 970.1138310770209 666.3820432584724 L 971.0696082504957 665.9085548057622 L 972.0253854239704 665.2658821302003 L 972.9811625974455 664.4540252317865 L 974.8927169443951 662.3227587664043 L 976.804271291345 659.5147554096148 L 978.7158256382949 656.0300151614186 M 978.7158256382949 656.0300151614186 L 980.120677541345 653.2036969439296 L 981.5255294443953 650.3441499036629 L 982.9303813474455 647.4513740406188 L 984.3352332504957 644.5253693547972 L 985.7400851535458 641.5661358461982 L 987.1449370565961 638.5736735148217 L 988.5497889596463 635.5479823606677 L 989.9546408626965 632.4890623837363 L 991.3594927657467 629.3969135840273 L 992.7643446687969 626.271535961541 L 994.1691965718471 623.1129295162771 L 995.5740484748974 619.9210942482357 L 996.9789003779474 616.696030157417 L 998.3837522809977 613.4377372438206 L 999.7886041840479 610.1462155074469 L 1001.1934560870981 606.8214649482956 L 1002.5983079901483 603.4634855663669 L 1004.0031598931985 600.0722773616607 L 1005.4080117962487 596.647840334177 L 1006.812863699299 593.1901744839158 L 1008.2177156023491 589.6992798108772 L 1009.6225675053993 586.175156315061 L 1011.0274194084495 582.6178039964675 L 1012.4322713114998 579.0272228550964 L 1013.83712321455 575.4034128909478 L 1015.2419751176002 571.7463741040218 L 1016.6468270206503 568.0561064943183 L 1018.0516789237006 564.3326100618374 L 1019.4565308267508 560.5758848065789 L 1020.861382729801 556.785930728543 L 1022.2662346328511 552.9627478277296 L 1023.6710865359014 549.1063361041388 L 1025.0759384389517 545.2166955577704 L 1026.480790342002 541.2938261886246 L 1027.8856422450522 537.3377279967013 L 1029.2904941481022 533.3484009820005 L 1030.6953460511525 529.3258451445223 L 1032.1001979542025 525.2700604842667 L 1033.5050498572527 521.1810470012333 L 1034.909901760303 517.0588046954229 L 1036.3147536633533 512.9033335668348 L 1037.7196055664035 508.71463361546915 L 1039.1244574694538 504.49270484132603 L 1040.5293093725038 500.2375472444055 L 1041.934161275554 495.94916082470746 L 1043.3390131786043 491.6275455822319 L 1044.7438650816543 487.27270151697894 L 1046.1487169847046 482.88462862894846 L 1047.5535688877549 478.4633269181405 L 1048.9584207908051 474.00879638455507 L 1050.3632726938554 469.5210370281922 L 1051.7681245969056 465.00004884905184 L 1053.1729764999557 460.44583184713395 L 1054.577828403006 455.8583860224387 L 1055.9826803060562 451.2377113749659 L 1057.3875322091062 446.5838079047156 L 1058.7923841121565 441.89667561168784 L 1060.1972360152067 437.17631449588265 L 1061.602087918257 432.42272455729994 L 1063.0069398213072 427.6359057959398 L 1064.4117917243573 422.8158582118023 L 1065.8166436274075 417.962581804887 L 1067.2214955304578 413.07607657519463 L 1068.626347433508 408.1563425227244 L 1070.031199336558 403.203379647477 L 1071.4360512396083 398.2171879494518 L 1072.8409031426586 393.1977674286495 L 1074.2457550457088 388.1451180850695 L 1075.650606948759 383.0592399187121 L 1077.0554588518091 377.94013292957715 L 1078.4603107548594 372.78779711766475 L 1079.8651626579097 367.60223248297484 L 1081.2700145609597 362.3834390255075 L 1082.67486646401 357.13141674526275 L 1084.0797183670602 351.8461656422404 L 1085.4845702701105 346.52768571644066 L 1086.8894221731607 341.17597696786345 L 1088.294274076211 335.79103939650867 L 1089.699125979261 330.3728730023765 L 1091.1039778823113 324.92147778546683 L 1092.5088297853615 319.4368537457797 L 1093.9136816884115 313.91900088331505 L 1095.3185335914618 308.36791919807297 L 1096.723385494512 302.78360869005337 L 1098.1282373975623 297.1660693592563 L 1099.5330893006126 291.515301205682 L 1100.9379412036628 285.8313042293298 L 1102.3427931067129 280.1140784302005 L 1103.7476450097631 274.36362380829337 L 1105.1524969128134 268.5799403636091 L 1106.5573488158636 262.7630280961471 L 1107.9622007189137 256.9128870059079 L 1109.367052621964 251.02951709289084 L 1110.7719045250142 245.11291835709676 L 1112.1767564280644 239.16309079852476 L 1113.5816083311145 233.18003441717565 L 1114.9864602341647 227.16374921304896 L 1116.391312137215 221.1142351861447 L 1117.7961640402652 215.03149233646297 L 1119.2010159433153 208.9155206640038 L 1120.6058678463655 202.76632016876715 L 1122.0107197494158 196.58389085075305 L 1123.415571652466 190.36823270996138 L 1124.8204235555163 184.11934574639236 L 1126.2252754585663 177.83722996004587 L 1127.6301273616166 171.52188535092182 L 1129.0349792646668 165.1733119190203 L 1130.439831167717 158.79150966434133 L 1131.8446830707671 152.37647858688513 L 1133.2495349738174 145.928218686651 L 1134.6543868768676 139.44672996363977 L 1136.059238779918 132.93201241785061 L 1137.464090682968 126.38406604928457 L 1138.8689425860182 119.8028908579405 L 1140.2737944890685 113.18848684381942 L 1141.6786463921187 106.54085400692043 L 1143.0834982951687 99.85999234724443 L 1144.488350198219 93.14590186479052 L 1145.8932021012693 86.39858255955949 L 1147.2980540043195 79.61803443155054 L 1148.7029059073698 72.8042574807647 L 1150.1077578104198 65.95725170720107 L 1151.51260971347 59.07701711085997 L 1152.9174616165203 52.16355369174141 L 1154.3223135195706 45.21686144984528 L 1155.7271654226206 38.236940385171806 L 1157.1320173256709 31.223790497720756 L 1158.5368692287211 24.17741178749236 L 1159.9417211317714 17.09780425448639 L 1161.3465730348216 9.984967898702962 L 1162.7514249378717 2.838902720142073 L 1164.156276840922 -4.3403912811962755 L 1165.2586528434695 -10" stroke-opacity="0.6980392156862745" stroke-linecap="round" stroke-linejoin="round" stroke-miterlimit="10" stroke-width="2.5"/><g transform="scale(19,19)"><g transform="translate(33,13.95978947368421)"><path fill="rgb(0,0,0)" stroke="none" paint-order="stroke fill markers" d=" M 0.396 -0.38 L 0.396 -0.38 Q 0.368 -0.41600000000000004 0.31 -0.42 Q 0.245 -0.42 0.192 -0.354 Q 0.179 -0.338 0.169 -0.32 Q 0.129 -0.247 0.117 -0.148 Q 0.115 -0.132 0.115 -0.12 Q 0.115 -0.038 0.171 -0.017 Q 0.185 -0.011 0.20500000000000002 -0.011 Q 0.295 -0.011 0.367 -0.07100000000000001 Q 0.388 -0.088 0.405 -0.11 Q 0.41200000000000003 -0.12 0.418 -0.12 Q 0.427 -0.12 0.43 -0.107 Q 0.43 -0.096 0.396 -0.064 Q 0.313 0.011 0.203 0.011 Q 0.108 0.011 0.065 -0.065 Q 0.041 -0.106 0.041 -0.158 Q 0.041 -0.26 0.11900000000000001 -0.34700000000000003 Q 0.196 -0.433 0.291 -0.441 Q 0.3 -0.442 0.309 -0.442 Q 0.386 -0.442 0.41600000000000004 -0.395 Q 0.427 -0.377 0.427 -0.356 Q 0.427 -0.312 0.392 -0.296 Q 0.382 -0.292 0.371 -0.292 Q 0.341 -0.292 0.335 -0.318 Q 0.334 -0.322 0.334 -0.327 Q 0.334 -0.34900000000000003 0.352 -0.366 Q 0.366 -0.38 0.396 -0.38 Z"/></g><g transform="translate(33.433,14.109789473684211) scale(0.7,0.7)"><path fill="rgb(0,0,0)" stroke="none" paint-order="stroke fill markers" d=" M 0.28700000000000003 -0.683 L 0.183 -0.261 Q 0.226 -0.278 0.294 -0.354 Q 0.373 -0.442 0.44 -0.442 Q 0.488 -0.442 0.504 -0.402 Q 0.508 -0.391 0.508 -0.379 Q 0.508 -0.338 0.47400000000000003 -0.322 Q 0.463 -0.318 0.453 -0.318 Q 0.422 -0.318 0.41600000000000004 -0.34500000000000003 Q 0.41500000000000004 -0.34900000000000003 0.41500000000000004 -0.353 Q 0.41500000000000004 -0.381 0.44 -0.397 L 0.441 -0.398 L 0.441 -0.398 Q 0.454 -0.406 0.47200000000000003 -0.40700000000000003 L 0.468 -0.41100000000000003 Q 0.46 -0.417 0.447 -0.419 Q 0.445 -0.42 0.438 -0.42 Q 0.385 -0.42 0.309 -0.339 Q 0.305 -0.335 0.301 -0.33 L 0.295 -0.324 Q 0.243 -0.27 0.209 -0.25 Q 0.357 -0.231 0.357 -0.145 Q 0.357 -0.131 0.353 -0.114 Q 0.34500000000000003 -0.082 0.34500000000000003 -0.058 Q 0.34500000000000003 -0.011 0.377 -0.011 Q 0.423 -0.011 0.451 -0.094 Q 0.458 -0.111 0.464 -0.135 Q 0.47200000000000003 -0.152 0.47800000000000004 -0.153 Q 0.49 -0.153 0.49 -0.14300000000000002 Q 0.49 -0.127 0.47100000000000003 -0.078 Q 0.463 -0.058 0.454 -0.042 Q 0.422 0.011 0.375 0.011 Q 0.32 0.011 0.295 -0.037 Q 0.28300000000000003 -0.06 0.28300000000000003 -0.088 Q 0.28300000000000003 -0.099 0.28700000000000003 -0.123 Q 0.29 -0.133 0.29 -0.14400000000000002 Q 0.29 -0.20700000000000002 0.2 -0.225 Q 0.187 -0.228 0.17400000000000002 -0.229 Q 0.124 -0.021 0.11800000000000001 -0.01 Q 0.108 0.009000000000000001 0.084 0.011 Q 0.06 0.011 0.056 -0.01 Q 0.055 -0.014 0.055 -0.017 Q 0.055 -0.025 0.059000000000000004 -0.039 L 0.20400000000000001 -0.615 L 0.20700000000000002 -0.635 Q 0.20700000000000002 -0.646 0.193 -0.649 L 0.193 -0.649 Q 0.181 -0.652 0.157 -0.652 Q 0.135 -0.652 0.133 -0.664 Q 0.133 -0.681 0.152 -0.684 L 0.274 -0.6940000000000001 Q 0.28700000000000003 -0.6940000000000001 0.28700000000000003 -0.683 Z"/></g><g transform="translate(34.09717777777778,13.95978947368421)"><path fill="rgb(0,0,0)" stroke="none" paint-order="stroke fill markers" d=" M 0.687 -0.327 L 0.09 -0.327 Q 0.058 -0.327 0.056 -0.34700000000000003 Q 0.056 -0.367 0.089 -0.367 L 0.6880000000000001 -0.367 Q 0.72 -0.367 0.721 -0.34700000000000003 Q 0.721 -0.327 0.687 -0.327 M 0.6880000000000001 -0.133 L 0.089 -0.133 Q 0.057 -0.133 0.056 -0.153 Q 0.056 -0.17300000000000001 0.09 -0.17300000000000001 L 0.687 -0.17300000000000001 Q 0.719 -0.17300000000000001 0.721 -0.153 Q 0.721 -0.133 0.6880000000000001 -0.133 Z"/></g><g transform="translate(35.15295555555556,13.95978947368421)"><path fill="rgb(0,0,0)" stroke="none" paint-order="stroke fill markers" d=" M 0.46 -0.32 Q 0.46 -0.17400000000000002 0.423 -0.094 Q 0.364 0.018000000000000002 0.249 0.022 Q 0.158 0.022 0.10300000000000001 -0.05 Q 0.092 -0.063 0.084 -0.079 Q 0.039 -0.162 0.039 -0.32 Q 0.039 -0.467 0.076 -0.547 Q 0.126 -0.659 0.23800000000000002 -0.666 L 0.25 -0.666 Q 0.339 -0.666 0.395 -0.595 L 0.395 -0.594 Q 0.40900000000000003 -0.5760000000000001 0.42 -0.554 Q 0.46 -0.46900000000000003 0.46 -0.32 M 0.249 0 L 0.249 0 Q 0.312 0 0.34600000000000003 -0.061 Q 0.36 -0.088 0.366 -0.125 Q 0.377 -0.189 0.377 -0.332 Q 0.377 -0.47100000000000003 0.367 -0.527 Q 0.34900000000000003 -0.622 0.275 -0.641 Q 0.262 -0.644 0.249 -0.644 Q 0.179 -0.644 0.147 -0.5740000000000001 Q 0.136 -0.55 0.13 -0.516 Q 0.122 -0.462 0.122 -0.332 Q 0.122 -0.181 0.133 -0.121 Q 0.151 -0.025 0.221 -0.004 Q 0.23500000000000001 0 0.249 0 Z"/></g></g><g transform="scale(19,19)"><g transform="translate(40.526315789473685,14.012421052631579)"><path fill="rgb(0,0,0)" stroke="none" paint-order="stroke fill markers" d=" M 0.396 -0.38 L 0.396 -0.38 Q 0.368 -0.41600000000000004 0.31 -0.42 Q 0.245 -0.42 0.192 -0.354 Q 0.179 -0.338 0.169 -0.32 Q 0.129 -0.247 0.117 -0.148 Q 0.115 -0.132 0.115 -0.12 Q 0.115 -0.038 0.171 -0.017 Q 0.185 -0.011 0.20500000000000002 -0.011 Q 0.295 -0.011 0.367 -0.07100000000000001 Q 0.388 -0.088 0.405 -0.11 Q 0.41200000000000003 -0.12 0.418 -0.12 Q 0.427 -0.12 0.43 -0.107 Q 0.43 -0.096 0.396 -0.064 Q 0.313 0.011 0.203 0.011 Q 0.108 0.011 0.065 -0.065 Q 0.041 -0.106 0.041 -0.158 Q 0.041 -0.26 0.11900000000000001 -0.34700000000000003 Q 0.196 -0.433 0.291 -0.441 Q 0.3 -0.442 0.309 -0.442 Q 0.386 -0.442 0.41600000000000004 -0.395 Q 0.427 -0.377 0.427 -0.356 Q 0.427 -0.312 0.392 -0.296 Q 0.382 -0.292 0.371 -0.292 Q 0.341 -0.292 0.335 -0.318 Q 0.334 -0.322 0.334 -0.327 Q 0.334 -0.34900000000000003 0.352 -0.366 Q 0.366 -0.38 0.396 -0.38 Z"/></g><g transform="translate(40.959315789473685,14.16242105263158) scale(0.7,0.7)"><path fill="rgb(0,0,0)" stroke="none" paint-order="stroke fill markers" d=" M 0.28700000000000003 -0.683 L 0.183 -0.261 Q 0.226 -0.278 0.294 -0.354 Q 0.373 -0.442 0.44 -0.442 Q 0.488 -0.442 0.504 -0.402 Q 0.508 -0.391 0.508 -0.379 Q 0.508 -0.338 0.47400000000000003 -0.322 Q 0.463 -0.318 0.453 -0.318 Q 0.422 -0.318 0.41600000000000004 -0.34500000000000003 Q 0.41500000000000004 -0.34900000000000003 0.41500000000000004 -0.353 Q 0.41500000000000004 -0.381 0.44 -0.397 L 0.441 -0.398 L 0.441 -0.398 Q 0.454 -0.406 0.47200000000000003 -0.40700000000000003 L 0.468 -0.41100000000000003 Q 0.46 -0.417 0.447 -0.419 Q 0.445 -0.42 0.438 -0.42 Q 0.385 -0.42 0.309 -0.339 Q 0.305 -0.335 0.301 -0.33 L 0.295 -0.324 Q 0.243 -0.27 0.209 -0.25 Q 0.357 -0.231 0.357 -0.145 Q 0.357 -0.131 0.353 -0.114 Q 0.34500000000000003 -0.082 0.34500000000000003 -0.058 Q 0.34500000000000003 -0.011 0.377 -0.011 Q 0.423 -0.011 0.451 -0.094 Q 0.458 -0.111 0.464 -0.135 Q 0.47200000000000003 -0.152 0.47800000000000004 -0.153 Q 0.49 -0.153 0.49 -0.14300000000000002 Q 0.49 -0.127 0.47100000000000003 -0.078 Q 0.463 -0.058 0.454 -0.042 Q 0.422 0.011 0.375 0.011 Q 0.32 0.011 0.295 -0.037 Q 0.28300000000000003 -0.06 0.28300000000000003 -0.088 Q 0.28300000000000003 -0.099 0.28700000000000003 -0.123 Q 0.29 -0.133 0.29 -0.14400000000000002 Q 0.29 -0.20700000000000002 0.2 -0.225 Q 0.187 -0.228 0.17400000000000002 -0.229 Q 0.124 -0.021 0.11800000000000001 -0.01 Q 0.108 0.009000000000000001 0.084 0.011 Q 0.06 0.011 0.056 -0.01 Q 0.055 -0.014 0.055 -0.017 Q 0.055 -0.025 0.059000000000000004 -0.039 L 0.20400000000000001 -0.615 L 0.20700000000000002 -0.635 Q 0.20700000000000002 -0.646 0.193 -0.649 L 0.193 -0.649 Q 0.181 -0.652 0.157 -0.652 Q 0.135 -0.652 0.133 -0.664 Q 0.133 -0.681 0.152 -0.684 L 0.274 -0.6940000000000001 Q 0.28700000000000003 -0.6940000000000001 0.28700000000000003 -0.683 Z"/></g><g transform="translate(41.623493567251465,14.012421052631579)"><path fill="rgb(0,0,0)" stroke="none" paint-order="stroke fill markers" d=" M 0.687 -0.327 L 0.09 -0.327 Q 0.058 -0.327 0.056 -0.34700000000000003 Q 0.056 -0.367 0.089 -0.367 L 0.6880000000000001 -0.367 Q 0.72 -0.367 0.721 -0.34700000000000003 Q 0.721 -0.327 0.687 -0.327 M 0.6880000000000001 -0.133 L 0.089 -0.133 Q 0.057 -0.133 0.056 -0.153 Q 0.056 -0.17300000000000001 0.09 -0.17300000000000001 L 0.687 -0.17300000000000001 Q 0.719 -0.17300000000000001 0.721 -0.153 Q 0.721 -0.133 0.6880000000000001 -0.133 Z"/></g><g transform="translate(42.67927134502924,14.012421052631579)"><path fill="rgb(0,0,0)" stroke="none" paint-order="stroke fill markers" d=" M 0.294 -0.64 L 0.294 -0.079 Q 0.294 -0.049 0.306 -0.041 Q 0.323 -0.031 0.387 -0.031 L 0.419 -0.031 L 0.419 0 Q 0.384 -0.003 0.257 -0.003 Q 0.13 -0.003 0.095 0 L 0.095 -0.031 L 0.127 -0.031 Q 0.20400000000000001 -0.031 0.215 -0.049 L 0.216 -0.05 Q 0.22 -0.058 0.22 -0.079 L 0.22 -0.597 Q 0.168 -0.5710000000000001 0.089 -0.5710000000000001 L 0.089 -0.602 Q 0.209 -0.602 0.271 -0.666 Q 0.29 -0.666 0.293 -0.659 L 0.293 -0.659 L 0.293 -0.658 Q 0.294 -0.655 0.294 -0.64 Z"/></g></g><g transform="scale(19,19)"><g transform="translate(48.21052631578947,13.907157894736843)"><path fill="rgb(0,0,0)" stroke="none" paint-order="stroke fill markers" d=" M 0.396 -0.38 L 0.396 -0.38 Q 0.368 -0.41600000000000004 0.31 -0.42 Q 0.245 -0.42 0.192 -0.354 Q 0.179 -0.338 0.169 -0.32 Q 0.129 -0.247 0.117 -0.148 Q 0.115 -0.132 0.115 -0.12 Q 0.115 -0.038 0.171 -0.017 Q 0.185 -0.011 0.20500000000000002 -0.011 Q 0.295 -0.011 0.367 -0.07100000000000001 Q 0.388 -0.088 0.405 -0.11 Q 0.41200000000000003 -0.12 0.418 -0.12 Q 0.427 -0.12 0.43 -0.107 Q 0.43 -0.096 0.396 -0.064 Q 0.313 0.011 0.203 0.011 Q 0.108 0.011 0.065 -0.065 Q 0.041 -0.106 0.041 -0.158 Q 0.041 -0.26 0.11900000000000001 -0.34700000000000003 Q 0.196 -0.433 0.291 -0.441 Q 0.3 -0.442 0.309 -0.442 Q 0.386 -0.442 0.41600000000000004 -0.395 Q 0.427 -0.377 0.427 -0.356 Q 0.427 -0.312 0.392 -0.296 Q 0.382 -0.292 0.371 -0.292 Q 0.341 -0.292 0.335 -0.318 Q 0.334 -0.322 0.334 -0.327 Q 0.334 -0.34900000000000003 0.352 -0.366 Q 0.366 -0.38 0.396 -0.38 Z"/></g><g transform="translate(48.64352631578947,14.057157894736843) scale(0.7,0.7)"><path fill="rgb(0,0,0)" stroke="none" paint-order="stroke fill markers" d=" M 0.28700000000000003 -0.683 L 0.183 -0.261 Q 0.226 -0.278 0.294 -0.354 Q 0.373 -0.442 0.44 -0.442 Q 0.488 -0.442 0.504 -0.402 Q 0.508 -0.391 0.508 -0.379 Q 0.508 -0.338 0.47400000000000003 -0.322 Q 0.463 -0.318 0.453 -0.318 Q 0.422 -0.318 0.41600000000000004 -0.34500000000000003 Q 0.41500000000000004 -0.34900000000000003 0.41500000000000004 -0.353 Q 0.41500000000000004 -0.381 0.44 -0.397 L 0.441 -0.398 L 0.441 -0.398 Q 0.454 -0.406 0.47200000000000003 -0.40700000000000003 L 0.468 -0.41100000000000003 Q 0.46 -0.417 0.447 -0.419 Q 0.445 -0.42 0.438 -0.42 Q 0.385 -0.42 0.309 -0.339 Q 0.305 -0.335 0.301 -0.33 L 0.295 -0.324 Q 0.243 -0.27 0.209 -0.25 Q 0.357 -0.231 0.357 -0.145 Q 0.357 -0.131 0.353 -0.114 Q 0.34500000000000003 -0.082 0.34500000000000003 -0.058 Q 0.34500000000000003 -0.011 0.377 -0.011 Q 0.423 -0.011 0.451 -0.094 Q 0.458 -0.111 0.464 -0.135 Q 0.47200000000000003 -0.152 0.47800000000000004 -0.153 Q 0.49 -0.153 0.49 -0.14300000000000002 Q 0.49 -0.127 0.47100000000000003 -0.078 Q 0.463 -0.058 0.454 -0.042 Q 0.422 0.011 0.375 0.011 Q 0.32 0.011 0.295 -0.037 Q 0.28300000000000003 -0.06 0.28300000000000003 -0.088 Q 0.28300000000000003 -0.099 0.28700000000000003 -0.123 Q 0.29 -0.133 0.29 -0.14400000000000002 Q 0.29 -0.20700000000000002 0.2 -0.225 Q 0.187 -0.228 0.17400000000000002 -0.229 Q 0.124 -0.021 0.11800000000000001 -0.01 Q 0.108 0.009000000000000001 0.084 0.011 Q 0.06 0.011 0.056 -0.01 Q 0.055 -0.014 0.055 -0.017 Q 0.055 -0.025 0.059000000000000004 -0.039 L 0.20400000000000001 -0.615 L 0.20700000000000002 -0.635 Q 0.20700000000000002 -0.646 0.193 -0.649 L 0.193 -0.649 Q 0.181 -0.652 0.157 -0.652 Q 0.135 -0.652 0.133 -0.664 Q 0.133 -0.681 0.152 -0.684 L 0.274 -0.6940000000000001 Q 0.28700000000000003 -0.6940000000000001 0.28700000000000003 -0.683 Z"/></g><g transform="translate(49.30770409356725,13.907157894736843)"><path fill="rgb(0,0,0)" stroke="none" paint-order="stroke fill markers" d=" M 0.687 -0.327 L 0.09 -0.327 Q 0.058 -0.327 0.056 -0.34700000000000003 Q 0.056 -0.367 0.089 -0.367 L 0.6880000000000001 -0.367 Q 0.72 -0.367 0.721 -0.34700000000000003 Q 0.721 -0.327 0.687 -0.327 M 0.6880000000000001 -0.133 L 0.089 -0.133 Q 0.057 -0.133 0.056 -0.153 Q 0.056 -0.17300000000000001 0.09 -0.17300000000000001 L 0.687 -0.17300000000000001 Q 0.719 -0.17300000000000001 0.721 -0.153 Q 0.721 -0.133 0.6880000000000001 -0.133 Z"/></g><g transform="translate(50.36348187134503,13.907157894736843)"><path fill="rgb(0,0,0)" stroke="none" paint-order="stroke fill markers" d=" M 0.294 -0.64 L 0.294 -0.079 Q 0.294 -0.049 0.306 -0.041 Q 0.323 -0.031 0.387 -0.031 L 0.419 -0.031 L 0.419 0 Q 0.384 -0.003 0.257 -0.003 Q 0.13 -0.003 0.095 0 L 0.095 -0.031 L 0.127 -0.031 Q 0.20400000000000001 -0.031 0.215 -0.049 L 0.216 -0.05 Q 0.22 -0.058 0.22 -0.079 L 0.22 -0.597 Q 0.168 -0.5710000000000001 0.089 -0.5710000000000001 L 0.089 -0.602 Q 0.209 -0.602 0.271 -0.666 Q 0.29 -0.666 0.293 -0.659 L 0.293 -0.659 L 0.293 -0.658 Q 0.294 -0.655 0.294 -0.64 Z"/></g><g transform="translate(50.86348187134503,13.907157894736843)"><path fill="rgb(0,0,0)" stroke="none" paint-order="stroke fill markers" d=" M 0.46 -0.32 Q 0.46 -0.17400000000000002 0.423 -0.094 Q 0.364 0.018000000000000002 0.249 0.022 Q 0.158 0.022 0.10300000000000001 -0.05 Q 0.092 -0.063 0.084 -0.079 Q 0.039 -0.162 0.039 -0.32 Q 0.039 -0.467 0.076 -0.547 Q 0.126 -0.659 0.23800000000000002 -0.666 L 0.25 -0.666 Q 0.339 -0.666 0.395 -0.595 L 0.395 -0.594 Q 0.40900000000000003 -0.5760000000000001 0.42 -0.554 Q 0.46 -0.46900000000000003 0.46 -0.32 M 0.249 0 L 0.249 0 Q 0.312 0 0.34600000000000003 -0.061 Q 0.36 -0.088 0.366 -0.125 Q 0.377 -0.189 0.377 -0.332 Q 0.377 -0.47100000000000003 0.367 -0.527 Q 0.34900000000000003 -0.622 0.275 -0.641 Q 0.262 -0.644 0.249 -0.644 Q 0.179 -0.644 0.147 -0.5740000000000001 Q 0.136 -0.55 0.13 -0.516 Q 0.122 -0.462 0.122 -0.332 Q 0.122 -0.181 0.133 -0.121 Q 0.151 -0.025 0.221 -0.004 Q 0.23500000000000001 0 0.249 0 Z"/></g></g></g></g></svg>