<svg version="1.1" xmlns="http://www.w3.org/2000/svg" xmlns:xlink="http://www.w3.org/1999/xlink" width="1706" height="762"><defs><clipPath id="iRhDhXQfSIGO"><path fill="none" stroke="none" d=" M 0 0 L 1706 0 L 1706 762 L 0 762 L 0 0 Z"/></clipPath></defs><g transform="scale(1,1)" clip-path="url(#iRhDhXQfSIGO)"><g><rect fill="rgb(255,255,255)" stroke="none" x="0" y="0" width="1707" height="763" fill-opacity="1"/><path fill="rgb(0,0,0)" stroke="none" paint-order="stroke fill markers" d=" M 498.00000000000006 134 L 482.97398089978594 143.01561146012847 L 485.0953012433456 145.1369318036881 L 237.11611652351692 393.1161165235167 C 236.62796115882784 393.6042718882058 236.62796115882787 394.395728111794 237.11611652351695 394.8838834764831 C 237.3601942058615 395.12796115882765 237.68009710293077 395.2499999999999 238.00000000000006 395.2499999999999 C 238.3199028970694 395.2499999999999 238.63980579413874 395.1279611588276 238.8838834764833 394.88388347648305 L 486.86306819631193 146.90469875665448 L 488.9843885398716 149.0260191002141 L 498.00000000000006 134 Z" fill-opacity="0.6980392156862745"/><path fill="rgb(0,0,0)" stroke="none" paint-order="stroke fill markers" d=" M 237.99865993909697 392.74994010597885 C 237.3514950431591 392.74994010597885 236.8036792092377 393.24889829212515 236.75362323966505 393.9048949459984 C 236.7010981687082 394.593249823275 237.21654006872208 395.1938516893781 237.90489494599865 395.24637676033495 L 469.95417100544154 412.9529480259149 L 469.725918875838 415.9442522507191 L 487.0000000000001 412.9999999999999 L 470.372633243048 407.4688902804406 L 470.14438111344447 410.4601945052448 L 238.09510505400158 392.7536232396648 C 238.06274683059823 392.75115413828064 238.0305825200399 392.74994010597885 237.99865993909697 392.74994010597885 Z" fill-opacity="0.6980392156862745"/><path fill="rgb(0,0,0)" stroke="none" paint-order="stroke fill markers" d=" M 237.99915907142466 392.7499474920735 C 237.72856544103064 392.7499474920735 237.4560111873911 392.8374166475105 237.22688373686185 393.0177621247013 C 236.68440873762822 393.44474244667873 236.59078180272408 394.23064126390454 237.0177621247015 394.77311626313815 L 470.5033809460211 691.414681159077 L 468.1460100453044 693.2701601906087 L 481.9999999999999 703.9999999999997 L 482 703.9999999999997 L 474.82522759733496 688.0129696012687 L 472.4678566966183 689.8684486328004 L 238.98223787529872 393.2268837368616 C 238.73560303051207 392.91353618815725 238.36921447326816 392.7499474920735 237.99915907142466 392.7499474920735 Z" fill-opacity="0.6980392156862745"/><path fill="rgb(0,0,0)" stroke="none" paint-order="stroke fill markers" d=" M 832 557.9999999999998 L 814.6741393567437 560.6224135773102 L 815.8291088357402 563.3911760269593 L 481.5187627170849 702.8463489793127 C 480.88161885173264 703.1121289917168 480.5805689669089 703.8440934175627 480.84634897931295 704.4812372829149 C 481.0465222466999 704.961104704733 481.5111343706742 705.2503258815154 482.0005129681649 705.2503258815154 C 482.1609066974651 705.2503258815154 482.3239608393811 705.219257765704 482.48123728291523 705.1536510206869 L 816.7915834015706 565.6984780683335 L 817.9465528805671 568.4672405179826 L 832 557.9999999999998 Z" fill-opacity="0.6980392156862745"/><path fill="rgb(0,0,0)" stroke="none" paint-order="stroke fill markers" d=" M 834.9999999999999 288.99999999999994 L 820.7481692830321 299.1954804308029 L 823.0333077926589 301.13922475344935 L 481.0478589543222 703.1901065322304 C 480.6005671430856 703.7159595114463 480.6642535530149 704.504849234441 481.1901065322307 704.9521410456776 C 481.4252865972148 705.152185775652 481.7130791398377 705.2500248979658 481.99939608354305 705.2500248979658 C 482.35327208245644 705.2500248979658 482.70489396441576 705.1005663820009 482.95214104567793 704.8098934677691 L 824.9375898840146 302.7590116889881 L 827.2227283936414 304.70275601163456 L 835 288.99999999999994 Z" fill-opacity="0.6980392156862745"/><path fill="rgb(0,0,0)" stroke="none" paint-order="stroke fill markers" d=" M 835 288.99999999999994 L 817.5597131219348 290.70261375854454 L 818.5666643432044 293.5285736375916 L 486.5804369911378 411.8225167170636 C 485.9301309307914 412.0542349684514 485.590798465676 412.7692569485158 485.8225167170638 413.4195630088622 C 486.00482278742425 413.9311961740673 486.4862877527894 414.2503406171603 487.00002991537815 414.2503406171603 C 487.13927443251924 414.2503406171603 487.2808901137211 414.22689546396356 487.41956300886244 414.1774832829362 L 819.4057903609291 295.8835402034642 L 820.4127415821987 298.7095000825112 L 835 288.99999999999994 Z" fill-opacity="0.6980392156862745"/><path fill="rgb(0,0,0)" stroke="none" paint-order="stroke fill markers" d=" M 498.00078113047056 132.7496975145025 C 497.5276661767767 132.7496975145025 497.0750144995934 133.01967289222546 496.8643613473678 133.4776736167418 C 496.57588845146 134.104869525909 496.85047770757467 134.8471657567245 497.47767361674187 135.13563865263228 L 819.0329879409429 283.03199984032113 L 817.7794046211233 285.75753260663856 L 834.9999999999997 288.9999999999999 L 834.9999999999999 288.9999999999999 L 821.3312240272788 278.03518976873914 L 820.0776407074592 280.7607225350566 L 498.52232638325825 132.86436134736772 C 498.3531311986074 132.78654160368558 498.17555983204545 132.7496975145025 498.00078113047056 132.7496975145025 Z" fill-opacity="0.6980392156862745"/><path fill="rgb(0,0,0)" stroke="none" paint-order="stroke fill markers" d=" M 497.99916128565076 132.74994782337052 C 497.72840493096055 132.74994782337052 497.4556923769008 132.83752123255513 497.22649631920655 133.01806718366333 C 496.6841897993854 133.44526147050357 496.59087289682316 134.23119716097236 497.0180671836634 134.7735036807935 L 820.4984171248715 545.4192173786145 L 818.1417783656634 547.2756262125189 L 831.9999999999999 557.9999999999997 L 832 557.9999999999997 L 824.8189215167529 542.015801183123 L 822.4622827575449 543.8722100170273 L 822.4622827575447 543.8722100170273 L 498.9819328163367 133.2264963192065 C 498.7352844806047 132.9133858570796 498.369048308114 132.74994782337052 497.99916128565076 132.74994782337052 Z" fill-opacity="0.6980392156862745"/><path fill="rgb(0,0,0)" stroke="none" paint-order="stroke fill markers" d=" M 487.0005348923035 411.7496755214019 C 486.5123765005084 411.7496755214019 486.0486426444789 412.0374317422461 485.847641654159 412.5156754778348 C 485.58015660659817 413.15210541858306 485.8792455370868 413.8848732982801 486.51567547783503 414.152358345841 L 815.8436019743964 552.5655448443957 L 814.6812231212002 555.3312048744143 L 832 557.9999999999998 L 817.9746298719228 547.495168122695 L 816.8122510187267 550.2608281527135 L 487.4843245221652 411.8476416541588 C 487.32613831700564 411.7811575969178 487.16200051698087 411.7496755214019 487.0005348923035 411.7496755214019 Z" fill-opacity="0.6980392156862745"/><path fill="rgb(0,0,0)" stroke="none" paint-order="stroke fill markers" d=" M 1121 127.99999999999994 L 1104.1011435422968 132.63585487498676 L 1105.572795139154 135.2500931153671 L 834.3868118346427 287.91073406650816 C 833.785226871065 288.2493885390117 833.5720795940047 289.01160320177956 833.9107340665082 289.61318816535726 C 834.1402629711904 290.0209227413766 834.564362051999 290.25022131038446 835.0011467872345 290.25022131038446 C 835.2088085730746 290.25022131038446 835.419337777799 290.19839150131304 835.6131881653573 290.08926593349173 L 1106.7991714698687 137.42862498235073 L 1108.270823066726 140.04286322273106 L 1121 127.99999999999994 Z" fill-opacity="0.6980392156862745"/><path fill="rgb(0,0,0)" stroke="none" paint-order="stroke fill markers" d=" M 835.000594157911 287.7496797144676 C 834.515813446036 287.7496797144676 834.0545271544809 288.0333982603304 833.8512695413691 288.50713253970895 C 833.5790663593625 289.14155885367694 833.872706225741 289.8765272766243 834.507132539709 290.14873045863084 L 1114.8843983023287 410.44573299867375 L 1113.7015163976303 413.2026860993879 L 1130.9999999999998 415.9999999999999 L 1117.053015127609 405.3913189806978 L 1115.8701332229105 408.14827208141196 L 835.492867460291 287.85126954136905 C 835.3321754257015 287.7823239724743 835.1650331742793 287.7496797144676 835.000594157911 287.7496797144676 Z" fill-opacity="0.6980392156862745"/><path fill="rgb(0,0,0)" stroke="none" paint-order="stroke fill markers" d=" M 1121 128 L 1107.9898031392324 139.7387085168716 L 1110.479700617222 141.41215124045078 L 830.9625427175042 557.3027321985085 C 830.5774523441926 557.8757040342318 830.7297603627853 558.6523669091839 831.3027321985087 559.0374572824956 C 831.5167015050986 559.1812645606454 831.7590766972282 559.2501285459167 831.998857617665 559.2501285459167 C 832.401167454747 559.2501285459167 832.796174187334 559.0562703306246 833.0374572824958 558.6972678014911 L 1112.5546151822136 142.80668684343345 L 1115.0445126602033 144.48012956701263 L 1121 128 Z" fill-opacity="0.6980392156862745"/><path fill="rgb(0,0,0)" stroke="none" paint-order="stroke fill markers" d=" M 834.9988983331796 287.7498888631108 C 834.7527799044315 287.7498888631108 834.504165893308 287.8223965182336 834.286734314923 287.9734757370175 C 833.7198006191466 288.36740149746316 833.5795499765719 289.14633198930045 833.9734757370176 289.7132656850769 L 1120.27306241997 701.7525357085156 L 1120.2730624199703 701.7525357085156 L 1117.8094041888123 703.4643733527004 L 1130.9999999999998 714.9999999999998 L 1124.789769177093 698.6141666941768 L 1122.3261109459352 700.3260043383615 L 1122.326110945935 700.3260043383615 L 836.0265242629824 288.28673431492297 C 835.7836777213207 287.9372321975315 835.3945120366511 287.7498888631108 834.9988983331796 287.7498888631108 Z" fill-opacity="0.6980392156862745"/><path fill="rgb(0,0,0)" stroke="none" paint-order="stroke fill markers" d=" M 1130.9999999999998 415.9999999999999 L 1113.8205552940901 419.4538644438637 L 1115.1075408642505 422.1637847641312 L 831.4637560124331 556.8708665332216 C 830.8401528182079 557.1670259097432 830.5747071567002 557.9126407933414 830.8708665332218 558.5362439875666 C 831.0848020168194 558.9867137734518 831.5332691067816 559.2502923984607 832.0008590662774 559.2502923984607 C 832.1805724364738 559.2502923984607 832.3631105792268 559.211357359702 832.5362439875669 559.129133466778 L 1116.180028839384 424.4220516976875 L 1116.1800288393842 424.4220516976875 L 1117.4670144095446 427.1319720179549 L 1130.9999999999998 415.9999999999999 Z" fill-opacity="0.6980392156862745"/><path fill="rgb(0,0,0)" stroke="none" paint-order="stroke fill markers" d=" M 832.0010582817886 556.7497463670471 C 831.5513686785273 556.7497463670471 831.1168562721527 556.9931137252041 830.893290707488 557.4188850872092 C 830.5723498032545 558.0301037519597 830.807666422459 558.7857683882784 831.4188850872094 559.1067092925118 L 1115.367638709046 708.2035464785599 L 1113.9729629183487 710.8596487805887 L 1130.9999999999998 714.9999999999998 L 1117.9245443253246 703.334025591507 L 1116.5298685346272 705.9901278935358 L 832.5811149127906 556.8932907074877 C 832.3956676100452 556.7959153679191 832.1969233197863 556.7497463670471 832.0010582817886 556.7497463670471 Z" fill-opacity="0.6980392156862745"/><path fill="rgb(0,0,0)" stroke="none" paint-order="stroke fill markers" d=" M 1121.0007518389255 126.74995958423692 C 1120.6371642603249 126.74995958423692 1120.2766491929951 126.90781566226299 1120.0296038517638 127.2120715035689 C 1119.5944429592278 127.74800649753432 1119.6761365096036 128.53523525570023 1120.212071503569 128.9703961482362 L 1458.0146838875557 403.2545685967725 L 1456.1236554961208 405.58351935253955 L 1471.9999999999998 412.9999999999999 L 1461.4815692718528 398.98482554453307 L 1459.590540880418 401.31377630030005 L 1459.5905408804178 401.31377630030005 L 1121.787928496431 127.0296038517637 C 1121.5562493437715 126.84148830045898 1121.2776098337174 126.74995958423692 1121.0007518389255 126.74995958423692 Z" fill-opacity="0.6980392156862745"/><path fill="rgb(0,0,0)" stroke="none" paint-order="stroke fill markers" d=" M 1454.963269268452 408.8997187924804 L 1454.9896612089974 411.89960270114653 L 1454.9896612089976 411.89960270114653 L 1130.989003358106 414.75004837138897 C 1130.298674135598 414.7561216490063 1129.7439750937715 415.32066741938576 1129.7500483713889 416.0109966418937 C 1129.7560886938074 416.69757995681385 1130.3145571161199 417.2500010274458 1130.9997700990882 417.2500010274458 C 1131.0035085303266 417.2500010274458 1131.0072507343057 417.2499845838095 1131.0109966418936 417.2499516286108 L 1455.0116544927853 414.39950595836837 L 1455.0116544927855 414.39950595836837 L 1455.038046433331 417.39938986703453 L 1471.9999999999998 412.9999999999999 L 1454.9632692684522 408.8997187924804 Z" fill-opacity="0.6980392156862745"/><path fill="rgb(0,0,0)" stroke="none" paint-order="stroke fill markers" d=" M 1471.9999999999998 412.9999999999999 L 1456.4557212913066 421.08936953207495 L 1458.4447215751957 423.3352274685192 L 1458.4447215751954 423.3352274685192 L 1130.1712498817126 714.0642258598147 C 1129.6544360948023 714.5219319115652 1129.6065198080641 715.3119363313767 1130.0642258598145 715.828750118287 C 1130.311244551585 716.1076685748887 1130.6550496873292 716.2500142222569 1131.0004634485686 716.2500142222569 C 1131.2950740018618 716.2500142222569 1131.5908547879785 716.1464615001648 1131.828750118287 715.9357741401849 L 1460.1022218117698 425.20677574888936 L 1462.0912220956586 427.4526336853335 L 1471.9999999999998 412.9999999999999 Z" fill-opacity="0.6980392156862745"/><path fill="rgb(0,0,0)" stroke="none" paint-order="stroke fill markers" d=" M 245.0000000000001 393.9999999999999 C 245.0000000000001 397.8659932488154 241.86599324881567 400.9999999999999 238.0000000000001 400.9999999999999 C 234.13400675118456 400.9999999999999 231.0000000000001 397.8659932488154 231.0000000000001 393.9999999999999 C 231.0000000000001 390.13400675118436 234.13400675118456 386.9999999999999 238.0000000000001 386.9999999999999 C 241.86599324881567 386.9999999999999 245.0000000000001 390.13400675118436 245.0000000000001 393.9999999999999 Z" fill-opacity="1"/><path fill="none" stroke="rgb(0,0,0)" paint-order="fill stroke markers" d=" M 245.0000000000001 393.9999999999999 C 245.0000000000001 397.8659932488154 241.86599324881567 400.9999999999999 238.0000000000001 400.9999999999999 C 234.13400675118456 400.9999999999999 231.0000000000001 397.8659932488154 231.0000000000001 393.9999999999999 C 231.0000000000001 390.13400675118436 234.13400675118456 386.9999999999999 238.0000000000001 386.9999999999999 C 241.86599324881567 386.9999999999999 245.0000000000001 390.13400675118436 245.0000000000001 393.9999999999999 Z" stroke-opacity="1" stroke-linecap="round" stroke-linejoin="round" stroke-miterlimit="10"/><text fill="rgb(0,0,0)" stroke="none" font-family="geogebra-sans-serif, sans-serif" font-size="16px" font-style="normal" font-weight="normal" text-decoration="normal" x="211" y="395" text-anchor="start" dominant-baseline="alphabetic" fill-opacity="1">A</text><text fill="none" stroke="rgb(255,255,255)" font-family="geogebra-sans-serif, sans-serif" font-size="16px" font-style="normal" font-weight="normal" text-decoration="normal" x="211" y="395" text-anchor="start" dominant-baseline="alphabetic" stroke-opacity="1" stroke-linejoin="bevel" stroke-miterlimit="10" stroke-width="3">A</text><text fill="rgb(0,0,0)" stroke="none" font-family="geogebra-sans-serif, sans-serif" font-size="16px" font-style="normal" font-weight="normal" text-decoration="normal" x="211" y="395" text-anchor="start" dominant-baseline="alphabetic" fill-opacity="1">A</text><path fill="rgb(0,0,0)" stroke="none" paint-order="stroke fill markers" d=" M 505.00000000000006 134 C 505.00000000000006 137.86599324881556 501.8659932488156 141 498.00000000000006 141 C 494.13400675118453 141 491.00000000000006 137.86599324881556 491.00000000000006 134 C 491.00000000000006 130.13400675118444 494.13400675118453 127 498.00000000000006 127 C 501.8659932488156 127 505.00000000000006 130.13400675118444 505.00000000000006 134 Z" fill-opacity="1"/><path fill="none" stroke="rgb(0,0,0)" paint-order="fill stroke markers" d=" M 505.00000000000006 134 C 505.00000000000006 137.86599324881556 501.8659932488156 141 498.00000000000006 141 C 494.13400675118453 141 491.00000000000006 137.86599324881556 491.00000000000006 134 C 491.00000000000006 130.13400675118444 494.13400675118453 127 498.00000000000006 127 C 501.8659932488156 127 505.00000000000006 130.13400675118444 505.00000000000006 134 Z" stroke-opacity="1" stroke-linecap="round" stroke-linejoin="round" stroke-miterlimit="10"/><text fill="rgb(0,0,0)" stroke="none" font-family="geogebra-sans-serif, sans-serif" font-size="16px" font-style="normal" font-weight="normal" text-decoration="normal" x="489" y="112" text-anchor="start" dominant-baseline="alphabetic" fill-opacity="1">B</text><text fill="none" stroke="rgb(255,255,255)" font-family="geogebra-sans-serif, sans-serif" font-size="16px" font-style="normal" font-weight="normal" text-decoration="normal" x="489" y="112" text-anchor="start" dominant-baseline="alphabetic" stroke-opacity="1" stroke-linejoin="bevel" stroke-miterlimit="10" stroke-width="3">B</text><text fill="rgb(0,0,0)" stroke="none" font-family="geogebra-sans-serif, sans-serif" font-size="16px" font-style="normal" font-weight="normal" text-decoration="normal" x="489" y="112" text-anchor="start" dominant-baseline="alphabetic" fill-opacity="1">B</text><text fill="rgb(0,0,0)" stroke="none" font-family="geogebra-sans-serif, sans-serif" font-size="14px" font-style="normal" font-weight="normal" text-decoration="normal" x="499" y="119" text-anchor="start" dominant-baseline="alphabetic" fill-opacity="1">1</text><text fill="none" stroke="rgb(255,255,255)" font-family="geogebra-sans-serif, sans-serif" font-size="14px" font-style="normal" font-weight="normal" text-decoration="normal" x="499" y="119" text-anchor="start" dominant-baseline="alphabetic" stroke-opacity="1" stroke-linejoin="bevel" stroke-miterlimit="10" stroke-width="3">1</text><text fill="rgb(0,0,0)" stroke="none" font-family="geogebra-sans-serif, sans-serif" font-size="14px" font-style="normal" font-weight="normal" text-decoration="normal" x="499" y="119" text-anchor="start" dominant-baseline="alphabetic" fill-opacity="1">1</text><path fill="rgb(0,0,0)" stroke="none" paint-order="stroke fill markers" d=" M 494.0000000000001 412.9999999999999 C 494.0000000000001 416.8659932488154 490.86599324881564 419.9999999999999 487.0000000000001 419.9999999999999 C 483.1340067511846 419.9999999999999 480.0000000000001 416.8659932488154 480.0000000000001 412.9999999999999 C 480.0000000000001 409.13400675118436 483.1340067511846 405.9999999999999 487.0000000000001 405.9999999999999 C 490.86599324881564 405.9999999999999 494.0000000000001 409.13400675118436 494.0000000000001 412.9999999999999 Z" fill-opacity="1"/><path fill="none" stroke="rgb(0,0,0)" paint-order="fill stroke markers" d=" M 494.0000000000001 412.9999999999999 C 494.0000000000001 416.8659932488154 490.86599324881564 419.9999999999999 487.0000000000001 419.9999999999999 C 483.1340067511846 419.9999999999999 480.0000000000001 416.8659932488154 480.0000000000001 412.9999999999999 C 480.0000000000001 409.13400675118436 483.1340067511846 405.9999999999999 487.0000000000001 405.9999999999999 C 490.86599324881564 405.9999999999999 494.0000000000001 409.13400675118436 494.0000000000001 412.9999999999999 Z" stroke-opacity="1" stroke-linecap="round" stroke-linejoin="round" stroke-miterlimit="10"/><text fill="rgb(0,0,0)" stroke="none" font-family="geogebra-sans-serif, sans-serif" font-size="16px" font-style="normal" font-weight="normal" text-decoration="normal" x="481" y="386" text-anchor="start" dominant-baseline="alphabetic" fill-opacity="1">B</text><text fill="none" stroke="rgb(255,255,255)" font-family="geogebra-sans-serif, sans-serif" font-size="16px" font-style="normal" font-weight="normal" text-decoration="normal" x="481" y="386" text-anchor="start" dominant-baseline="alphabetic" stroke-opacity="1" stroke-linejoin="bevel" stroke-miterlimit="10" stroke-width="3">B</text><text fill="rgb(0,0,0)" stroke="none" font-family="geogebra-sans-serif, sans-serif" font-size="16px" font-style="normal" font-weight="normal" text-decoration="normal" x="481" y="386" text-anchor="start" dominant-baseline="alphabetic" fill-opacity="1">B</text><text fill="rgb(0,0,0)" stroke="none" font-family="geogebra-sans-serif, sans-serif" font-size="14px" font-style="normal" font-weight="normal" text-decoration="normal" x="491" y="393" text-anchor="start" dominant-baseline="alphabetic" fill-opacity="1">2</text><text fill="none" stroke="rgb(255,255,255)" font-family="geogebra-sans-serif, sans-serif" font-size="14px" font-style="normal" font-weight="normal" text-decoration="normal" x="491" y="393" text-anchor="start" dominant-baseline="alphabetic" stroke-opacity="1" stroke-linejoin="bevel" stroke-miterlimit="10" stroke-width="3">2</text><text fill="rgb(0,0,0)" stroke="none" font-family="geogebra-sans-serif, sans-serif" font-size="14px" font-style="normal" font-weight="normal" text-decoration="normal" x="491" y="393" text-anchor="start" dominant-baseline="alphabetic" fill-opacity="1">2</text><path fill="rgb(0,0,0)" stroke="none" paint-order="stroke fill markers" d=" M 489.00000000000006 703.9999999999998 C 489.00000000000006 707.8659932488154 485.8659932488156 710.9999999999998 482.00000000000006 710.9999999999998 C 478.13400675118453 710.9999999999998 475.00000000000006 707.8659932488154 475.00000000000006 703.9999999999998 C 475.00000000000006 700.1340067511842 478.13400675118453 696.9999999999998 482.00000000000006 696.9999999999998 C 485.8659932488156 696.9999999999998 489.00000000000006 700.1340067511842 489.00000000000006 703.9999999999998 Z" fill-opacity="1"/><path fill="none" stroke="rgb(0,0,0)" paint-order="fill stroke markers" d=" M 489.00000000000006 703.9999999999998 C 489.00000000000006 707.8659932488154 485.8659932488156 710.9999999999998 482.00000000000006 710.9999999999998 C 478.13400675118453 710.9999999999998 475.00000000000006 707.8659932488154 475.00000000000006 703.9999999999998 C 475.00000000000006 700.1340067511842 478.13400675118453 696.9999999999998 482.00000000000006 696.9999999999998 C 485.8659932488156 696.9999999999998 489.00000000000006 700.1340067511842 489.00000000000006 703.9999999999998 Z" stroke-opacity="1" stroke-linecap="round" stroke-linejoin="round" stroke-miterlimit="10"/><text fill="rgb(0,0,0)" stroke="none" font-family="geogebra-sans-serif, sans-serif" font-size="16px" font-style="normal" font-weight="normal" text-decoration="normal" x="474" y="730" text-anchor="start" dominant-baseline="alphabetic" fill-opacity="1">B</text><text fill="none" stroke="rgb(255,255,255)" font-family="geogebra-sans-serif, sans-serif" font-size="16px" font-style="normal" font-weight="normal" text-decoration="normal" x="474" y="730" text-anchor="start" dominant-baseline="alphabetic" stroke-opacity="1" stroke-linejoin="bevel" stroke-miterlimit="10" stroke-width="3">B</text><text fill="rgb(0,0,0)" stroke="none" font-family="geogebra-sans-serif, sans-serif" font-size="16px" font-style="normal" font-weight="normal" text-decoration="normal" x="474" y="730" text-anchor="start" dominant-baseline="alphabetic" fill-opacity="1">B</text><text fill="rgb(0,0,0)" stroke="none" font-family="geogebra-sans-serif, sans-serif" font-size="14px" font-style="normal" font-weight="normal" text-decoration="normal" x="484" y="737" text-anchor="start" dominant-baseline="alphabetic" fill-opacity="1">3</text><text fill="none" stroke="rgb(255,255,255)" font-family="geogebra-sans-serif, sans-serif" font-size="14px" font-style="normal" font-weight="normal" text-decoration="normal" x="484" y="737" text-anchor="start" dominant-baseline="alphabetic" stroke-opacity="1" stroke-linejoin="bevel" stroke-miterlimit="10" stroke-width="3">3</text><text fill="rgb(0,0,0)" stroke="none" font-family="geogebra-sans-serif, sans-serif" font-size="14px" font-style="normal" font-weight="normal" text-decoration="normal" x="484" y="737" text-anchor="start" dominant-baseline="alphabetic" fill-opacity="1">3</text><path fill="rgb(0,0,0)" stroke="none" paint-order="stroke fill markers" d=" M 842 288.99999999999994 C 842 292.86599324881547 838.8659932488156 295.99999999999994 835 295.99999999999994 C 831.1340067511844 295.99999999999994 828 292.86599324881547 828 288.99999999999994 C 828 285.1340067511844 831.1340067511844 281.99999999999994 835 281.99999999999994 C 838.8659932488156 281.99999999999994 842 285.1340067511844 842 288.99999999999994 Z" fill-opacity="1"/><path fill="none" stroke="rgb(0,0,0)" paint-order="fill stroke markers" d=" M 842 288.99999999999994 C 842 292.86599324881547 838.8659932488156 295.99999999999994 835 295.99999999999994 C 831.1340067511844 295.99999999999994 828 292.86599324881547 828 288.99999999999994 C 828 285.1340067511844 831.1340067511844 281.99999999999994 835 281.99999999999994 C 838.8659932488156 281.99999999999994 842 285.1340067511844 842 288.99999999999994 Z" stroke-opacity="1" stroke-linecap="round" stroke-linejoin="round" stroke-miterlimit="10"/><text fill="rgb(0,0,0)" stroke="none" font-family="geogebra-sans-serif, sans-serif" font-size="16px" font-style="normal" font-weight="normal" text-decoration="normal" x="831" y="259" text-anchor="start" dominant-baseline="alphabetic" fill-opacity="1">C</text><text fill="none" stroke="rgb(255,255,255)" font-family="geogebra-sans-serif, sans-serif" font-size="16px" font-style="normal" font-weight="normal" text-decoration="normal" x="831" y="259" text-anchor="start" dominant-baseline="alphabetic" stroke-opacity="1" stroke-linejoin="bevel" stroke-miterlimit="10" stroke-width="3">C</text><text fill="rgb(0,0,0)" stroke="none" font-family="geogebra-sans-serif, sans-serif" font-size="16px" font-style="normal" font-weight="normal" text-decoration="normal" x="831" y="259" text-anchor="start" dominant-baseline="alphabetic" fill-opacity="1">C</text><text fill="rgb(0,0,0)" stroke="none" font-family="geogebra-sans-serif, sans-serif" font-size="14px" font-style="normal" font-weight="normal" text-decoration="normal" x="842" y="266" text-anchor="start" dominant-baseline="alphabetic" fill-opacity="1">1</text><text fill="none" stroke="rgb(255,255,255)" font-family="geogebra-sans-serif, sans-serif" font-size="14px" font-style="normal" font-weight="normal" text-decoration="normal" x="842" y="266" text-anchor="start" dominant-baseline="alphabetic" stroke-opacity="1" stroke-linejoin="bevel" stroke-miterlimit="10" stroke-width="3">1</text><text fill="rgb(0,0,0)" stroke="none" font-family="geogebra-sans-serif, sans-serif" font-size="14px" font-style="normal" font-weight="normal" text-decoration="normal" x="842" y="266" text-anchor="start" dominant-baseline="alphabetic" fill-opacity="1">1</text><path fill="rgb(0,0,0)" stroke="none" paint-order="stroke fill markers" d=" M 839 557.9999999999998 C 839 561.8659932488154 835.8659932488156 564.9999999999998 832 564.9999999999998 C 828.1340067511844 564.9999999999998 825 561.8659932488154 825 557.9999999999998 C 825 554.1340067511842 828.1340067511844 550.9999999999998 832 550.9999999999998 C 835.8659932488156 550.9999999999998 839 554.1340067511842 839 557.9999999999998 Z" fill-opacity="1"/><path fill="none" stroke="rgb(0,0,0)" paint-order="fill stroke markers" d=" M 839 557.9999999999998 C 839 561.8659932488154 835.8659932488156 564.9999999999998 832 564.9999999999998 C 828.1340067511844 564.9999999999998 825 561.8659932488154 825 557.9999999999998 C 825 554.1340067511842 828.1340067511844 550.9999999999998 832 550.9999999999998 C 835.8659932488156 550.9999999999998 839 554.1340067511842 839 557.9999999999998 Z" stroke-opacity="1" stroke-linecap="round" stroke-linejoin="round" stroke-miterlimit="10"/><text fill="rgb(0,0,0)" stroke="none" font-family="geogebra-sans-serif, sans-serif" font-size="16px" font-style="normal" font-weight="normal" text-decoration="normal" x="824" y="596" text-anchor="start" dominant-baseline="alphabetic" fill-opacity="1">C</text><text fill="none" stroke="rgb(255,255,255)" font-family="geogebra-sans-serif, sans-serif" font-size="16px" font-style="normal" font-weight="normal" text-decoration="normal" x="824" y="596" text-anchor="start" dominant-baseline="alphabetic" stroke-opacity="1" stroke-linejoin="bevel" stroke-miterlimit="10" stroke-width="3">C</text><text fill="rgb(0,0,0)" stroke="none" font-family="geogebra-sans-serif, sans-serif" font-size="16px" font-style="normal" font-weight="normal" text-decoration="normal" x="824" y="596" text-anchor="start" dominant-baseline="alphabetic" fill-opacity="1">C</text><text fill="rgb(0,0,0)" stroke="none" font-family="geogebra-sans-serif, sans-serif" font-size="14px" font-style="normal" font-weight="normal" text-decoration="normal" x="835" y="603" text-anchor="start" dominant-baseline="alphabetic" fill-opacity="1">2</text><text fill="none" stroke="rgb(255,255,255)" font-family="geogebra-sans-serif, sans-serif" font-size="14px" font-style="normal" font-weight="normal" text-decoration="normal" x="835" y="603" text-anchor="start" dominant-baseline="alphabetic" stroke-opacity="1" stroke-linejoin="bevel" stroke-miterlimit="10" stroke-width="3">2</text><text fill="rgb(0,0,0)" stroke="none" font-family="geogebra-sans-serif, sans-serif" font-size="14px" font-style="normal" font-weight="normal" text-decoration="normal" x="835" y="603" text-anchor="start" dominant-baseline="alphabetic" fill-opacity="1">2</text><path fill="rgb(0,0,0)" stroke="none" paint-order="stroke fill markers" d=" M 1128 127.99999999999994 C 1128 131.8659932488155 1124.8659932488156 134.99999999999994 1121 134.99999999999994 C 1117.1340067511844 134.99999999999994 1114 131.8659932488155 1114 127.99999999999994 C 1114 124.13400675118439 1117.1340067511844 120.99999999999994 1121 120.99999999999994 C 1124.8659932488156 120.99999999999994 1128 124.13400675118439 1128 127.99999999999994 Z" fill-opacity="1"/><path fill="none" stroke="rgb(0,0,0)" paint-order="fill stroke markers" d=" M 1128 127.99999999999994 C 1128 131.8659932488155 1124.8659932488156 134.99999999999994 1121 134.99999999999994 C 1117.1340067511844 134.99999999999994 1114 131.8659932488155 1114 127.99999999999994 C 1114 124.13400675118439 1117.1340067511844 120.99999999999994 1121 120.99999999999994 C 1124.8659932488156 120.99999999999994 1128 124.13400675118439 1128 127.99999999999994 Z" stroke-opacity="1" stroke-linecap="round" stroke-linejoin="round" stroke-miterlimit="10"/><text fill="rgb(0,0,0)" stroke="none" font-family="geogebra-sans-serif, sans-serif" font-size="16px" font-style="normal" font-weight="normal" text-decoration="normal" x="1125" y="114" text-anchor="start" dominant-baseline="alphabetic" fill-opacity="1">D</text><text fill="none" stroke="rgb(255,255,255)" font-family="geogebra-sans-serif, sans-serif" font-size="16px" font-style="normal" font-weight="normal" text-decoration="normal" x="1125" y="114" text-anchor="start" dominant-baseline="alphabetic" stroke-opacity="1" stroke-linejoin="bevel" stroke-miterlimit="10" stroke-width="3">D</text><text fill="rgb(0,0,0)" stroke="none" font-family="geogebra-sans-serif, sans-serif" font-size="16px" font-style="normal" font-weight="normal" text-decoration="normal" x="1125" y="114" text-anchor="start" dominant-baseline="alphabetic" fill-opacity="1">D</text><text fill="rgb(0,0,0)" stroke="none" font-family="geogebra-sans-serif, sans-serif" font-size="14px" font-style="normal" font-weight="normal" text-decoration="normal" x="1137" y="121" text-anchor="start" dominant-baseline="alphabetic" fill-opacity="1">1</text><text fill="none" stroke="rgb(255,255,255)" font-family="geogebra-sans-serif, sans-serif" font-size="14px" font-style="normal" font-weight="normal" text-decoration="normal" x="1137" y="121" text-anchor="start" dominant-baseline="alphabetic" stroke-opacity="1" stroke-linejoin="bevel" stroke-miterlimit="10" stroke-width="3">1</text><text fill="rgb(0,0,0)" stroke="none" font-family="geogebra-sans-serif, sans-serif" font-size="14px" font-style="normal" font-weight="normal" text-decoration="normal" x="1137" y="121" text-anchor="start" dominant-baseline="alphabetic" fill-opacity="1">1</text><path fill="rgb(0,0,0)" stroke="none" paint-order="stroke fill markers" d=" M 1137.9999999999998 415.9999999999999 C 1137.9999999999998 419.8659932488154 1134.8659932488154 422.9999999999999 1130.9999999999998 422.9999999999999 C 1127.1340067511842 422.9999999999999 1123.9999999999998 419.8659932488154 1123.9999999999998 415.9999999999999 C 1123.9999999999998 412.13400675118436 1127.1340067511842 408.9999999999999 1130.9999999999998 408.9999999999999 C 1134.8659932488154 408.9999999999999 1137.9999999999998 412.13400675118436 1137.9999999999998 415.9999999999999 Z" fill-opacity="1"/><path fill="none" stroke="rgb(0,0,0)" paint-order="fill stroke markers" d=" M 1137.9999999999998 415.9999999999999 C 1137.9999999999998 419.8659932488154 1134.8659932488154 422.9999999999999 1130.9999999999998 422.9999999999999 C 1127.1340067511842 422.9999999999999 1123.9999999999998 419.8659932488154 1123.9999999999998 415.9999999999999 C 1123.9999999999998 412.13400675118436 1127.1340067511842 408.9999999999999 1130.9999999999998 408.9999999999999 C 1134.8659932488154 408.9999999999999 1137.9999999999998 412.13400675118436 1137.9999999999998 415.9999999999999 Z" stroke-opacity="1" stroke-linecap="round" stroke-linejoin="round" stroke-miterlimit="10"/><text fill="rgb(0,0,0)" stroke="none" font-family="geogebra-sans-serif, sans-serif" font-size="16px" font-style="normal" font-weight="normal" text-decoration="normal" x="1135" y="402" text-anchor="start" dominant-baseline="alphabetic" fill-opacity="1">D</text><text fill="none" stroke="rgb(255,255,255)" font-family="geogebra-sans-serif, sans-serif" font-size="16px" font-style="normal" font-weight="normal" text-decoration="normal" x="1135" y="402" text-anchor="start" dominant-baseline="alphabetic" stroke-opacity="1" stroke-linejoin="bevel" stroke-miterlimit="10" stroke-width="3">D</text><text fill="rgb(0,0,0)" stroke="none" font-family="geogebra-sans-serif, sans-serif" font-size="16px" font-style="normal" font-weight="normal" text-decoration="normal" x="1135" y="402" text-anchor="start" dominant-baseline="alphabetic" fill-opacity="1">D</text><text fill="rgb(0,0,0)" stroke="none" font-family="geogebra-sans-serif, sans-serif" font-size="14px" font-style="normal" font-weight="normal" text-decoration="normal" x="1147" y="409" text-anchor="start" dominant-baseline="alphabetic" fill-opacity="1">2</text><text fill="none" stroke="rgb(255,255,255)" font-family="geogebra-sans-serif, sans-serif" font-size="14px" font-style="normal" font-weight="normal" text-decoration="normal" x="1147" y="409" text-anchor="start" dominant-baseline="alphabetic" stroke-opacity="1" stroke-linejoin="bevel" stroke-miterlimit="10" stroke-width="3">2</text><text fill="rgb(0,0,0)" stroke="none" font-family="geogebra-sans-serif, sans-serif" font-size="14px" font-style="normal" font-weight="normal" text-decoration="normal" x="1147" y="409" text-anchor="start" dominant-baseline="alphabetic" fill-opacity="1">2</text><path fill="rgb(0,0,0)" stroke="none" paint-order="stroke fill markers" d=" M 1137.9999999999998 714.9999999999998 C 1137.9999999999998 718.8659932488154 1134.8659932488154 721.9999999999998 1130.9999999999998 721.9999999999998 C 1127.1340067511842 721.9999999999998 1123.9999999999998 718.8659932488154 1123.9999999999998 714.9999999999998 C 1123.9999999999998 711.1340067511842 1127.1340067511842 707.9999999999998 1130.9999999999998 707.9999999999998 C 1134.8659932488154 707.9999999999998 1137.9999999999998 711.1340067511842 1137.9999999999998 714.9999999999998 Z" fill-opacity="1"/><path fill="none" stroke="rgb(0,0,0)" paint-order="fill stroke markers" d=" M 1137.9999999999998 714.9999999999998 C 1137.9999999999998 718.8659932488154 1134.8659932488154 721.9999999999998 1130.9999999999998 721.9999999999998 C 1127.1340067511842 721.9999999999998 1123.9999999999998 718.8659932488154 1123.9999999999998 714.9999999999998 C 1123.9999999999998 711.1340067511842 1127.1340067511842 707.9999999999998 1130.9999999999998 707.9999999999998 C 1134.8659932488154 707.9999999999998 1137.9999999999998 711.1340067511842 1137.9999999999998 714.9999999999998 Z" stroke-opacity="1" stroke-linecap="round" stroke-linejoin="round" stroke-miterlimit="10"/><text fill="rgb(0,0,0)" stroke="none" font-family="geogebra-sans-serif, sans-serif" font-size="16px" font-style="normal" font-weight="normal" text-decoration="normal" x="1129" y="748" text-anchor="start" dominant-baseline="alphabetic" fill-opacity="1">D</text><text fill="none" stroke="rgb(255,255,255)" font-family="geogebra-sans-serif, sans-serif" font-size="16px" font-style="normal" font-weight="normal" text-decoration="normal" x="1129" y="748" text-anchor="start" dominant-baseline="alphabetic" stroke-opacity="1" stroke-linejoin="bevel" stroke-miterlimit="10" stroke-width="3">D</text><text fill="rgb(0,0,0)" stroke="none" font-family="geogebra-sans-serif, sans-serif" font-size="16px" font-style="normal" font-weight="normal" text-decoration="normal" x="1129" y="748" text-anchor="start" dominant-baseline="alphabetic" fill-opacity="1">D</text><text fill="rgb(0,0,0)" stroke="none" font-family="geogebra-sans-serif, sans-serif" font-size="14px" font-style="normal" font-weight="normal" text-decoration="normal" x="1141" y="755" text-anchor="start" dominant-baseline="alphabetic" fill-opacity="1">3</text><text fill="none" stroke="rgb(255,255,255)" font-family="geogebra-sans-serif, sans-serif" font-size="14px" font-style="normal" font-weight="normal" text-decoration="normal" x="1141" y="755" text-anchor="start" dominant-baseline="alphabetic" stroke-opacity="1" stroke-linejoin="bevel" stroke-miterlimit="10" stroke-width="3">3</text><text fill="rgb(0,0,0)" stroke="none" font-family="geogebra-sans-serif, sans-serif" font-size="14px" font-style="normal" font-weight="normal" text-decoration="normal" x="1141" y="755" text-anchor="start" dominant-baseline="alphabetic" fill-opacity="1">3</text><path fill="rgb(0,0,0)" stroke="none" paint-order="stroke fill markers" d=" M 1478.9999999999998 412.9999999999999 C 1478.9999999999998 416.8659932488154 1475.8659932488154 419.9999999999999 1471.9999999999998 419.9999999999999 C 1468.1340067511842 419.9999999999999 1464.9999999999998 416.8659932488154 1464.9999999999998 412.9999999999999 C 1464.9999999999998 409.13400675118436 1468.1340067511842 405.9999999999999 1471.9999999999998 405.9999999999999 C 1475.8659932488154 405.9999999999999 1478.9999999999998 409.13400675118436 1478.9999999999998 412.9999999999999 Z" fill-opacity="1"/><path fill="none" stroke="rgb(0,0,0)" paint-order="fill stroke markers" d=" M 1478.9999999999998 412.9999999999999 C 1478.9999999999998 416.8659932488154 1475.8659932488154 419.9999999999999 1471.9999999999998 419.9999999999999 C 1468.1340067511842 419.9999999999999 1464.9999999999998 416.8659932488154 1464.9999999999998 412.9999999999999 C 1464.9999999999998 409.13400675118436 1468.1340067511842 405.9999999999999 1471.9999999999998 405.9999999999999 C 1475.8659932488154 405.9999999999999 1478.9999999999998 409.13400675118436 1478.9999999999998 412.9999999999999 Z" stroke-opacity="1" stroke-linecap="round" stroke-linejoin="round" stroke-miterlimit="10"/><text fill="rgb(0,0,0)" stroke="none" font-family="geogebra-sans-serif, sans-serif" font-size="16px" font-style="normal" font-weight="normal" text-decoration="normal" x="1487" y="416" text-anchor="start" dominant-baseline="alphabetic" fill-opacity="1">E</text><text fill="none" stroke="rgb(255,255,255)" font-family="geogebra-sans-serif, sans-serif" font-size="16px" font-style="normal" font-weight="normal" text-decoration="normal" x="1487" y="416" text-anchor="start" dominant-baseline="alphabetic" stroke-opacity="1" stroke-linejoin="bevel" stroke-miterlimit="10" stroke-width="3">E</text><text fill="rgb(0,0,0)" stroke="none" font-family="geogebra-sans-serif, sans-serif" font-size="16px" font-style="normal" font-weight="normal" text-decoration="normal" x="1487" y="416" text-anchor="start" dominant-baseline="alphabetic" fill-opacity="1">E</text><text fill="rgb(0,0,0)" stroke="none" font-family="geogebra-sans-serif, sans-serif" font-size="32px" font-style="normal" font-weight="normal" text-decoration="normal" x="333" y="262" text-anchor="start" dominant-baseline="alphabetic" fill-opacity="1">3</text><text fill="rgb(0,0,0)" stroke="none" font-family="geogebra-sans-serif, sans-serif" font-size="32px" font-style="normal" font-weight="normal" text-decoration="normal" x="369" y="395" text-anchor="start" dominant-baseline="alphabetic" fill-opacity="1">2</text><text fill="rgb(0,0,0)" stroke="none" font-family="geogebra-sans-serif, sans-serif" font-size="32px" font-style="normal" font-weight="normal" text-decoration="normal" x="301" y="565" text-anchor="start" dominant-baseline="alphabetic" fill-opacity="1">1</text><text fill="rgb(0,0,0)" stroke="none" font-family="geogebra-sans-serif, sans-serif" font-size="32px" font-style="normal" font-weight="normal" text-decoration="normal" x="648" y="191" text-anchor="start" dominant-baseline="alphabetic" fill-opacity="1">4</text><text fill="rgb(0,0,0)" stroke="none" font-family="geogebra-sans-serif, sans-serif" font-size="32px" font-style="normal" font-weight="normal" text-decoration="normal" x="596" y="244" text-anchor="start" dominant-baseline="alphabetic" fill-opacity="1">3</text><text fill="rgb(0,0,0)" stroke="none" font-family="geogebra-sans-serif, sans-serif" font-size="32px" font-style="normal" font-weight="normal" text-decoration="normal" x="590" y="364" text-anchor="start" dominant-baseline="alphabetic" fill-opacity="1">1</text><text fill="rgb(0,0,0)" stroke="none" font-family="geogebra-sans-serif, sans-serif" font-size="32px" font-style="normal" font-weight="normal" text-decoration="normal" x="562" y="480" text-anchor="start" dominant-baseline="alphabetic" fill-opacity="1">3</text><text fill="rgb(0,0,0)" stroke="none" font-family="geogebra-sans-serif, sans-serif" font-size="32px" font-style="normal" font-weight="normal" text-decoration="normal" x="550" y="582" text-anchor="start" dominant-baseline="alphabetic" fill-opacity="1">3</text><text fill="rgb(0,0,0)" stroke="none" font-family="geogebra-sans-serif, sans-serif" font-size="32px" font-style="normal" font-weight="normal" text-decoration="normal" x="659" y="672" text-anchor="start" dominant-baseline="alphabetic" fill-opacity="1">5</text><text fill="rgb(0,0,0)" stroke="none" font-family="geogebra-sans-serif, sans-serif" font-size="32px" font-style="normal" font-weight="normal" text-decoration="normal" x="941" y="202" text-anchor="start" dominant-baseline="alphabetic" fill-opacity="1">2</text><text fill="rgb(0,0,0)" stroke="none" font-family="geogebra-sans-serif, sans-serif" font-size="32px" font-style="normal" font-weight="normal" text-decoration="normal" x="932" y="312" text-anchor="start" dominant-baseline="alphabetic" fill-opacity="1">5</text><text fill="rgb(0,0,0)" stroke="none" font-family="geogebra-sans-serif, sans-serif" font-size="32px" font-style="normal" font-weight="normal" text-decoration="normal" x="858" y="387" text-anchor="start" dominant-baseline="alphabetic" fill-opacity="1">1</text><text fill="rgb(0,0,0)" stroke="none" font-family="geogebra-sans-serif, sans-serif" font-size="32px" font-style="normal" font-weight="normal" text-decoration="normal" x="870" y="466" text-anchor="start" dominant-baseline="alphabetic" fill-opacity="1">1</text><text fill="rgb(0,0,0)" stroke="none" font-family="geogebra-sans-serif, sans-serif" font-size="32px" font-style="normal" font-weight="normal" text-decoration="normal" x="944" y="536" text-anchor="start" dominant-baseline="alphabetic" fill-opacity="1">4</text><text fill="rgb(0,0,0)" stroke="none" font-family="geogebra-sans-serif, sans-serif" font-size="32px" font-style="normal" font-weight="normal" text-decoration="normal" x="955" y="669" text-anchor="start" dominant-baseline="alphabetic" fill-opacity="1">2</text><text fill="rgb(0,0,0)" stroke="none" font-family="geogebra-sans-serif, sans-serif" font-size="32px" font-style="normal" font-weight="normal" text-decoration="normal" x="1297" y="244" text-anchor="start" dominant-baseline="alphabetic" fill-opacity="1">3</text><text fill="rgb(0,0,0)" stroke="none" font-family="geogebra-sans-serif, sans-serif" font-size="32px" font-style="normal" font-weight="normal" text-decoration="normal" x="1267" y="394" text-anchor="start" dominant-baseline="alphabetic" fill-opacity="1">1</text><text fill="rgb(0,0,0)" stroke="none" font-family="geogebra-sans-serif, sans-serif" font-size="32px" font-style="normal" font-weight="normal" text-decoration="normal" x="1303" y="608" text-anchor="start" dominant-baseline="alphabetic" fill-opacity="1">5</text></g></g></svg>