<svg version="1.1" xmlns="http://www.w3.org/2000/svg" xmlns:xlink="http://www.w3.org/1999/xlink" width="1706" height="990"><defs><clipPath id="HODBNTqJxrhr"><path fill="none" stroke="none" d=" M 0 0 L 1706 0 L 1706 990 L 0 990 L 0 0 Z"/></clipPath></defs><g transform="scale(1,1)" clip-path="url(#HODBNTqJxrhr)"><g><rect fill="rgb(255,255,255)" stroke="none" x="0" y="0" width="1707" height="991" fill-opacity="1"/><path fill="rgb(0,0,0)" stroke="none" paint-order="stroke fill markers" d=" M 553.29674444396 127.80745993991377 L 537.3319665203288 135.03161150595488 L 539.1947229571923 137.38323614796806 L 137.01021929972998 455.9594917332699 C 136.4690666217674 456.3881467219069 136.37786922561392 457.1743311715059 136.80652421425094 457.71548384946846 C 137.05326072507137 458.0269747386942 137.41845482986002 458.1893852698064 137.78719124414698 458.1893852698064 C 138.05906007693375 458.1893852698064 138.33285454171278 458.1010974127641 138.56251633044954 457.9191789349475 L 540.7470199879118 139.3429233496457 L 542.6097764247753 141.69454799165888 L 553.29674444396 127.80745993991377 Z" fill-opacity="0.6980392156862745"/><path fill="rgb(0,0,0)" stroke="none" paint-order="stroke fill markers" d=" M 549.145952651125 450.22223739395133 L 549.1639440428746 453.22218344510327 L 137.77887140186073 455.6893578127953 C 137.08852787920804 455.69349796750015 136.53225013907155 456.2564882246851 136.53639029377638 456.94683174733774 C 136.54051513398701 457.63462167897 137.0993633334795 458.189335816374 137.78620870471087 458.189335816374 C 137.78875878881607 458.189335816374 137.79131063729844 458.1893281699163 137.7938642283188 458.1893128554221 L 549.1789368693234 455.7221384877301 L 549.1789368693328 455.7221384877301 L 549.1969282610825 458.7220845388821 L 566.1711347459654 454.3702097465017 L 549.1459526511254 450.22223739395133 Z" fill-opacity="0.6980392156862745"/><path fill="rgb(0,0,0)" stroke="none" paint-order="stroke fill markers" d=" M 137.78709433859217 455.68929793968647 C 137.42524650972464 455.68929793968647 137.06631819979935 455.84563115287773 136.81920016135825 456.1474472551635 C 136.38185245178403 456.68159920084906 136.46032779045902 457.469155278266 136.99447973614457 457.9065029878402 L 584.0299113956504 823.9258046378566 L 582.1293800061819 826.2470070068122 L 597.975279565344 833.7283148577798 L 587.5142189430094 819.670266961438 L 585.6136875535409 821.9914693303936 L 138.57825589403495 455.9721676803772 C 138.3459200506352 455.7819380092441 138.06564216909428 455.68929793968647 137.78709433859217 455.68929793968647 Z" fill-opacity="0.6980392156862745"/><path fill="rgb(0,0,0)" stroke="none" paint-order="stroke fill markers" d=" M 553.2960941455585 126.55714003130385 C 552.7506772035002 126.55714003130385 552.2493698389161 126.91691656156 552.0938054611192 127.46769854781377 C 551.9061604256812 128.13206340301375 552.29261819666 128.82275388731654 552.95698305186 129.0103989227547 L 1121.885822975353 289.70022393931396 L 1121.070395634313 292.58727749813204 L 1138.585554534089 293.1180398890343 L 1123.3807731005934 284.40729241481415 L 1122.5653457595533 287.29434597363223 L 553.6365058360601 126.60452095707296 C 553.5229229671139 126.57244029943168 553.4085706291709 126.55714003130385 553.2960941455585 126.55714003130385 Z" fill-opacity="0.6980392156862745"/><path fill="rgb(0,0,0)" stroke="none" paint-order="stroke fill markers" d=" M 553.2972872238645 126.5574401200123 C 552.9471653877077 126.5574401200123 552.5990038249257 126.70371970017322 552.3518117407775 126.98916770210627 C 551.8998814169315 127.51103962369038 551.9565802845684 128.30046231925036 552.4784522061525 128.75239264309639 L 1117.4697550127682 618.0232115684134 L 1115.5058536420302 620.2910500560516 L 1131.1391320138582 628.2070532994137 L 1131.1391320138584 628.2070532994137 L 1121.0702408591214 613.8655076744102 L 1119.1063394883834 616.1333461620484 L 554.1150366817676 126.86252723673128 C 553.8786127621165 126.65778899703346 553.5872776119528 126.5574401200123 553.2972872238645 126.5574401200123 Z" fill-opacity="0.6980392156862745"/><path fill="rgb(0,0,0)" stroke="none" paint-order="stroke fill markers" d=" M 1138.585554534089 293.1180398890343 L 1121.0700371536145 293.6368374355827 L 1121.8834921390817 296.52444734459374 L 565.8321951686875 453.16703895108043 C 565.1677022869345 453.35423011072515 564.7807727908994 454.04465644202674 564.9679639505441 454.7091493237797 C 565.1232324011771 455.26032268261935 565.6247324943379 455.6205292085442 566.1704775850355 455.6205292085442 C 566.282681072955 455.6205292085442 566.3967548003301 455.60530325093464 566.5100743232434 455.573380541923 L 1122.5613712936379 298.9307889354363 L 1123.374826279105 301.8183988444473 L 1138.585554534089 293.1180398890343 Z" fill-opacity="0.6980392156862745"/><path fill="rgb(0,0,0)" stroke="none" paint-order="stroke fill markers" d=" M 1138.5855545340887 293.1180398890345 L 1123.5595354338748 302.1336513491628 L 1125.6808557774345 304.2549716927225 L 597.0913960888607 832.8444313812967 C 596.6032407241717 833.3325867459857 596.6032407241717 834.124042969574 597.0913960888607 834.6121983342631 C 597.3354737712052 834.8562760166076 597.6553766682746 834.9783148577799 597.975279565344 834.9783148577799 C 598.2951824624133 834.9783148577799 598.6150853594827 834.8562760166076 598.8591630418272 834.6121983342631 L 1127.4486227304008 306.0227386456888 L 1129.5699430739605 308.14405898924844 L 1138.585554534089 293.1180398890345 Z" fill-opacity="0.6980392156862745"/><path fill="rgb(0,0,0)" stroke="none" paint-order="stroke fill markers" d=" M 1131.1391320138584 628.2070532994137 L 1113.7481992396847 630.3559965848849 L 1114.8272320112858 633.1552265286036 L 1114.8272320112856 633.1552265286036 L 597.5256825771769 832.5619690478972 C 596.8815275733497 832.8102746080317 596.5606281953267 833.5337568421197 596.8089337554612 834.1779118459469 C 597.0002544715342 834.674236602136 597.473677222996 834.9786515382752 597.9755541117543 834.9786515382752 C 598.1250380611722 834.9786515382752 598.2770463058729 834.9516455117242 598.424876553511 834.8946606676626 L 1115.72642598762 635.487918148369 L 1116.805458759221 638.2871480920876 L 1131.1391320138584 628.2070532994137 Z" fill-opacity="0.6980392156862745"/><path fill="rgb(0,0,0)" stroke="none" paint-order="stroke fill markers" d=" M 1138.5850655925412 291.86771092268 C 1138.0472521840884 291.86771092268 1137.5504855008958 292.2175729339349 1137.388167766832 292.7592015833894 C 1137.1899868429693 293.4205000345946 1137.565417777239 294.1172457324284 1138.226716228444 294.3154266562912 L 1594.0454439763735 430.91725358390414 L 1593.184232042826 433.7909818253207 L 1610.6887423167123 434.60006777341675 L 1595.6243325212108 425.6487518079738 L 1594.7631205876633 428.5224800493903 L 1594.763120587663 428.5224800493903 L 1138.9443928397338 291.92065312177743 C 1138.8247230379832 291.88478993197833 1138.7038924382653 291.86771092268 1138.5850655925412 291.86771092268 Z" fill-opacity="0.6980392156862745"/><path fill="rgb(0,0,0)" stroke="none" paint-order="stroke fill markers" d=" M 1610.6887423167118 434.6000677734168 L 1593.333914156924 437.02337946286536 L 1594.4570176137095 439.8052203327493 L 1130.6711722401978 627.047952936962 C 1130.0310187864925 627.3063999834891 1129.7215846048798 628.034859619369 1129.9800316514068 628.6750130730743 C 1130.1765716271318 629.1618274744858 1130.6449232985142 629.4573845177533 1131.139547823492 629.4573845177533 C 1131.2953469446386 629.4573845177533 1131.4537527352252 629.4280607326673 1131.607091787519 629.3661536618654 L 1595.3929371610307 442.12342105765254 L 1596.516040617816 444.90526192753646 L 1610.6887423167123 434.6000677734168 Z" fill-opacity="0.6980392156862745"/><path fill="rgb(0,0,0)" stroke="none" paint-order="stroke fill markers" d=" M 143.78636781508976 456.9393353341087 C 143.78636781508976 460.25304383309344 141.10007631407453 462.9393353341087 137.78636781508976 462.9393353341087 C 134.472659316105 462.9393353341087 131.78636781508976 460.25304383309344 131.78636781508976 456.9393353341087 C 131.78636781508976 453.62562683512397 134.472659316105 450.9393353341087 137.78636781508976 450.9393353341087 C 141.10007631407453 450.9393353341087 143.78636781508976 453.62562683512397 143.78636781508976 456.9393353341087 Z" fill-opacity="1"/><path fill="none" stroke="rgb(0,0,0)" paint-order="fill stroke markers" d=" M 143.78636781508976 456.9393353341087 C 143.78636781508976 460.25304383309344 141.10007631407453 462.9393353341087 137.78636781508976 462.9393353341087 C 134.472659316105 462.9393353341087 131.78636781508976 460.25304383309344 131.78636781508976 456.9393353341087 C 131.78636781508976 453.62562683512397 134.472659316105 450.9393353341087 137.78636781508976 450.9393353341087 C 141.10007631407453 450.9393353341087 143.78636781508976 453.62562683512397 143.78636781508976 456.9393353341087 Z" stroke-opacity="1" stroke-linecap="round" stroke-linejoin="round" stroke-miterlimit="10"/><path fill="rgb(0,0,0)" stroke="none" paint-order="stroke fill markers" d=" M 559.29674444396 127.80745993991383 C 559.29674444396 131.1211684388986 556.6104529429448 133.80745993991383 553.29674444396 133.80745993991383 C 549.9830359449753 133.80745993991383 547.29674444396 131.1211684388986 547.29674444396 127.80745993991383 C 547.29674444396 124.49375144092906 549.9830359449753 121.80745993991383 553.29674444396 121.80745993991383 C 556.6104529429448 121.80745993991383 559.29674444396 124.49375144092906 559.29674444396 127.80745993991383 Z" fill-opacity="1"/><path fill="none" stroke="rgb(0,0,0)" paint-order="fill stroke markers" d=" M 559.29674444396 127.80745993991383 C 559.29674444396 131.1211684388986 556.6104529429448 133.80745993991383 553.29674444396 133.80745993991383 C 549.9830359449753 133.80745993991383 547.29674444396 131.1211684388986 547.29674444396 127.80745993991383 C 547.29674444396 124.49375144092906 549.9830359449753 121.80745993991383 553.29674444396 121.80745993991383 C 556.6104529429448 121.80745993991383 559.29674444396 124.49375144092906 559.29674444396 127.80745993991383 Z" stroke-opacity="1" stroke-linecap="round" stroke-linejoin="round" stroke-miterlimit="10"/><path fill="rgb(0,0,0)" stroke="none" paint-order="stroke fill markers" d=" M 572.1711347459654 454.3702097465017 C 572.1711347459654 457.68391824548644 569.4848432449502 460.3702097465017 566.1711347459654 460.3702097465017 C 562.8574262469807 460.3702097465017 560.1711347459654 457.68391824548644 560.1711347459654 454.3702097465017 C 560.1711347459654 451.05650124751696 562.8574262469807 448.3702097465017 566.1711347459654 448.3702097465017 C 569.4848432449502 448.3702097465017 572.1711347459654 451.05650124751696 572.1711347459654 454.3702097465017 Z" fill-opacity="1"/><path fill="none" stroke="rgb(0,0,0)" paint-order="fill stroke markers" d=" M 572.1711347459654 454.3702097465017 C 572.1711347459654 457.68391824548644 569.4848432449502 460.3702097465017 566.1711347459654 460.3702097465017 C 562.8574262469807 460.3702097465017 560.1711347459654 457.68391824548644 560.1711347459654 454.3702097465017 C 560.1711347459654 451.05650124751696 562.8574262469807 448.3702097465017 566.1711347459654 448.3702097465017 C 569.4848432449502 448.3702097465017 572.1711347459654 451.05650124751696 572.1711347459654 454.3702097465017 Z" stroke-opacity="1" stroke-linecap="round" stroke-linejoin="round" stroke-miterlimit="10"/><path fill="rgb(0,0,0)" stroke="none" paint-order="stroke fill markers" d=" M 603.975279565344 833.7283148577799 C 603.975279565344 837.0420233567646 601.2889880643287 839.7283148577799 597.975279565344 839.7283148577799 C 594.6615710663592 839.7283148577799 591.975279565344 837.0420233567646 591.975279565344 833.7283148577799 C 591.975279565344 830.4146063587951 594.6615710663592 827.7283148577799 597.975279565344 827.7283148577799 C 601.2889880643287 827.7283148577799 603.975279565344 830.4146063587951 603.975279565344 833.7283148577799 Z" fill-opacity="1"/><path fill="none" stroke="rgb(0,0,0)" paint-order="fill stroke markers" d=" M 603.975279565344 833.7283148577799 C 603.975279565344 837.0420233567646 601.2889880643287 839.7283148577799 597.975279565344 839.7283148577799 C 594.6615710663592 839.7283148577799 591.975279565344 837.0420233567646 591.975279565344 833.7283148577799 C 591.975279565344 830.4146063587951 594.6615710663592 827.7283148577799 597.975279565344 827.7283148577799 C 601.2889880643287 827.7283148577799 603.975279565344 830.4146063587951 603.975279565344 833.7283148577799 Z" stroke-opacity="1" stroke-linecap="round" stroke-linejoin="round" stroke-miterlimit="10"/><path fill="rgb(0,0,0)" stroke="none" paint-order="stroke fill markers" d=" M 1144.585554534089 293.1180398890343 C 1144.585554534089 296.43174838801906 1141.8992630330738 299.1180398890343 1138.585554534089 299.1180398890343 C 1135.271846035104 299.1180398890343 1132.585554534089 296.43174838801906 1132.585554534089 293.1180398890343 C 1132.585554534089 289.8043313900496 1135.271846035104 287.1180398890343 1138.585554534089 287.1180398890343 C 1141.8992630330738 287.1180398890343 1144.585554534089 289.8043313900496 1144.585554534089 293.1180398890343 Z" fill-opacity="1"/><path fill="none" stroke="rgb(0,0,0)" paint-order="fill stroke markers" d=" M 1144.585554534089 293.1180398890343 C 1144.585554534089 296.43174838801906 1141.8992630330738 299.1180398890343 1138.585554534089 299.1180398890343 C 1135.271846035104 299.1180398890343 1132.585554534089 296.43174838801906 1132.585554534089 293.1180398890343 C 1132.585554534089 289.8043313900496 1135.271846035104 287.1180398890343 1138.585554534089 287.1180398890343 C 1141.8992630330738 287.1180398890343 1144.585554534089 289.8043313900496 1144.585554534089 293.1180398890343 Z" stroke-opacity="1" stroke-linecap="round" stroke-linejoin="round" stroke-miterlimit="10"/><path fill="rgb(0,0,0)" stroke="none" paint-order="stroke fill markers" d=" M 1137.1391320138584 628.2070532994137 C 1137.1391320138584 631.5207617983984 1134.4528405128433 634.2070532994137 1131.1391320138584 634.2070532994137 C 1127.8254235148736 634.2070532994137 1125.1391320138584 631.5207617983984 1125.1391320138584 628.2070532994137 C 1125.1391320138584 624.893344800429 1127.8254235148736 622.2070532994137 1131.1391320138584 622.2070532994137 C 1134.4528405128433 622.2070532994137 1137.1391320138584 624.893344800429 1137.1391320138584 628.2070532994137 Z" fill-opacity="1"/><path fill="none" stroke="rgb(0,0,0)" paint-order="fill stroke markers" d=" M 1137.1391320138584 628.2070532994137 C 1137.1391320138584 631.5207617983984 1134.4528405128433 634.2070532994137 1131.1391320138584 634.2070532994137 C 1127.8254235148736 634.2070532994137 1125.1391320138584 631.5207617983984 1125.1391320138584 628.2070532994137 C 1125.1391320138584 624.893344800429 1127.8254235148736 622.2070532994137 1131.1391320138584 622.2070532994137 C 1134.4528405128433 622.2070532994137 1137.1391320138584 624.893344800429 1137.1391320138584 628.2070532994137 Z" stroke-opacity="1" stroke-linecap="round" stroke-linejoin="round" stroke-miterlimit="10"/><path fill="rgb(0,0,0)" stroke="none" paint-order="stroke fill markers" d=" M 1616.6887423167123 434.60006777341675 C 1616.6887423167123 437.9137762724015 1614.002450815697 440.60006777341675 1610.6887423167123 440.60006777341675 C 1607.3750338177274 440.60006777341675 1604.6887423167123 437.9137762724015 1604.6887423167123 434.60006777341675 C 1604.6887423167123 431.286359274432 1607.3750338177274 428.60006777341675 1610.6887423167123 428.60006777341675 C 1614.002450815697 428.60006777341675 1616.6887423167123 431.286359274432 1616.6887423167123 434.60006777341675 Z" fill-opacity="1"/><path fill="none" stroke="rgb(0,0,0)" paint-order="fill stroke markers" d=" M 1616.6887423167123 434.60006777341675 C 1616.6887423167123 437.9137762724015 1614.002450815697 440.60006777341675 1610.6887423167123 440.60006777341675 C 1607.3750338177274 440.60006777341675 1604.6887423167123 437.9137762724015 1604.6887423167123 434.60006777341675 C 1604.6887423167123 431.286359274432 1607.3750338177274 428.60006777341675 1610.6887423167123 428.60006777341675 C 1614.002450815697 428.60006777341675 1616.6887423167123 431.286359274432 1616.6887423167123 434.60006777341675 Z" stroke-opacity="1" stroke-linecap="round" stroke-linejoin="round" stroke-miterlimit="10"/><g transform="scale(35,35)"><g transform="translate(2.257142857142857,13.425857142857142)"><path fill="rgb(0,0,0)" stroke="none" paint-order="stroke fill markers" d=" M 0.179 -0.115 L 0.527 -0.6990000000000001 Q 0.537 -0.715 0.553 -0.716 Q 0.5680000000000001 -0.716 0.5700000000000001 -0.706 Q 0.5710000000000001 -0.7030000000000001 0.5720000000000001 -0.6920000000000001 L 0.633 -0.067 Q 0.636 -0.042 0.645 -0.037 L 0.646 -0.037 L 0.646 -0.037 L 0.646 -0.037 L 0.646 -0.037 L 0.646 -0.036000000000000004 Q 0.658 -0.031 0.6980000000000001 -0.031 Q 0.72 -0.031 0.721 -0.02 Q 0.721 0 0.7030000000000001 0 L 0.591 -0.003 L 0.59 -0.003 L 0.466 0 L 0.465 0 Q 0.451 0 0.451 -0.011 Q 0.459 -0.03 0.47500000000000003 -0.031 Q 0.547 -0.031 0.547 -0.064 Q 0.547 -0.063 0.531 -0.231 L 0.28 -0.231 L 0.20400000000000001 -0.10300000000000001 Q 0.19 -0.078 0.19 -0.066 Q 0.19 -0.035 0.23700000000000002 -0.031 Q 0.253 -0.031 0.253 -0.019 Q 0.253 0 0.234 0 L 0.138 -0.003 L 0.134 -0.003 L 0.05 0 L 0.048 0 Q 0.035 0 0.035 -0.011 Q 0.035 -0.029 0.05 -0.03 L 0.05 -0.031 L 0.056 -0.031 Q 0.11900000000000001 -0.035 0.159 -0.085 Q 0.169 -0.098 0.179 -0.115 M 0.299 -0.262 L 0.528 -0.262 L 0.496 -0.592 L 0.299 -0.262 Z"/></g><g transform="translate(3.007142857142857,13.575857142857142) scale(0.7,0.7)"><path fill="rgb(0,0,0)" stroke="none" paint-order="stroke fill markers" d=" M 0.46 -0.32 Q 0.46 -0.17400000000000002 0.423 -0.094 Q 0.364 0.018000000000000002 0.249 0.022 Q 0.158 0.022 0.10300000000000001 -0.05 Q 0.092 -0.063 0.084 -0.079 Q 0.039 -0.162 0.039 -0.32 Q 0.039 -0.467 0.076 -0.547 Q 0.126 -0.659 0.23800000000000002 -0.666 L 0.25 -0.666 Q 0.339 -0.666 0.395 -0.595 L 0.395 -0.594 Q 0.40900000000000003 -0.5760000000000001 0.42 -0.554 Q 0.46 -0.46900000000000003 0.46 -0.32 M 0.249 0 L 0.249 0 Q 0.312 0 0.34600000000000003 -0.061 Q 0.36 -0.088 0.366 -0.125 Q 0.377 -0.189 0.377 -0.332 Q 0.377 -0.47100000000000003 0.367 -0.527 Q 0.34900000000000003 -0.622 0.275 -0.641 Q 0.262 -0.644 0.249 -0.644 Q 0.179 -0.644 0.147 -0.5740000000000001 Q 0.136 -0.55 0.13 -0.516 Q 0.122 -0.462 0.122 -0.332 Q 0.122 -0.181 0.133 -0.121 Q 0.151 -0.025 0.221 -0.004 Q 0.23500000000000001 0 0.249 0 Z"/></g></g><g transform="scale(35,35)"><g transform="translate(14.142857142857142,3.2830000000000004)"><path fill="rgb(0,0,0)" stroke="none" paint-order="stroke fill markers" d=" M 0.179 -0.115 L 0.527 -0.6990000000000001 Q 0.537 -0.715 0.553 -0.716 Q 0.5680000000000001 -0.716 0.5700000000000001 -0.706 Q 0.5710000000000001 -0.7030000000000001 0.5720000000000001 -0.6920000000000001 L 0.633 -0.067 Q 0.636 -0.042 0.645 -0.037 L 0.646 -0.037 L 0.646 -0.037 L 0.646 -0.037 L 0.646 -0.037 L 0.646 -0.036000000000000004 Q 0.658 -0.031 0.6980000000000001 -0.031 Q 0.72 -0.031 0.721 -0.02 Q 0.721 0 0.7030000000000001 0 L 0.591 -0.003 L 0.59 -0.003 L 0.466 0 L 0.465 0 Q 0.451 0 0.451 -0.011 Q 0.459 -0.03 0.47500000000000003 -0.031 Q 0.547 -0.031 0.547 -0.064 Q 0.547 -0.063 0.531 -0.231 L 0.28 -0.231 L 0.20400000000000001 -0.10300000000000001 Q 0.19 -0.078 0.19 -0.066 Q 0.19 -0.035 0.23700000000000002 -0.031 Q 0.253 -0.031 0.253 -0.019 Q 0.253 0 0.234 0 L 0.138 -0.003 L 0.134 -0.003 L 0.05 0 L 0.048 0 Q 0.035 0 0.035 -0.011 Q 0.035 -0.029 0.05 -0.03 L 0.05 -0.031 L 0.056 -0.031 Q 0.11900000000000001 -0.035 0.159 -0.085 Q 0.169 -0.098 0.179 -0.115 M 0.299 -0.262 L 0.528 -0.262 L 0.496 -0.592 L 0.299 -0.262 Z"/></g><g transform="translate(14.892857142857142,3.4330000000000003) scale(0.7,0.7)"><path fill="rgb(0,0,0)" stroke="none" paint-order="stroke fill markers" d=" M 0.294 -0.64 L 0.294 -0.079 Q 0.294 -0.049 0.306 -0.041 Q 0.323 -0.031 0.387 -0.031 L 0.419 -0.031 L 0.419 0 Q 0.384 -0.003 0.257 -0.003 Q 0.13 -0.003 0.095 0 L 0.095 -0.031 L 0.127 -0.031 Q 0.20400000000000001 -0.031 0.215 -0.049 L 0.216 -0.05 Q 0.22 -0.058 0.22 -0.079 L 0.22 -0.597 Q 0.168 -0.5710000000000001 0.089 -0.5710000000000001 L 0.089 -0.602 Q 0.209 -0.602 0.271 -0.666 Q 0.29 -0.666 0.293 -0.659 L 0.293 -0.659 L 0.293 -0.658 Q 0.294 -0.655 0.294 -0.64 Z"/></g></g><g transform="scale(35,35)"><g transform="translate(16.37142857142857,13.911571428571428)"><path fill="rgb(0,0,0)" stroke="none" paint-order="stroke fill markers" d=" M 0.16 -0.078 L 0.294 -0.615 Q 0.298 -0.631 0.298 -0.634 Q 0.298 -0.646 0.28200000000000003 -0.649 L 0.281 -0.649 L 0.28 -0.649 Q 0.277 -0.649 0.271 -0.65 Q 0.254 -0.652 0.233 -0.652 Q 0.20700000000000002 -0.652 0.20500000000000002 -0.663 Q 0.20500000000000002 -0.681 0.22 -0.683 L 0.221 -0.683 L 0.222 -0.683 L 0.234 -0.683 L 0.5700000000000001 -0.683 Q 0.685 -0.683 0.734 -0.615 Q 0.756 -0.583 0.756 -0.545 Q 0.756 -0.464 0.666 -0.404 Q 0.665 -0.404 0.664 -0.403 Q 0.611 -0.369 0.547 -0.357 Q 0.649 -0.34500000000000003 0.687 -0.277 Q 0.7020000000000001 -0.249 0.7020000000000001 -0.216 Q 0.7020000000000001 -0.14300000000000002 0.632 -0.079 L 0.631 -0.078 Q 0.545 0 0.426 0 L 0.069 0 Q 0.044 0 0.042 -0.011 Q 0.042 -0.029 0.057 -0.031 L 0.069 -0.031 Q 0.134 -0.031 0.147 -0.045 Q 0.153 -0.052000000000000005 0.159 -0.073 Q 0.159 -0.074 0.16 -0.078 M 0.311 -0.366 L 0.457 -0.366 Q 0.556 -0.366 0.62 -0.438 Q 0.665 -0.489 0.665 -0.549 Q 0.665 -0.622 0.605 -0.644 Q 0.584 -0.652 0.556 -0.652 L 0.427 -0.652 Q 0.391 -0.652 0.383 -0.642 L 0.383 -0.642 L 0.383 -0.641 L 0.382 -0.641 L 0.382 -0.64 Q 0.378 -0.634 0.373 -0.614 L 0.311 -0.366 M 0.266 -0.031 L 0.402 -0.031 Q 0.498 -0.031 0.561 -0.10300000000000001 Q 0.609 -0.159 0.609 -0.227 Q 0.609 -0.3 0.557 -0.33 Q 0.531 -0.34400000000000003 0.494 -0.34400000000000003 L 0.305 -0.34400000000000003 L 0.23600000000000002 -0.065 Q 0.231 -0.047 0.231 -0.042 Q 0.231 -0.034 0.24 -0.032 L 0.24 -0.032 L 0.24 -0.032 L 0.244 -0.032 Q 0.25 -0.031 0.266 -0.031 Z"/></g><g transform="translate(17.13042857142857,14.061571428571428) scale(0.7,0.7)"><path fill="rgb(0,0,0)" stroke="none" paint-order="stroke fill markers" d=" M 0.294 -0.64 L 0.294 -0.079 Q 0.294 -0.049 0.306 -0.041 Q 0.323 -0.031 0.387 -0.031 L 0.419 -0.031 L 0.419 0 Q 0.384 -0.003 0.257 -0.003 Q 0.13 -0.003 0.095 0 L 0.095 -0.031 L 0.127 -0.031 Q 0.20400000000000001 -0.031 0.215 -0.049 L 0.216 -0.05 Q 0.22 -0.058 0.22 -0.079 L 0.22 -0.597 Q 0.168 -0.5710000000000001 0.089 -0.5710000000000001 L 0.089 -0.602 Q 0.209 -0.602 0.271 -0.666 Q 0.29 -0.666 0.293 -0.659 L 0.293 -0.659 L 0.293 -0.658 Q 0.294 -0.655 0.294 -0.64 Z"/></g></g><g transform="scale(35,35)"><g transform="translate(16.514285714285716,25.168714285714284)"><path fill="rgb(0,0,0)" stroke="none" paint-order="stroke fill markers" d=" M 0.76 -0.6950000000000001 L 0.6970000000000001 -0.44 Q 0.6920000000000001 -0.422 0.687 -0.421 L 0.686 -0.42 L 0.679 -0.42 Q 0.664 -0.42 0.664 -0.43 L 0.667 -0.47900000000000004 L 0.667 -0.481 Q 0.667 -0.605 0.589 -0.652 L 0.588 -0.653 Q 0.553 -0.674 0.506 -0.674 Q 0.4 -0.674 0.305 -0.595 Q 0.281 -0.5760000000000001 0.262 -0.553 Q 0.167 -0.442 0.145 -0.271 Q 0.14100000000000001 -0.24 0.14100000000000001 -0.217 Q 0.14100000000000001 -0.077 0.247 -0.028 Q 0.28800000000000003 -0.009000000000000001 0.337 -0.009000000000000001 Q 0.431 -0.009000000000000001 0.521 -0.082 Q 0.591 -0.14100000000000001 0.622 -0.24 Q 0.624 -0.25 0.635 -0.25 Q 0.647 -0.25 0.647 -0.24 Q 0.647 -0.222 0.624 -0.176 Q 0.593 -0.113 0.537 -0.064 Q 0.438 0.022 0.321 0.022 Q 0.193 0.022 0.116 -0.066 Q 0.05 -0.14100000000000001 0.05 -0.252 Q 0.05 -0.401 0.159 -0.531 Q 0.26 -0.652 0.398 -0.6910000000000001 Q 0.449 -0.705 0.498 -0.705 Q 0.607 -0.705 0.664 -0.616 L 0.734 -0.6930000000000001 Q 0.746 -0.705 0.749 -0.705 Q 0.76 -0.705 0.76 -0.6950000000000001 Z"/></g><g transform="translate(17.229285714285716,25.318714285714282) scale(0.7,0.7)"><path fill="rgb(0,0,0)" stroke="none" paint-order="stroke fill markers" d=" M 0.294 -0.64 L 0.294 -0.079 Q 0.294 -0.049 0.306 -0.041 Q 0.323 -0.031 0.387 -0.031 L 0.419 -0.031 L 0.419 0 Q 0.384 -0.003 0.257 -0.003 Q 0.13 -0.003 0.095 0 L 0.095 -0.031 L 0.127 -0.031 Q 0.20400000000000001 -0.031 0.215 -0.049 L 0.216 -0.05 Q 0.22 -0.058 0.22 -0.079 L 0.22 -0.597 Q 0.168 -0.5710000000000001 0.089 -0.5710000000000001 L 0.089 -0.602 Q 0.209 -0.602 0.271 -0.666 Q 0.29 -0.666 0.293 -0.659 L 0.293 -0.659 L 0.293 -0.658 Q 0.294 -0.655 0.294 -0.64 Z"/></g></g><g transform="scale(35,35)"><g transform="translate(31.942857142857143,7.568714285714286)"><path fill="rgb(0,0,0)" stroke="none" paint-order="stroke fill markers" d=" M 0.179 -0.115 L 0.527 -0.6990000000000001 Q 0.537 -0.715 0.553 -0.716 Q 0.5680000000000001 -0.716 0.5700000000000001 -0.706 Q 0.5710000000000001 -0.7030000000000001 0.5720000000000001 -0.6920000000000001 L 0.633 -0.067 Q 0.636 -0.042 0.645 -0.037 L 0.646 -0.037 L 0.646 -0.037 L 0.646 -0.037 L 0.646 -0.037 L 0.646 -0.036000000000000004 Q 0.658 -0.031 0.6980000000000001 -0.031 Q 0.72 -0.031 0.721 -0.02 Q 0.721 0 0.7030000000000001 0 L 0.591 -0.003 L 0.59 -0.003 L 0.466 0 L 0.465 0 Q 0.451 0 0.451 -0.011 Q 0.459 -0.03 0.47500000000000003 -0.031 Q 0.547 -0.031 0.547 -0.064 Q 0.547 -0.063 0.531 -0.231 L 0.28 -0.231 L 0.20400000000000001 -0.10300000000000001 Q 0.19 -0.078 0.19 -0.066 Q 0.19 -0.035 0.23700000000000002 -0.031 Q 0.253 -0.031 0.253 -0.019 Q 0.253 0 0.234 0 L 0.138 -0.003 L 0.134 -0.003 L 0.05 0 L 0.048 0 Q 0.035 0 0.035 -0.011 Q 0.035 -0.029 0.05 -0.03 L 0.05 -0.031 L 0.056 -0.031 Q 0.11900000000000001 -0.035 0.159 -0.085 Q 0.169 -0.098 0.179 -0.115 M 0.299 -0.262 L 0.528 -0.262 L 0.496 -0.592 L 0.299 -0.262 Z"/></g><g transform="translate(32.69285714285714,7.718714285714286) scale(0.7,0.7)"><path fill="rgb(0,0,0)" stroke="none" paint-order="stroke fill markers" d=" M 0.449 -0.17400000000000002 L 0.449 -0.17400000000000002 L 0.421 0 L 0.05 0 Q 0.05 -0.025 0.056 -0.032 L 0.061 -0.037 L 0.253 -0.251 Q 0.358 -0.369 0.358 -0.47200000000000003 Q 0.358 -0.561 0.304 -0.607 L 0.303 -0.608 L 0.302 -0.608 Q 0.27 -0.635 0.224 -0.635 Q 0.152 -0.635 0.109 -0.5730000000000001 Q 0.097 -0.555 0.089 -0.533 Q 0.092 -0.534 0.10200000000000001 -0.534 Q 0.14200000000000002 -0.534 0.153 -0.498 L 0.153 -0.497 Q 0.155 -0.49 0.155 -0.482 Q 0.155 -0.442 0.117 -0.431 Q 0.109 -0.429 0.10300000000000001 -0.429 Q 0.066 -0.429 0.054 -0.46 Q 0.05 -0.47100000000000003 0.05 -0.485 Q 0.05 -0.562 0.109 -0.617 Q 0.162 -0.666 0.23700000000000002 -0.666 Q 0.34700000000000003 -0.666 0.40800000000000003 -0.592 Q 0.443 -0.549 0.448 -0.49 Q 0.449 -0.481 0.449 -0.47200000000000003 Q 0.449 -0.399 0.394 -0.333 Q 0.365 -0.299 0.304 -0.243 L 0.243 -0.189 L 0.233 -0.18 L 0.127 -0.077 L 0.307 -0.077 Q 0.395 -0.077 0.402 -0.085 Q 0.41200000000000003 -0.099 0.424 -0.17400000000000002 L 0.449 -0.17400000000000002 Z"/></g></g><g transform="scale(35,35)"><g transform="translate(32.114285714285714,19.368714285714287)"><path fill="rgb(0,0,0)" stroke="none" paint-order="stroke fill markers" d=" M 0.16 -0.078 L 0.294 -0.615 Q 0.298 -0.631 0.298 -0.634 Q 0.298 -0.646 0.28200000000000003 -0.649 L 0.281 -0.649 L 0.28 -0.649 Q 0.277 -0.649 0.271 -0.65 Q 0.254 -0.652 0.233 -0.652 Q 0.20700000000000002 -0.652 0.20500000000000002 -0.663 Q 0.20500000000000002 -0.681 0.22 -0.683 L 0.221 -0.683 L 0.222 -0.683 L 0.234 -0.683 L 0.5700000000000001 -0.683 Q 0.685 -0.683 0.734 -0.615 Q 0.756 -0.583 0.756 -0.545 Q 0.756 -0.464 0.666 -0.404 Q 0.665 -0.404 0.664 -0.403 Q 0.611 -0.369 0.547 -0.357 Q 0.649 -0.34500000000000003 0.687 -0.277 Q 0.7020000000000001 -0.249 0.7020000000000001 -0.216 Q 0.7020000000000001 -0.14300000000000002 0.632 -0.079 L 0.631 -0.078 Q 0.545 0 0.426 0 L 0.069 0 Q 0.044 0 0.042 -0.011 Q 0.042 -0.029 0.057 -0.031 L 0.069 -0.031 Q 0.134 -0.031 0.147 -0.045 Q 0.153 -0.052000000000000005 0.159 -0.073 Q 0.159 -0.074 0.16 -0.078 M 0.311 -0.366 L 0.457 -0.366 Q 0.556 -0.366 0.62 -0.438 Q 0.665 -0.489 0.665 -0.549 Q 0.665 -0.622 0.605 -0.644 Q 0.584 -0.652 0.556 -0.652 L 0.427 -0.652 Q 0.391 -0.652 0.383 -0.642 L 0.383 -0.642 L 0.383 -0.641 L 0.382 -0.641 L 0.382 -0.64 Q 0.378 -0.634 0.373 -0.614 L 0.311 -0.366 M 0.266 -0.031 L 0.402 -0.031 Q 0.498 -0.031 0.561 -0.10300000000000001 Q 0.609 -0.159 0.609 -0.227 Q 0.609 -0.3 0.557 -0.33 Q 0.531 -0.34400000000000003 0.494 -0.34400000000000003 L 0.305 -0.34400000000000003 L 0.23600000000000002 -0.065 Q 0.231 -0.047 0.231 -0.042 Q 0.231 -0.034 0.24 -0.032 L 0.24 -0.032 L 0.24 -0.032 L 0.244 -0.032 Q 0.25 -0.031 0.266 -0.031 Z"/></g><g transform="translate(32.873285714285714,19.518714285714285) scale(0.7,0.7)"><path fill="rgb(0,0,0)" stroke="none" paint-order="stroke fill markers" d=" M 0.449 -0.17400000000000002 L 0.449 -0.17400000000000002 L 0.421 0 L 0.05 0 Q 0.05 -0.025 0.056 -0.032 L 0.061 -0.037 L 0.253 -0.251 Q 0.358 -0.369 0.358 -0.47200000000000003 Q 0.358 -0.561 0.304 -0.607 L 0.303 -0.608 L 0.302 -0.608 Q 0.27 -0.635 0.224 -0.635 Q 0.152 -0.635 0.109 -0.5730000000000001 Q 0.097 -0.555 0.089 -0.533 Q 0.092 -0.534 0.10200000000000001 -0.534 Q 0.14200000000000002 -0.534 0.153 -0.498 L 0.153 -0.497 Q 0.155 -0.49 0.155 -0.482 Q 0.155 -0.442 0.117 -0.431 Q 0.109 -0.429 0.10300000000000001 -0.429 Q 0.066 -0.429 0.054 -0.46 Q 0.05 -0.47100000000000003 0.05 -0.485 Q 0.05 -0.562 0.109 -0.617 Q 0.162 -0.666 0.23700000000000002 -0.666 Q 0.34700000000000003 -0.666 0.40800000000000003 -0.592 Q 0.443 -0.549 0.448 -0.49 Q 0.449 -0.481 0.449 -0.47200000000000003 Q 0.449 -0.399 0.394 -0.333 Q 0.365 -0.299 0.304 -0.243 L 0.243 -0.189 L 0.233 -0.18 L 0.127 -0.077 L 0.307 -0.077 Q 0.395 -0.077 0.402 -0.085 Q 0.41200000000000003 -0.099 0.424 -0.17400000000000002 L 0.449 -0.17400000000000002 Z"/></g></g><g transform="scale(35,35)"><g transform="translate(45.8,13.968714285714286)"><path fill="rgb(0,0,0)" stroke="none" paint-order="stroke fill markers" d=" M 0.179 -0.115 L 0.527 -0.6990000000000001 Q 0.537 -0.715 0.553 -0.716 Q 0.5680000000000001 -0.716 0.5700000000000001 -0.706 Q 0.5710000000000001 -0.7030000000000001 0.5720000000000001 -0.6920000000000001 L 0.633 -0.067 Q 0.636 -0.042 0.645 -0.037 L 0.646 -0.037 L 0.646 -0.037 L 0.646 -0.037 L 0.646 -0.037 L 0.646 -0.036000000000000004 Q 0.658 -0.031 0.6980000000000001 -0.031 Q 0.72 -0.031 0.721 -0.02 Q 0.721 0 0.7030000000000001 0 L 0.591 -0.003 L 0.59 -0.003 L 0.466 0 L 0.465 0 Q 0.451 0 0.451 -0.011 Q 0.459 -0.03 0.47500000000000003 -0.031 Q 0.547 -0.031 0.547 -0.064 Q 0.547 -0.063 0.531 -0.231 L 0.28 -0.231 L 0.20400000000000001 -0.10300000000000001 Q 0.19 -0.078 0.19 -0.066 Q 0.19 -0.035 0.23700000000000002 -0.031 Q 0.253 -0.031 0.253 -0.019 Q 0.253 0 0.234 0 L 0.138 -0.003 L 0.134 -0.003 L 0.05 0 L 0.048 0 Q 0.035 0 0.035 -0.011 Q 0.035 -0.029 0.05 -0.03 L 0.05 -0.031 L 0.056 -0.031 Q 0.11900000000000001 -0.035 0.159 -0.085 Q 0.169 -0.098 0.179 -0.115 M 0.299 -0.262 L 0.528 -0.262 L 0.496 -0.592 L 0.299 -0.262 Z"/></g><g transform="translate(46.55,14.118714285714287) scale(0.7,0.7)"><path fill="rgb(0,0,0)" stroke="none" paint-order="stroke fill markers" d=" M 0.29 -0.352 L 0.29 -0.352 Q 0.39 -0.332 0.434 -0.254 Q 0.457 -0.215 0.457 -0.171 Q 0.457 -0.08600000000000001 0.387 -0.028 Q 0.326 0.022 0.244 0.022 Q 0.145 0.022 0.085 -0.037 Q 0.042 -0.079 0.042 -0.135 Q 0.042 -0.182 0.084 -0.191 Q 0.091 -0.193 0.098 -0.193 Q 0.136 -0.193 0.149 -0.161 Q 0.153 -0.148 0.154 -0.137 Q 0.154 -0.097 0.11800000000000001 -0.085 Q 0.10400000000000001 -0.08 0.088 -0.082 Q 0.125 -0.02 0.216 -0.008 Q 0.229 -0.006 0.241 -0.006 Q 0.305 -0.006 0.335 -0.069 Q 0.354 -0.109 0.354 -0.171 Q 0.354 -0.304 0.274 -0.331 Q 0.256 -0.337 0.23500000000000001 -0.337 L 0.191 -0.337 Q 0.169 -0.337 0.167 -0.34800000000000003 Q 0.167 -0.358 0.182 -0.36 Q 0.197 -0.36 0.221 -0.363 Q 0.272 -0.365 0.301 -0.402 L 0.301 -0.403 L 0.302 -0.404 L 0.303 -0.405 L 0.304 -0.405 L 0.31 -0.41500000000000004 Q 0.338 -0.462 0.338 -0.529 Q 0.338 -0.622 0.266 -0.638 Q 0.254 -0.641 0.242 -0.641 Q 0.17200000000000001 -0.641 0.128 -0.601 Q 0.117 -0.591 0.109 -0.579 Q 0.171 -0.579 0.171 -0.529 Q 0.171 -0.493 0.14 -0.481 Q 0.131 -0.47800000000000004 0.12 -0.47800000000000004 Q 0.081 -0.47800000000000004 0.07100000000000001 -0.513 L 0.07100000000000001 -0.513 L 0.07100000000000001 -0.514 Q 0.069 -0.522 0.069 -0.53 Q 0.069 -0.597 0.135 -0.637 Q 0.183 -0.666 0.246 -0.666 Q 0.337 -0.666 0.393 -0.612 L 0.395 -0.61 Q 0.43 -0.5740000000000001 0.43 -0.528 Q 0.43 -0.445 0.359 -0.389 Q 0.328 -0.365 0.29 -0.352 Z"/></g></g><g transform="scale(35,35)"><g transform="translate(8.914285714285715,8.386857142857142)"><path fill="rgb(0,0,0)" stroke="none" paint-order="stroke fill markers" d=" M 0.294 -0.64 L 0.294 -0.079 Q 0.294 -0.049 0.306 -0.041 Q 0.323 -0.031 0.387 -0.031 L 0.419 -0.031 L 0.419 0 Q 0.384 -0.003 0.257 -0.003 Q 0.13 -0.003 0.095 0 L 0.095 -0.031 L 0.127 -0.031 Q 0.20400000000000001 -0.031 0.215 -0.049 L 0.216 -0.05 Q 0.22 -0.058 0.22 -0.079 L 0.22 -0.597 Q 0.168 -0.5710000000000001 0.089 -0.5710000000000001 L 0.089 -0.602 Q 0.209 -0.602 0.271 -0.666 Q 0.29 -0.666 0.293 -0.659 L 0.293 -0.659 L 0.293 -0.658 Q 0.294 -0.655 0.294 -0.64 Z"/></g></g><g transform="scale(35,35)"><g transform="translate(9.885714285714286,12.815428571428571)"><path fill="rgb(0,0,0)" stroke="none" paint-order="stroke fill markers" d=" M 0.449 -0.17400000000000002 L 0.449 -0.17400000000000002 L 0.421 0 L 0.05 0 Q 0.05 -0.025 0.056 -0.032 L 0.061 -0.037 L 0.253 -0.251 Q 0.358 -0.369 0.358 -0.47200000000000003 Q 0.358 -0.561 0.304 -0.607 L 0.303 -0.608 L 0.302 -0.608 Q 0.27 -0.635 0.224 -0.635 Q 0.152 -0.635 0.109 -0.5730000000000001 Q 0.097 -0.555 0.089 -0.533 Q 0.092 -0.534 0.10200000000000001 -0.534 Q 0.14200000000000002 -0.534 0.153 -0.498 L 0.153 -0.497 Q 0.155 -0.49 0.155 -0.482 Q 0.155 -0.442 0.117 -0.431 Q 0.109 -0.429 0.10300000000000001 -0.429 Q 0.066 -0.429 0.054 -0.46 Q 0.05 -0.47100000000000003 0.05 -0.485 Q 0.05 -0.562 0.109 -0.617 Q 0.162 -0.666 0.23700000000000002 -0.666 Q 0.34700000000000003 -0.666 0.40800000000000003 -0.592 Q 0.443 -0.549 0.448 -0.49 Q 0.449 -0.481 0.449 -0.47200000000000003 Q 0.449 -0.399 0.394 -0.333 Q 0.365 -0.299 0.304 -0.243 L 0.243 -0.189 L 0.233 -0.18 L 0.127 -0.077 L 0.307 -0.077 Q 0.395 -0.077 0.402 -0.085 Q 0.41200000000000003 -0.099 0.424 -0.17400000000000002 L 0.449 -0.17400000000000002 Z"/></g></g><g transform="scale(35,35)"><g transform="translate(11.17142857142857,18.672571428571427)"><path fill="rgb(0,0,0)" stroke="none" paint-order="stroke fill markers" d=" M 0.29 -0.352 L 0.29 -0.352 Q 0.39 -0.332 0.434 -0.254 Q 0.457 -0.215 0.457 -0.171 Q 0.457 -0.08600000000000001 0.387 -0.028 Q 0.326 0.022 0.244 0.022 Q 0.145 0.022 0.085 -0.037 Q 0.042 -0.079 0.042 -0.135 Q 0.042 -0.182 0.084 -0.191 Q 0.091 -0.193 0.098 -0.193 Q 0.136 -0.193 0.149 -0.161 Q 0.153 -0.148 0.154 -0.137 Q 0.154 -0.097 0.11800000000000001 -0.085 Q 0.10400000000000001 -0.08 0.088 -0.082 Q 0.125 -0.02 0.216 -0.008 Q 0.229 -0.006 0.241 -0.006 Q 0.305 -0.006 0.335 -0.069 Q 0.354 -0.109 0.354 -0.171 Q 0.354 -0.304 0.274 -0.331 Q 0.256 -0.337 0.23500000000000001 -0.337 L 0.191 -0.337 Q 0.169 -0.337 0.167 -0.34800000000000003 Q 0.167 -0.358 0.182 -0.36 Q 0.197 -0.36 0.221 -0.363 Q 0.272 -0.365 0.301 -0.402 L 0.301 -0.403 L 0.302 -0.404 L 0.303 -0.405 L 0.304 -0.405 L 0.31 -0.41500000000000004 Q 0.338 -0.462 0.338 -0.529 Q 0.338 -0.622 0.266 -0.638 Q 0.254 -0.641 0.242 -0.641 Q 0.17200000000000001 -0.641 0.128 -0.601 Q 0.117 -0.591 0.109 -0.579 Q 0.171 -0.579 0.171 -0.529 Q 0.171 -0.493 0.14 -0.481 Q 0.131 -0.47800000000000004 0.12 -0.47800000000000004 Q 0.081 -0.47800000000000004 0.07100000000000001 -0.513 L 0.07100000000000001 -0.513 L 0.07100000000000001 -0.514 Q 0.069 -0.522 0.069 -0.53 Q 0.069 -0.597 0.135 -0.637 Q 0.183 -0.666 0.246 -0.666 Q 0.337 -0.666 0.393 -0.612 L 0.395 -0.61 Q 0.43 -0.5740000000000001 0.43 -0.528 Q 0.43 -0.445 0.359 -0.389 Q 0.328 -0.365 0.29 -0.352 Z"/></g></g><g transform="scale(35,35)"><g transform="translate(23.914285714285715,5.529714285714286)"><path fill="rgb(0,0,0)" stroke="none" paint-order="stroke fill markers" d=" M 0.028 -0.165 L 0.028 -0.196 L 0.335 -0.665 Q 0.343 -0.677 0.355 -0.677 Q 0.369 -0.677 0.371 -0.666 L 0.371 -0.651 L 0.371 -0.196 L 0.47100000000000003 -0.196 L 0.47100000000000003 -0.165 L 0.371 -0.165 L 0.371 -0.078 Q 0.371 -0.047 0.383 -0.04 Q 0.397 -0.031 0.447 -0.031 L 0.468 -0.031 L 0.468 0 Q 0.427 -0.003 0.332 -0.003 Q 0.23800000000000002 -0.003 0.197 0 L 0.197 -0.031 L 0.218 -0.031 Q 0.28 -0.031 0.29 -0.048 Q 0.294 -0.055 0.294 -0.078 L 0.294 -0.165 L 0.028 -0.165 M 0.3 -0.196 L 0.3 -0.5690000000000001 L 0.056 -0.196 L 0.3 -0.196 Z"/></g></g><g transform="scale(35,35)"><g transform="translate(21.228571428571428,7.844)"><path fill="rgb(0,0,0)" stroke="none" paint-order="stroke fill markers" d=" M 0.449 -0.201 L 0.449 -0.201 Q 0.449 -0.098 0.372 -0.031 Q 0.31 0.022 0.231 0.022 Q 0.139 0.022 0.085 -0.055 Q 0.05 -0.10400000000000001 0.05 -0.161 Q 0.05 -0.20700000000000002 0.091 -0.213 Q 0.095 -0.214 0.099 -0.214 Q 0.136 -0.214 0.147 -0.181 Q 0.149 -0.17300000000000001 0.149 -0.165 Q 0.149 -0.133 0.121 -0.121 Q 0.111 -0.116 0.099 -0.116 Q 0.088 -0.116 0.082 -0.11800000000000001 Q 0.1 -0.055 0.159 -0.024 Q 0.192 -0.006 0.229 -0.006 Q 0.296 -0.006 0.336 -0.07100000000000001 Q 0.36 -0.113 0.36 -0.20800000000000002 Q 0.36 -0.292 0.342 -0.334 Q 0.314 -0.398 0.257 -0.398 Q 0.176 -0.398 0.128 -0.328 Q 0.122 -0.319 0.115 -0.319 Q 0.10200000000000001 -0.319 0.101 -0.333 L 0.101 -0.34500000000000003 L 0.101 -0.641 Q 0.101 -0.664 0.111 -0.665 Q 0.115 -0.665 0.123 -0.662 Q 0.186 -0.634 0.256 -0.634 Q 0.328 -0.634 0.392 -0.663 Q 0.397 -0.666 0.4 -0.666 Q 0.41000000000000003 -0.666 0.41000000000000003 -0.655 Q 0.41000000000000003 -0.642 0.378 -0.613 Q 0.31 -0.551 0.217 -0.551 Q 0.17500000000000002 -0.551 0.132 -0.5640000000000001 L 0.132 -0.369 Q 0.184 -0.42 0.259 -0.42 Q 0.34700000000000003 -0.42 0.404 -0.343 Q 0.449 -0.28200000000000003 0.449 -0.201 Z"/></g></g><g transform="scale(35,35)"><g transform="translate(20.485714285714284,11.415428571428572)"><path fill="rgb(0,0,0)" stroke="none" paint-order="stroke fill markers" d=" M 0.132 -0.328 L 0.132 -0.328 Q 0.17300000000000001 -0.427 0.257 -0.427 Q 0.34900000000000003 -0.427 0.40800000000000003 -0.35100000000000003 Q 0.441 -0.31 0.452 -0.255 Q 0.457 -0.23 0.457 -0.20400000000000001 Q 0.457 -0.093 0.38 -0.026000000000000002 Q 0.324 0.022 0.251 0.022 Q 0.149 0.022 0.092 -0.075 Q 0.042 -0.162 0.042 -0.316 Q 0.042 -0.489 0.14 -0.591 Q 0.213 -0.666 0.305 -0.666 Q 0.392 -0.666 0.422 -0.605 Q 0.432 -0.584 0.432 -0.558 Q 0.432 -0.518 0.395 -0.511 Q 0.39 -0.51 0.386 -0.51 Q 0.354 -0.51 0.343 -0.538 Q 0.34 -0.546 0.34 -0.556 Q 0.34 -0.601 0.395 -0.601 Q 0.369 -0.641 0.307 -0.641 Q 0.23700000000000002 -0.641 0.189 -0.578 Q 0.132 -0.503 0.132 -0.352 L 0.132 -0.328 M 0.251 -0.006 L 0.251 -0.006 Q 0.318 -0.006 0.35000000000000003 -0.07100000000000001 Q 0.367 -0.107 0.367 -0.20500000000000002 Q 0.367 -0.305 0.34900000000000003 -0.342 Q 0.318 -0.404 0.256 -0.404 Q 0.177 -0.404 0.147 -0.31 Q 0.134 -0.271 0.134 -0.226 Q 0.134 -0.128 0.152 -0.081 Q 0.171 -0.035 0.211 -0.015 Q 0.23 -0.006 0.251 -0.006 Z"/></g></g><g transform="scale(35,35)"><g transform="translate(22.65714285714286,17.01542857142857)"><path fill="rgb(0,0,0)" stroke="none" paint-order="stroke fill markers" d=" M 0.47600000000000003 -0.609 L 0.341 -0.419 Q 0.298 -0.359 0.279 -0.248 Q 0.268 -0.17400000000000002 0.268 -0.084 L 0.268 -0.033 Q 0.268 0.022 0.222 0.022 Q 0.176 0.022 0.176 -0.033 Q 0.176 -0.2 0.273 -0.368 L 0.299 -0.40900000000000003 L 0.41100000000000003 -0.5670000000000001 L 0.20400000000000001 -0.5670000000000001 Q 0.113 -0.5670000000000001 0.106 -0.561 Q 0.096 -0.552 0.081 -0.47000000000000003 L 0.056 -0.47000000000000003 L 0.089 -0.676 L 0.114 -0.676 Q 0.11800000000000001 -0.659 0.132 -0.653 L 0.133 -0.653 L 0.133 -0.653 Q 0.159 -0.644 0.242 -0.644 L 0.485 -0.644 Q 0.485 -0.621 0.47600000000000003 -0.609 Z"/></g></g><g transform="scale(35,35)"><g transform="translate(25.37142857142857,22.644)"><path fill="rgb(0,0,0)" stroke="none" paint-order="stroke fill markers" d=" M 0.163 -0.457 L 0.28700000000000003 -0.377 Q 0.386 -0.435 0.386 -0.517 Q 0.386 -0.583 0.326 -0.62 Q 0.291 -0.641 0.249 -0.641 Q 0.177 -0.641 0.136 -0.596 L 0.136 -0.596 L 0.135 -0.595 Q 0.113 -0.5690000000000001 0.113 -0.538 Q 0.113 -0.49 0.163 -0.457 M 0.309 -0.362 L 0.309 -0.362 Q 0.386 -0.314 0.403 -0.296 Q 0.406 -0.294 0.40800000000000003 -0.291 Q 0.457 -0.23700000000000002 0.457 -0.168 Q 0.457 -0.079 0.383 -0.023 Q 0.325 0.022 0.249 0.022 Q 0.154 0.022 0.092 -0.037 Q 0.042 -0.085 0.042 -0.151 Q 0.042 -0.263 0.186 -0.335 Q 0.124 -0.377 0.113 -0.389 Q 0.069 -0.438 0.069 -0.499 Q 0.069 -0.579 0.136 -0.629 Q 0.186 -0.666 0.25 -0.666 Q 0.337 -0.666 0.391 -0.611 Q 0.43 -0.5710000000000001 0.43 -0.517 Q 0.43 -0.424 0.309 -0.362 M 0.209 -0.32 L 0.209 -0.32 Q 0.097 -0.25 0.092 -0.151 Q 0.092 -0.078 0.155 -0.035 Q 0.197 -0.006 0.25 -0.006 Q 0.328 -0.006 0.375 -0.055 Q 0.40700000000000003 -0.089 0.40700000000000003 -0.132 Q 0.40700000000000003 -0.19 0.343 -0.23500000000000001 Q 0.341 -0.23600000000000002 0.332 -0.242 L 0.209 -0.32 Z"/></g></g><g transform="scale(35,35)"><g transform="translate(36.91428571428571,9.358285714285714)"><path fill="rgb(0,0,0)" stroke="none" paint-order="stroke fill markers" d=" M 0.367 -0.318 Q 0.327 -0.218 0.242 -0.218 Q 0.149 -0.218 0.09 -0.294 L 0.09 -0.295 Q 0.042 -0.357 0.042 -0.441 Q 0.042 -0.525 0.091 -0.586 L 0.106 -0.603 Q 0.166 -0.666 0.253 -0.666 Q 0.353 -0.666 0.40800000000000003 -0.5690000000000001 Q 0.457 -0.482 0.457 -0.329 Q 0.457 -0.158 0.365 -0.055 Q 0.296 0.022 0.20600000000000002 0.022 Q 0.108 0.022 0.077 -0.039 Q 0.067 -0.06 0.067 -0.08600000000000001 Q 0.067 -0.126 0.10400000000000001 -0.133 Q 0.109 -0.134 0.113 -0.134 Q 0.145 -0.134 0.156 -0.106 Q 0.159 -0.098 0.159 -0.088 Q 0.159 -0.048 0.11900000000000001 -0.043000000000000003 Q 0.113 -0.042 0.107 -0.042 Q 0.136 -0.006 0.20500000000000002 -0.006 Q 0.276 -0.006 0.321 -0.077 Q 0.367 -0.15 0.367 -0.28600000000000003 L 0.367 -0.318 M 0.243 -0.241 Q 0.321 -0.241 0.352 -0.333 Q 0.365 -0.374 0.365 -0.421 Q 0.365 -0.519 0.34900000000000003 -0.562 Q 0.323 -0.632 0.266 -0.64 Q 0.259 -0.641 0.253 -0.641 Q 0.187 -0.641 0.153 -0.578 Q 0.132 -0.541 0.132 -0.452 L 0.132 -0.44 Q 0.132 -0.341 0.15 -0.304 Q 0.181 -0.241 0.243 -0.241 Z"/></g></g><g transform="scale(35,35)"><g transform="translate(36.94285714285714,17.27257142857143)"><path fill="rgb(0,0,0)" stroke="none" paint-order="stroke fill markers" d=" M 0.294 -0.64 L 0.294 -0.079 Q 0.294 -0.049 0.306 -0.041 Q 0.323 -0.031 0.387 -0.031 L 0.419 -0.031 L 0.419 0 Q 0.384 -0.003 0.257 -0.003 Q 0.13 -0.003 0.095 0 L 0.095 -0.031 L 0.127 -0.031 Q 0.20400000000000001 -0.031 0.215 -0.049 L 0.216 -0.05 Q 0.22 -0.058 0.22 -0.079 L 0.22 -0.597 Q 0.168 -0.5710000000000001 0.089 -0.5710000000000001 L 0.089 -0.602 Q 0.209 -0.602 0.271 -0.666 Q 0.29 -0.666 0.293 -0.659 L 0.293 -0.659 L 0.293 -0.658 Q 0.294 -0.655 0.294 -0.64 Z"/></g><g transform="translate(37.44285714285714,17.27257142857143)"><path fill="rgb(0,0,0)" stroke="none" paint-order="stroke fill markers" d=" M 0.46 -0.32 Q 0.46 -0.17400000000000002 0.423 -0.094 Q 0.364 0.018000000000000002 0.249 0.022 Q 0.158 0.022 0.10300000000000001 -0.05 Q 0.092 -0.063 0.084 -0.079 Q 0.039 -0.162 0.039 -0.32 Q 0.039 -0.467 0.076 -0.547 Q 0.126 -0.659 0.23800000000000002 -0.666 L 0.25 -0.666 Q 0.339 -0.666 0.395 -0.595 L 0.395 -0.594 Q 0.40900000000000003 -0.5760000000000001 0.42 -0.554 Q 0.46 -0.46900000000000003 0.46 -0.32 M 0.249 0 L 0.249 0 Q 0.312 0 0.34600000000000003 -0.061 Q 0.36 -0.088 0.366 -0.125 Q 0.377 -0.189 0.377 -0.332 Q 0.377 -0.47100000000000003 0.367 -0.527 Q 0.34900000000000003 -0.622 0.275 -0.641 Q 0.262 -0.644 0.249 -0.644 Q 0.179 -0.644 0.147 -0.5740000000000001 Q 0.136 -0.55 0.13 -0.516 Q 0.122 -0.462 0.122 -0.332 Q 0.122 -0.181 0.133 -0.121 Q 0.151 -0.025 0.221 -0.004 Q 0.23500000000000001 0 0.249 0 Z"/></g></g></g></g></svg>